<svg width="68" height="69" viewBox="0 0 68 69" fill="none" xmlns="http://www.w3.org/2000/svg">
<path d="M28.5001 28.3H67.5001C64.8001 12.2 50.8001 0 34.0001 0C29.5 0 30.3001 0.2 28.5001 0.5V28.4V28.3Z" fill="#DD362F"/>
<path d="M17.6 4.20001C8.7 9.10001 2.3 17.9 0.5 28.3H17.6V4.20001Z" fill="#DD362F"/>
<path d="M67.7 38.4H28.5V67.6C30.3 67.9 32.1 68.1 34 68.1C51.3 68.1 65.6 55.2 67.7 38.5V38.4Z" fill="#DD362F"/>
<path d="M0.300049 38.4C1.70005 49.3 8.30005 58.7 17.6 63.8V38.4H0.300049Z" fill="#DD362F"/>
<path d="M28.5 0.399994C24.6 0.999994 20.9 2.29999 17.6 4.19999V28.3H0.5C0.2 30.2 0 32.1 0 34C0 35.9 0.1 37 0.3 38.4H17.6V63.8C20.9 65.6 24.6 66.9 28.5 67.6V38.4H67.7C67.9 37 68 35.5 68 34C68 32.5 67.8 30.2 67.5 28.3H28.5V0.399994Z" fill="white"/>
</svg>
