<svg width="74" height="74" viewBox="0 0 74 74" fill="none" xmlns="http://www.w3.org/2000/svg">
<path d="M23.9 2.2998C9.9 7.5998 0 20.9998 0 36.7998C0 52.5998 9.9 65.9998 23.9 71.1998V2.2998Z" fill="#098442"/>
<path d="M49.6 37V2.3C45.6 0.8 41.3 0 36.8 0C32.3 0 28 0.8 24 2.3V71.2C28 72.7 32.3 73.5 36.8 73.5C41.3 73.5 45.6 72.7 49.6 71.2V37Z" fill="white"/>
<path d="M49.6992 71.1998C63.5992 65.9998 73.5992 52.4998 73.5992 36.7998C73.5992 21.0998 63.5992 7.5998 49.6992 2.2998V71.1998Z" fill="#E12826"/>
</svg>
