<svg width="73" height="73" viewBox="0 0 73 73" fill="none" xmlns="http://www.w3.org/2000/svg">
<path d="M36.5 0.356079C16.7 0.356079 0.700024 16.2561 0.400024 35.9561H72.6C72.3 16.2561 56.3 0.356079 36.5 0.356079Z" fill="#263779"/>
<path d="M36.5 72.5561C56.4 72.5561 72.6 56.3561 72.6 36.4561C72.6 16.5561 72.6 36.0561 72.6 35.9561H0.400024C0.400024 36.1561 0.400024 36.3561 0.400024 36.4561C0.400024 56.3561 16.6 72.5561 36.5 72.5561Z" fill="#CE2028"/>
<path d="M25.0999 19.9561L24.8999 27.2561H17.4999C16.5999 25.4561 15.7999 23.9561 15.7999 21.9561C15.7999 19.9561 17.0999 18.9561 19.0999 18.9561C21.0999 18.9561 23.3999 19.6561 25.0999 20.0561V19.9561Z" fill="#FFD83E"/>
<path d="M20.4999 19.4561C21.7999 19.6561 24.4999 20.9561 24.1999 22.6561C23.7999 25.1561 22.2999 24.1561 20.3999 23.7561L18.9999 24.2561C18.4999 24.7561 17.6999 25.2561 17.1999 24.6561H16.2999V27.9561H25.7999V19.8561L20.4999 19.3561V19.4561Z" fill="#010101"/>
<path d="M25.7 28.1561H16.2V24.8561H17.1C17.2 25.0561 17.4 25.1561 17.6 25.1561C18 25.1561 18.5 24.7561 18.7 24.4561L20.1 23.9561C20.5 23.9561 20.8 24.1561 21.1 24.1561C21.6 24.2561 22.1 24.3561 22.4 24.3561C22.9 24.3561 23.5 24.1561 23.7 22.8561C23.7 22.4561 23.7 22.0561 23.4 21.6561C22.7 20.6561 21 19.9561 20.1 19.7561L25.4 20.2561V28.3561L25.7 28.1561ZM16.3 27.9561H25.6V20.0561L21.4 19.6561C22.3 19.9561 23.3 20.5561 23.9 21.3561C24.2 21.7561 24.3 22.2561 24.3 22.7561C24.1 23.9561 23.6 24.4561 22.8 24.4561C22.4 24.4561 21.9 24.3561 21.4 24.1561C21.1 24.1561 20.7 23.9561 20.4 23.9561L19 24.4561C18.7 24.7561 18.2 25.1561 17.8 25.1561C17.6 25.1561 17.3 25.0561 17.2 24.8561H16.5V28.0561L16.3 27.9561Z" fill="#010101"/>
<path d="M24.7 18.3561C25 18.3561 25.3 18.6561 25.3 18.9561C25.3 19.2561 25 19.5561 24.7 19.5561C24.4 19.5561 24.1 19.2561 24.1 18.9561C24.1 18.6561 24.4 18.3561 24.7 18.3561Z" fill="#FFD83E"/>
<path d="M24.7 19.5561C24.3 19.5561 24 19.2561 24 18.8561C24 18.4561 24.3 18.1561 24.7 18.1561C25.1 18.1561 25.4 18.4561 25.4 18.8561C25.4 19.2561 25.1 19.5561 24.7 19.5561ZM24.7 18.4561C24.4 18.4561 24.2 18.6561 24.2 18.9561C24.2 19.2561 24.4 19.4561 24.7 19.4561C25 19.4561 25.2 19.2561 25.2 18.9561C25.2 18.6561 25 18.4561 24.7 18.4561Z" fill="#010101"/>
<path d="M23.3999 18.0561C23.6999 18.0561 23.9999 18.3561 23.9999 18.6561C23.9999 18.9561 23.6999 19.2561 23.3999 19.2561C23.0999 19.2561 22.7999 18.9561 22.7999 18.6561C22.7999 18.3561 23.0999 18.0561 23.3999 18.0561Z" fill="#FFD83E"/>
<path d="M23.4 19.2561C23 19.2561 22.7 18.9561 22.7 18.5561C22.7 18.1561 23 17.8561 23.4 17.8561C23.8 17.8561 24.1 18.1561 24.1 18.5561C24.1 18.9561 23.8 19.2561 23.4 19.2561ZM23.4 18.1561C23.1 18.1561 22.9 18.3561 22.9 18.6561C22.9 18.9561 23.1 19.1561 23.4 19.1561C23.7 19.1561 23.9 18.9561 23.9 18.6561C23.9 18.3561 23.7 18.1561 23.4 18.1561Z" fill="#010101"/>
<path d="M22.1 17.6561C22.4 17.6561 22.7 17.9561 22.7 18.2561C22.7 18.5561 22.4 18.8561 22.1 18.8561C21.8 18.8561 21.5 18.5561 21.5 18.2561C21.5 17.9561 21.8 17.6561 22.1 17.6561Z" fill="#FFD83E"/>
<path d="M22.1 18.9561C21.7 18.9561 21.4 18.6561 21.4 18.2561C21.4 17.8561 21.7 17.5561 22.1 17.5561C22.5 17.5561 22.8 17.8561 22.8 18.2561C22.8 18.6561 22.5 18.9561 22.1 18.9561ZM22.1 17.8561C21.8 17.8561 21.6 18.0561 21.6 18.3561C21.6 18.6561 21.8 18.8561 22.1 18.8561C22.4 18.8561 22.6 18.6561 22.6 18.3561C22.6 18.0561 22.4 17.8561 22.1 17.8561Z" fill="#010101"/>
<path d="M20.8 18.6561C21.1313 18.6561 21.4 18.3874 21.4 18.0561C21.4 17.7247 21.1313 17.4561 20.8 17.4561C20.4686 17.4561 20.2 17.7247 20.2 18.0561C20.2 18.3874 20.4686 18.6561 20.8 18.6561Z" fill="#FFD83E"/>
<path d="M20.8 18.7561C20.4 18.7561 20.1 18.4561 20.1 18.0561C20.1 17.6561 20.4 17.3561 20.8 17.3561C21.2 17.3561 21.5 17.6561 21.5 18.0561C21.5 18.4561 21.2 18.7561 20.8 18.7561ZM20.8 17.6561C20.5 17.6561 20.3 17.8561 20.3 18.1561C20.3 18.4561 20.5 18.6561 20.8 18.6561C21.1 18.6561 21.3 18.4561 21.3 18.1561C21.3 17.8561 21.1 17.6561 20.8 17.6561Z" fill="#010101"/>
<path d="M19.5 17.3561C19.8 17.3561 20.1 17.6561 20.1 17.9561C20.1 18.2561 19.8 18.5561 19.5 18.5561C19.2 18.5561 18.9 18.2561 18.9 17.9561C18.9 17.6561 19.2 17.3561 19.5 17.3561Z" fill="#FFD83E"/>
<path d="M19.4999 18.5561C19.0999 18.5561 18.7999 18.2561 18.7999 17.8561C18.7999 17.4561 19.0999 17.1561 19.4999 17.1561C19.8999 17.1561 20.1999 17.4561 20.1999 17.8561C20.1999 18.2561 19.8999 18.5561 19.4999 18.5561ZM19.4999 17.4561C19.1999 17.4561 18.9999 17.6561 18.9999 17.9561C18.9999 18.2561 19.1999 18.4561 19.4999 18.4561C19.7999 18.4561 19.9999 18.2561 19.9999 17.9561C19.9999 17.6561 19.7999 17.4561 19.4999 17.4561Z" fill="#010101"/>
<path d="M18.2 17.3561C18.5 17.3561 18.8 17.6561 18.8 17.9561C18.8 18.2561 18.5 18.5561 18.2 18.5561C17.9 18.5561 17.6 18.2561 17.6 17.9561C17.6 17.6561 17.9 17.3561 18.2 17.3561Z" fill="#FFD83E"/>
<path d="M18.2 18.6561C17.8 18.6561 17.5 18.3561 17.5 17.9561C17.5 17.5561 17.8 17.2561 18.2 17.2561C18.6 17.2561 18.9 17.5561 18.9 17.9561C18.9 18.3561 18.6 18.6561 18.2 18.6561ZM18.2 17.5561C17.9 17.5561 17.7 17.7561 17.7 18.0561C17.7 18.3561 17.9 18.5561 18.2 18.5561C18.5 18.5561 18.7 18.3561 18.7 18.0561C18.7 17.7561 18.5 17.5561 18.2 17.5561Z" fill="#010101"/>
<path d="M16.8999 17.8561C17.1999 17.8561 17.4999 18.1561 17.4999 18.4561C17.4999 18.7561 17.1999 19.0561 16.8999 19.0561C16.5999 19.0561 16.2999 18.7561 16.2999 18.4561C16.2999 18.1561 16.5999 17.8561 16.8999 17.8561Z" fill="#FFD83E"/>
<path d="M16.9 19.0561C16.5 19.0561 16.2 18.7561 16.2 18.3561C16.2 17.9561 16.5 17.6561 16.9 17.6561C17.3 17.6561 17.6 17.9561 17.6 18.3561C17.6 18.7561 17.3 19.0561 16.9 19.0561ZM16.9 17.9561C16.6 17.9561 16.4 18.1561 16.4 18.4561C16.4 18.7561 16.6 18.9561 16.9 18.9561C17.2 18.9561 17.4 18.7561 17.4 18.4561C17.4 18.1561 17.2 17.9561 16.9 17.9561Z" fill="#010101"/>
<path d="M15.8999 19.7561C16.2313 19.7561 16.4999 19.4874 16.4999 19.1561C16.4999 18.8247 16.2313 18.5561 15.8999 18.5561C15.5686 18.5561 15.2999 18.8247 15.2999 19.1561C15.2999 19.4874 15.5686 19.7561 15.8999 19.7561Z" fill="#FFD83E"/>
<path d="M15.9 19.8561C15.5 19.8561 15.2 19.5561 15.2 19.1561C15.2 18.7561 15.5 18.4561 15.9 18.4561C16.3 18.4561 16.6 18.7561 16.6 19.1561C16.6 19.5561 16.3 19.8561 15.9 19.8561ZM15.9 18.7561C15.6 18.7561 15.4 18.9561 15.4 19.2561C15.4 19.5561 15.6 19.7561 15.9 19.7561C16.2 19.7561 16.4 19.5561 16.4 19.2561C16.4 18.9561 16.2 18.7561 15.9 18.7561Z" fill="#010101"/>
<path d="M15.2 19.6561C15.5 19.6561 15.8 19.9561 15.8 20.2561C15.8 20.5561 15.5 20.8561 15.2 20.8561C14.9 20.8561 14.6 20.5561 14.6 20.2561C14.6 19.9561 14.9 19.6561 15.2 19.6561Z" fill="#FFD83E"/>
<path d="M15.2 20.9561C14.8 20.9561 14.5 20.6561 14.5 20.2561C14.5 19.8561 14.8 19.5561 15.2 19.5561C15.6 19.5561 15.9 19.8561 15.9 20.2561C15.9 20.6561 15.6 20.9561 15.2 20.9561ZM15.2 19.8561C14.9 19.8561 14.7 20.0561 14.7 20.3561C14.7 20.6561 14.9 20.8561 15.2 20.8561C15.5 20.8561 15.7 20.6561 15.7 20.3561C15.7 20.0561 15.5 19.8561 15.2 19.8561Z" fill="#010101"/>
<path d="M14.8 20.8561C15.1 20.8561 15.4 21.1561 15.4 21.4561C15.4 21.7561 15.1 22.0561 14.8 22.0561C14.5 22.0561 14.2 21.7561 14.2 21.4561C14.2 21.1561 14.5 20.8561 14.8 20.8561Z" fill="#FFD83E"/>
<path d="M14.8 22.1561C14.4 22.1561 14.1 21.8561 14.1 21.4561C14.1 21.0561 14.4 20.7561 14.8 20.7561C15.2 20.7561 15.5 21.0561 15.5 21.4561C15.5 21.8561 15.2 22.1561 14.8 22.1561ZM14.8 21.0561C14.5 21.0561 14.3 21.2561 14.3 21.5561C14.3 21.8561 14.5 22.0561 14.8 22.0561C15.1 22.0561 15.3 21.8561 15.3 21.5561C15.3 21.2561 15.1 21.0561 14.8 21.0561Z" fill="#010101"/>
<path d="M14.8 22.1561C15.1 22.1561 15.4 22.4561 15.4 22.7561C15.4 23.0561 15.1 23.3561 14.8 23.3561C14.5 23.3561 14.2 23.0561 14.2 22.7561C14.2 22.4561 14.5 22.1561 14.8 22.1561Z" fill="#FFD83E"/>
<path d="M14.8 23.4561C14.4 23.4561 14.1 23.1561 14.1 22.7561C14.1 22.3561 14.4 22.0561 14.8 22.0561C15.2 22.0561 15.5 22.3561 15.5 22.7561C15.5 23.1561 15.2 23.4561 14.8 23.4561ZM14.8 22.3561C14.5 22.3561 14.3 22.5561 14.3 22.8561C14.3 23.1561 14.5 23.3561 14.8 23.3561C15.1 23.3561 15.3 23.1561 15.3 22.8561C15.3 22.5561 15.1 22.3561 14.8 22.3561Z" fill="#010101"/>
<path d="M15.1 23.4561C15.4 23.4561 15.7 23.7561 15.7 24.0561C15.7 24.3561 15.4 24.6561 15.1 24.6561C14.8 24.6561 14.5 24.3561 14.5 24.0561C14.5 23.7561 14.8 23.4561 15.1 23.4561Z" fill="#FFD83E"/>
<path d="M15.1 24.7561C14.7 24.7561 14.4 24.4561 14.4 24.0561C14.4 23.6561 14.7 23.3561 15.1 23.3561C15.5 23.3561 15.8 23.6561 15.8 24.0561C15.8 24.4561 15.5 24.7561 15.1 24.7561ZM15.1 23.6561C14.8 23.6561 14.6 23.8561 14.6 24.1561C14.6 24.4561 14.8 24.6561 15.1 24.6561C15.4 24.6561 15.6 24.4561 15.6 24.1561C15.6 23.8561 15.4 23.6561 15.1 23.6561Z" fill="#010101"/>
<path d="M24.9 19.6561V20.3561C23.4 20.1561 21.4 19.3561 19.5 19.3561C17.6 19.3561 16.4 20.0561 16.4 21.8561C16.4 23.6561 17.1 25.1561 18.1 26.7561L17.1 27.2561C16.2 25.4561 15.4 23.9561 15.4 21.9561C15.4 19.9561 16.7 18.5561 19 18.5561C21.3 18.5561 23.1 19.2561 24.8 19.6561H24.9Z" fill="#FFD83E"/>
<path d="M17.0999 27.3561C17.0999 27.3561 17.0999 27.3561 16.9999 27.3561C16.0999 25.6561 15.2999 24.1561 15.2999 22.0561C15.2999 19.9561 16.5999 18.5561 19.0999 18.5561C21.5999 18.5561 22.2999 18.9561 23.6999 19.3561C24.0999 19.4561 24.5999 19.5561 24.9999 19.6561C24.9999 19.6561 24.9999 19.6561 24.9999 19.7561V20.4561C24.4999 20.4561 23.8999 20.2561 23.2999 20.0561C22.1999 19.7561 20.8999 19.4561 19.6999 19.4561C18.4999 19.4561 16.6999 19.7561 16.6999 21.7561C16.6999 23.7561 17.5999 25.2561 18.3999 26.6561L17.3999 27.1561L17.0999 27.3561ZM19.0999 18.6561C16.7999 18.6561 15.5999 20.3561 15.5999 21.9561C15.5999 23.5561 16.3999 25.4561 17.1999 27.0561L17.9999 26.6561C17.1999 25.2561 16.2999 23.6561 16.2999 21.7561C16.2999 19.8561 17.4999 19.1561 19.4999 19.1561C21.4999 19.1561 21.9999 19.4561 23.0999 19.7561C23.6999 19.8561 24.1999 20.0561 24.6999 20.1561V19.6561C24.3999 19.6561 23.9999 19.4561 23.5999 19.3561C22.1999 18.9561 20.5999 18.5561 19.0999 18.5561V18.6561Z" fill="#010101"/>
<path d="M26.4 19.9561L26.6 27.2561H34C34.9 25.4561 35.7 23.9561 35.7 21.9561C35.7 19.9561 34.4 18.9561 32.4 18.9561C30.4 18.9561 28.1 19.6561 26.4 20.0561V19.9561Z" fill="#FFD83E"/>
<path d="M31.1 19.4561C29.8001 19.6561 27.1 20.9561 27.4 22.6561C27.8 25.1561 29.3 24.1561 31.2 23.7561L32.6 24.2561C33.1 24.7561 33.9 25.2561 34.4 24.6561H35.3001V27.9561H25.8V19.8561L31.1 19.3561V19.4561Z" fill="#010101"/>
<path d="M35.3001 28.1561H25.8V20.0561L31.1 19.5561C30.2 19.6561 28.5 20.3561 27.8 21.4561C27.5 21.8561 27.4 22.2561 27.5 22.6561C27.7 24.0561 28.3 24.1561 28.8 24.1561C29.3 24.1561 29.6 24.0561 30.1 23.9561C30.4 23.9561 30.8 23.7561 31.1 23.7561L32.5 24.2561C32.7 24.4561 33.2 24.9561 33.6 24.9561C34 24.9561 34 24.9561 34.1 24.6561H35V27.9561L35.3001 28.1561ZM25.9 27.9561H35.2V24.7561H34.5C34.3 24.9561 34.1 25.0561 33.9 25.0561C33.4 25.0561 32.9 24.6561 32.7 24.3561L31.3 23.8561C30.9 23.8561 30.6 24.0561 30.3 24.0561C29.8 24.1561 29.3 24.3561 28.9 24.3561C28.1 24.3561 27.6 23.8561 27.4 22.6561C27.4 22.1561 27.4 21.7561 27.8 21.2561C28.3 20.4561 29.4 19.8561 30.3 19.5561L26.1 19.9561V27.8561L25.9 27.9561Z" fill="#010101"/>
<path d="M26.8001 18.3561C26.5001 18.3561 26.2001 18.6561 26.2001 18.9561C26.2001 19.2561 26.5001 19.5561 26.8001 19.5561C27.1001 19.5561 27.4001 19.2561 27.4001 18.9561C27.4001 18.6561 27.1001 18.3561 26.8001 18.3561Z" fill="#FFD83E"/>
<path d="M26.8001 19.5561C26.4001 19.5561 26.1001 19.2561 26.1001 18.8561C26.1001 18.4561 26.4001 18.1561 26.8001 18.1561C27.2001 18.1561 27.5001 18.4561 27.5001 18.8561C27.5001 19.2561 27.2001 19.5561 26.8001 19.5561ZM26.8001 18.4561C26.5001 18.4561 26.3001 18.6561 26.3001 18.9561C26.3001 19.2561 26.5001 19.4561 26.8001 19.4561C27.1001 19.4561 27.3001 19.2561 27.3001 18.9561C27.3001 18.6561 27.1001 18.4561 26.8001 18.4561Z" fill="#010101"/>
<path d="M28.1 18.0561C27.8 18.0561 27.5 18.3561 27.5 18.6561C27.5 18.9561 27.8 19.2561 28.1 19.2561C28.4 19.2561 28.7 18.9561 28.7 18.6561C28.7 18.3561 28.4 18.0561 28.1 18.0561Z" fill="#FFD83E"/>
<path d="M28.1 19.2561C27.7 19.2561 27.4 18.9561 27.4 18.5561C27.4 18.1561 27.7 17.8561 28.1 17.8561C28.5 17.8561 28.8 18.1561 28.8 18.5561C28.8 18.9561 28.5 19.2561 28.1 19.2561ZM28.1 18.1561C27.8 18.1561 27.6 18.3561 27.6 18.6561C27.6 18.9561 27.8 19.1561 28.1 19.1561C28.4 19.1561 28.6 18.9561 28.6 18.6561C28.6 18.3561 28.4 18.1561 28.1 18.1561Z" fill="#010101"/>
<path d="M29.4 17.6561C29.1 17.6561 28.8 17.9561 28.8 18.2561C28.8 18.5561 29.1 18.8561 29.4 18.8561C29.7 18.8561 30 18.5561 30 18.2561C30 17.9561 29.7 17.6561 29.4 17.6561Z" fill="#FFD83E"/>
<path d="M29.4001 18.9561C29.0001 18.9561 28.7001 18.6561 28.7001 18.2561C28.7001 17.8561 29.0001 17.5561 29.4001 17.5561C29.8001 17.5561 30.1001 17.8561 30.1001 18.2561C30.1001 18.6561 29.8001 18.9561 29.4001 18.9561ZM29.4001 17.8561C29.1001 17.8561 28.9001 18.0561 28.9001 18.3561C28.9001 18.6561 29.1001 18.8561 29.4001 18.8561C29.7001 18.8561 29.9001 18.6561 29.9001 18.3561C29.9001 18.0561 29.7001 17.8561 29.4001 17.8561Z" fill="#010101"/>
<path d="M30.7001 18.6561C31.0315 18.6561 31.3001 18.3874 31.3001 18.0561C31.3001 17.7247 31.0315 17.4561 30.7001 17.4561C30.3687 17.4561 30.1001 17.7247 30.1001 18.0561C30.1001 18.3874 30.3687 18.6561 30.7001 18.6561Z" fill="#FFD83E"/>
<path d="M30.7 18.7561C30.3 18.7561 30 18.4561 30 18.0561C30 17.6561 30.3 17.3561 30.7 17.3561C31.1 17.3561 31.4 17.6561 31.4 18.0561C31.4 18.4561 31.1 18.7561 30.7 18.7561ZM30.7 17.6561C30.4 17.6561 30.2 17.8561 30.2 18.1561C30.2 18.4561 30.4 18.6561 30.7 18.6561C31 18.6561 31.2 18.4561 31.2 18.1561C31.2 17.8561 31 17.6561 30.7 17.6561Z" fill="#010101"/>
<path d="M32.1 17.3561C31.8 17.3561 31.5 17.6561 31.5 17.9561C31.5 18.2561 31.8 18.5561 32.1 18.5561C32.4 18.5561 32.7 18.2561 32.7 17.9561C32.7 17.6561 32.4 17.3561 32.1 17.3561Z" fill="#FFD83E"/>
<path d="M32.1 18.5561C31.7 18.5561 31.4 18.2561 31.4 17.8561C31.4 17.4561 31.7 17.1561 32.1 17.1561C32.5 17.1561 32.8 17.4561 32.8 17.8561C32.8 18.2561 32.5 18.5561 32.1 18.5561ZM32.1 17.4561C31.8 17.4561 31.6 17.6561 31.6 17.9561C31.6 18.2561 31.8 18.4561 32.1 18.4561C32.4 18.4561 32.6 18.2561 32.6 17.9561C32.6 17.6561 32.4 17.4561 32.1 17.4561Z" fill="#010101"/>
<path d="M33.3001 17.3561C33.0001 17.3561 32.7001 17.6561 32.7001 17.9561C32.7001 18.2561 33.0001 18.5561 33.3001 18.5561C33.6001 18.5561 33.9001 18.2561 33.9001 17.9561C33.9001 17.6561 33.6001 17.3561 33.3001 17.3561Z" fill="#FFD83E"/>
<path d="M33.3001 18.6561C32.9001 18.6561 32.6001 18.3561 32.6001 17.9561C32.6001 17.5561 32.9001 17.2561 33.3001 17.2561C33.7001 17.2561 34.0001 17.5561 34.0001 17.9561C34.0001 18.3561 33.7001 18.6561 33.3001 18.6561ZM33.3001 17.5561C33.0001 17.5561 32.8001 17.7561 32.8001 18.0561C32.8001 18.3561 33.0001 18.5561 33.3001 18.5561C33.6001 18.5561 33.8001 18.3561 33.8001 18.0561C33.8001 17.7561 33.6001 17.5561 33.3001 17.5561Z" fill="#010101"/>
<path d="M34.6 17.8561C34.3 17.8561 34 18.1561 34 18.4561C34 18.7561 34.3 19.0561 34.6 19.0561C34.9 19.0561 35.2 18.7561 35.2 18.4561C35.2 18.1561 34.9 17.8561 34.6 17.8561Z" fill="#FFD83E"/>
<path d="M34.6 19.0561C34.2 19.0561 33.9 18.7561 33.9 18.3561C33.9 17.9561 34.2 17.6561 34.6 17.6561C35 17.6561 35.3 17.9561 35.3 18.3561C35.3 18.7561 35 19.0561 34.6 19.0561ZM34.6 17.9561C34.3 17.9561 34.1 18.1561 34.1 18.4561C34.1 18.7561 34.3 18.9561 34.6 18.9561C34.9 18.9561 35.1 18.7561 35.1 18.4561C35.1 18.1561 34.9 17.9561 34.6 17.9561Z" fill="#010101"/>
<path d="M35.6 19.7561C35.9314 19.7561 36.2 19.4874 36.2 19.1561C36.2 18.8247 35.9314 18.5561 35.6 18.5561C35.2686 18.5561 35 18.8247 35 19.1561C35 19.4874 35.2686 19.7561 35.6 19.7561Z" fill="#FFD83E"/>
<path d="M35.6 19.8561C35.2 19.8561 34.9 19.5561 34.9 19.1561C34.9 18.7561 35.2 18.4561 35.6 18.4561C36 18.4561 36.3 18.7561 36.3 19.1561C36.3 19.5561 36 19.8561 35.6 19.8561ZM35.6 18.7561C35.3 18.7561 35.1 18.9561 35.1 19.2561C35.1 19.5561 35.3 19.7561 35.6 19.7561C35.9 19.7561 36.1 19.5561 36.1 19.2561C36.1 18.9561 35.9 18.7561 35.6 18.7561Z" fill="#010101"/>
<path d="M36.3001 19.6561C36.0001 19.6561 35.7001 19.9561 35.7001 20.2561C35.7001 20.5561 36.0001 20.8561 36.3001 20.8561C36.6001 20.8561 36.9001 20.5561 36.9001 20.2561C36.9001 19.9561 36.6001 19.6561 36.3001 19.6561Z" fill="#FFD83E"/>
<path d="M36.3001 20.9561C35.9001 20.9561 35.6001 20.6561 35.6001 20.2561C35.6001 19.8561 35.9001 19.5561 36.3001 19.5561C36.7001 19.5561 37.0001 19.8561 37.0001 20.2561C37.0001 20.6561 36.7001 20.9561 36.3001 20.9561ZM36.3001 19.8561C36.0001 19.8561 35.8001 20.0561 35.8001 20.3561C35.8001 20.6561 36.0001 20.8561 36.3001 20.8561C36.6001 20.8561 36.8001 20.6561 36.8001 20.3561C36.8001 20.0561 36.6001 19.8561 36.3001 19.8561Z" fill="#010101"/>
<path d="M36.7001 20.8561C36.4001 20.8561 36.1001 21.1561 36.1001 21.4561C36.1001 21.7561 36.4001 22.0561 36.7001 22.0561C37.0001 22.0561 37.3001 21.7561 37.3001 21.4561C37.3001 21.1561 37.0001 20.8561 36.7001 20.8561Z" fill="#FFD83E"/>
<path d="M36.7 22.1561C36.3 22.1561 36 21.8561 36 21.4561C36 21.0561 36.3 20.7561 36.7 20.7561C37.1 20.7561 37.4 21.0561 37.4 21.4561C37.4 21.8561 37.1 22.1561 36.7 22.1561ZM36.7 21.0561C36.4 21.0561 36.2 21.2561 36.2 21.5561C36.2 21.8561 36.4 22.0561 36.7 22.0561C37 22.0561 37.2 21.8561 37.2 21.5561C37.2 21.2561 37 21.0561 36.7 21.0561Z" fill="#010101"/>
<path d="M36.7001 22.1561C36.4001 22.1561 36.1001 22.4561 36.1001 22.7561C36.1001 23.0561 36.4001 23.3561 36.7001 23.3561C37.0001 23.3561 37.3001 23.0561 37.3001 22.7561C37.3001 22.4561 37.0001 22.1561 36.7001 22.1561Z" fill="#FFD83E"/>
<path d="M36.7 23.4561C36.3 23.4561 36 23.1561 36 22.7561C36 22.3561 36.3 22.0561 36.7 22.0561C37.1 22.0561 37.4 22.3561 37.4 22.7561C37.4 23.1561 37.1 23.4561 36.7 23.4561ZM36.7 22.3561C36.4 22.3561 36.2 22.5561 36.2 22.8561C36.2 23.1561 36.4 23.3561 36.7 23.3561C37 23.3561 37.2 23.1561 37.2 22.8561C37.2 22.5561 37 22.3561 36.7 22.3561Z" fill="#010101"/>
<path d="M36.4 23.4561C36.1 23.4561 35.8 23.7561 35.8 24.0561C35.8 24.3561 36.1 24.6561 36.4 24.6561C36.7 24.6561 37 24.3561 37 24.0561C37 23.7561 36.7 23.4561 36.4 23.4561Z" fill="#FFD83E"/>
<path d="M36.4001 24.7561C36.0001 24.7561 35.7001 24.4561 35.7001 24.0561C35.7001 23.6561 36.0001 23.3561 36.4001 23.3561C36.8001 23.3561 37.1001 23.6561 37.1001 24.0561C37.1001 24.4561 36.8001 24.7561 36.4001 24.7561ZM36.4001 23.6561C36.1001 23.6561 35.9001 23.8561 35.9001 24.1561C35.9001 24.4561 36.1001 24.6561 36.4001 24.6561C36.7001 24.6561 36.9001 24.4561 36.9001 24.1561C36.9001 23.8561 36.7001 23.6561 36.4001 23.6561Z" fill="#010101"/>
<path d="M26.6001 19.6561V20.3561C28.1001 20.1561 30.1001 19.3561 32.0001 19.3561C33.9001 19.3561 35.1001 20.0561 35.1001 21.8561C35.1001 23.6561 34.4001 25.1561 33.4001 26.7561L34.4001 27.2561C35.3001 25.4561 36.1001 23.9561 36.1001 21.9561C36.1001 19.9561 34.8001 18.5561 32.5001 18.5561C30.2001 18.5561 28.4001 19.2561 26.7001 19.6561H26.6001Z" fill="#FFD83E"/>
<path d="M34.4 27.3561L33.4 26.8561C34.2 25.4561 35.1 23.8561 35.1 21.9561C35.1 20.0561 33.2 19.6561 32.1 19.6561C31 19.6561 29.6 19.9561 28.5 20.2561C27.9 20.4561 27.3 20.5561 26.8 20.6561V19.9561V19.8561C27.2 19.8561 27.6 19.6561 28.1 19.5561C29.5 19.1561 31.1 18.7561 32.7 18.7561C35.1 18.7561 36.5 20.5561 36.5 22.2561C36.5 23.9561 35.7001 25.9561 34.8001 27.5561C34.8001 27.5561 34.8 27.5561 34.7 27.5561L34.4 27.3561ZM33.6 26.7561L34.4 27.1561C35.2 25.5561 36 24.0561 36 22.0561C36 20.0561 34.8 18.7561 32.5 18.7561C30.2 18.7561 29.4 19.1561 28 19.5561C27.6 19.6561 27.2 19.7561 26.8 19.8561V20.3561C27.3 20.3561 27.9 20.1561 28.4 19.9561C29.5 19.6561 30.8 19.3561 32 19.3561C34 19.3561 35.2 20.2561 35.2 21.9561C35.2 23.6561 34.4 25.4561 33.5 26.8561L33.6 26.7561Z" fill="#010101"/>
<path d="M25.8001 11.9561L25.2001 13.0561L25.8001 14.1561L26.4001 13.0561L25.8001 11.9561ZM25.8001 14.7561L25.2001 15.8561L25.8001 16.9561L26.4001 15.8561L25.8001 14.7561Z" fill="#FFD83E"/>
<path d="M25.8 17.1561C25.8 17.1561 25.8 17.1561 25.7 17.1561L25.1 16.0561C25.1 16.0561 25.1 16.0561 25.1 15.9561L25.7 14.8561H25.9L26.5 15.9561C26.5 15.9561 26.5 15.9561 26.5 16.0561L25.9 17.1561C25.9 17.1561 25.9 17.1561 25.8 17.1561ZM25.3 15.9561L25.8 16.8561L26.3 15.9561L25.8 15.0561L25.3 15.9561ZM25.8 14.3561C25.8 14.3561 25.8 14.3561 25.7 14.3561L25.1 13.2561C25.1 13.2561 25.1 13.2561 25.1 13.1561L25.7 12.0561H25.9L26.5 13.1561C26.5 13.1561 26.5 13.1561 26.5 13.2561L25.9 14.3561C25.9 14.3561 25.9 14.3561 25.8 14.3561ZM25.3 13.1561L25.8 14.0561L26.3 13.1561L25.8 12.2561L25.3 13.1561Z" fill="#010101"/>
<path d="M23.6 14.4561L24.5 15.0561L25.4 14.4561L24.5 13.8561L23.6 14.4561ZM26 14.4561L26.9 15.0561L27.8 14.4561L26.9 13.8561L26 14.4561Z" fill="#FFD83E"/>
<path d="M27.0001 15.1561L26.1001 14.5561L27.0001 13.9561C27.0001 13.9561 27.0001 13.9561 27.1001 13.9561L28.0001 14.5561L27.1001 15.1561H27.0001ZM26.3001 14.4561L27.0001 14.9561L27.7001 14.4561L27.0001 13.9561L26.3001 14.4561ZM24.6001 15.1561L23.7001 14.5561L24.6001 13.9561C24.6001 13.9561 24.6001 13.9561 24.7001 13.9561L25.6001 14.5561L24.7001 15.1561H24.6001ZM23.9001 14.4561L24.6001 14.9561L25.3001 14.4561L24.6001 13.9561L23.9001 14.4561Z" fill="#010101"/>
<path d="M25.8 14.9561C26.0762 14.9561 26.3 14.7322 26.3 14.4561C26.3 14.1799 26.0762 13.9561 25.8 13.9561C25.5239 13.9561 25.3 14.1799 25.3 14.4561C25.3 14.7322 25.5239 14.9561 25.8 14.9561Z" fill="#FFD83E"/>
<path d="M25.8001 15.0561C25.5001 15.0561 25.2001 14.7561 25.2001 14.4561C25.2001 14.1561 25.5001 13.8561 25.8001 13.8561C26.1001 13.8561 26.4001 14.1561 26.4001 14.4561C26.4001 14.7561 26.1001 15.0561 25.8001 15.0561ZM25.8001 14.1561C25.6001 14.1561 25.5001 14.3561 25.5001 14.4561C25.5001 14.5561 25.7001 14.7561 25.8001 14.7561C25.9001 14.7561 26.1001 14.5561 26.1001 14.4561C26.1001 14.3561 25.9001 14.1561 25.8001 14.1561Z" fill="#010101"/>
<path d="M25.8 16.1561C26.5 16.1561 27 16.6561 27 17.3561C27 18.0561 26.5 18.5561 25.8 18.5561C25.1 18.5561 24.6 18.0561 24.6 17.3561C24.6 16.6561 25.1 16.1561 25.8 16.1561Z" fill="#FFD83E"/>
<path d="M25.8 18.7561C25.1 18.7561 24.5 18.1561 24.5 17.4561C24.5 16.7561 25.1 16.1561 25.8 16.1561C26.5 16.1561 27.1 16.7561 27.1 17.4561C27.1 18.1561 26.5 18.7561 25.8 18.7561ZM25.8 16.3561C25.2 16.3561 24.7 16.8561 24.7 17.4561C24.7 18.0561 25.2 18.5561 25.8 18.5561C26.4 18.5561 26.9 18.0561 26.9 17.4561C26.9 16.8561 26.4 16.3561 25.8 16.3561Z" fill="#010101"/>
<path d="M26.9 17.7561C26.1 17.6561 25.3 17.6561 24.6 17.7561C24.6 17.7561 24.6 17.7561 24.5 17.7561C24.5 17.7561 24.5 17.7561 24.5 17.6561C25.3 17.5561 26.1 17.5561 26.9 17.6561C26.9 17.6561 26.9 17.6561 26.9 17.7561ZM26.9 17.1561C26.6 17.1561 26.3 17.1561 26 17.1561V16.3561V17.0561C26.3 17.0561 26.5 17.0561 26.8 17.0561C26.8 17.0561 26.8 17.0561 26.8 17.1561H26.9ZM24.6 17.1561C24.6 17.1561 24.6 17.1561 24.6 17.0561C24.9 17.0561 25.1 17.0561 25.4 17.0561C25.4 16.8561 25.4 16.6561 25.4 16.3561C25.4 16.6561 25.4 16.7561 25.4 16.9561V17.1561C25.1 17.1561 24.8 17.1561 24.5 17.1561H24.6Z" fill="#010101"/>
<path d="M24.6 19.4561C24.5 21.4561 24.2 23.4561 23.5 24.9561L24.8 24.4561C25.2 22.7561 25.3 20.6561 25.5 19.6561H24.7L24.6 19.4561ZM27 19.4561H26.2C26.3 20.6561 26.4 22.7561 26.9 24.4561L28.2 24.9561C27.4 23.4561 27.2 21.4561 27.1 19.4561H27Z" fill="#FFD83E"/>
<path d="M28.1 25.0561L26.8 24.5561C26.5 23.3561 26.3 21.8561 26.2 20.7561C26.2 20.3561 26.2 19.9561 26.1 19.7561V19.6561H26.9C26.9 19.5561 26.9 19.5561 26.9 19.5561C27 21.3561 27.2 23.4561 28 24.9561C28 24.9561 28 24.9561 28 25.0561H28.1ZM26.9 24.3561L27.8 24.7561C27.1 23.2561 26.9 21.3561 26.8 19.6561H26.2C26.2 20.0561 26.2 20.3561 26.2 20.6561C26.2 21.7561 26.4 23.1561 26.7 24.3561H26.9ZM23.4 25.0561C23.4 25.0561 23.4 25.0561 23.4 24.9561C24.2 23.4561 24.4 21.3561 24.5 19.5561H25.3C25.3 19.6561 25.4 19.7561 25.3 19.8561C25.3 20.1561 25.3 20.4561 25.2 20.8561C25.1 21.9561 25 23.4561 24.6 24.6561L23.3 25.1561L23.4 25.0561ZM24.6 19.5561C24.5 21.2561 24.3 23.2561 23.6 24.6561L24.5 24.2561C24.8 23.0561 24.9 21.6561 25 20.5561C25 20.1561 25 19.8561 25 19.6561H24.4L24.6 19.5561Z" fill="#010101"/>
<path d="M25.8 23.7561C24.3 23.7561 23.2 24.4561 23.1 26.2561C22.7 25.6561 21.2 23.5561 19.7 23.8561C18.8 24.0561 18.1 25.2561 18.2 26.5561C17.5 24.4561 15.4 24.1561 13.9 25.3561C15.3 26.4561 15.9 29.7561 17 31.1561H34.5C35.6 29.7561 36.2 26.4561 37.6 25.3561C36.1 24.1561 34 24.4561 33.3 26.5561C33.4 25.1561 32.7 23.9561 31.8 23.8561C30.4 23.5561 28.8 25.6561 28.4 26.2561C28.4 24.4561 27.2 23.7561 25.7 23.7561H25.8Z" fill="#FFD83E"/>
<path d="M34.5 31.3561H17C16.5 30.7561 16.1 29.7561 15.7 28.6561C15.2 27.3561 14.7 26.1561 13.9 25.5561C14.5 25.0561 15.2 24.8561 15.9 24.8561C16.9 24.8561 17.7 25.3561 18.2 26.2561C18.2 25.0561 19 24.1561 19.8 23.9561C19.8 23.9561 20 23.9561 20.1 23.9561C21.4 23.9561 22.6 25.4561 23.1 26.1561C23.3 24.6561 24.2 23.8561 25.9 23.8561C27.6 23.8561 28.5 24.6561 28.7 26.1561C29.2 25.4561 30.4 23.9561 31.7 23.9561C33 23.9561 31.9 23.9561 32 23.9561C32.8 24.0561 33.5 25.0561 33.6 26.2561C34.1 25.3561 34.9 24.8561 35.9 24.8561C36.9 24.8561 37.3 25.1561 37.9 25.5561C37.2 26.1561 36.6 27.4561 36.1 28.7561C35.7 29.7561 35.3 30.7561 34.8 31.4561L34.5 31.3561ZM17 31.1561H34.4C34.9 30.5561 35.3 29.5561 35.7 28.5561C36.2 27.3561 36.7 26.0561 37.4 25.4561C36.9 25.0561 36.3 24.8561 35.7 24.8561C34.6 24.8561 33.8 25.5561 33.4 26.6561C33.4 26.6561 33.4 26.6561 33.3 26.6561C33.3 26.6561 33.3 26.6561 33.3 26.5561C33.4 25.1561 32.7 24.0561 31.9 23.9561H31.7C30.3 23.9561 29 25.8561 28.7 26.3561C28.7 26.3561 28.7 26.3561 28.6 26.3561C28.6 26.3561 28.6 26.3561 28.6 26.2561C28.6 24.2561 27.2 23.8561 26 23.8561C24.8 23.8561 23.5 24.2561 23.4 26.2561C23.4 26.2561 23.4 26.2561 23.4 26.3561H23.3C23 25.8561 21.7 23.9561 20.3 23.9561C18.9 23.9561 20.1 23.9561 20.1 23.9561C19.3 24.0561 18.6 25.1561 18.7 26.5561V26.6561H18.6C18.2 25.5561 17.3 24.8561 16.3 24.8561C15.3 24.8561 15.1 25.0561 14.6 25.4561C15.3 26.1561 15.8 27.3561 16.3 28.5561C16.7 29.5561 17.1 30.4561 17.6 31.1561H17Z" fill="#010101"/>
<path d="M34.5 31.2561C34.5 31.8561 30.6 32.6561 25.8 32.6561C21 32.6561 17.1 31.9561 17.1 31.2561C17.1 30.5561 21 30.2561 25.8 30.2561C30.6 30.2561 34.5 30.5561 34.5 31.2561Z" fill="#010101"/>
<path d="M25.8 32.6561C21.1 32.6561 17 31.9561 17 31.1561C17 30.3561 23.8 30.0561 25.8 30.0561C27.8 30.0561 34.6 30.0561 34.6 31.1561C34.6 32.2561 30.5 32.6561 25.8 32.6561ZM25.8 30.2561C20.1 30.2561 17.1 30.7561 17.1 31.1561C17.1 31.5561 20.7 32.4561 25.8 32.4561C30.9 32.4561 34.5 31.6561 34.5 31.1561C34.5 30.6561 31.5 30.2561 25.8 30.2561Z" fill="#010101"/>
<path d="M25.8 18.6561C26 18.6561 26.2 18.8561 26.2 19.0561C26.2 19.2561 26 19.4561 25.8 19.4561C25.6 19.4561 25.4 19.2561 25.4 19.0561C25.4 18.8561 25.6 18.6561 25.8 18.6561Z" fill="#FFD83E"/>
<path d="M25.8 19.5561C25.5 19.5561 25.3 19.3561 25.3 19.0561C25.3 18.7561 25.5 18.5561 25.8 18.5561C26.1 18.5561 26.3 18.7561 26.3 19.0561C26.3 19.3561 26.1 19.5561 25.8 19.5561ZM25.8 18.7561C25.6 18.7561 25.5 18.8561 25.5 19.0561C25.5 19.2561 25.6 19.3561 25.8 19.3561C26 19.3561 26.1 19.2561 26.1 19.0561C26.1 18.8561 26 18.7561 25.8 18.7561Z" fill="#010101"/>
<path d="M25.8 20.3561C26.0209 20.3561 26.2 20.177 26.2 19.9561C26.2 19.7352 26.0209 19.5561 25.8 19.5561C25.5791 19.5561 25.4 19.7352 25.4 19.9561C25.4 20.177 25.5791 20.3561 25.8 20.3561Z" fill="#FFD83E"/>
<path d="M25.8 20.4561C25.5 20.4561 25.3 20.2561 25.3 19.9561C25.3 19.6561 25.5 19.4561 25.8 19.4561C26.1 19.4561 26.3 19.6561 26.3 19.9561C26.3 20.2561 26.1 20.4561 25.8 20.4561ZM25.8 19.5561C25.6 19.5561 25.5 19.7561 25.5 19.8561C25.5 19.9561 25.7 20.1561 25.8 20.1561C25.9 20.1561 26.1 19.9561 26.1 19.8561C26.1 19.7561 25.9 19.5561 25.8 19.5561Z" fill="#010101"/>
<path d="M25.8 21.3561C26.0762 21.3561 26.3 21.1322 26.3 20.8561C26.3 20.5799 26.0762 20.3561 25.8 20.3561C25.5239 20.3561 25.3 20.5799 25.3 20.8561C25.3 21.1322 25.5239 21.3561 25.8 21.3561Z" fill="#FFD83E"/>
<path d="M25.8001 21.4561C25.5001 21.4561 25.2001 21.1561 25.2001 20.8561C25.2001 20.5561 25.5001 20.2561 25.8001 20.2561C26.1001 20.2561 26.4001 20.5561 26.4001 20.8561C26.4001 21.1561 26.1001 21.4561 25.8001 21.4561ZM25.8001 20.5561C25.6001 20.5561 25.4001 20.7561 25.4001 20.9561C25.4001 21.1561 25.6001 21.3561 25.8001 21.3561C26.0001 21.3561 26.2001 21.1561 26.2001 20.9561C26.2001 20.7561 26.0001 20.5561 25.8001 20.5561Z" fill="#010101"/>
<path d="M25.8 22.4561C26.0762 22.4561 26.3 22.2322 26.3 21.9561C26.3 21.6799 26.0762 21.4561 25.8 21.4561C25.5239 21.4561 25.3 21.6799 25.3 21.9561C25.3 22.2322 25.5239 22.4561 25.8 22.4561Z" fill="#FFD83E"/>
<path d="M25.8001 22.5561C25.5001 22.5561 25.2001 22.2561 25.2001 21.9561C25.2001 21.6561 25.5001 21.3561 25.8001 21.3561C26.1001 21.3561 26.4001 21.6561 26.4001 21.9561C26.4001 22.2561 26.1001 22.5561 25.8001 22.5561ZM25.8001 21.4561C25.5001 21.4561 25.3001 21.6561 25.3001 21.9561C25.3001 22.2561 25.5001 22.4561 25.8001 22.4561C26.1001 22.4561 26.3001 22.2561 26.3001 21.9561C26.3001 21.6561 26.1001 21.4561 25.8001 21.4561Z" fill="#010101"/>
<path d="M25.8001 23.7561C26.1314 23.7561 26.4001 23.4875 26.4001 23.1561C26.4001 22.8247 26.1314 22.5561 25.8001 22.5561C25.4687 22.5561 25.2001 22.8247 25.2001 23.1561C25.2001 23.4875 25.4687 23.7561 25.8001 23.7561Z" fill="#FFD83E"/>
<path d="M25.8 23.8561C25.4 23.8561 25.1 23.5561 25.1 23.1561C25.1 22.7561 25.4 22.4561 25.8 22.4561C26.2 22.4561 26.5 22.7561 26.5 23.1561C26.5 23.5561 26.2 23.8561 25.8 23.8561ZM25.8 22.6561C25.5 22.6561 25.3 22.8561 25.3 23.1561C25.3 23.4561 25.5 23.6561 25.8 23.6561C26.1 23.6561 26.3 23.4561 26.3 23.1561C26.3 22.8561 26.1 22.6561 25.8 22.6561Z" fill="#010101"/>
<path d="M25.5 24.2561C25.5 24.2561 25.4 24.2561 25.4 24.4561C25.4 24.5561 25.4 24.7561 25.4 24.9561C25.4 25.1561 25.5 25.0561 25.6 24.9561C25.6 24.8561 25.6 24.7561 25.6 24.4561C25.6 24.3561 25.6 24.2561 25.5 24.2561ZM26 24.2561C26 24.2561 25.9 24.2561 25.9 24.4561C25.9 24.7561 25.9 24.7561 25.9 24.9561C25.9 25.0561 26 25.1561 26.1 24.9561C26.1 24.7561 26.1 24.5561 26.1 24.4561C26.1 24.3561 26.1 24.2561 26 24.2561ZM25.1 24.2561C25.1 24.2561 25 24.2561 25 24.3561C25 24.4561 25 24.6561 25 24.7561C25 24.9561 25.1 24.8561 25.2 24.7561C25.2 24.6561 25.2 24.4561 25.2 24.2561V24.1561L25.1 24.2561ZM26.4 24.2561C26.4 24.2561 26.4 24.2561 26.4 24.3561C26.4 24.5561 26.4 24.7561 26.4 24.8561C26.4 24.9561 26.5 25.0561 26.6 24.8561C26.6 24.6561 26.6 24.5561 26.6 24.4561C26.6 24.4561 26.6 24.3561 26.5 24.3561L26.4 24.2561ZM24.6 24.4561C24.6 24.4561 24.5 24.4561 24.6 24.6561C24.6 24.7561 24.6 24.9561 24.6 25.1561C24.6 25.3561 24.7 25.1561 24.7 25.1561C24.7 25.1561 24.7 24.8561 24.7 24.6561C24.7 24.4561 24.7 24.4561 24.6 24.4561ZM26.9 24.4561C26.9 24.4561 26.9 24.4561 26.9 24.6561C26.9 24.8561 26.9 25.0561 26.9 25.1561C26.9 25.1561 27 25.2561 27 25.1561C27 25.0561 27 24.8561 27 24.6561C27 24.6561 27 24.5561 27 24.4561H26.9ZM20 24.4561C20 24.4561 19.9 24.4561 20 24.6561C20 24.8561 20.1 24.9561 20.2 25.0561C20.2 25.1561 20.4 25.0561 20.3 25.0561C20.3 24.9561 20.3 24.8561 20.1 24.6561C20.1 24.6561 20.1 24.5561 20 24.5561V24.4561ZM31.5 24.4561C31.5 24.4561 31.5 24.4561 31.4 24.5561C31.4 24.7561 31.3 24.8561 31.2 24.9561C31.2 25.0561 31.2 25.1561 31.3 24.9561C31.3 24.7561 31.4 24.6561 31.5 24.5561V24.3561V24.4561ZM20.5 24.4561C20.5 24.4561 20.5 24.4561 20.5 24.5561C20.5 24.6561 20.6 24.8561 20.7 24.9561C20.7 25.0561 20.9 24.9561 20.8 24.9561C20.8 24.8561 20.8 24.7561 20.7 24.5561C20.7 24.4561 20.6 24.4561 20.5 24.4561ZM31 24.4561C31 24.4561 31 24.4561 30.9 24.5561C30.9 24.7561 30.9 24.8561 30.8 24.9561C30.8 25.0561 30.8 25.1561 30.9 24.9561C30.9 24.7561 31 24.6561 31.1 24.5561V24.4561H31ZM21.1 24.5561C21.1 24.5561 21 24.6561 21.1 24.7561C21.1 24.8561 21.2 25.0561 21.3 25.1561C21.3 25.3561 21.5 25.2561 21.4 25.1561C21.3 25.0561 21.4 24.8561 21.3 24.6561C21.3 24.5561 21.3 24.4561 21.2 24.5561H21.1ZM30.5 24.5561C30.5 24.5561 30.4 24.5561 30.4 24.6561C30.4 24.9561 30.3 25.0561 30.3 25.1561C30.3 25.2561 30.3 25.2561 30.4 25.1561C30.4 24.9561 30.5 24.8561 30.6 24.7561C30.6 24.6561 30.6 24.5561 30.6 24.5561H30.5ZM19.7 24.5561C19.7 24.5561 19.6 24.6561 19.7 24.7561C19.7 24.8561 19.8 24.9561 19.9 25.0561C19.9 25.1561 20 25.0561 20 25.0561C20 25.0561 20 24.8561 20 24.7561C20 24.7561 20 24.6561 19.9 24.6561L19.7 24.5561ZM32 24.5561C32 24.5561 32 24.5561 31.9 24.6561C31.9 24.7561 31.9 24.8561 31.9 24.9561C31.9 24.9561 31.9 25.1561 32 24.9561C32 24.8561 32.1 24.7561 32.2 24.6561V24.4561L32 24.5561ZM24.2 24.8561C24.2 24.8561 24.1 24.8561 24.1 25.0561C24.1 25.1561 24.1 25.3561 24.2 25.4561C24.2 25.6561 24.3 25.4561 24.3 25.4561C24.3 25.4561 24.3 25.2561 24.3 24.9561V24.8561H24.2ZM27.5 24.8561C27.5 24.8561 27.5 24.8561 27.5 24.9561C27.5 25.1561 27.5 25.3561 27.5 25.4561C27.5 25.5561 27.6 25.6561 27.6 25.4561C27.6 25.2561 27.7 25.1561 27.7 25.0561C27.7 25.0561 27.7 24.8561 27.6 24.8561H27.5ZM25.8 24.9561C25.8 24.9561 25.8 25.0561 25.8 25.1561C25.8 25.4561 25.7 25.7561 25.6 25.8561C25.5 25.9561 25.3 25.9561 25.2 25.8561C25.1 25.8561 25 25.7561 24.8 25.5561C24.6 25.4561 24.5 25.5561 24.8 25.7561C25.3 26.5561 25.9 27.1561 25.9 28.4561C25.9 29.7561 25.9 28.6561 25.9 28.6561C25.9 28.6561 26 28.6561 26 28.4561C26 27.2561 26.6 26.5561 27.1 25.7561C27.3 25.4561 27.1 25.4561 27.1 25.5561C26.9 25.6561 26.9 25.7561 26.7 25.8561C26.6 25.8561 26.4 25.9561 26.3 25.8561C26.2 25.7561 26.1 25.4561 26.1 25.1561V24.9561H25.8ZM21.7 24.7561C21.7 24.7561 21.7 24.7561 21.7 24.8561C21.7 24.9561 21.8 25.1561 21.8 25.3561C21.8 25.4561 22 25.3561 21.9 25.3561C21.9 25.2561 21.9 25.1561 21.9 24.9561C21.9 24.9561 21.9 24.8561 21.8 24.8561L21.7 24.7561ZM29.9 24.7561C29.9 24.7561 29.8 24.7561 29.8 24.8561C29.8 25.0561 29.8 25.0561 29.8 25.2561C29.8 25.3561 29.9 25.4561 29.9 25.2561C29.9 25.1561 30 24.9561 30 24.7561V24.6561L29.9 24.7561ZM19.3 24.7561C19.3 24.7561 19.2 24.7561 19.3 24.9561C19.3 25.0561 19.5 25.2561 19.6 25.3561C19.6 25.2561 19.6 25.0561 19.4 24.9561C19.4 24.9561 19.4 24.9561 19.3 24.9561V24.7561ZM32.4 24.7561C32.4 24.7561 32.4 24.7561 32.3 24.7561C32.3 24.9561 32.2 25.0561 32.1 25.1561C32.1 25.3561 32.1 25.2561 32.1 25.1561C32.1 25.1561 32.3 24.8561 32.4 24.7561C32.4 24.6561 32.4 24.5561 32.4 24.5561V24.7561ZM15.6 25.1561C15.6 25.1561 15.5 25.2561 15.6 25.3561C15.7 25.4561 15.8 25.5561 15.9 25.6561C15.9 25.6561 16 25.6561 15.9 25.5561C15.9 25.5561 15.8 25.3561 15.7 25.2561C15.7 25.2561 15.7 25.1561 15.6 25.1561ZM36.1 25.1561C36.1 25.1561 36.1 25.1561 36 25.2561C36 25.3561 35.8 25.4561 35.8 25.5561C35.8 25.5561 35.8 25.7561 35.8 25.6561C35.9 25.5561 36 25.4561 36.1 25.3561V25.1561ZM16.2 25.2561C16.2 25.2561 16.1 25.2561 16.2 25.4561C16.2 25.6561 16.4 25.7561 16.4 25.8561C16.4 25.9561 16.6 26.0561 16.6 25.8561C16.6 25.6561 16.6 25.5561 16.5 25.4561C16.5 25.4561 16.4 25.3561 16.3 25.3561L16.2 25.2561ZM35.5 25.2561C35.5 25.2561 35.4 25.2561 35.3 25.3561C35.3 25.5561 35.3 25.6561 35.2 25.7561C35.2 25.9561 35.3 25.8561 35.4 25.7561C35.4 25.6561 35.5 25.4561 35.6 25.3561C35.6 25.2561 35.6 25.1561 35.6 25.1561L35.5 25.2561ZM15.1 25.2561C15.1 25.2561 15.1 25.2561 15.1 25.3561C15.2 25.3561 15.3 25.5561 15.5 25.6561C15.6 25.7561 15.7 25.6561 15.6 25.6561C15.6 25.6561 15.4 25.4561 15.3 25.3561C15.3 25.3561 15.3 25.3561 15.2 25.3561L15.1 25.2561ZM36.7 25.2561C36.7 25.2561 36.7 25.2561 36.6 25.2561C36.4 25.2561 36.3 25.4561 36.3 25.5561C36.3 25.5561 36.3 25.7561 36.4 25.5561C36.5 25.5561 36.7 25.3561 36.8 25.2561V25.1561L36.7 25.2561ZM23.9 25.2561C23.9 25.2561 23.9 25.2561 23.9 25.3561C23.9 25.4561 23.9 25.6561 24 25.7561C24 25.8561 24.2 25.8561 24.2 25.7561C24.2 25.6561 24.2 25.4561 24.2 25.2561V25.1561L23.9 25.2561ZM27.8 25.2561C27.8 25.2561 27.8 25.2561 27.8 25.3561C27.8 25.5561 27.8 25.6561 27.8 25.8561C27.8 25.9561 27.9 25.9561 28 25.8561C28 25.7561 28 25.5561 28.1 25.4561V25.3561L27.8 25.2561ZM20.4 25.0561C20.4 25.0561 20.4 25.0561 20.4 25.2561C20.6 25.8561 20.6 26.1561 20.6 26.2561C20.6 26.3561 20.5 26.4561 20.4 26.3561C20.3 26.3561 20.2 26.2561 20.1 26.1561C20.1 26.1561 19.9 26.1561 20.1 26.2561C20.8 26.8561 21.3 27.4561 21.5 28.2561C21.5 28.4561 21.6 28.4561 21.6 28.2561C21.4 27.2561 21.4 26.4561 21.6 25.8561C21.6 25.6561 21.6 25.4561 21.5 25.8561C21.5 26.0561 21.2 26.1561 21.1 25.9561C21 25.7561 20.7 25.2561 20.6 25.0561V24.9561L20.4 25.0561ZM31.3 25.0561C31.3 25.0561 31.3 25.0561 31.3 25.1561C31.3 25.3561 31 25.8561 30.8 26.0561C30.7 26.2561 30.5 26.0561 30.4 25.9561C30.3 25.6561 30.2 25.8561 30.3 25.9561C30.5 26.4561 30.5 27.3561 30.3 28.3561C30.3 28.5561 30.3 28.5561 30.4 28.3561C30.6 27.5561 31.1 26.8561 31.8 26.3561C31.9 26.2561 31.8 26.1561 31.8 26.2561C31.8 26.2561 31.6 26.3561 31.5 26.4561C31.4 26.5561 31.3 26.4561 31.3 26.3561C31.3 26.2561 31.3 25.8561 31.5 25.3561C31.5 25.2561 31.5 25.1561 31.5 25.1561L31.3 25.0561ZM16.8 25.3561C16.8 25.3561 16.7 25.3561 16.8 25.4561C16.8 25.6561 16.9 25.7561 17 25.8561H17.1C17.1 25.7561 17.1 25.6561 17.1 25.4561C17.1 25.4561 17.1 25.3561 17 25.3561H16.8ZM34.8 25.3561C34.8 25.3561 34.7 25.3561 34.7 25.4561C34.7 25.5561 34.7 25.6561 34.7 25.8561C34.7 25.9561 34.7 26.0561 34.8 25.8561C34.8 25.8561 34.9 25.5561 35 25.4561V25.3561H34.8ZM18.9 25.1561C18.9 25.1561 18.9 25.3561 18.9 25.4561C18.9 25.5561 19.1 25.6561 19.2 25.8561C19.4 25.8561 19.2 25.9561 19.2 25.8561C19.2 25.8561 19.1 25.6561 18.9 25.4561V25.1561ZM32.6 25.1561C32.4 25.3561 32.4 25.4561 32.3 25.5561C32.4 25.4561 32.5 25.2561 32.6 25.1561ZM17.2 25.6561C17.2 25.6561 17.2 25.6561 17.2 25.7561C17.2 25.8561 17.2 25.9561 17.2 26.1561C17.2 26.2561 17.3 26.2561 17.3 26.1561C17.3 26.0561 17.3 25.9561 17.3 25.7561C17.3 25.5561 17.3 25.6561 17.2 25.6561ZM34.2 25.6561C34.2 25.6561 34.2 25.6561 34.1 25.7561C34.1 25.8561 34.1 26.0561 34.1 26.1561C34.1 26.2561 34.1 26.2561 34.2 26.1561C34.2 26.0561 34.2 25.9561 34.2 25.7561V25.6561ZM18.7 25.8561C18.7 25.8561 18.6 25.8561 18.7 26.0561C18.8 26.2561 19 26.3561 19 26.4561C19 26.3561 18.8 26.1561 18.7 26.0561C18.7 26.0561 18.7 26.0561 18.6 26.0561L18.7 25.8561ZM32.7 25.8561C32.7 25.9561 32.5 26.1561 32.4 26.2561C32.4 26.4561 32.4 26.3561 32.4 26.2561C32.4 26.2561 32.6 26.0561 32.7 25.8561C32.7 25.7561 32.7 25.6561 32.7 25.6561V25.8561ZM16.3 26.3561C16.3 26.3561 16.3 26.3561 16.3 26.4561C16.5 26.6561 16.7 27.0561 16.7 27.2561C16.7 27.4561 16.7 27.4561 16.6 27.4561C16.4 27.4561 16.3 27.2561 16.1 27.2561C15.9 27.2561 15.9 27.2561 16.1 27.4561C16.8 27.9561 17.5 28.5561 17.8 29.0561C17.9 29.2561 18.1 29.3561 18 29.0561C17.7 28.4561 17.7 27.9561 17.7 27.5561C17.7 27.2561 17.8 27.0561 17.8 26.8561C17.8 26.6561 17.7 26.6561 17.6 26.8561C17.6 26.9561 17.6 27.1561 17.5 27.1561C17.5 27.1561 17.3 27.1561 17.2 27.0561C17.1 26.8561 16.7 26.4561 16.6 26.3561C16.6 26.3561 16.6 26.3561 16.5 26.3561H16.3ZM35.1 26.3561C35.1 26.3561 35.1 26.3561 35 26.3561C34.9 26.3561 34.5 26.8561 34.4 27.0561C34.3 27.2561 34.1 27.2561 34.1 27.1561C34.1 27.1561 34.1 26.9561 34 26.8561C34 26.6561 33.9 26.6561 33.8 26.8561C33.8 27.0561 33.8 27.2561 33.9 27.5561C33.9 27.8561 33.9 28.3561 33.6 29.0561C33.6 29.2561 33.6 29.1561 33.8 29.0561C34.1 28.5561 34.8 27.9561 35.5 27.4561C35.6 27.4561 35.6 27.2561 35.5 27.2561C35.3 27.2561 35.2 27.4561 35 27.4561C34.8 27.4561 34.9 27.4561 34.9 27.2561C34.9 27.0561 35.1 26.7561 35.3 26.4561C35.3 26.3561 35.3 26.2561 35.3 26.3561H35.1Z" fill="#010101"/>
<path d="M17.4 30.4561L17.6 31.1561ZM17.8 30.2561L18 30.9561ZM18.3 30.1561V30.8561ZM18.8 30.0561V30.7561ZM19.4 29.9561V30.6561ZM20 29.9561V30.6561ZM20.6 29.6561V30.3561ZM21.2 29.6561V30.3561ZM21.8 29.5561V30.2561ZM22.4 29.4561V30.2561ZM23 29.4561V30.2561ZM23.6 29.4561V30.2561ZM24.2 29.4561V30.2561ZM24.9 29.4561V30.2561ZM34.1 30.2561L33.9 30.9561ZM33.7 30.0561L33.5 30.7561ZM33.2 29.9561V30.6561ZM32.7 29.8561V30.5561ZM32.1 29.7561V30.4561ZM31.5 29.7561V30.4561ZM30.9 29.4561V30.1561ZM30.3 29.4561V30.1561ZM29.7 29.3561V30.0561ZM29.1 29.2561V30.0561ZM28.5 29.2561V30.0561ZM27.9 29.2561V30.0561ZM27.3 29.2561V30.0561ZM26.6 29.2561V30.0561ZM25.7 29.2561V30.0561Z" fill="#FFD83E"/>
<path d="M33.9 31.2561C33.9 31.2561 33.9 31.2561 33.9 31.1561L34.1 30.4561C34.1 30.4561 34.1 30.4561 34.2 30.4561C34.2 30.4561 34.2 30.4561 34.2 30.5561L34 31.2561H33.9ZM17.6 31.2561L17.4 30.5561C17.4 30.5561 17.4 30.5561 17.4 30.4561C17.4 30.4561 17.4 30.4561 17.5 30.4561L17.7 31.1561C17.7 31.1561 17.7 31.1561 17.7 31.2561H17.6ZM33.4 31.1561C33.4 31.1561 33.4 31.1561 33.4 31.0561L33.6 30.3561C33.6 30.3561 33.6 30.3561 33.7 30.3561C33.7 30.3561 33.7 30.3561 33.7 30.4561L33.5 31.1561H33.4ZM18 31.1561L17.8 30.4561C17.8 30.4561 17.8 30.4561 17.8 30.3561C17.8 30.3561 17.8 30.3561 17.9 30.3561L18.1 31.0561C18.1 31.0561 18.1 31.0561 18.1 31.1561H18ZM32.9 31.1561C32.9 31.1561 32.9 31.1561 32.9 31.0561V30.3561C33 30.3561 33.1 30.3561 33.1 30.3561C33.1 30.3561 33.1 30.3561 33.1 30.4561V31.1561C33 31.1561 32.9 31.1561 32.9 31.1561ZM18.4 31.1561V30.4561C18.3 30.4561 18.3 30.4561 18.4 30.3561C18.4 30.3561 18.4 30.3561 18.5 30.3561V31.0561C18.6 31.0561 18.6 31.0561 18.5 31.1561H18.4ZM32.4 31.1561C32.4 31.1561 32.4 31.1561 32.4 31.0561V30.3561C32.6 30.3561 32.6 30.3561 32.7 30.3561C32.7 30.3561 32.7 30.3561 32.7 30.4561V31.1561C32.5 31.1561 32.5 31.1561 32.5 31.1561H32.4ZM18.9 31.1561V30.4561C18.7 30.4561 18.8 30.4561 18.9 30.3561C18.9 30.3561 18.9 30.3561 19 30.3561V31.0561C19.2 31.0561 19.1 31.0561 19 31.1561H18.9ZM31.9 31.1561C31.9 31.1561 31.9 31.1561 31.9 31.0561V30.3561C32 30.3561 32.1 30.3561 32.1 30.3561C32.1 30.3561 32.1 30.3561 32.1 30.4561V31.1561C32 31.1561 31.9 31.1561 31.9 31.1561ZM19.5 31.1561V30.4561C19.4 30.4561 19.5 30.4561 19.5 30.3561C19.5 30.3561 19.5 30.3561 19.6 30.3561V31.0561C19.7 31.0561 19.6 31.0561 19.6 31.1561H19.5ZM31.3 31.1561C31.3 31.1561 31.3 31.1561 31.3 31.0561V30.3561C31.4 30.3561 31.5 30.3561 31.5 30.3561C31.5 30.3561 31.5 30.3561 31.5 30.4561V31.1561C31.4 31.1561 31.3 31.1561 31.3 31.1561ZM20.2 31.1561V30.4561C20.1 30.4561 20.1 30.4561 20.2 30.3561C20.2 30.3561 20.2 30.3561 20.3 30.3561V31.0561C20.4 31.0561 20.4 31.0561 20.3 31.1561H20.2ZM30.1 30.9561V30.2561C30.1 30.2561 30.2 30.2561 30.3 30.2561V30.9561C30.3 30.9561 30.2 30.9561 30.1 30.9561ZM30.6 30.9561V30.2561C30.6 30.2561 30.7 30.2561 30.8 30.2561V30.9561C30.8 30.9561 30.7 30.9561 30.6 30.9561ZM29.5 30.9561V30.2561C29.5 30.2561 29.6 30.2561 29.7 30.2561V30.9561C29.7 30.9561 29.6 30.9561 29.5 30.9561ZM28.4 30.9561V30.1561C28.4 30.1561 28.4 30.1561 28.5 30.1561V30.9561C28.5 30.9561 28.5 30.9561 28.4 30.9561ZM29 30.9561V30.1561C29 30.1561 29 30.1561 29.1 30.1561V30.9561C29.1 30.9561 29.1 30.9561 29 30.9561ZM27.8 30.9561V30.1561C27.8 30.1561 27.8 30.1561 27.9 30.1561V30.9561C27.9 30.9561 27.9 30.9561 27.8 30.9561ZM27.1 30.9561V30.1561C27.1 30.1561 27.1 30.1561 27.2 30.1561V30.9561C27.2 30.9561 27.2 30.9561 27.1 30.9561ZM26.4 30.9561V30.1561C26.4 30.1561 26.4 30.1561 26.5 30.1561V30.9561C26.5 30.9561 26.5 30.9561 26.4 30.9561Z" fill="#010101"/>
</svg>
