<svg width="68" height="68" viewBox="0 0 68 68" fill="none" xmlns="http://www.w3.org/2000/svg">
<path d="M66.1 45.2H1.90002C6.50002 58.5 19.2 68 34 68C48.8 68 61.5 58.5 66.1 45.2Z" fill="#71B8E5"/>
<path d="M0 33H68C68 29.1923 67.0527 25.4904 65.8509 22H2.13838C0.936616 25.4904 0.100147 29.1923 0 33Z" fill="white"/>
<path d="M0 34C0 37.9 0.7 41.7 1.9 45.2H66.1C67.3 41.7 68 37.9 68 34C68 30.1 68 33.2 68 32.9H0V34Z" fill="white"/>
<path d="M2 22.4H66C61.3 9.3 48.7 0 34 0C19.3 0 6.7 9.4 2 22.4Z" fill="#E93736"/>
</svg>
