<svg width="68" height="68" viewBox="0 0 68 68" fill="none" xmlns="http://www.w3.org/2000/svg">
<path d="M2 22.6H66.1C61.4 9.4 48.8 0 34.1 0C19.4 0 6.8 9.4 2.1 22.6H2Z" fill="#DD342D"/>
<path d="M66.1 45.3H2C6.7 58.5 19.3 68 34.1 68C48.9 68 61.5 58.5 66.2 45.3H66.1Z" fill="#304995"/>
<path d="M0 34C0 38 0.7 41.8 1.9 45.3H66C67.2 41.8 67.9 38 67.9 34C67.9 30 67.2 26.2 66 22.7H1.9C0.7 26.2 0 30 0 34Z" fill="white"/>
<path d="M1.90002 22.7H66C66 22.6 1.90002 22.6 1.90002 22.6V22.7Z" fill="white"/>
</svg>
