<svg width="44" height="44" viewBox="0 0 44 44" fill="none" xmlns="http://www.w3.org/2000/svg">
<path d="M0.639203 16.5158C3.5392 4.81577 15.2392 -2.18423 26.9392 0.615765C38.5392 3.51577 45.6392 15.2158 42.7392 26.8158C39.8392 38.4158 28.1392 45.5158 16.5392 42.6158C4.8392 39.8158 -2.1608 28.1158 0.639203 16.5158Z" fill="#223C72"/>
<path d="M37.0383 6.41547L28.3383 12.2155V1.11547C27.8383 0.915473 27.3383 0.815473 26.8383 0.715473C22.7383 -0.284527 18.6383 -0.0845267 14.9383 1.11547V12.2155L6.33829 6.41547C4.33829 8.41547 2.73829 10.8155 1.63829 13.5155L3.93829 15.0155H1.03829C0.938288 15.5155 0.738288 15.9155 0.638288 16.4155C-0.361712 20.5155 -0.161712 24.6155 1.13829 28.4155H3.93829L1.63829 29.9155C2.73829 32.5155 4.33829 35.0155 6.43829 37.0155L14.9383 31.3155V42.2155C15.4383 42.4155 15.9383 42.5155 16.4383 42.6155C20.5383 43.6155 24.5383 43.4155 28.3383 42.2155V31.3155L36.9383 37.0155C38.9383 35.0155 40.6383 32.6155 41.7383 29.9155L39.4383 28.4155H42.3383C42.5383 27.9155 42.6383 27.4155 42.8383 26.8155C43.8383 22.8155 43.6383 18.7155 42.4383 15.0155H39.5383L41.8383 13.4155C40.7383 10.7155 39.1383 8.31547 37.1383 6.31547" fill="white"/>
<path d="M11.6385 15.116L3.63854 9.71602C3.13854 10.516 2.63854 11.416 2.23854 12.316L6.43854 15.116H11.7385H11.6385ZM39.7385 9.71602C39.2385 8.91602 38.6385 8.11602 37.9385 7.41602L28.3385 13.816V15.116H31.6385L39.7385 9.71602ZM3.63854 33.716C4.13854 34.516 4.73854 35.316 5.43854 36.016L14.9385 29.716V28.516H11.4385L3.63854 33.716ZM42.9385 17.916H25.5385V0.416016C22.9385 -0.0839844 20.2385 -0.0839844 17.7385 0.416016V17.916H0.338535C-0.161465 20.516 -0.0614647 23.216 0.338535 25.716H17.7385V43.016C20.3385 43.516 23.0385 43.516 25.5385 43.016V25.716H42.9385C43.4385 23.116 43.4385 20.416 42.9385 17.916ZM31.7385 28.516L39.6385 33.716C40.1385 32.916 40.6385 32.016 41.1385 31.216L37.1385 28.516H31.8385H31.7385Z" fill="#EF3827"/>
<path d="M28.3398 3.31543V4.71543C28.3398 4.41543 28.4398 4.21543 28.4398 3.91543C28.4398 3.71543 28.4398 3.51543 28.3398 3.31543Z" fill="#303F66"/>
</svg>
