<svg width="68" height="68" viewBox="0 0 68 68" fill="none" xmlns="http://www.w3.org/2000/svg">
<path d="M67.0999 26.1C66.6999 24.3 66.1 22.6 65.4 20.9H30.2V26.1H67.0999Z" fill="#DB352C"/>
<path d="M30.2 10.3V15.5H62.5C61.3 13.6 59.9 11.9 58.4 10.3H30.2Z" fill="#DB352C"/>
<path d="M30.2 5.2H52C46.8 1.9 40.6 0 34 0C27.4 0 31.5 0 30.2 0.2V5.1V5.2Z" fill="#DB352C"/>
<path d="M30.2 31.9H0V34C0 34.7 0 35.8 0.1 36.7H67.9C67.9 35.8 68 34.9 68 34V31.6H30.3V31.9H30.2Z" fill="#DB352C"/>
<path d="M0.900024 41.9C1.30002 43.7 1.90002 45.4 2.60002 47.1H65.4C66.1 45.4 66.6 43.7 67.1 41.9H0.900024Z" fill="#DB352C"/>
<path d="M58.4 57.7C59.9 56.1 61.3 54.4 62.5 52.5H5.5C6.7 54.4 8.1 56.1 9.6 57.7H58.4Z" fill="#DB352C"/>
<path d="M16 62.8C21.2 66.1 27.4 68 34 68C40.6 68 46.8 66.1 52 62.8H16Z" fill="#DB352C"/>
<path d="M30.2 20.9H65.4C64.6 19.1 63.7 17.4 62.7 15.7H30.2V20.9Z" fill="white"/>
<path d="M30.2 10.3H58.4C56.5 8.30001 54.3 6.60001 52 5.10001H30.2V10.3Z" fill="white"/>
<path d="M30.2 26.1V31.3H67.9C67.8 29.5 67.4999 27.8 67.0999 26.1H30.2Z" fill="white"/>
<path d="M67.1 41.9C67.5 40.2 67.8 38.5 67.9 36.7H0.0999756C0.199976 38.5 0.499976 40.2 0.899976 41.9H67.1Z" fill="white"/>
<path d="M5.49995 52.5H62.5C63.6 50.9 64.4999 49.2 65.1999 47.4H2.69995C3.49995 49.2 4.39995 50.9 5.39995 52.5H5.49995Z" fill="white"/>
<path d="M16 62.8H52C54.3 61.3 56.5 59.6 58.4 57.6H9.59998C11.5 59.6 13.7 61.3 16 62.8Z" fill="white"/>
<path d="M0.0999756 31.6H30.2V31.3H0.0999756V31.6Z" fill="#304995"/>
<path d="M25.4 15.8L24.9 15.5H21.5L21 15.8H25.4Z" fill="#304995"/>
<path d="M12.1 15.8L11.5 15.5H8.29995L7.69995 15.8H12.1Z" fill="#304995"/>
<path d="M18.8 15.8L18.4 15.5H14.9L14.3 15.8H18.8Z" fill="#304995"/>
<path d="M27.6 15.8H30.2V15.5H28.1L27.6 15.8Z" fill="#304995"/>
<path d="M26.8 21.9H28.1L27.2001 22.5L27.5 23.8L26.6 22.8L25.7001 23.8L26 22.5L25.1 21.9H26.4L26.6 20.9H20.2001L20.4 21.9H21.7001L20.8 22.5L21.1 23.8L20.2001 22.8L19.3 23.8L19.6 22.5L18.7001 21.9H20L20.2001 20.9H13.6L14.1 21.9H15.4L14.1 22.5L14.7 23.8L13.8 22.8L12.5 23.8L13.1 22.5L11.8 21.9H13.1L13.3 20.9H7.00005L7.50005 21.9H8.80005L7.50005 22.5L8.10005 23.8L7.20005 22.8H6.90005L6.00005 23.8L6.60005 22.5L5.30005 21.9H6.60005L6.80005 20.9H3.00005C2.30005 22.6 1.80005 24.3 1.30005 26.1H3.00005V25.8L2.10005 25.2H3.40005L3.70005 23.9L4.00005 25.2H5.60005L4.30005 25.8L4.50005 26.1H9.60005V25.8L8.70005 25.2H10L10.3 23.9L10.6 25.2H11.9L11 25.8V26.1H16.2V25.8H16.6L15.3 25.2H16.6L16.9 23.9L17.5 25.2H18.8L17.5 25.8L17.7001 26.1H23L23.2001 25.8L21.9 25.2H23.2001L23.5 23.9L24.1 25.2H25.4L24.1 25.8L24.3 26.1H30.7001V20.9H27L27.2001 21.9H26.8Z" fill="#304995"/>
<path d="M27.4 11L26.8 10.4H26.2001L25.6 11L25.8 10.4H20.8L21 11L20.4 10.4H19.8L19.2 11L19.4 10.4H14.2L14.5 11L13.9 10.4H13.2L12.4 11L12.7 10.4H9.90005C8.40005 12 7.00005 13.7 5.80005 15.6H6.40005L6.70005 14.3L7.30005 15.6H12.9L13.2 14.3L13.8 15.6H19.7L20 14.3L20.3 15.6H26.2001L26.5 14.3L26.8 15.6H30.2001V10.4H27.2001L27.4 11ZM10.5 12.9L10.8 14.2L9.90005 13.2L9.00005 14.2L9.30005 12.9L8.40005 12.3H9.70005L10 11L10.3 12.3H11.6L10.7 12.9H10.5ZM17.1 12.9L17.7 14.2L16.4 13.2L15.5 14.2L15.8 12.9H16.1L14.8 12.3H16.1L16.4 11L17 12.3H18.3L17 12.9H17.1ZM23.7001 12.9L24.3 14.2L23.4 13.2L22.1 14.2L22.7001 12.9L21.4 12.3H22.7001L23 11L23.6 12.3H24.9L23.6 12.9H23.7001Z" fill="#304995"/>
<path d="M16.4 4.89999C16.3 4.89999 16.2 5.09999 16 5.09999H16.3V4.89999H16.4Z" fill="#304995"/>
<path d="M22.9 5.19999L23.1 4.59999L23.4 5.19999H30.3V0.299988C27.1 0.699988 24 1.49999 21.1 2.69999H21.6L20.7 3.29999L21 4.59999L20.1 3.99999L19.2 4.59999L19.5 3.39999C18.6 3.79999 17.7 4.29999 16.9 4.79999L17.1 5.19999H23.2H22.9ZM26.2 2.59999L26.5 1.29999L26.8 2.59999H28.1L27.2 3.19999L27.5 4.49999L26.6 3.89999L25.7 4.49999L26 3.19999L25.1 2.59999H26.4H26.2Z" fill="#304995"/>
<path d="M0.0999756 31.9H30.3V31.6H0.199976V31.9H0.0999756Z" fill="#304995"/>
<path d="M27.1 16.1L27.4 17.4L26.5 16.4L25.6 17.4L25.9 16.1L25.4 15.8H21L20.5 16.1L20.7999 17.4L19.9 16.4L19 17.4L19.2999 16.1L18.7999 15.8H14.3L13.7 16.1L14.3 17.4L13.4 16.4L12.1 17.4L12.7 16.1L12.1 15.8H7.69995L7.09995 16.1L7.69995 17.4L6.79995 16.4H6.49995L5.59995 17.4L6.19995 16.1L5.59995 15.8H5.39995C4.79995 16.7 4.29995 17.7 3.79995 18.7H5.39995L4.09995 19.3L4.69995 20.6L3.39995 19.6L3.09995 19.9C2.99995 20.2 2.79995 20.6 2.69995 20.9H6.49995V20.6L6.69995 20.9H13V20.6L13.2 20.9H19.7999V20.6L20 20.9H26.4V20.6L26.6 20.9H30.2999V15.7H27.6L27.1 16V16.1ZM10.8 20.6L9.89995 19.6L8.99995 20.6L9.29995 19.3L8.39995 18.7H9.69995L9.99995 17.4L10.3 18.7H11.6L10.7 19.3L11 20.6H10.8ZM17.7 20.6L16.4 19.6L15.5 20.6L15.8 19.3H16.1L14.8 18.7H16.1L16.4 17.4L17 18.7H18.3L17 19.3L17.6 20.6H17.7ZM24.2999 20.6L23.4 19.6L22.1 20.6L22.7 19.3L21.4 18.7H22.7L23 17.4L23.6 18.7H24.9L23.6 19.3L24.2 20.6H24.2999Z" fill="#304995"/>
<path d="M16.3 5.20001H16C15.7 5.40001 15.3 5.60001 15 5.80001H16.2L16.4 5.20001H16.3Z" fill="#304995"/>
<path d="M23.4 5.20001L23.7 5.80001H25L23.7 6.40001L24.3 7.70001L23.4 6.70001L22.1 7.70001L22.7 6.40001L21.4 5.80001H22.7L22.9 5.20001H16.8L17.1 5.80001H18.4L17.1 6.40001L17.7 7.70001L16.4 6.70001L15.5 7.70001L15.8 6.40001H16.1L14.9 5.80001C13 7.10001 11.2 8.60001 9.59998 10.3H12.4L12.7 9.70001L11.4 9.10001H12.7L13 7.80001L13.6 9.10001H14.9L13.6 9.70001L13.9 10.3H19.1L19.3 9.70001L18.4 9.10001H19.7L20 7.80001L20.3 9.10001H21.6L20.7 9.70001L20.9 10.3H25.9L26.1 9.70001L25.2 9.10001H26.5L26.8 7.80001L27.1 9.10001H28.4L27.5 9.70001L27.7 10.3H30.7V5.10001H23.4V5.20001Z" fill="#304995"/>
<path d="M26.2 10.3H26.7999L26.5 10L26.2 10.3Z" fill="#304995"/>
<path d="M12.9 10.3H13.7L13.4 10L12.9 10.3Z" fill="#304995"/>
<path d="M19.6 10.3H20.2L19.9 10L19.6 10.3Z" fill="#304995"/>
<path d="M24.2999 27.1L23.4 26.1L22.1 27.1L22.6 26.1H17.2999L17.7999 27.1L16.5 26.1L15.6 27.1L15.8 26.1H10.6L10.8 27.1L9.89995 26.1L8.99995 27.1L9.19995 26.1H4.09995L4.59995 27.1L3.29995 26.1L2.39995 27.1L2.59995 26.1H0.899951C0.699951 26.8 0.599951 27.5 0.499951 28.3H1.79995L0.899951 28.9L1.19995 30.2L0.399951 29.3C0.399951 29.9 0.299951 30.5 0.199951 31.1H30.2999V25.9H23.9L24.4 26.9V27.1H24.2999ZM7.69995 30.3L6.79995 29.3H6.49995L5.59995 30.3L6.19995 29L4.89995 28.4H6.19995L6.49995 27.1L7.09995 28.4H8.39995L7.09995 29L7.69995 30.3ZM14.3 30.3L13.4 29.3L12.1 30.3L12.7 29L11.4 28.4H12.7L13 27.1L13.6 28.4H14.9L13.6 29L14.2 30.3H14.3ZM20.9 30.3L20 29.3L19.1 30.3L19.4 29L18.5 28.4H19.7999L20.1 27.1L20.4 28.4H21.7L20.7999 29L21.1 30.3H20.9ZM26.2 28.4L26.5 27.1L26.7999 28.4H28.1L27.2 29L27.5 30.3L26.6 29.3L25.7 30.3L26 29L25.1 28.4H26.4H26.2Z" fill="#304995"/>
<path d="M26.5 20.6L26.4 20.9H26.6L26.5 20.6Z" fill="white"/>
<path d="M19.9 20.6L19.8 20.9H20L19.9 20.6Z" fill="white"/>
<path d="M13 20.6V20.9H13.2L13 20.6Z" fill="white"/>
<path d="M6.50002 20.6L6.40002 20.9H6.60002L6.50002 20.6Z" fill="white"/>
</svg>
