<svg width="336" height="336" viewBox="0 0 336 336" fill="none" xmlns="http://www.w3.org/2000/svg">
<path d="M77.9 23.3C77.9 19.2 77.9 15.6 77.9 12C78 5 83.1 0 90 0C96.6 0 101.7 5.2 101.8 11.9C101.8 15.5 101.8 19.1 101.8 23H233.6C233.6 19.4 233.6 15.8 233.6 12.3C233.6 5.2 238.6 0 245.4 0C252.4 0 257.4 5.1 257.5 12.4C257.5 15.9 257.5 19.3 257.5 23.3C263.7 23.3 269.6 23.3 275.6 23.3C286.8 23.5 297.4 26.1 306.8 32.2C325.1 44 335.2 60.8 335.3 82.6C335.5 147.1 335.4 211.6 335.3 276.1C335.3 308.4 308.5 335.2 276.2 335.2C203.8 335.2 131.5 335.2 59.1 335.2C26.8 335.2 0 308.3 0 276.1C0 211.9 0 147.7 0 83.4C0 50.5 26.1 23.9 59 23.3C65.1 23.2 71.2 23.3 77.8 23.3H77.9ZM311.4 119.8H23.9C23.9 120.9 23.9 121.8 23.9 122.6C23.9 173.2 23.9 223.9 23.9 274.5C23.9 295.8 39.8 311.3 61.3 311.3C132.1 311.3 203 311.3 273.8 311.3C277.3 311.3 280.8 310.9 284.1 310.1C300.6 305.9 311.2 291.9 311.2 274.3C311.2 223.8 311.2 173.3 311.2 122.8C311.2 121.9 311.2 121.1 311.2 119.9L311.4 119.8ZM257.5 48.2C257.5 51.6 257.5 55 257.5 58.5C257.5 65.6 252.1 71.1 245.4 71C238.8 70.9 233.7 65.5 233.6 58.6C233.6 55 233.6 51.4 233.6 47.8H101.8C101.8 51.7 101.8 55.3 101.8 58.9C101.8 65.8 96.4 71.1 89.8 71.1C83.2 71.1 78 65.7 77.9 58.8C77.9 55.2 77.9 51.6 77.9 47.8C71.1 47.8 64.6 47.6 58.2 47.8C36.6 48.8 19.8 67.4 24.6 95.2H311.4C311.4 90.4 311.7 85.8 311.4 81.3C310.2 64.7 299 51.3 282.6 48.5C274.6 47.1 266.3 48.3 257.6 48.3L257.5 48.2Z" fill="#C37848"/>
<path d="M151.2 236.4C152.4 235.3 153.3 234.4 154.3 233.4C175.6 212.1 196.8 190.9 218.1 169.6C225.4 162.3 236.3 164.5 239 173.8C240.5 178.8 238.8 183 235.1 186.6C216.8 204.8 198.6 223.1 180.3 241.4C173.8 247.9 167.3 254.5 160.7 261C154.4 267.2 147.8 267.2 141.5 260.9C127.7 247.2 114 233.4 100.2 219.6C94.6 214 94.2 206.7 99.2 201.7C104.1 196.7 111.6 197 117.1 202.5C127.5 212.8 137.8 223.1 148.1 233.4C149.1 234.4 150 235.3 151.2 236.3V236.4Z" fill="#C37848"/>
</svg>
