<svg width="251" height="345" viewBox="0 0 251 345" fill="none" xmlns="http://www.w3.org/2000/svg">
<rect width="251" height="345" fill="none"/>
<path d="M0.1 254.1C0.1 250.1 0.1 246.1 0.1 242.1C0.3 239.6 0.4 237.2 0.6 234.7C1.1 224.6 2.5 214.6 4.5 204.7C9.1 182.5 17.3 161.6 28.8 142C36.7 128.6 46 116.6 58.2 106.8C65.4 101.1 73.1 96.3 81.9 93.6C93.5 89.9 105.5 88.8 117.5 87.9C122.5 87.5 127.4 88 132.3 88.5C139.3 89.2 146.3 89.7 153.2 90.7C167.9 92.7 180.6 99.1 191.6 109C202 118.3 210.4 129.3 217.7 141.2C224.6 152.3 229.9 164.2 235 176.1C243 194.6 248.9 213.6 250.2 233.9C250.6 240.6 250.5 247.3 249.8 254C248.9 262 247 269.7 244.6 277.4C240.4 291 233.3 302.8 222.9 312.6C210.5 324.3 195.9 332.1 179.6 336.6C165.6 340.5 151.4 342.8 136.9 343.8C125.9 344.6 114.9 344.5 103.9 343.5C94 342.6 84.2 340.8 74.5 338.5C57 334.3 41.1 326.9 27.2 315.3C17.4 307.1 9.7 297.4 5.1 285.4C1.6 276.3 0.4 266.7 0.2 257C0.2 256 0 255 0 254.1H0.1ZM131.1 298C133.3 297.7 135.3 297.6 137.3 297.3C145 296.1 152.1 293.2 158 288.2C171.4 276.9 175.8 262.2 173.1 245.3C170.7 230.6 161.8 221 148.1 215.6C143 213.6 137.7 212.4 132.4 211C131.4 210.7 131 210.4 131 209.3C131 192.8 131 176.4 131 159.9C131 159.5 131 159.1 131 158.7C131.2 158.7 131.3 158.7 131.4 158.7C141.3 160.8 147.6 166.6 150.3 176.4C150.8 178.3 151.2 180.3 151.7 182.4C157.8 181.5 163.8 180.6 170.1 179.6C169.8 178 169.5 176.6 169.2 175.1C165.9 159.3 154.1 147.7 138.3 144.7C135.9 144.2 133.4 143.9 130.9 143.4V135H120.5C120.5 137.5 120.5 140 120.5 142.4C120.5 143.4 120.1 143.6 119.3 143.7C116 144.2 112.8 144.7 109.5 145.4C97.3 148.3 88.4 155.5 83.2 167C79.3 175.8 78.7 185 80.8 194.3C83 203.9 88.2 211.5 96.8 216.6C103.8 220.7 111.3 223.8 119.3 225.5C120.3 225.7 120.5 226.1 120.5 227C120.5 245.3 120.5 263.6 120.5 281.9C120.5 282.3 120.5 282.7 120.5 283.2C119.7 283.2 119.2 283.1 118.6 283C110.4 281.4 104.5 276.7 100.3 269.7C97.9 265.7 96.6 261.2 95.7 256.6C95.3 254.8 95 253 94.7 251.2C88.6 252.3 82.7 253.5 76.8 254.6C76.8 258.2 78 264.7 79.6 269.3C83.1 279 88.9 287 98.1 292.1C104.7 295.7 112 297.2 119.5 298.2C120.4 298.3 120.6 298.7 120.6 299.5C120.6 304.7 120.6 309.8 120.6 315C120.6 315.4 120.6 315.9 120.6 316.4H131V298.4L131.1 298Z" fill="#7597EC"/>
<path d="M187.1 0.1C190.1 1.2 193.3 2 196.1 3.5C205.3 8.4 210.5 16.1 212 26.3C213.3 35.2 211 43.4 207.2 51.3C202.9 60.2 196.6 67.6 189.1 74C185.4 77.2 181.5 80.2 177.7 83.3C176.3 84.4 174.8 84.7 173 84C165.1 80.7 156.8 78.8 148.3 77.8C146.1 77.5 144 77.3 141.5 77C142.1 73.7 142.6 70.6 143.3 67.4C144.7 61.5 147.1 56 150.2 50.8C151.2 49 152.1 47.2 151.7 45C151.3 42.6 149.7 41.3 147.5 40.6C145.2 39.9 143.3 40.7 141.9 42.4C140.6 44 139.5 45.8 138.6 47.6C134.4 55.2 131.7 63.4 130.5 72.1C130.3 73.4 130.1 74.7 129.8 76C129.8 76.3 129.4 76.8 129.2 76.8C126.1 77 123.1 77.2 120 77.2C118.3 77.2 117 76.1 116.3 74.5C116 73.7 115.6 73 115.4 72.2C113.6 65.9 110.6 60.2 107.4 54.6C104.7 49.8 99.8 50.9 97.5 53.9C96.2 55.7 96.2 57.7 97.1 59.6C98.3 62.4 99.7 65.1 101 67.8C102.3 70.5 103.5 73.2 104.8 75.9C104.8 75.9 104.8 75.9 104.8 76.2C102.6 76.8 100.3 77.3 98.1 77.9C90.1 79.9 82 81.8 73.9 83.7C73.3 83.9 72.5 83.7 71.8 83.6C59.8 79 50.8 70.7 44.2 59.8C40.5 53.6 37 47.3 35.4 40.1C33.1 29.8 34.4 20.2 40.8 11.6C44.8 6.2 50.4 3.1 56.7 1C57.6 0.7 58.6 0.4 59.5 0H62.1C64.1 1 65.5 2.5 66.4 4.6C68 8.1 69.8 11.5 71.4 14.9C72.9 18.2 74.9 21.1 77.5 23.7C81.3 27.4 83.4 27.5 87.1 23.7C91.3 19.5 95.3 15.2 99.5 11C110.8 0 128.8 -1.8 141.9 6.9C146.5 9.9 150 14 153.8 17.8C156.4 20.4 158.9 23.2 161.6 25.8C163.1 27.3 164.4 27.3 166.1 26.1C167.3 25.3 168.5 24.4 169.6 23.3C174.7 18.5 177.6 12.3 180 5.9C181 3.2 182.3 0.9 185.3 0.1C185.9 0.1 186.6 0.1 187.2 0.1H187.1Z" fill="#7597EC"/>
<path d="M131.1 282.9V228C131.8 228.2 132.5 228.4 133.1 228.6C137 230.3 140.9 231.8 144.6 233.8C150.4 236.8 153.7 241.8 154.8 248.2C156 254.8 155.6 261.2 152.7 267.3C148.6 275.9 141.7 281.1 132.3 282.8C131.9 282.8 131.5 282.8 131.1 282.8V282.9Z" fill="#7597EC"/>
<path d="M120.5 208.2C116.1 206.9 112.1 205.3 108.3 202.9C100.5 197.9 97.5 190.5 97.8 181.4C98.2 170.8 105.7 161.1 118.2 158.5C118.9 158.4 119.6 158.3 120.4 158.1V208.1L120.5 208.2Z" fill="#7597EC"/>
</svg>
