<svg width="260" height="288" viewBox="0 0 260 288" fill="none" xmlns="http://www.w3.org/2000/svg">
<path d="M133.2 0C136.2 2.2 139.5 4 142.1 6.5C153.9 18 165.5 29.7 177.2 41.5C184.5 48.9 181.6 60.6 171.9 63.2C167.1 64.5 162.8 63.2 159.3 59.7C154.6 55.1 150 50.4 145.4 45.8C144.7 45.1 144.1 44.5 142.8 43.3C142.8 45 142.8 46 142.8 47.1C142.8 88.9 142.8 130.8 142.8 172.6C142.8 179.4 139.3 184.5 133.6 186.2C125.6 188.6 117.6 182.9 117.1 174.5C117.1 173.5 117.1 172.4 117.1 171.4C117.1 130.3 117.1 89.2 117.1 48.2V44.1C114.5 46.8 112.4 48.9 110.3 51C107.5 53.8 104.7 56.6 101.9 59.4C96.2001 65 88.4001 65.4 83.1001 60.2C77.7001 54.9 78.0001 47.1 83.8001 41.2C90.9001 34 98.1001 26.9 105.3 19.7C109.3 15.7 113.3 11.5 117.5 7.6C120.4 4.8 123.8 2.5 127 0C129.1 0 131.1 0 133.2 0Z" fill="white"/>
<path d="M91.4 99.5999V125C90.4 125 89.4 125 88.4 125C75.3 125 62.1 125 49 125C43.1 125 37.4 126.1 32.3 129C27.9 131.5 25.6 134.8 25.6 140.3C25.8 176.2 25.7 212.2 25.6 248.1C25.6 252.2 27.2 255.1 30.4 257.3C34.6 260.2 39.3 261.7 44.3 262.2C46.3 262.4 48.4 262.4 50.5 262.4C103.4 262.4 156.3 262.4 209.2 262.4C214.9 262.4 220.4 261.8 225.6 259.4C231.1 256.8 234.1 253.1 234.1 246.3C233.8 210.7 233.9 175 234.1 139.3C234.1 135 232.4 132.1 229.1 129.9C223.6 126.2 217.4 124.9 211 124.8C197.9 124.8 184.7 124.8 171.6 124.8C170.6 124.8 169.6 124.8 168.4 124.8V99.4999C168.9 99.4999 169.5 99.2999 170 99.2999C185.7 99.2999 201.3 99.0999 217 99.6999C228.5 100.1 239 104.3 247.7 112C255.5 118.8 259.7 127.4 259.7 137.9C259.7 175.1 259.7 212.4 259.7 249.6C259.7 265.4 250.7 275.5 237.4 282.3C229.8 286.2 221.6 288 213 288C157.6 288 102.3 288 46.9 288C33.7 288 21.6 283.9 11.6 274.9C4 268.3 0 259.9 0 249.7C0 212.5 0 175.2 0 138C0 123.5 7.7 113.5 19.8 106.6C28.4 101.6 37.9 99.4999 47.8 99.4999C61.7 99.4999 75.6 99.4999 89.5 99.4999C90.1 99.4999 90.6 99.5999 91.4 99.6999V99.5999Z" fill="white"/>
</svg>
