<svg width="320" height="192" viewBox="0 0 320 192" fill="none" xmlns="http://www.w3.org/2000/svg">
<path d="M175.296 120.4C204.796 90.9 234.096 61.6 263.496 32.2C262.696 32.2 261.496 32 260.296 32C248.196 32 236.096 32 223.996 32C215.596 32 208.796 26 207.796 18.3C206.696 10 211.696 2.6 219.696 0.4C221.096 0 222.696 0 224.096 0C250.296 0 276.496 0 302.696 0C312.696 0 319.296 6.4 319.396 16.6C319.596 26.5 319.396 36.3 319.396 46.2C319.396 62.4 319.396 78.6 319.396 94.8C319.396 105.8 311.496 112.8 301.196 111.6C293.796 110.7 287.896 104.8 287.596 97C287.196 87.2 287.396 77.3 287.396 67.4C287.396 63.6 287.396 59.7 287.396 54.8C285.696 56.4 284.696 57.3 283.696 58.3C252.096 89.9 220.496 121.4 188.996 153C179.896 162.1 171.496 162.1 162.396 153C146.596 137.2 130.796 121.4 114.996 105.6C113.996 104.6 113.296 103.4 112.196 102C110.696 103.4 109.696 104.3 108.796 105.3C82.0961 132 55.2961 158.7 28.6961 185.5C23.5961 190.6 17.7961 193 10.7961 190.6C-0.00389767 187 -3.5039 173.4 3.9961 164.9C5.9961 162.7 8.1961 160.6 10.2961 158.5C39.7961 129 69.3961 99.4 98.8961 69.9C107.396 61.5 116.196 61.4 124.596 69.9C140.596 85.9 156.496 101.8 172.496 117.8C173.496 118.8 174.496 119.7 175.196 120.4H175.296Z" fill="#D5484D"/>
</svg>
