<svg width="384" height="360" viewBox="0 0 384 360" fill="none" xmlns="http://www.w3.org/2000/svg">
<path d="M383.9 278.5C382.7 283.9 381.9 289.5 380.2 294.8C368.1 331.3 343.1 353.4 304.9 358.5C256.8 365 212.9 331.3 205.2 283.3C197.5 235.6 230.3 189.7 278.2 181.1C328 172.2 375.1 205.8 383 255.8C383.2 257.4 383.6 258.9 383.9 260.5V278.5ZM282.9 287.8C274.2 279 266.1 270.7 257.9 262.5C252.6 257.2 246 256.9 241.3 261.6C236.6 266.3 236.8 272.9 242 278.2C252.6 288.9 263.3 299.6 274 310.2C279.6 315.8 285.8 315.9 291.4 310.3C309.7 292.1 328 273.8 346.2 255.5C351.3 250.4 351.4 243.8 346.9 239.2C342.2 234.5 335.6 234.7 330.3 239.9C317.4 252.7 304.5 265.6 291.7 278.5C288.9 281.3 286.2 284.3 282.9 287.7V287.8Z" fill="#427F17"/>
<path d="M0.599976 112.4H338.7V166.4C301.7 151.8 266 153.9 232.6 175.8C199.4 197.6 183.1 229.4 181.5 269.5H177.6C130.1 269.5 82.6 269.5 35.1 269.5C15.2 269.5 0.599976 254.9 0.599976 235.1C0.599976 195.6 0.599976 156 0.599976 116.5C0.599976 115.3 0.599976 114.1 0.599976 112.5V112.4ZM90.8 179.6C101.9 179.6 113 179.6 124.1 179.6C131.6 179.6 136.9 174.9 136.9 168.4C136.9 161.9 131.6 157.2 124.2 157.2C102.3 157.2 80.3 157.2 58.4 157.2C50.9 157.2 45.6 161.9 45.6 168.4C45.6 174.9 50.9 179.6 58.3 179.6C69.1 179.6 80 179.6 90.8 179.6ZM91.2 202C79.9 202 68.5 202 57.2 202C50.6 202 45.5 207 45.5 213.1C45.5 219.2 50.5 224.3 57.1 224.4C79.8 224.4 102.5 224.6 125.1 224.3C128 224.3 131.4 222.6 133.6 220.6C137 217.6 137.7 213.2 135.8 208.9C133.7 204.2 129.9 202 124.8 202C113.6 202 102.4 202 91.2 202Z" fill="#427F17"/>
<path d="M0 44.6C0.7 37.5 0.5 30.5 2.2 24C6 9.6 19.2 0 34.1 0C124.5 0 215 0 305.4 0C324 0 338.8 14.9 338.9 33.5C338.9 37.1 338.9 40.7 338.9 44.6H0Z" fill="#427F17"/>
<path d="M0.699951 89.6V67.7H338.6V89.6H0.699951Z" fill="#427F17"/>
</svg>
