<svg width="21" height="22" viewBox="0 0 21 22" fill="none" xmlns="http://www.w3.org/2000/svg">
<g clip-path="url(#clip0_4164_10888)">
<path d="M2.625 10.125H9.625V3.125H2.625V10.125ZM4.375 4.875H7.875V8.375H4.375V4.875Z"/>
<path d="M2.625 18.875H9.625V11.875H2.625V18.875ZM4.375 13.625H7.875V17.125H4.375V13.625Z"/>
<path d="M11.375 3.125V10.125H18.375V3.125H11.375ZM16.625 8.375H13.125V4.875H16.625V8.375Z"/>
<path d="M18.375 17.125H16.625V18.875H18.375V17.125Z"/>
<path d="M13.125 11.875H11.375V13.625H13.125V11.875Z"/>
<path d="M14.875 13.625H13.125V15.375H14.875V13.625Z"/>
<path d="M13.125 15.375H11.375V17.125H13.125V15.375Z"/>
<path d="M14.875 17.125H13.125V18.875H14.875V17.125Z"/>
<path d="M16.625 15.375H14.875V17.125H16.625V15.375Z"/>
<path d="M16.625 11.875H14.875V13.625H16.625V11.875Z"/>
<path d="M18.375 13.625H16.625V15.375H18.375V13.625Z"/>
</g>
<defs>
<clipPath id="clip0_4164_10888">
<rect width="21" height="21" fill="white" transform="translate(0 0.5)"/>
</clipPath>
</defs>
</svg>
