<svg width="384" height="409" viewBox="0 0 384 409" fill="none" xmlns="http://www.w3.org/2000/svg">
<path d="M319.311 0.1C325.011 1.6 330.911 2.8 336.511 4.8C366.711 15.8 386.111 46.7 383.011 78.5C379.911 110.7 355.511 137.5 324.011 142.7C299.211 146.8 277.811 139.6 260.111 121.7C259.111 120.7 258.311 119.4 257.311 118.3C255.611 119.2 254.511 119.9 253.411 120.5C216.311 142.8 179.211 165.2 142.011 187.4C139.411 188.9 138.511 190.2 139.611 193.3C144.211 206 145.111 218.9 141.611 232.1C141.311 233.3 141.111 234.4 140.811 235.6C140.811 235.8 140.811 236.1 140.911 236.7C145.611 239.1 150.411 241.6 155.211 244C186.911 260.2 218.611 276.4 250.211 292.7C252.811 294 254.111 293.9 256.111 291.6C272.011 272.7 292.311 263.9 317.011 265.3C349.511 267.1 377.911 294.2 382.511 326.7C387.811 364.4 362.711 400 325.311 407.6C285.411 415.7 245.711 387.6 240.211 347.2C238.911 337.7 239.411 328.4 242.111 319.2C242.911 316.5 242.111 315.5 239.911 314.4C204.311 296.2 168.711 278 133.211 259.7C130.911 258.5 129.611 258.8 128.011 260.8C112.711 279.7 92.811 288.8 68.411 288.2C35.311 287.4 5.311 259.8 0.711 227C-4.189 192 16.711 158.8 48.811 148.4C76.311 139.5 100.711 145.5 121.711 165.2C123.011 166.4 124.011 167.8 125.311 169.3C165.111 145.3 204.611 121.6 243.511 98.2C242.111 90.2 239.911 82.5 239.611 74.8C238.511 36.8 263.911 6.6 301.511 0.7C302.111 0.7 302.711 0.2 303.311 0C308.611 0 313.911 0 319.311 0V0.1Z" fill="#A3B1B1"/>
</svg>
