<svg width="320" height="320" viewBox="0 0 320 320" fill="none" xmlns="http://www.w3.org/2000/svg">
<rect width="320" height="320" />
<path d="M143.9 319.9C113.5 319.9 83.0001 319.9 52.6001 319.9C25.9001 319.9 5.1001 302.1 0.600098 275.8C0.100098 273 0.100098 270.1 0.100098 267.2C0.100098 206.3 0.100098 145.5 0.100098 84.6C0.100098 58.6 17.1001 38 42.4001 32.9C45.6001 32.3 48.8001 31.9 52.1001 31.9C84.8001 31.9 117.5 31.9 150.2 31.9C162.2 31.9 170.1 42.3 166.4 53.1C164.2 59.8 158.2 63.9 150.6 64C129 64 107.4 64 85.9001 64C74.9001 64 63.9001 64 53.0001 64C40.8001 64 32.1001 72.4 32.1001 84.6C32.1001 145.5 32.1001 206.3 32.1001 267.2C32.1001 279.5 40.6001 288 52.9001 288C113.5 288 174.2 288 234.8 288C247.3 288 255.6 279.4 255.7 266.9C255.7 229.3 255.7 191.7 255.7 154C255.7 141.8 267.1 134 277.9 138.7C284.9 141.8 287.7 147.5 287.7 154.9C287.7 175.9 287.7 196.9 287.7 217.9C287.7 234.3 287.7 250.6 287.7 267C287.6 293.8 269.7 314.9 243.3 319.3C240 319.9 236.6 319.8 233.2 319.8C203.5 319.8 173.8 319.8 144.1 319.8L143.9 319.9Z" fill="#666666"/>
<path d="M286.1 54.8C285.2 56 284.6 57.4 283.5 58.5C241.1 101 198.7 143.5 156.3 186.1C151.7 190.7 146.5 193.3 139.8 191.7C128.1 188.8 123.7 175.1 131.4 165.9C132.4 164.8 133.5 163.7 134.5 162.7C176.7 120.5 218.8 78.2 261 36C262 35 263.5 34.3 264.7 33.5C264.4 33 264.1 32.5 263.9 32.1C262.6 32.1 261.3 32.1 260 32.1C242.4 32.1 224.8 32.1 207.2 32.1C200.4 32.1 195.5 28.6 192.9 22.4C190.4 16.4 191.3 10.6 195.6 5.6C198.9 1.5 203.3 0 208.3 0C223.4 0 238.5 0 253.6 0C269.7 0 285.8 0 301.9 0C313 0 319.3 6.3 319.3 17.4C319.3 48.8 319.3 80.1 319.3 111.5C319.3 119.4 314.6 125.4 307.5 127.3C300.7 129.1 293.1 126.3 289.9 119.9C288.4 117 287.7 113.5 287.7 110.3C287.5 93.4 287.6 76.6 287.6 59.7C287.6 58.4 287.6 57 287.6 55.7C287.1 55.4 286.7 55.1 286.2 54.8H286.1Z" fill="#666666"/>
</svg>
