<svg width="332" height="332" viewBox="0 0 332 332" fill="none" xmlns="http://www.w3.org/2000/svg">
<path d="M208.864 70.2414C208.364 73.5811 207.564 77.8904 206.364 82.8461C205.864 84.893 204.064 92.4343 200.364 102.13C199.264 105.039 196.664 111.826 192.364 120.229C187.964 128.848 183.364 136.281 178.964 142.53C176.364 146.193 169.964 155.027 160.164 165.046C158.464 166.77 153.264 171.941 146.064 177.974C137.164 185.3 129.764 190.147 126.264 192.302C124.764 193.164 121.364 195.319 116.764 197.796C111.964 200.382 108.164 202.213 107.264 202.644C106.264 203.183 102.464 204.907 97.2638 206.954C91.4638 209.216 86.4638 210.94 82.6638 212.017C80.5638 212.664 77.1638 213.633 72.7638 214.71C68.8638 215.68 65.7638 216.219 63.2638 216.65C58.7638 217.404 55.2638 217.942 54.2638 218.05C46.5638 219.02 40.6638 219.343 39.2638 219.451C38.4638 219.451 26.8638 219.989 17.5638 219.02C16.5638 219.02 12.5638 218.481 7.96379 217.942C6.36379 217.727 5.16379 217.619 4.26379 217.511C3.46379 217.404 2.86379 217.511 2.36379 217.511C2.06379 217.511 1.76379 217.619 1.46379 217.835C1.26379 217.942 0.663793 218.266 0.363793 218.912C-0.236207 219.989 0.063793 221.174 0.163793 221.39C0.363793 222.144 0.863793 222.575 1.26379 223.006C1.66379 223.437 2.16379 223.652 2.36379 223.868C3.86379 224.73 5.56379 225.16 6.16379 225.268C7.76379 225.699 6.76379 225.484 10.1638 226.453C11.7638 226.884 11.9638 226.884 14.8638 227.746C16.9638 228.285 16.9638 228.285 17.9638 228.608C19.6638 229.039 20.8638 229.362 22.7638 229.793C26.9638 230.763 29.0638 231.301 29.5638 231.409C32.0638 231.948 33.9638 232.271 36.9638 232.809C38.9638 233.133 40.6638 233.456 42.7638 233.779C46.1638 234.318 48.5638 234.533 53.2638 235.072C58.1638 235.61 60.6638 235.826 63.5638 236.041C66.6638 236.257 68.9638 236.257 72.1638 236.365C74.1638 236.365 77.7638 236.365 82.2638 236.365C89.7638 236.257 95.5638 235.826 97.9638 235.61C109.964 234.641 119.864 232.917 126.164 231.624C137.564 229.362 146.064 226.776 148.464 226.022C152.264 224.837 164.464 221.067 179.464 213.956C186.164 210.832 191.164 208.031 193.264 206.954C202.064 202.106 208.364 197.904 209.864 196.827C211.064 195.965 216.064 192.625 222.364 187.562C229.764 181.744 234.964 176.896 236.064 175.819C241.564 170.648 245.464 166.446 246.864 164.83C252.464 158.69 256.364 153.518 258.264 151.041C259.264 149.64 261.964 145.977 265.264 141.022C266.564 138.975 268.864 135.527 271.464 130.787C272.564 128.74 274.664 124.969 276.964 120.121C277.564 118.829 279.464 114.735 281.664 109.348C282.664 106.763 284.364 102.561 286.264 96.6358C287.364 93.0807 288.064 90.4951 289.464 85.2162C290.864 79.8296 291.464 77.0286 291.964 73.7966C292.164 72.2884 292.264 71.1033 292.364 70.2414C305.264 70.2414 318.164 70.2414 331.064 70.2414C303.064 46.8635 274.964 23.3779 246.964 0C218.964 23.3779 191.064 46.8635 163.064 70.2414C178.264 70.2414 193.464 70.2414 208.564 70.2414H208.864Z" fill="#86C22E"/>
<path d="M89.3638 22.8392C48.7638 22.8392 15.7638 58.3909 15.7638 102.13C15.7638 145.869 48.6638 181.421 89.3638 181.421C130.064 181.421 162.964 145.977 162.964 102.13C162.964 58.2832 130.064 22.8392 89.3638 22.8392ZM127.264 123.677C127.164 124.969 126.964 125.939 126.764 127.124C126.564 128.309 126.264 130.033 125.564 131.972C125.164 133.049 124.564 135.096 123.164 137.466C122.864 138.005 121.464 140.375 118.964 142.853C116.864 144.9 115.064 146.085 113.864 146.731C111.364 148.24 109.264 149.101 107.664 149.64C106.064 150.287 103.964 150.825 99.6638 152.01C98.4638 152.333 97.4638 152.657 96.7638 152.764C96.7638 157.397 96.7638 161.922 96.7638 166.554C91.9638 166.77 87.0638 166.985 82.2638 167.2C82.2638 162.46 82.2638 157.828 82.2638 153.088C81.5638 153.088 80.5638 153.088 79.4638 152.872C77.5638 152.657 76.1638 152.333 75.3638 152.226C69.4638 151.041 66.5638 150.394 66.5638 150.394C57.9638 148.455 56.6638 147.809 55.0638 146.839C53.3638 145.762 52.0638 144.577 51.3638 143.715C51.3638 135.743 51.3638 127.77 51.3638 119.798C51.6638 119.798 52.0638 120.014 52.4638 120.229C53.8638 120.768 54.8638 121.307 55.1638 121.522C56.0638 121.953 57.4638 122.599 60.3638 123.784C62.2638 124.538 64.4638 125.4 67.3638 126.37C70.8638 127.555 73.7638 128.525 77.7638 129.386C79.7638 129.817 82.1638 130.141 85.0638 130.248C86.5638 130.248 88.5638 130.356 91.0638 130.141C93.9638 129.817 94.9638 129.279 95.4638 129.063C96.2638 128.632 97.9638 127.663 98.6638 125.724C99.2638 124.108 98.9638 122.707 98.9638 122.492C98.9638 122.061 98.7638 121.414 98.2638 120.66C97.6638 119.583 96.8638 119.044 96.3638 118.721C93.7638 116.89 91.9638 115.92 91.9638 115.92C88.9638 114.412 86.8638 113.442 86.8638 113.442C84.8638 112.58 84.1638 112.365 79.4638 110.426C75.0638 108.702 74.4638 108.379 73.6638 108.055C71.4638 106.978 69.5638 106.009 68.6638 105.47C66.9638 104.5 66.1638 104.069 65.0638 103.315C63.5638 102.346 61.4638 100.945 59.1638 98.575C58.6638 98.0364 57.8638 97.1745 56.9638 95.9894C56.3638 95.1276 55.4638 94.0503 54.6638 92.4343C53.9638 91.1415 53.5638 90.1719 53.1638 89.2023C52.4638 87.4786 51.8638 85.6472 51.5638 83.277C51.5638 82.6306 51.4638 81.7688 51.4638 80.1528C51.4638 76.1667 51.3638 74.2275 51.5638 72.2883C51.9638 69.3796 52.6638 67.1172 52.8638 66.3631C53.2638 65.0703 54.1638 62.7002 55.9638 60.1146C57.6638 57.7445 59.3638 56.344 60.4638 55.4821C63.7638 52.8965 66.8638 51.7115 68.9638 50.9574C70.9638 50.2032 73.2638 49.6646 74.7638 49.2336C75.4638 49.0182 76.3638 48.8027 78.1638 48.3718C79.9638 47.9409 81.4638 47.5099 82.4638 47.2945C82.4638 44.0625 82.2638 40.7228 82.2638 37.4908H96.7638C96.7638 40.8305 96.9638 44.1702 97.0638 47.6177C98.6638 47.7254 100.564 48.0486 102.864 48.3718C106.664 49.0182 109.664 49.6646 111.164 50.0955C115.364 51.1728 118.464 52.0347 122.364 53.8661C123.864 54.6203 125.064 55.2666 125.864 55.8053C122.964 63.1311 120.064 70.4569 117.164 77.7827C116.964 77.5672 116.564 77.3518 116.064 77.1363C114.464 76.1667 112.964 75.5203 111.064 74.7662C108.864 73.9043 106.964 73.2579 104.364 72.6115C101.964 72.0729 100.164 71.8574 96.4638 71.5342C90.9638 70.9956 91.3638 71.4265 86.0638 71.211C86.0638 71.211 84.4638 71.211 82.8638 71.642C82.5638 71.642 82.1638 71.8574 81.7638 72.0729C81.5638 72.1806 80.7638 72.7193 80.1638 73.6889C80.0638 73.9043 79.4638 74.7662 79.3638 76.059C79.3638 76.2744 79.3638 77.1363 79.5638 78.1059C79.9638 79.7219 80.9638 80.6915 81.4638 81.1224C82.0638 81.6611 82.5638 81.9843 84.5638 82.9538C86.9638 84.1389 87.9638 84.5698 87.9638 84.5698C93.7638 87.1554 92.6638 86.7245 94.1638 87.2631C98.0638 88.8791 98.0638 88.7714 101.164 90.0642C102.764 90.7106 104.564 91.5724 106.964 92.7575C109.664 94.158 111.764 95.1276 114.364 96.959C116.964 98.7905 118.564 100.299 118.864 100.73C119.664 101.484 120.864 102.669 122.064 104.5C122.864 105.685 124.364 107.732 125.464 110.856C125.664 111.287 126.164 113.011 126.564 115.274C126.764 116.566 126.864 117.536 126.864 118.505C126.964 120.014 127.064 121.737 126.864 124L127.264 123.677Z" fill="#86C22E"/>
<path d="M0.0637207 234.102C0.0637207 266.53 0.0637207 298.957 0.0637207 331.385C14.4637 331.385 28.9637 331.385 43.3637 331.385C43.3637 302.297 43.3637 273.317 43.3637 244.229C42.3637 244.121 41.0637 243.906 39.3637 243.583C36.8637 243.152 31.9637 242.398 27.4637 241.428C21.6637 240.243 17.2637 239.058 12.7637 237.873C9.36372 236.903 5.06372 235.718 0.0637207 234.102Z" fill="#86C22E"/>
<path d="M173.264 227.961C173.264 262.436 173.264 296.91 173.264 331.384C158.864 331.384 144.364 331.384 129.964 331.384C129.964 301.327 129.964 271.27 129.964 241.213C130.964 240.997 132.364 240.782 133.964 240.458C135.264 240.243 139.364 239.381 145.664 237.55C152.964 235.503 158.464 233.564 160.064 233.025C164.064 231.624 168.464 229.901 173.264 227.854V227.961Z" fill="#86C22E"/>
<path d="M65.0637 245.953C70.2637 246.276 74.7637 246.384 78.2637 246.492C80.7637 246.492 79.1637 246.491 92.7637 246.061C96.8637 245.953 100.364 245.845 105.064 245.091C106.464 244.876 107.564 244.66 108.364 244.445C108.364 273.425 108.364 302.297 108.364 331.277C93.9637 331.277 79.4637 331.277 65.0637 331.277C65.0637 302.835 65.0637 274.394 65.0637 245.953Z" fill="#86C22E"/>
<path d="M194.564 331.277C194.564 293.463 194.564 255.649 194.564 217.835C195.764 217.188 197.364 216.326 199.164 215.357C200.764 214.495 204.064 212.663 207.764 210.293C212.664 207.277 216.364 204.691 219.064 202.752C224.764 198.658 228.964 195.426 230.164 194.457C233.264 191.979 235.864 189.824 237.864 187.993C237.864 235.718 238.064 283.551 238.164 331.277C223.664 331.277 209.164 331.277 194.564 331.277Z" fill="#86C22E"/>
<path d="M259.464 331.6V165.908C259.764 165.584 260.264 165.046 260.864 164.399C262.264 162.783 263.364 161.491 264.764 159.659C266.464 157.397 267.464 156.104 268.964 154.057C271.064 151.148 272.564 148.886 272.964 148.24C274.664 145.654 277.164 141.883 279.764 137.251C280.664 135.743 281.864 133.696 283.364 130.895C283.964 129.71 285.564 126.693 287.564 122.599C288.364 120.768 290.264 116.674 292.464 111.287C294.164 107.086 295.264 103.746 296.064 101.376C296.664 99.5446 297.164 98.2518 297.664 96.4204C298.364 94.0503 298.164 94.3735 299.764 88.6637C300.364 86.6167 300.764 85.1085 301.264 82.7384C301.464 81.8765 301.564 81.1224 301.664 80.5837H302.764C302.764 164.184 302.764 247.892 302.764 331.492C288.364 331.492 273.864 331.492 259.464 331.492V331.6Z" fill="#86C22E"/>
</svg>
