<svg width="25" height="25" viewBox="0 0 25 25" fill="none" xmlns="http://www.w3.org/2000/svg">
<path d="M2.83636 7.92944V9.92944H6.83636V11.9294H4.83636C4.30593 11.9294 3.79722 12.1402 3.42215 12.5152C3.04708 12.8903 2.83636 13.399 2.83636 13.9294V17.9294H8.83636V15.9294H4.83636V13.9294H6.83636C7.3668 13.9294 7.87551 13.7187 8.25058 13.3437C8.62565 12.9686 8.83636 12.4599 8.83636 11.9294V9.92944C8.83636 8.81944 7.93636 7.92944 6.83636 7.92944H2.83636ZM9.83636 7.92944V17.9294H11.8364V13.9294H14.8364V11.9294H11.8364V9.92944H15.8364V7.92944H9.83636ZM18.8364 7.92944C18.3059 7.92944 17.7972 8.14016 17.4222 8.51523C17.0471 8.8903 16.8364 9.39901 16.8364 9.92944V17.9294H18.8364V14.9294H20.8364V17.9294H22.8364V9.92944C22.8364 9.39901 22.6257 8.8903 22.2506 8.51523C21.8755 8.14016 21.3668 7.92944 20.8364 7.92944H18.8364ZM18.8364 9.92944H20.8364V12.9294H18.8364V9.92944Z" fill="black"/>
</svg>
