<svg width="365" height="365" viewBox="0 0 365 365" fill="none" xmlns="http://www.w3.org/2000/svg">
<path d="M169.3 0C177.8 0 186.4 0 194.9 0C195.8 0.2 196.7 0.6 197.6 0.7C224.9 2.9 250.3 11.2 274 24.9C338.7 62.3 374.6 138.6 361.8 212.1C354.7 253 336.2 288 305.5 316C263.3 354.5 213.3 369.9 156.8 362.6C121.3 358 89.9 343.5 62.9 319.9C30.7 291.7 10.5 256.5 2.8 214.3C1.6 207.9 0.9 201.5 0 195C0 186.5 0 177.9 0 169.4C0.5 165.3 1 161.2 1.6 157.1C6.8 121.8 20.7 90.4 44.1 63.4C72.4 30.8 107.8 10.4 150.4 2.8C156.7 1.7 163 0.9 169.3 0ZM180.4 306.7C183.5 306.7 186.6 306.8 189.6 306.7C194 306.5 196.3 304.2 196.4 299.7C196.6 294.5 196.6 289.3 196.6 284.1C196.6 277.7 198.3 275.4 204.2 273.4C208.2 272 212.3 270.7 216.1 268.8C238.7 257.4 250.5 233.5 245.5 209C241.8 190.9 230.9 177.9 214.5 169.7C205.5 165.2 196.1 161.7 187 157.3C180.8 154.3 174.4 151.1 169 146.8C160.3 139.8 161.9 127.8 171.9 122.8C175.5 121 179.8 120.1 183.8 119.8C197.5 118.7 210.6 121.7 223 127.6C228.4 130.1 230.1 129.4 232 123.8C233.9 118.1 235.5 112.3 237.2 106.5C239.9 97.2 239.1 95.5 230.2 92C230.1 92 230 92 229.9 91.9C221.7 89.8 213.5 87.5 205.2 85.6C199.8 84.3 198.7 83.2 198.5 77.8C198.4 73.5 198.3 69.3 198 65C197.6 59.7 196.1 58.1 190.7 57.9C185.5 57.7 180.3 57.7 175.1 57.9C169 57.9 167.4 59.7 167.3 65.9C167.3 70.5 167.2 75.1 167.3 79.8C167.3 84.3 165.5 87.1 161.2 88.6C157.5 89.8 153.9 91.3 150.3 93C120.5 106.7 115.5 136.3 121.8 156.3C126.1 170.1 136.2 179.4 148.5 185.9C159.3 191.6 171 195.8 182 201.2C187.5 203.9 193 206.9 197.4 211C205.2 218.1 204.8 229.6 196.6 235.9C192.6 239 187.2 241 182.2 242.1C171 244.6 160.1 241.6 149.4 238.4C143.6 236.6 138 233.8 132.4 231.4C129.6 230.2 126.7 229.8 125.6 233.2C122.9 241.9 120.5 250.6 118.2 259.4C117.4 262.4 118.9 264.8 121.6 266.1C125.4 268 129.2 270.2 133.2 271.4C141.9 273.9 150.8 275.8 159.7 277.7C163 278.4 164.6 280 164.7 283.5C164.7 289.2 164.9 294.9 165.2 300.6C165.4 304.6 167.8 306.9 171.8 307.1C174.8 307.2 177.7 307.1 180.7 307.1L180.4 306.7Z" fill="#15C196"/>
</svg>
