<svg viewBox="0 0 16 16" fill="none" xmlns="http://www.w3.org/2000/svg">
<rect width="16" height="16" rx="6" fill="#F3BA2F"/>
<path d="M6.05791 7.20209L7.99991 5.26014L9.94287 7.20309L11.0729 6.07309L7.99991 3L4.92796 6.07209L6.05791 7.20209ZM3 7.99983L4.13003 6.8698L5.25999 7.99976L4.12997 9.12978L3 7.99983ZM6.05791 8.79788L7.99991 10.7398L9.94287 8.79693L11.0734 9.92631L11.0729 9.92694L7.99991 13L4.92786 9.928L4.92626 9.92637L6.05791 8.79788ZM10.74 8.00045L11.8701 6.87042L13 8.00038L11.87 9.13041L10.74 8.00045Z" fill="white"/>
<path d="M9.14588 7.99949H9.14638L7.99973 6.85284L7.15234 7.70024H7.15229L7.05494 7.79764L6.85414 7.99849L6.85254 8.00004L6.85414 8.00169L7.99973 9.14733L9.14638 8.00069L9.14693 8.00004L9.14588 7.99949Z" fill="white"/>
</svg>
