<svg width="931" height="931" viewBox="0 0 931 931" fill="none" xmlns="http://www.w3.org/2000/svg">
<path d="M465.4 930.8C722.433 930.8 930.8 722.433 930.8 465.4C930.8 208.367 722.433 0 465.4 0C208.367 0 0 208.367 0 465.4C0 722.433 208.367 930.8 465.4 930.8Z" fill="url(#paint0_linear_22_51)"/>
<path d="M407.6 446C410.969 446 413.7 443.269 413.7 439.9C413.7 436.531 410.969 433.8 407.6 433.8C404.231 433.8 401.5 436.531 401.5 439.9C401.5 443.269 404.231 446 407.6 446Z" fill="white"/>
<path d="M386.4 433.5C389.769 433.5 392.5 430.769 392.5 427.4C392.5 424.031 389.769 421.3 386.4 421.3C383.031 421.3 380.3 424.031 380.3 427.4C380.3 430.769 383.031 433.5 386.4 433.5Z" fill="white"/>
<path d="M364.3 421C367.669 421 370.4 418.269 370.4 414.9C370.4 411.531 367.669 408.8 364.3 408.8C360.931 408.8 358.2 411.531 358.2 414.9C358.2 418.269 360.931 421 364.3 421Z" fill="white"/>
<path d="M867.8 464.3C867.4 501.2 861.7 576.3 816.6 655.7C805.6 675.1 774 726.9 714.1 773C706.1 779.2 598 860.5 466 858.8C290.2 856.6 63.2999 707.1 63.2999 465.3C63.2999 248.7 245 68.3 466 70.7V36.8C425.3 36.5 352.7 41.5 273.5 79.4C222.2 103.9 187.1 133 169.1 149.4C67.0999 242.5 41.5999 358.3 37.1999 379.8C29.5999 417.1 15.5999 511.3 57.3999 618.6C67.0999 643.4 102.2 726.6 188.9 796.4C307.1 891.5 437.2 894 466.5 893.9C616.4 893.4 739.6 815.4 808.1 730.5C852.1 675.9 873.1 619.1 876.8 608.6C898 549.5 901.6 497.5 901.4 464.1C890.2 464.1 878.9 464.1 867.6 464.1L867.8 464.3Z" fill="#DEBC71"/>
<path d="M530.9 74.3C540.896 74.3 549 66.1963 549 56.2C549 46.2036 540.896 38.1 530.9 38.1C520.903 38.1 512.8 46.2036 512.8 56.2C512.8 66.1963 520.903 74.3 530.9 74.3Z" fill="#DEBC71"/>
<path d="M588.1 86.6C598.096 86.6 606.2 78.4964 606.2 68.5C606.2 58.5037 598.096 50.4 588.1 50.4C578.104 50.4 570 58.5037 570 68.5C570 78.4964 578.104 86.6 588.1 86.6Z" fill="#DEBC71"/>
<path d="M643.1 106.7C653.096 106.7 661.2 98.5964 661.2 88.6C661.2 78.6036 653.096 70.5 643.1 70.5C633.104 70.5 625 78.6036 625 88.6C625 98.5964 633.104 106.7 643.1 106.7Z" fill="#DEBC71"/>
<path d="M694.7 134.3C704.696 134.3 712.8 126.196 712.8 116.2C712.8 106.204 704.696 98.1 694.7 98.1C684.704 98.1 676.6 106.204 676.6 116.2C676.6 126.196 684.704 134.3 694.7 134.3Z" fill="#DEBC71"/>
<path d="M742 168.8C751.996 168.8 760.1 160.696 760.1 150.7C760.1 140.704 751.996 132.6 742 132.6C732.004 132.6 723.9 140.704 723.9 150.7C723.9 160.696 732.004 168.8 742 168.8Z" fill="#DEBC71"/>
<path d="M784.1 209.6C794.096 209.6 802.2 201.496 802.2 191.5C802.2 181.504 794.096 173.4 784.1 173.4C774.104 173.4 766 181.504 766 191.5C766 201.496 774.104 209.6 784.1 209.6Z" fill="#DEBC71"/>
<path d="M820 255.8C829.996 255.8 838.1 247.696 838.1 237.7C838.1 227.704 829.996 219.6 820 219.6C810.004 219.6 801.9 227.704 801.9 237.7C801.9 247.696 810.004 255.8 820 255.8Z" fill="#DEBC71"/>
<path d="M849.2 306.5C859.196 306.5 867.3 298.396 867.3 288.4C867.3 278.404 859.196 270.3 849.2 270.3C839.204 270.3 831.1 278.404 831.1 288.4C831.1 298.396 839.204 306.5 849.2 306.5Z" fill="#DEBC71"/>
<path d="M871 360.9C880.996 360.9 889.1 352.796 889.1 342.8C889.1 332.804 880.996 324.7 871 324.7C861.004 324.7 852.9 332.804 852.9 342.8C852.9 352.796 861.004 360.9 871 360.9Z" fill="#DEBC71"/>
<path d="M885.1 417.7C895.096 417.7 903.2 409.596 903.2 399.6C903.2 389.604 895.096 381.5 885.1 381.5C875.104 381.5 867 389.604 867 399.6C867 409.596 875.104 417.7 885.1 417.7Z" fill="#DEBC71"/>
<path d="M574 350.4C592.1 339.9 610.2 329.4 628.3 319C646.4 329.5 664.5 340 682.6 350.4C682.6 371.8 682.6 393.2 682.6 414.6C664.7 424.7 646.8 434.8 628.9 445C610.6 434.9 592.3 424.8 574 414.6C574 393.2 574 371.8 574 350.4Z" fill="#DEBC71"/>
<path d="M231.9 549.4C250 538.9 268.1 528.4 286.2 518C304.3 528.5 322.4 539 340.5 549.4C340.5 570.8 340.5 592.2 340.5 613.6C322.6 623.7 304.7 633.8 286.8 644C268.5 633.9 250.2 623.8 231.9 613.6C231.9 592.2 231.9 570.8 231.9 549.4Z" fill="#DEBC71"/>
<path d="M239.2 341C257.3 330.5 275.4 320 293.5 309.6C311.6 320.1 329.7 330.6 347.8 341C347.8 362.4 347.8 383.8 347.8 405.2C329.9 415.3 312 425.4 294.1 435.6C275.8 425.5 257.5 415.4 239.2 405.2C239.2 383.8 239.2 362.4 239.2 341Z" fill="#DEBC71"/>
<path d="M411.2 684.6C429.3 674.1 447.4 663.6 465.5 653.2C483.6 663.7 501.7 674.2 519.8 684.6C519.8 706 519.8 727.4 519.8 748.8C501.9 758.9 484 769 466.1 779.2C447.8 769.1 429.5 759 411.2 748.8C411.2 727.4 411.2 706 411.2 684.6Z" fill="#DEBC71"/>
<path d="M606.367 394.659L606.317 394.572C604.77 391.893 601.346 390.976 598.667 392.522L502.452 448.072C499.773 449.619 498.856 453.043 500.402 455.722L500.452 455.809C501.998 458.487 505.423 459.405 508.102 457.858L604.317 402.308C606.996 400.762 607.913 397.337 606.367 394.659Z" fill="white"/>
<path d="M466.1 518H466C462.907 518 460.4 520.507 460.4 523.6V686.5C460.4 689.593 462.907 692.1 466 692.1H466.1C469.193 692.1 471.7 689.593 471.7 686.5V523.6C471.7 520.507 469.193 518 466.1 518Z" fill="white"/>
<path d="M411.5 441.4C429.6 430.9 447.7 420.4 465.8 410C483.9 420.5 502 431 520.1 441.4C520.1 462.8 520.1 484.2 520.1 505.6C502.2 515.7 484.3 525.8 466.4 536C448.1 525.9 429.8 515.8 411.5 505.6C411.5 484.2 411.5 462.8 411.5 441.4Z" fill="#DEBC71"/>
<path d="M465.8 261.7H465.7C462.607 261.7 460.1 264.207 460.1 267.3V431.6C460.1 434.693 462.607 437.2 465.7 437.2H465.8C468.893 437.2 471.4 434.693 471.4 431.6V267.3C471.4 264.207 468.893 261.7 465.8 261.7Z" fill="white"/>
<path d="M411.1 181.5C429.2 171 447.3 160.5 465.4 150.1C483.5 160.6 501.6 171.1 519.7 181.5C519.7 202.9 519.7 224.3 519.7 245.7C501.8 255.8 483.9 265.9 466 276.1C447.7 266 429.4 255.9 411.1 245.7C411.1 224.3 411.1 202.9 411.1 181.5Z" fill="#DEBC71"/>
<path d="M497.51 491.234L497.46 491.321C495.913 493.999 496.831 497.424 499.509 498.971L641.797 581.121C644.476 582.667 647.901 581.749 649.447 579.071L649.497 578.984C651.044 576.306 650.126 572.881 647.447 571.335L505.159 489.185C502.481 487.638 499.056 488.556 497.51 491.234Z" fill="white"/>
<path d="M611.4 557.7C629.5 547.2 647.6 536.7 665.7 526.3C683.8 536.8 701.9 547.3 720 557.7C720 579.1 720 600.5 720 621.9C702.1 632 684.2 642.1 666.3 652.3C648 642.2 629.7 632.1 611.4 621.9C611.4 600.5 611.4 579.1 611.4 557.7Z" fill="#DEBC71"/>
<path d="M353 546.9C356.369 546.9 359.1 544.169 359.1 540.8C359.1 537.431 356.369 534.7 353 534.7C349.631 534.7 346.9 537.431 346.9 540.8C346.9 544.169 349.631 546.9 353 546.9Z" fill="white"/>
<path d="M379.6 531.7C382.969 531.7 385.7 528.969 385.7 525.6C385.7 522.231 382.969 519.5 379.6 519.5C376.231 519.5 373.5 522.231 373.5 525.6C373.5 528.969 376.231 531.7 379.6 531.7Z" fill="white"/>
<path d="M406.2 516.4C409.569 516.4 412.3 513.669 412.3 510.3C412.3 506.931 409.569 504.2 406.2 504.2C402.831 504.2 400.1 506.931 400.1 510.3C400.1 513.669 402.831 516.4 406.2 516.4Z" fill="white"/>
<path d="M432.5 501.1C435.869 501.1 438.6 498.369 438.6 495C438.6 491.631 435.869 488.9 432.5 488.9C429.131 488.9 426.4 491.631 426.4 495C426.4 498.369 429.131 501.1 432.5 501.1Z" fill="white"/>
<path d="M342.5 407.5C345.869 407.5 348.6 404.769 348.6 401.4C348.6 398.031 345.869 395.3 342.5 395.3C339.131 395.3 336.4 398.031 336.4 401.4C336.4 404.769 339.131 407.5 342.5 407.5Z" fill="white"/>
<path d="M321.4 390.7C324.769 390.7 327.5 387.969 327.5 384.6C327.5 381.231 324.769 378.5 321.4 378.5C318.031 378.5 315.3 381.231 315.3 384.6C315.3 387.969 318.031 390.7 321.4 390.7Z" fill="white"/>
<defs>
<linearGradient id="paint0_linear_22_51" x1="464.6" y1="-5.56622e-08" x2="466.2" y2="929" gradientUnits="userSpaceOnUse">
<stop stop-color="#115D50"/>
<stop offset="0.6" stop-color="#0E302B"/>
<stop offset="0.9" stop-color="#0D2E29"/>
<stop offset="1" stop-color="#092622"/>
</linearGradient>
</defs>
</svg>
