<svg width="312" height="192" viewBox="0 0 312 192" fill="none" xmlns="http://www.w3.org/2000/svg">
<path d="M156 0.2C201.3 0.2 246.6 0.4 291.8 0C302.8 0 311.7 9.1 311.6 20C311.2 70.6 311.2 121.3 311.6 171.9C311.6 183.1 302.5 191.9 291.8 191.9C201.1 191.6 110.5 191.6 19.8 191.9C9.4 191.9 0 183.3 0 171.9C0.4 121.3 0.4 70.6 0 20C0 8.7 9.3 0 19.8 0C65.2 0.4 110.6 0.2 156 0.2ZM12.1 60.2V64.3C12.1 99.8 12.1 135.4 12.1 170.9C12.1 178.1 13.7 179.8 20.8 179.8C110.9 179.8 200.9 179.8 291 179.8C297.9 179.8 299.6 178.1 299.6 171.2C299.6 135.5 299.6 99.9 299.6 64.2V60.2H12.1ZM12.1 47.8H299.5C299.5 38.8 299.5 30.1 299.5 21.4C299.5 13.5 298.1 12.1 290.1 12.1C200.5 12.1 111 12.1 21.4 12.1C20.3 12.1 19.1 12.1 18 12.1C14.3 12.4 12.1 14.3 12 18C11.9 27.8 12 37.7 12 47.8H12.1Z" fill="black"/>
<path d="M239.701 155.8C233.701 155.8 227.701 155.8 221.801 155.8C211.901 155.8 203.801 147.5 203.801 137.7C203.801 128.1 212.001 120 221.801 119.9C233.801 119.9 245.701 119.9 257.701 119.9C267.601 119.9 275.701 128.2 275.701 138C275.701 147.6 267.501 155.7 257.701 155.8C251.701 155.8 245.701 155.8 239.801 155.8H239.701ZM239.901 131.8C234.301 131.8 228.701 131.8 223.101 131.8C218.301 131.8 215.701 134 215.801 137.9C215.801 141.6 218.301 143.8 222.901 143.8C234.101 143.8 245.301 143.8 256.501 143.8C261.101 143.8 263.601 141.6 263.601 137.9C263.601 134 261.101 131.9 256.301 131.8C250.801 131.8 245.301 131.8 239.901 131.8Z" fill="black"/>
<path d="M128.101 120.8C128.101 124.8 127.401 133.1 122.501 141.8C121.301 143.9 117.801 149.6 111.301 154.7C110.401 155.4 98.6009 164.3 84.1009 164.1C64.8009 163.9 40.0009 147.5 40.0009 121C40.0009 97.2996 59.9009 77.4996 84.1009 77.7996V74.0996C79.6009 74.0996 71.7009 74.5996 63.0009 78.7996C57.4009 81.4996 53.5009 84.6996 51.6009 86.4996C40.4009 96.6996 37.6009 109.4 37.2009 111.7C36.4009 115.8 34.8009 126.1 39.4009 137.9C40.5009 140.6 44.3009 149.7 53.8009 157.4C66.7009 167.8 81.0009 168.1 84.2009 168.1C100.601 168.1 114.101 159.5 121.601 150.2C126.401 144.2 128.701 138 129.101 136.8C131.401 130.3 131.801 124.6 131.801 121H128.101V120.8Z" fill="black"/>
<path d="M91.1992 78.0996C92.3038 78.0996 93.1992 77.2042 93.1992 76.0996C93.1992 74.995 92.3038 74.0996 91.1992 74.0996C90.0946 74.0996 89.1992 74.995 89.1992 76.0996C89.1992 77.2042 90.0946 78.0996 91.1992 78.0996Z" fill="black"/>
<path d="M97.4004 79.5C98.505 79.5 99.4004 78.6046 99.4004 77.5C99.4004 76.3954 98.505 75.5 97.4004 75.5C96.2958 75.5 95.4004 76.3954 95.4004 77.5C95.4004 78.6046 96.2958 79.5 97.4004 79.5Z" fill="black"/>
<path d="M103.5 81.7002C104.605 81.7002 105.5 80.8048 105.5 79.7002C105.5 78.5956 104.605 77.7002 103.5 77.7002C102.395 77.7002 101.5 78.5956 101.5 79.7002C101.5 80.8048 102.395 81.7002 103.5 81.7002Z" fill="black"/>
<path d="M109.1 84.7002C110.204 84.7002 111.1 83.8048 111.1 82.7002C111.1 81.5956 110.204 80.7002 109.1 80.7002C107.995 80.7002 107.1 81.5956 107.1 82.7002C107.1 83.8048 107.995 84.7002 109.1 84.7002Z" fill="black"/>
<path d="M114.301 88.5C115.405 88.5 116.301 87.6046 116.301 86.5C116.301 85.3954 115.405 84.5 114.301 84.5C113.196 84.5 112.301 85.3954 112.301 86.5C112.301 87.6046 113.196 88.5 114.301 88.5Z" fill="black"/>
<path d="M118.9 93C120.005 93 120.9 92.1046 120.9 91C120.9 89.8954 120.005 89 118.9 89C117.796 89 116.9 89.8954 116.9 91C116.9 92.1046 117.796 93 118.9 93Z" fill="black"/>
<path d="M122.801 98C123.905 98 124.801 97.1046 124.801 96C124.801 94.8954 123.905 94 122.801 94C121.696 94 120.801 94.8954 120.801 96C120.801 97.1046 121.696 98 122.801 98Z" fill="black"/>
<path d="M126 103.6C127.105 103.6 128 102.704 128 101.6C128 100.495 127.105 99.5996 126 99.5996C124.895 99.5996 124 100.495 124 101.6C124 102.704 124.895 103.6 126 103.6Z" fill="black"/>
<path d="M128.301 109.5C129.405 109.5 130.301 108.605 130.301 107.5C130.301 106.395 129.405 105.5 128.301 105.5C127.196 105.5 126.301 106.395 126.301 107.5C126.301 108.605 127.196 109.5 128.301 109.5Z" fill="black"/>
<path d="M129.6 115.8C130.704 115.8 131.6 114.904 131.6 113.8C131.6 112.695 130.704 111.8 129.6 111.8C128.495 111.8 127.6 112.695 127.6 113.8C127.6 114.904 128.495 115.8 129.6 115.8Z" fill="black"/>
<path d="M58.4008 130.2C60.4008 129.1 62.4008 127.9 64.3008 126.8C66.3008 127.9 68.3008 129.1 70.2008 130.2C70.2008 132.5 70.2008 134.9 70.2008 137.2C68.2008 138.3 66.3008 139.4 64.3008 140.5C62.3008 139.4 60.3008 138.3 58.3008 137.2C58.3008 134.9 58.3008 132.5 58.3008 130.2H58.4008Z" fill="black"/>
<path d="M77.5004 126.5C77.8318 126.5 78.1004 126.231 78.1004 125.9C78.1004 125.568 77.8318 125.3 77.5004 125.3C77.169 125.3 76.9004 125.568 76.9004 125.9C76.9004 126.231 77.169 126.5 77.5004 126.5Z" fill="black"/>
<path d="M72.9008 116C73.2322 116 73.5008 115.731 73.5008 115.4C73.5008 115.068 73.2322 114.8 72.9008 114.8C72.5694 114.8 72.3008 115.068 72.3008 115.4C72.3008 115.731 72.5694 116 72.9008 116Z" fill="black"/>
<path d="M75.2992 117.4C75.6306 117.4 75.8992 117.132 75.8992 116.8C75.8992 116.469 75.6306 116.2 75.2992 116.2C74.9679 116.2 74.6992 116.469 74.6992 116.8C74.6992 117.132 74.9679 117.4 75.2992 117.4Z" fill="black"/>
<path d="M77.6996 118.8C78.031 118.8 78.2996 118.531 78.2996 118.2C78.2996 117.868 78.031 117.6 77.6996 117.6C77.3682 117.6 77.0996 117.868 77.0996 118.2C77.0996 118.531 77.3682 118.8 77.6996 118.8Z" fill="black"/>
<path d="M74.6 128.2C74.9314 128.2 75.2 127.931 75.2 127.6C75.2 127.269 74.9314 127 74.6 127C74.2686 127 74 127.269 74 127.6C74 127.931 74.2686 128.2 74.6 128.2Z" fill="black"/>
<path d="M71.6996 129.8C72.031 129.8 72.2996 129.531 72.2996 129.2C72.2996 128.868 72.031 128.6 71.6996 128.6C71.3682 128.6 71.0996 128.868 71.0996 129.2C71.0996 129.531 71.3682 129.8 71.6996 129.8Z" fill="black"/>
<path d="M68.2 112.8C68.5866 112.8 68.9 112.487 68.9 112.1C68.9 111.714 68.5866 111.4 68.2 111.4C67.8134 111.4 67.5 111.714 67.5 112.1C67.5 112.487 67.8134 112.8 68.2 112.8Z" fill="black"/>
<path d="M59.1996 107.3C61.1996 106.2 63.1996 105 65.0996 103.9C67.0996 105 69.0996 106.2 70.9996 107.3C70.9996 109.6 70.9996 112 70.9996 114.3C68.9996 115.4 67.0996 116.5 65.0996 117.6C63.0996 116.5 61.0996 115.4 59.0996 114.3C59.0996 112 59.0996 109.6 59.0996 107.3H59.1996Z" fill="black"/>
<path d="M84.1 98.5996H83.9C83.6791 98.5996 83.5 98.7787 83.5 98.9996V116.6C83.5 116.821 83.6791 117 83.9 117H84.1C84.3209 117 84.5 116.821 84.5 116.6V98.9996C84.5 98.7787 84.3209 98.5996 84.1 98.5996Z" fill="black"/>
<path d="M84.1 127.6H83.9C83.6791 127.6 83.5 127.779 83.5 128V145.6C83.5 145.821 83.6791 146 83.9 146H84.1C84.3209 146 84.5 145.821 84.5 145.6V128C84.5 127.779 84.3209 127.6 84.1 127.6Z" fill="black"/>
<path d="M102.716 132.799L102.816 132.626C102.926 132.434 102.861 132.19 102.669 132.079L87.4272 123.279C87.2359 123.169 86.9912 123.234 86.8808 123.426L86.7808 123.599C86.6703 123.79 86.7359 124.035 86.9272 124.145L102.169 132.945C102.361 133.056 102.605 132.99 102.716 132.799Z" fill="black"/>
<path d="M99.2102 113.413L99.1102 113.24C98.9997 113.049 98.7551 112.983 98.5638 113.094L87.1322 119.694C86.9409 119.804 86.8753 120.049 86.9858 120.24L87.0858 120.413C87.1963 120.604 87.4409 120.67 87.6322 120.56L99.0638 113.96C99.2551 113.849 99.3206 113.604 99.2102 113.413Z" fill="black"/>
<path d="M78.0004 89.9C80.0004 88.8 82.0004 87.6 83.9004 86.5C85.9004 87.6 87.9004 88.8 89.8004 89.9C89.8004 92.2 89.8004 94.6 89.8004 96.9C87.8004 98 85.9004 99.1 83.9004 100.2C81.9004 99.1 79.9004 98 77.9004 96.9C77.9004 94.6 77.9004 92.2 77.9004 89.9H78.0004Z" fill="black"/>
<path d="M78.1 118.3C80.1 117.2 82.1 116 84 114.9C86 116 88 117.2 89.9 118.3C89.9 120.6 89.9 123 89.9 125.3C87.9 126.4 86 127.5 84 128.6C82 127.5 80 126.4 78 125.3C78 123 78 120.6 78 118.3H78.1Z" fill="black"/>
<path d="M95.9008 108.4C97.9008 107.3 99.9008 106.1 101.801 105C103.801 106.1 105.801 107.3 107.701 108.4C107.701 110.7 107.701 113.1 107.701 115.4C105.701 116.5 103.801 117.6 101.801 118.7C99.8008 117.6 97.8008 116.5 95.8008 115.4C95.8008 113.1 95.8008 110.7 95.8008 108.4H95.9008Z" fill="black"/>
<path d="M100 131.1C102 130 104 128.8 105.9 127.7C107.9 128.8 109.9 130 111.8 131.1C111.8 133.4 111.8 135.8 111.8 138.1C109.8 139.2 107.9 140.3 105.9 141.4C103.9 140.3 101.9 139.2 99.9004 138.1C99.9004 135.8 99.9004 133.4 99.9004 131.1H100Z" fill="black"/>
<path d="M78.0004 145C80.0004 143.9 82.0004 142.7 83.9004 141.6C85.9004 142.7 87.9004 143.9 89.8004 145C89.8004 147.3 89.8004 149.7 89.8004 152C87.8004 153.1 85.9004 154.2 83.9004 155.3C81.9004 154.2 79.9004 153.1 77.9004 152C77.9004 149.7 77.9004 147.3 77.9004 145H78.0004Z" fill="black"/>
</svg>
