<svg width="520" height="520" viewBox="0 0 520 520"  xmlns="http://www.w3.org/2000/svg">
<path d="M0 313.873C0 285.755 0 257.637 0 229.519C0 189.072 16.2354 156.845 47.6239 132.187C92.4337 97.1477 137.46 62.5409 182.27 27.7178C207.597 7.81883 235.955 -1.69805 267.776 0.248586C291.805 1.76264 313.668 9.33288 332.718 24.0408C380.775 61.0268 428.832 97.7966 476.239 135.648C504.813 158.575 519.317 189.288 519.75 226.058C520.183 284.457 519.967 342.856 519.75 401.472C519.75 457.708 477.105 508.104 421.472 517.405C408.267 519.567 394.629 519.351 380.991 519.784C369.735 520.216 358.695 519.784 347.438 519.784C336.398 519.784 329.254 512.646 329.254 501.615C329.254 455.977 329.254 410.34 329.254 364.702C329.254 331.176 307.174 303.924 274.703 296.353C235.738 287.269 196.557 314.738 191.578 354.536C190.929 359.078 190.712 363.404 190.712 367.946C190.712 412.07 190.712 455.977 190.712 500.101C190.712 513.511 184.218 520 170.797 520C153.695 520 136.594 520 119.276 520C59.5299 519.784 8.22595 474.362 1.08236 415.098C0 406.23 0 397.146 0 388.061C0 363.404 0 338.53 0 313.873ZM363.89 485.177C377.095 485.177 389.217 485.609 401.556 485.177C448.531 483.447 485.114 446.028 485.114 398.876C485.114 342.207 485.114 285.539 485.114 228.87C485.114 200.968 474.074 178.041 452.211 160.738C406.319 124.833 360.21 89.1449 314.101 53.6729C280.765 27.9341 238.336 28.3666 204.999 54.1055C159.54 89.1449 114.297 124.401 69.0547 159.44C46.3251 176.96 34.6356 200.319 34.6356 228.87C34.6356 285.322 34.6356 341.775 34.6356 398.227C34.6356 405.581 35.5015 413.151 37.2332 420.073C46.1086 454.896 75.1159 480.418 110.834 483.663C125.554 484.961 140.491 483.879 155.86 483.879V478.039C155.86 440.188 155.86 402.337 155.86 364.486C155.86 359.295 156.293 354.103 156.942 348.912C162.787 301.761 203.484 263.261 251.108 259.8C312.802 255.258 363.89 302.626 363.89 364.269C363.89 402.337 363.89 440.404 363.89 478.472C363.89 480.418 363.89 482.365 363.89 484.744V485.177Z" />
</svg>
