<svg width="214" height="216" viewBox="0 0 214 216" fill="none" xmlns="http://www.w3.org/2000/svg">
<path d="M73.8 209.6C78.5497 209.6 82.4 205.75 82.4 201C82.4 196.25 78.5497 192.4 73.8 192.4C69.0504 192.4 65.2 196.25 65.2 201C65.2 205.75 69.0504 209.6 73.8 209.6Z" fill="#CAAA6D"/>
<path d="M78.9 103.4C84.699 103.4 89.4 98.699 89.4 92.9C89.4 87.101 84.699 82.4 78.9 82.4C73.101 82.4 68.4 87.101 68.4 92.9C68.4 98.699 73.101 103.4 78.9 103.4Z" fill="#CAAA6D"/>
<path d="M107.2 86.9C112.999 86.9 117.7 82.199 117.7 76.4C117.7 70.601 112.999 65.9 107.2 65.9C101.401 65.9 96.7 70.601 96.7 76.4C96.7 82.199 101.401 86.9 107.2 86.9Z" fill="#CAAA6D"/>
<path d="M134.5 102.2C140.299 102.2 145 97.499 145 91.7C145 85.901 140.299 81.2 134.5 81.2C128.701 81.2 124 85.901 124 91.7C124 97.499 128.701 102.2 134.5 102.2Z" fill="#CAAA6D"/>
<path d="M135 135.1C140.799 135.1 145.5 130.399 145.5 124.6C145.5 118.801 140.799 114.1 135 114.1C129.201 114.1 124.5 118.801 124.5 124.6C124.5 130.399 129.201 135.1 135 135.1Z" fill="#CAAA6D"/>
<path d="M49.4 151.8C55.199 151.8 59.9 147.099 59.9 141.3C59.9 135.501 55.199 130.8 49.4 130.8C43.601 130.8 38.9 135.501 38.9 141.3C38.9 147.099 43.601 151.8 49.4 151.8Z" fill="#CAAA6D"/>
<path d="M10.5 101.6C16.299 101.6 21 96.899 21 91.1C21 85.301 16.299 80.6 10.5 80.6C4.70101 80.6 0 85.301 0 91.1C0 96.899 4.70101 101.6 10.5 101.6Z" fill="#CAAA6D"/>
<path d="M22.3 69.7C28.099 69.7 32.8 64.999 32.8 59.2C32.8 53.401 28.099 48.7 22.3 48.7C16.501 48.7 11.8 53.401 11.8 59.2C11.8 64.999 16.501 69.7 22.3 69.7Z" fill="#CAAA6D"/>
<path d="M42.9 44.9C48.699 44.9 53.4 40.199 53.4 34.4C53.4 28.601 48.699 23.9 42.9 23.9C37.101 23.9 32.4 28.601 32.4 34.4C32.4 40.199 37.101 44.9 42.9 44.9Z" fill="#CAAA6D"/>
<path d="M73.2 26.9C78.999 26.9 83.7 22.199 83.7 16.4C83.7 10.601 78.999 5.89999 73.2 5.89999C67.401 5.89999 62.7 10.601 62.7 16.4C62.7 22.199 67.401 26.9 73.2 26.9Z" fill="#CAAA6D"/>
<path d="M107.2 21C112.999 21 117.7 16.299 117.7 10.5C117.7 4.70101 112.999 0 107.2 0C101.401 0 96.7 4.70101 96.7 10.5C96.7 16.299 101.401 21 107.2 21Z" fill="#CAAA6D"/>
<path d="M140 26.9C145.799 26.9 150.5 22.199 150.5 16.4C150.5 10.601 145.799 5.89999 140 5.89999C134.201 5.89999 129.5 10.601 129.5 16.4C129.5 22.199 134.201 26.9 140 26.9Z" fill="#CAAA6D"/>
<path d="M171.3 44.9C177.099 44.9 181.8 40.199 181.8 34.4C181.8 28.601 177.099 23.9 171.3 23.9C165.501 23.9 160.8 28.601 160.8 34.4C160.8 40.199 165.501 44.9 171.3 44.9Z" fill="#CAAA6D"/>
<path d="M191.9 69.7C197.699 69.7 202.4 64.999 202.4 59.2C202.4 53.401 197.699 48.7 191.9 48.7C186.101 48.7 181.4 53.401 181.4 59.2C181.4 64.999 186.101 69.7 191.9 69.7Z" fill="#CAAA6D"/>
<path d="M203 101.6C208.799 101.6 213.5 96.899 213.5 91.1C213.5 85.301 208.799 80.6 203 80.6C197.201 80.6 192.5 85.301 192.5 91.1C192.5 96.899 197.201 101.6 203 101.6Z" fill="#CAAA6D"/>
<path d="M73.9 176.6C79.699 176.6 84.4 171.899 84.4 166.1C84.4 160.301 79.699 155.6 73.9 155.6C68.101 155.6 63.4 160.301 63.4 166.1C63.4 171.899 68.101 176.6 73.9 176.6Z" fill="#CAAA6D"/>
<path d="M107.2 185.5C112.999 185.5 117.7 180.799 117.7 175C117.7 169.201 112.999 164.5 107.2 164.5C101.401 164.5 96.7 169.201 96.7 175C96.7 180.799 101.401 185.5 107.2 185.5Z" fill="#CAAA6D"/>
<path d="M139.7 176.6C145.499 176.6 150.2 171.899 150.2 166.1C150.2 160.301 145.499 155.6 139.7 155.6C133.901 155.6 129.2 160.301 129.2 166.1C129.2 171.899 133.901 176.6 139.7 176.6Z" fill="#CAAA6D"/>
<path d="M164.4 151.8C170.199 151.8 174.9 147.099 174.9 141.3C174.9 135.501 170.199 130.8 164.4 130.8C158.601 130.8 153.9 135.501 153.9 141.3C153.9 147.099 158.601 151.8 164.4 151.8Z" fill="#CAAA6D"/>
<path d="M107.2 151.8C112.999 151.8 117.7 147.099 117.7 141.3C117.7 135.501 112.999 130.8 107.2 130.8C101.401 130.8 96.7 135.501 96.7 141.3C96.7 147.099 101.401 151.8 107.2 151.8Z" fill="#CAAA6D"/>
<path d="M78.9 135.8C84.699 135.8 89.4 131.099 89.4 125.3C89.4 119.501 84.699 114.8 78.9 114.8C73.101 114.8 68.4 119.501 68.4 125.3C68.4 131.099 73.101 135.8 78.9 135.8Z" fill="#CAAA6D"/>
<path d="M40.7 117.4C45.4497 117.4 49.3 113.55 49.3 108.8C49.3 104.05 45.4497 100.2 40.7 100.2C35.9504 100.2 32.1 104.05 32.1 108.8C32.1 113.55 35.9504 117.4 40.7 117.4Z" fill="#CAAA6D"/>
<path d="M49.1 84.1C53.8496 84.1 57.7 80.2496 57.7 75.5C57.7 70.7503 53.8496 66.9 49.1 66.9C44.3503 66.9 40.5 70.7503 40.5 75.5C40.5 80.2496 44.3503 84.1 49.1 84.1Z" fill="#CAAA6D"/>
<path d="M43.9 192.7C48.6497 192.7 52.5 188.85 52.5 184.1C52.5 179.35 48.6497 175.5 43.9 175.5C39.1504 175.5 35.3 179.35 35.3 184.1C35.3 188.85 39.1504 192.7 43.9 192.7Z" fill="#CAAA6D"/>
<path d="M20.4 163.9C25.1497 163.9 29 160.05 29 155.3C29 150.55 25.1497 146.7 20.4 146.7C15.6504 146.7 11.8 150.55 11.8 155.3C11.8 160.05 15.6504 163.9 20.4 163.9Z" fill="#CAAA6D"/>
<path d="M9.9 132.5C14.6497 132.5 18.5 128.65 18.5 123.9C18.5 119.15 14.6497 115.3 9.9 115.3C5.15035 115.3 1.3 119.15 1.3 123.9C1.3 128.65 5.15035 132.5 9.9 132.5Z" fill="#CAAA6D"/>
<path d="M107.2 51.4C111.95 51.4 115.8 47.5496 115.8 42.8C115.8 38.0503 111.95 34.2 107.2 34.2C102.45 34.2 98.6 38.0503 98.6 42.8C98.6 47.5496 102.45 51.4 107.2 51.4Z" fill="#CAAA6D"/>
<path d="M141.3 60.1C146.05 60.1 149.9 56.2496 149.9 51.5C149.9 46.7503 146.05 42.9 141.3 42.9C136.55 42.9 132.7 46.7503 132.7 51.5C132.7 56.2496 136.55 60.1 141.3 60.1Z" fill="#CAAA6D"/>
<path d="M164.4 84.3C169.15 84.3 173 80.4497 173 75.7C173 70.9504 169.15 67.1 164.4 67.1C159.65 67.1 155.8 70.9504 155.8 75.7C155.8 80.4497 159.65 84.3 164.4 84.3Z" fill="#CAAA6D"/>
<path d="M173.1 117.4C177.85 117.4 181.7 113.55 181.7 108.8C181.7 104.05 177.85 100.2 173.1 100.2C168.35 100.2 164.5 104.05 164.5 108.8C164.5 113.55 168.35 117.4 173.1 117.4Z" fill="#CAAA6D"/>
<path d="M203.9 132.5C208.65 132.5 212.5 128.65 212.5 123.9C212.5 119.15 208.65 115.3 203.9 115.3C199.15 115.3 195.3 119.15 195.3 123.9C195.3 128.65 199.15 132.5 203.9 132.5Z" fill="#CAAA6D"/>
<path d="M193.6 163.9C198.35 163.9 202.2 160.05 202.2 155.3C202.2 150.55 198.35 146.7 193.6 146.7C188.85 146.7 185 150.55 185 155.3C185 160.05 188.85 163.9 193.6 163.9Z" fill="#CAAA6D"/>
<path d="M170.2 192.7C174.95 192.7 178.8 188.85 178.8 184.1C178.8 179.35 174.95 175.5 170.2 175.5C165.45 175.5 161.6 179.35 161.6 184.1C161.6 188.85 165.45 192.7 170.2 192.7Z" fill="#CAAA6D"/>
<path d="M141 209.6C145.75 209.6 149.6 205.75 149.6 201C149.6 196.25 145.75 192.4 141 192.4C136.25 192.4 132.4 196.25 132.4 201C132.4 205.75 136.25 209.6 141 209.6Z" fill="#CAAA6D"/>
<path d="M107.2 215.7C111.95 215.7 115.8 211.85 115.8 207.1C115.8 202.35 111.95 198.5 107.2 198.5C102.45 198.5 98.6 202.35 98.6 207.1C98.6 211.85 102.45 215.7 107.2 215.7Z" fill="#CAAA6D"/>
<path d="M73.6 59.9C78.3496 59.9 82.2 56.0496 82.2 51.3C82.2 46.5503 78.3496 42.7 73.6 42.7C68.8503 42.7 65 46.5503 65 51.3C65 56.0496 68.8503 59.9 73.6 59.9Z" fill="#CAAA6D"/>
<path d="M107.2 119.3C112.999 119.3 117.7 114.599 117.7 108.8C117.7 103.001 112.999 98.3 107.2 98.3C101.401 98.3 96.7 103.001 96.7 108.8C96.7 114.599 101.401 119.3 107.2 119.3Z" fill="#CAAA6D"/>
</svg>
