<svg width="371" height="371" viewBox="0 0 371 371" fill="none" xmlns="http://www.w3.org/2000/svg">
<path d="M185.1 370.2C287.328 370.2 370.2 287.328 370.2 185.1C370.2 82.8721 287.328 0 185.1 0C82.8721 0 0 82.8721 0 185.1C0 287.328 82.8721 370.2 185.1 370.2Z" fill="#D6D6D6"/>
<path d="M236 254.797C236.1 255 236.3 255 236.4 255C275.641 255 330.799 255 331.499 255C331.9 255 332 254.797 332 254.797C332 254.595 332 254.392 332 254.291C328.596 246.694 311.679 209.216 311.278 208.608C311.078 208.304 310.878 208.203 310.878 208.203C310.878 208.203 310.578 208 310.277 208C309.577 208 266.332 208 257.522 208C257.422 208 257.122 208 256.822 208.203C256.822 208.203 256.621 208.405 256.421 208.608C256.021 209.317 239.604 246.289 236.1 254.291C236.1 254.291 236 254.595 236.1 254.797H236Z" fill="url(#paint0_linear_56_16)"/>
<path d="M39 254.797C39.1001 255 39.3003 255 39.4004 255C78.6413 255 133.799 255 134.499 255C134.9 255 135 254.797 135 254.797C135 254.595 135 254.392 135 254.291C131.596 246.694 114.679 209.216 114.278 208.608C114.078 208.304 113.878 208.203 113.878 208.203C113.878 208.203 113.578 208 113.277 208C112.577 208 69.3316 208 60.5224 208C60.4223 208 60.122 208 59.8217 208.203C59.8217 208.203 59.6215 208.405 59.4213 208.608C59.0209 209.317 42.6037 246.289 39.1001 254.291C39.1001 254.291 39 254.595 39.1001 254.797H39Z" fill="url(#paint1_linear_56_16)"/>
<path d="M138 254.797C138.1 255 138.3 255 138.4 255C177.641 255 232.799 255 233.499 255C233.9 255 234 254.797 234 254.797C234 254.595 234 254.392 234 254.291C230.596 246.694 213.679 209.216 213.278 208.608C213.078 208.304 212.878 208.203 212.878 208.203C212.878 208.203 212.578 208 212.277 208C211.577 208 168.332 208 159.522 208C159.422 208 159.122 208 158.822 208.203C158.822 208.203 158.621 208.405 158.421 208.608C158.021 209.317 141.604 246.289 138.1 254.291C138.1 254.291 138 254.595 138.1 254.797H138Z" fill="url(#paint2_linear_56_16)"/>
<path d="M223.2 208C223.2 208.2 223.5 208.2 223.5 208.2C255 208.2 299.2 208.2 299.8 208.2C300.1 208.2 300.2 208 300.2 208C300.2 207.8 300.2 207.6 300.2 207.5C297.4 200.1 283.9 163.4 283.6 162.8C283.5 162.5 283.3 162.4 283.3 162.4C283.3 162.4 283.1 162.2 282.8 162.2C282.2 162.2 247.5 162.2 240.5 162.2C240.5 162.2 240.2 162.2 239.9 162.4C239.9 162.4 239.7 162.6 239.6 162.8C239.3 163.5 226.1 199.7 223.3 207.5C223.3 207.5 223.2 207.8 223.3 208H223.2Z" fill="url(#paint3_linear_56_16)"/>
<path d="M182.4 162C182.4 162.2 182.7 162.2 182.7 162.2C214.2 162.2 258.4 162.2 259 162.2C259.3 162.2 259.4 162 259.4 162C259.4 161.8 259.4 161.6 259.4 161.5C256.6 154.1 243.1 117.4 242.8 116.8C242.7 116.5 242.5 116.4 242.5 116.4C242.5 116.4 242.3 116.2 242 116.2C241.4 116.2 206.7 116.2 199.7 116.2C199.7 116.2 199.4 116.2 199.1 116.4C199.1 116.4 198.9 116.6 198.8 116.8C198.5 117.5 185.3 153.7 182.5 161.5C182.5 161.5 182.4 161.8 182.5 162H182.4Z" fill="url(#paint4_linear_56_16)"/>
<path d="M104.4 162C104.4 162.2 104.7 162.2 104.7 162.2C136.2 162.2 180.4 162.2 181 162.2C181.3 162.2 181.4 162 181.4 162C181.4 161.8 181.4 161.6 181.4 161.5C178.6 154.1 165.1 117.4 164.8 116.8C164.7 116.5 164.5 116.4 164.5 116.4C164.5 116.4 164.3 116.2 164 116.2C163.4 116.2 128.7 116.2 121.7 116.2C121.7 116.2 121.4 116.2 121.1 116.4C121.1 116.4 120.9 116.6 120.8 116.8C120.5 117.5 107.3 153.7 104.5 161.5C104.5 161.5 104.4 161.8 104.5 162H104.4Z" fill="url(#paint5_linear_56_16)"/>
<path d="M146.6 115.8C146.6 116 146.9 116 146.9 116C178.4 116 222.6 116 223.2 116C223.5 116 223.6 115.8 223.6 115.8C223.6 115.6 223.6 115.4 223.6 115.3C220.8 107.9 207.3 71.2 207 70.6C206.9 70.3 206.7 70.2 206.7 70.2C206.7 70.2 206.5 70 206.2 70C205.6 70 170.9 70 163.9 70C163.9 70 163.6 70 163.3 70.2C163.3 70.2 163.1 70.4 163 70.6C162.7 71.3 149.5 107.5 146.7 115.3C146.7 115.3 146.6 115.6 146.7 115.8H146.6Z" fill="url(#paint6_linear_56_16)"/>
<path d="M145.2 208C145.2 208.2 145.5 208.2 145.5 208.2C177 208.2 221.2 208.2 221.8 208.2C222.1 208.2 222.2 208 222.2 208C222.2 207.8 222.2 207.6 222.2 207.5C219.4 200.1 205.9 163.4 205.6 162.8C205.5 162.5 205.3 162.4 205.3 162.4C205.3 162.4 205.1 162.2 204.8 162.2C204.2 162.2 169.5 162.2 162.5 162.2C162.5 162.2 162.2 162.2 161.9 162.4C161.9 162.4 161.7 162.6 161.6 162.8C161.3 163.5 148.1 199.7 145.3 207.5C145.3 207.5 145.2 207.8 145.3 208H145.2Z" fill="url(#paint7_linear_56_16)"/>
<path d="M67.2998 208C67.2998 208.2 67.5998 208.2 67.5998 208.2C99.0998 208.2 143.3 208.2 143.9 208.2C144.2 208.2 144.3 208 144.3 208C144.3 207.8 144.3 207.6 144.3 207.5C141.5 200.1 128 163.4 127.7 162.8C127.6 162.5 127.4 162.4 127.4 162.4C127.4 162.4 127.2 162.2 126.9 162.2C126.3 162.2 91.5998 162.2 84.5998 162.2C84.5998 162.2 84.2998 162.2 83.9998 162.4C83.9998 162.4 83.7998 162.6 83.6998 162.8C83.3998 163.5 70.1998 199.7 67.3998 207.5C67.3998 207.5 67.2998 207.8 67.3998 208H67.2998Z" fill="url(#paint8_linear_56_16)"/>
<defs>
<linearGradient id="paint0_linear_56_16" x1="283.95" y1="194.427" x2="283.95" y2="287.515" gradientUnits="userSpaceOnUse">
<stop stop-color="#FEFAD4"/>
<stop offset="0.1" stop-color="#F8F0C2"/>
<stop offset="0.3" stop-color="#EAD695"/>
<stop offset="0.5" stop-color="#D3AC4E"/>
<stop offset="0.6" stop-color="#C9992C"/>
<stop offset="0.9" stop-color="#F2E08D"/>
<stop offset="1" stop-color="#FEFAD4"/>
</linearGradient>
<linearGradient id="paint1_linear_56_16" x1="86.9499" y1="194.427" x2="86.9499" y2="287.515" gradientUnits="userSpaceOnUse">
<stop stop-color="#FEFAD4"/>
<stop offset="0.1" stop-color="#F8F0C2"/>
<stop offset="0.3" stop-color="#EAD695"/>
<stop offset="0.5" stop-color="#D3AC4E"/>
<stop offset="0.6" stop-color="#C9992C"/>
<stop offset="0.9" stop-color="#F2E08D"/>
<stop offset="1" stop-color="#FEFAD4"/>
</linearGradient>
<linearGradient id="paint2_linear_56_16" x1="185.95" y1="194.427" x2="185.95" y2="287.515" gradientUnits="userSpaceOnUse">
<stop stop-color="#FEFAD4"/>
<stop offset="0.1" stop-color="#F8F0C2"/>
<stop offset="0.3" stop-color="#EAD695"/>
<stop offset="0.5" stop-color="#D3AC4E"/>
<stop offset="0.6" stop-color="#C9992C"/>
<stop offset="0.9" stop-color="#F2E08D"/>
<stop offset="1" stop-color="#FEFAD4"/>
</linearGradient>
<linearGradient id="paint3_linear_56_16" x1="261.6" y1="148.9" x2="261.6" y2="240" gradientUnits="userSpaceOnUse">
<stop stop-color="#FEFAD4"/>
<stop offset="0.1" stop-color="#F8F0C2"/>
<stop offset="0.3" stop-color="#EAD695"/>
<stop offset="0.5" stop-color="#D3AC4E"/>
<stop offset="0.6" stop-color="#C9992C"/>
<stop offset="0.9" stop-color="#F2E08D"/>
<stop offset="1" stop-color="#FEFAD4"/>
</linearGradient>
<linearGradient id="paint4_linear_56_16" x1="220.8" y1="102.9" x2="220.8" y2="194" gradientUnits="userSpaceOnUse">
<stop stop-color="#FEFAD4"/>
<stop offset="0.1" stop-color="#F8F0C2"/>
<stop offset="0.3" stop-color="#EAD695"/>
<stop offset="0.5" stop-color="#D3AC4E"/>
<stop offset="0.6" stop-color="#C9992C"/>
<stop offset="0.9" stop-color="#F2E08D"/>
<stop offset="1" stop-color="#FEFAD4"/>
</linearGradient>
<linearGradient id="paint5_linear_56_16" x1="142.9" y1="102.9" x2="142.9" y2="194" gradientUnits="userSpaceOnUse">
<stop stop-color="#FEFAD4"/>
<stop offset="0.1" stop-color="#F8F0C2"/>
<stop offset="0.3" stop-color="#EAD695"/>
<stop offset="0.5" stop-color="#D3AC4E"/>
<stop offset="0.6" stop-color="#C9992C"/>
<stop offset="0.9" stop-color="#F2E08D"/>
<stop offset="1" stop-color="#FEFAD4"/>
</linearGradient>
<linearGradient id="paint6_linear_56_16" x1="185.1" y1="56.7" x2="185.1" y2="147.8" gradientUnits="userSpaceOnUse">
<stop stop-color="#FEFAD4"/>
<stop offset="0.1" stop-color="#F8F0C2"/>
<stop offset="0.3" stop-color="#EAD695"/>
<stop offset="0.5" stop-color="#D3AC4E"/>
<stop offset="0.6" stop-color="#C9992C"/>
<stop offset="0.9" stop-color="#F2E08D"/>
<stop offset="1" stop-color="#FEFAD4"/>
</linearGradient>
<linearGradient id="paint7_linear_56_16" x1="183.7" y1="148.9" x2="183.7" y2="240" gradientUnits="userSpaceOnUse">
<stop stop-color="#FEFAD4"/>
<stop offset="0.1" stop-color="#F8F0C2"/>
<stop offset="0.3" stop-color="#EAD695"/>
<stop offset="0.5" stop-color="#D3AC4E"/>
<stop offset="0.6" stop-color="#C9992C"/>
<stop offset="0.9" stop-color="#F2E08D"/>
<stop offset="1" stop-color="#FEFAD4"/>
</linearGradient>
<linearGradient id="paint8_linear_56_16" x1="105.8" y1="148.8" x2="105.8" y2="240" gradientUnits="userSpaceOnUse">
<stop stop-color="#FEFAD4"/>
<stop offset="0.1" stop-color="#F8F0C2"/>
<stop offset="0.3" stop-color="#EAD695"/>
<stop offset="0.5" stop-color="#D3AC4E"/>
<stop offset="0.6" stop-color="#C9992C"/>
<stop offset="0.9" stop-color="#F2E08D"/>
<stop offset="1" stop-color="#FEFAD4"/>
</linearGradient>
</defs>
</svg>
