<svg width="294" height="298" viewBox="0 0 294 298"  xmlns="http://www.w3.org/2000/svg">
<path d="M162.412 214.099C143.612 214.099 124.712 213.599 105.912 214.199C81.7124 215.099 62.3124 201.099 56.7124 174.799C47.2124 129.499 36.4124 84.3987 26.2124 39.2987C25.5124 36.1987 24.0124 33.9987 21.3124 32.2987C16.1124 29.0987 11.1124 25.6987 6.11239 22.2987C-0.0876093 17.9987 -1.78761 11.0987 2.01239 5.19869C5.71239 -0.401308 13.1124 -1.70131 19.3124 2.39869C24.9124 5.99869 30.4124 9.79869 36.0124 13.4987C43.1124 18.0987 47.4124 24.5987 49.2124 32.8987C59.8124 79.7987 70.5124 126.599 81.1124 173.499C83.6124 184.399 90.5124 190.099 101.612 190.199C112.912 190.299 124.112 190.199 135.412 190.199C163.912 190.199 192.412 190.199 220.912 190.199C235.012 190.199 241.312 185.299 244.412 171.599C252.612 135.799 260.712 100.099 268.712 64.2987C271.712 50.8987 262.612 39.6987 248.912 39.5987C225.212 39.4987 201.612 39.5987 177.912 39.5987C161.212 39.5987 144.512 39.5987 127.712 39.5987C120.212 39.5987 114.812 34.4987 114.812 27.6987C114.812 20.7987 120.212 15.8987 127.812 15.8987C168.212 15.8987 208.612 15.8987 248.912 15.8987C278.012 15.8987 298.512 41.4987 292.112 69.8987C283.812 106.499 275.512 143.099 267.112 179.699C262.312 200.399 245.212 213.999 224.012 214.199C223.812 214.199 223.512 214.199 223.312 214.199C203.012 214.199 182.712 214.199 162.412 214.199V214.099Z" />
<path d="M83.3124 265.599C83.3124 248.199 97.4124 233.899 114.712 233.699C132.212 233.499 146.612 247.899 146.712 265.499C146.712 283.099 132.412 297.499 114.912 297.399C97.5124 297.399 83.4124 283.099 83.3124 265.599ZM115.112 273.299C119.412 273.299 122.912 269.799 122.912 265.599C122.912 261.399 119.412 257.799 115.112 257.799C110.612 257.799 107.112 261.199 107.212 265.699C107.212 270.099 110.712 273.399 115.012 273.299H115.112Z" />
<path d="M178.512 266.099C178.112 248.799 192.012 234.199 209.512 233.699C226.512 233.199 241.512 247.199 241.912 263.899C242.312 282.299 228.812 296.899 211.012 297.399C193.612 297.899 179.012 283.799 178.612 266.099H178.512ZM210.212 273.299C214.512 273.299 218.012 269.899 218.112 265.699C218.112 261.499 214.712 257.899 210.412 257.799C205.912 257.699 202.412 261.099 202.412 265.599C202.412 269.999 205.812 273.299 210.112 273.299H210.212Z" />
<path d="M126.212 111.099C126.512 109.899 126.912 108.099 127.412 105.799C127.612 104.899 130.512 92.8987 136.112 77.9987C136.912 75.7987 138.112 72.9987 140.912 71.0987C142.612 69.9987 144.712 69.3987 147.212 69.3987C157.312 69.2987 167.412 69.2987 177.612 69.3987C182.912 69.3987 186.612 72.0987 188.412 77.1987C191.512 86.1987 194.512 95.1987 197.312 104.199C197.912 106.099 197.812 108.299 198.112 111.099C201.712 111.099 205.512 111.099 209.312 111.099C215.412 111.099 218.312 113.199 220.312 118.899C223.312 127.699 226.312 136.599 229.112 145.499C231.512 153.299 226.812 159.599 218.712 159.599C201.912 159.599 183.112 159.899 170.012 159.399C167.112 159.399 161.612 159.199 154.712 159.399C142.412 159.799 124.012 159.599 106.512 159.599C97.8124 159.599 93.2124 153.299 95.8124 144.999C98.5124 136.399 101.412 127.799 104.312 119.299C106.412 113.199 109.412 111.199 116.012 111.099C119.512 111.099 123.112 111.099 126.212 111.099ZM162.412 111.099C170.012 111.099 177.612 111.099 185.212 111.099C190.212 111.099 191.412 109.399 189.812 104.799C187.212 96.7987 184.312 88.7987 181.812 80.6987C180.912 77.7987 179.212 76.6987 176.312 76.6987C167.112 76.6987 157.912 76.6987 148.612 76.6987C145.412 76.6987 143.812 77.9987 142.912 80.9987C140.512 88.7987 137.812 96.3987 135.212 104.199C133.512 109.399 134.512 110.999 140.012 111.099C147.412 111.099 154.912 111.099 162.312 111.099H162.412ZM194.412 152.399C202.112 152.399 209.912 152.399 217.612 152.399C222.012 152.399 223.212 150.699 221.812 146.499C219.112 138.299 216.412 130.199 213.712 122.099C212.912 119.499 211.512 118.299 208.512 118.299C199.012 118.399 189.512 118.399 180.012 118.299C177.412 118.299 175.912 119.099 175.112 121.699C172.412 129.999 169.512 138.199 166.812 146.599C165.512 150.799 166.812 152.299 171.212 152.399C178.912 152.399 186.712 152.399 194.412 152.399ZM130.312 152.399C138.012 152.399 145.812 152.399 153.512 152.399C158.312 152.399 159.412 150.899 157.912 146.399C155.312 138.399 152.512 130.399 150.012 122.399C149.112 119.599 147.612 118.399 144.612 118.399C135.212 118.599 125.912 118.499 116.512 118.399C113.712 118.399 112.112 119.299 111.212 121.999C108.512 130.299 105.712 138.599 103.012 146.899C101.712 150.799 103.012 152.399 107.112 152.399C114.812 152.399 122.612 152.399 130.312 152.399ZM162.412 136.299C164.612 129.699 166.412 124.299 168.212 118.699H156.512C158.412 124.399 160.212 129.699 162.412 136.299Z" />
</svg>
