<svg width="167" height="205" viewBox="0 0 167 205" fill="none" xmlns="http://www.w3.org/2000/svg">
<path d="M83.5 167C129.616 167 167 129.616 167 83.5C167 37.3842 129.616 0 83.5 0C37.3842 0 0 37.3842 0 83.5C0 129.616 37.3842 167 83.5 167Z" fill="#E6E7E8"/>
<path fill-rule="evenodd" clip-rule="evenodd" d="M99.6 83.5H124.9C128.4 83.5 131.6 85.8 132.5 89.3L136.9 104.6C137.5 106.7 136.3 108.9 134.2 109.5C133.8 109.6 133.5 109.7 133.1 109.7H91.4C89.2 109.7 87.4 107.9 87.4 105.7C87.4 105.272 87.6 104.6 87.6 104.6L92 89.3C93 85.9 96.1 83.5 99.6 83.5ZM70.9 52.2H96.2C99.7 52.2 102.9 54.5 103.8 58L108.2 73.3C108.8 75.4 107.6 77.5999 105.5 78.1999C105.1 78.2999 104.8 78.4 104.4 78.4H62.7C60.5 78.4 58.7 76.6 58.7 74.4C58.7 74.1126 58.9 73.3 58.9 73.3L63.3 58C64.3 54.6 67.4 52.2 70.9 52.2ZM42.2 83.5H67.5C71 83.5 74.2 85.8 75.1 89.3L79.5 104.6C80.1 106.7 78.9 108.9 76.8 109.5C76.4 109.6 76.1 109.7 75.7 109.7H34C31.8 109.7 30 107.9 30 105.7C30 105.098 30.2 104.6 30.2 104.6L34.6 89.3C35.6 85.9 38.7 83.5 42.2 83.5Z" fill="#86C240"/>
<path fill-rule="evenodd" clip-rule="evenodd" d="M129.4 166V197.7C129.4 201.3 126.5 204.3 122.8 204.3C121.766 204.3 120.6 203.9 120.6 203.9L86.8001 191.8C84.7001 191 82.3001 191 80.2001 191.8L46.4001 203.9C43.0001 205.1 39.2001 203.3 38.0001 199.9C37.7001 199.2 37.6001 198.4 37.6001 197.7V166C51.2001 173.4 66.9001 177.6 83.5001 177.6C100.1 177.6 115.7 173.4 129.4 166Z" fill="#DBDDE0"/>
</svg>
