<svg width="736" height="449" viewBox="0 0 736 449" fill="none" xmlns="http://www.w3.org/2000/svg">
<path d="M682.7 0H15.3C6.85004 0 0 6.85004 0 15.3V404.7C0 413.15 6.85004 420 15.3 420H682.7C691.15 420 698 413.15 698 404.7V15.3C698 6.85004 691.15 0 682.7 0Z" fill="url(#paint0_linear_61_39)"/>
<g opacity="0.4">
<path d="M107.8 149H73.2C70.3281 149 68 151.328 68 154.2C68 157.072 70.3281 159.4 73.2 159.4H107.8C110.672 159.4 113 157.072 113 154.2C113 151.328 110.672 149 107.8 149Z" fill="white"/>
<path d="M157.8 162H73.2C70.3281 162 68 164.328 68 167.2C68 170.072 70.3281 172.4 73.2 172.4H157.8C160.672 172.4 163 170.072 163 167.2C163 164.328 160.672 162 157.8 162Z" fill="white"/>
<path d="M157.8 175H73.2C70.3281 175 68 177.328 68 180.2C68 183.072 70.3281 185.4 73.2 185.4H157.8C160.672 185.4 163 183.072 163 180.2C163 177.328 160.672 175 157.8 175Z" fill="white"/>
<path d="M157.8 188H73.2C70.3281 188 68 190.328 68 193.2C68 196.072 70.3281 198.4 73.2 198.4H157.8C160.672 198.4 163 196.072 163 193.2C163 190.328 160.672 188 157.8 188Z" fill="white"/>
<path d="M157.8 149H123.2C120.328 149 118 151.328 118 154.2C118 157.072 120.328 159.4 123.2 159.4H157.8C160.672 159.4 163 157.072 163 154.2C163 151.328 160.672 149 157.8 149Z" fill="white"/>
<path d="M107.8 201H73.2C70.3281 201 68 203.328 68 206.2C68 209.072 70.3281 211.4 73.2 211.4H107.8C110.672 211.4 113 209.072 113 206.2C113 203.328 110.672 201 107.8 201Z" fill="white"/>
<path d="M157.8 201H123.2C120.328 201 118 203.328 118 206.2C118 209.072 120.328 211.4 123.2 211.4H157.8C160.672 211.4 163 209.072 163 206.2C163 203.328 160.672 201 157.8 201Z" fill="white"/>
</g>
<path d="M698.6 230.6C648.8 180.8 568 180.8 518.2 230.6C468.4 280.4 468.4 361.2 518.2 411C568 460.8 648.8 460.8 698.6 411C748.4 361.2 748.4 280.4 698.6 230.6Z" fill="#9AF200"/>
<path d="M647.9 251.8L608.2 291.5L568.5 251.8L539 281.2L578.7 321L539 360.7L568.5 390.1L608.2 350.4L647.9 390.1L677.4 360.7L637.7 321L677.4 281.2L647.9 251.8Z" fill="white"/>
<g opacity="0.6">
<path d="M598.8 74.9999C598.8 64.0999 603.7 54.2999 611.5 47.7999C605.3 42.5999 597.3 39.3999 588.6 39.3999C569 39.3999 553 55.2999 553 74.9999C553 94.6999 568.9 110.6 588.6 110.6C603 109.5 607.5 105 611.5 102.2C615.5 99.3998 598.8 85.8999 598.8 74.9999Z" fill="#CFD1D5"/>
<path d="M634.4 39.3999C625.7 39.3999 617.7 42.5999 611.5 47.7999C619.2 54.2999 624.2 64.0999 624.2 74.9999C624.2 85.8999 619.3 95.6999 611.5 102.2C617.7 107.4 625.7 110.6 634.4 110.6C654 110.6 670 94.6999 670 74.9999C670 55.2999 654.1 39.3999 634.4 39.3999Z" fill="#E7E8E9"/>
<path d="M624.2 74.9998C624.2 64.0998 619.3 54.2998 611.5 47.7998C603.8 54.2998 598.8 64.0998 598.8 74.9998C598.8 85.8998 603.7 95.6998 611.5 102.2C619.2 95.6998 624.2 85.8998 624.2 74.9998Z" fill="white"/>
</g>
<defs>
<linearGradient id="paint0_linear_61_39" x1="349" y1="420" x2="349" y2="0" gradientUnits="userSpaceOnUse">
<stop stop-color="#00A098"/>
<stop offset="1" stop-color="#345E5D"/>
</linearGradient>
</defs>
</svg>
