<svg width="155" height="198" viewBox="0 0 155 198" fill="none" xmlns="http://www.w3.org/2000/svg">
<path d="M77.2 154.602C34.8 154.502 0 119.502 0 77.1019C0 34.6019 35.3 -0.29808 77.8 0.00191976C120.4 0.30192 154.7 35.7019 154.5 78.1019C154.4 120.202 119.5 154.602 77.1 154.502L77.2 154.602Z" fill="#E6E7E8"/>
<path d="M20.1999 143.902C31.5999 153.302 43.9999 159.602 58.3999 163.002C51.7999 174.502 45.3999 185.402 38.4999 197.502C35.1999 187.902 32.2999 179.502 29.3999 170.802C20.4999 172.602 11 173.602 2.30005 175.302C2.60005 175.502 2.00005 175.102 2.30005 175.302C8.20005 165.102 14.0999 154.902 20.2999 144.002L20.1999 143.902Z" fill="#D0D2D5"/>
<path d="M125.3 170.702C122.4 179.302 119.5 187.802 116.2 197.502C109.3 185.502 103 174.602 96.3 163.102C110.6 159.602 123.1 153.502 134.4 143.902C140.6 154.602 146.5 164.802 153.1 176.202C143.3 174.302 134.7 172.602 125.4 170.702H125.3Z" fill="#D0D2D5"/>
<path d="M77.4999 17.102C110.4 17.202 137.4 44.402 137.5 77.302C137.5 110.302 110.3 137.602 77.2999 137.502C44.2999 137.402 16.9999 110.002 17.0999 77.102C17.0999 44.102 44.4999 17.002 77.4999 17.102Z" fill="#86C240"/>
<path d="M102.7 58.1019C91.1999 67.4019 79.6999 76.7019 67.6999 86.5019C64.0999 81.2019 60.8999 76.3019 57.5999 71.5019C54.2999 66.7019 50.3999 65.6019 46.5999 68.2019C42.8999 70.8019 42.5999 74.9019 45.6999 79.7019C49.9999 86.3019 54.3999 92.8019 58.7999 99.3019C62.9999 105.502 66.6999 106.002 72.5999 101.102C85.5999 90.6019 98.5999 80.0019 111.7 69.4019C117.9 64.4019 119.3 60.3019 116.3 56.5019C113.1 52.5019 109 53.0019 102.7 58.1019Z" fill="white"/>
</svg>
