<svg width="228" height="228" viewBox="0 0 228 228" fill="none" xmlns="http://www.w3.org/2000/svg">
<path d="M145.5 0H87.8C87.8 30.5 87.8 61 87.8 91.5C95.3 86.6 102.8 81.7 110.3 76.9C111.1 76.3 113.4 75 116.7 75C119.7 75 121.8 76.2 122.7 76.8C130.3 81.7 138 86.6 145.6 91.5C145.6 61 145.6 30.5 145.6 0H145.5Z" fill="#86C240"/>
<path d="M195.6 0H157.5V93.7C157.3 94.5 156.1 99.2 151.5 101.8C145.7 105.1 139.7 102.2 139.3 102C131.7 97 124.2 92 116.6 87.1C109 92 101.4 96.9 93.8 101.8C88.9 104.2 83.3 103.8 79.6 100.7C76.8 98.3 75.9 95.1 75.7 93.8V0H31.7C14.2 0 0 14.2 0 31.7V195.6C0 213.1 14.2 227.3 31.7 227.3H195.6C213.1 227.3 227.3 213.1 227.3 195.6V31.7C227.3 14.2 213.1 0 195.6 0Z" fill="#D0D2D5"/>
</svg>
