<svg width="146" height="241" viewBox="0 0 146 241" fill="none" xmlns="http://www.w3.org/2000/svg">
<path d="M144.644 61.1179C150.544 95.1179 128.044 120.318 126.244 122.218C116.044 133.218 102.144 141.118 85.944 144.218C47.444 151.518 10.844 127.218 1.94403 89.8179C-4.55597 62.6179 7.14404 40.4179 9.34404 36.6179C22.444 13.9179 47.444 -0.582065 73.844 0.0179353C109.044 0.817935 138.944 28.2179 144.644 61.1179ZM65.744 38.1179C64.844 38.4179 64.144 38.5179 63.444 38.7179C54.144 41.3179 47.944 49.5179 48.144 59.0179C48.344 68.7179 54.744 77.0179 64.144 79.0179C68.044 79.8179 72.244 79.6179 76.244 79.7179C80.344 79.8179 83.444 82.7179 83.444 86.5179C83.444 90.3179 80.344 93.2179 76.244 93.3179C73.944 93.3179 71.544 93.3179 69.244 93.3179C65.544 93.3179 63.544 91.7179 62.444 88.1179C62.244 87.6179 61.844 86.8179 61.444 86.8179C57.144 86.8179 52.744 86.8179 48.344 86.8179C48.244 91.2179 49.544 94.9179 51.744 98.2179C55.044 103.218 59.844 106.118 65.844 107.318V116.218H79.944V107.218C80.344 107.118 80.544 107.018 80.844 107.018C91.144 104.518 97.844 96.1179 97.444 86.1179C97.044 75.6179 90.044 67.6179 79.344 66.0179C75.844 65.5179 72.344 65.8179 68.844 65.6179C65.144 65.5179 62.144 62.4179 62.244 58.7179C62.244 55.1179 65.144 52.1179 68.744 52.0179C71.144 52.0179 73.644 52.0179 76.044 52.0179C79.944 52.0179 82.044 53.7179 83.244 57.4179C83.444 57.9179 83.944 58.6179 84.244 58.6179C88.544 58.6179 92.944 58.6179 97.244 58.6179C97.344 54.5179 96.144 50.5179 93.744 47.0179C90.444 42.1179 85.744 39.3179 79.844 38.0179V29.0179H65.844V37.9179L65.744 38.1179Z" fill="#86C240"/>
<path d="M129.244 192.118H143.444C143.444 196.418 143.444 200.418 143.444 204.518C143.444 205.018 142.944 205.518 142.644 205.818C131.244 217.318 119.744 228.718 108.244 240.318C107.644 239.818 107.144 239.418 106.644 238.918C95.844 228.118 85.044 217.418 74.344 206.518C73.444 205.618 72.944 204.118 72.844 202.918C72.644 199.418 72.844 195.918 72.844 192.218H86.844V158.418C102.744 155.718 116.744 149.218 129.344 138.618V192.118H129.244Z" fill="#E6E7E8"/>
<path d="M58.6439 158.418V169.618H72.7439C72.7439 173.918 72.7439 177.818 72.7439 181.818C72.7439 182.318 72.3439 182.918 71.8439 183.418C60.5439 194.818 49.1439 206.118 37.8439 217.418C37.7439 217.518 37.5439 217.618 37.3439 217.718C37.0439 217.418 36.7439 217.118 36.3439 216.818C25.3439 205.818 14.3439 194.818 3.34387 183.718C2.54387 182.918 2.04387 181.618 1.94387 180.518C1.74387 177.018 1.94387 173.518 1.94387 169.618H16.0439V138.518C28.7439 149.018 42.6439 155.618 58.6439 158.418Z" fill="#E6E7E8"/>
<path d="M65.7047 37.9V29H79.7047V38C85.6047 39.2 90.3047 42.1 93.6047 47C96.0047 50.5 97.2047 54.5 97.1047 58.6C92.8047 58.6 88.4047 58.6 84.1047 58.6C83.7047 58.6 83.2047 57.9 83.1047 57.4C81.9047 53.7 79.8047 52 75.9047 52C73.5047 52 71.0047 52 68.6047 52C65.0047 52.1 62.1047 55.1 62.1047 58.7C62.1047 62.3 65.0047 65.4 68.7047 65.6C72.2047 65.7 75.8047 65.4 79.2047 66C89.9047 67.6 97.0047 75.6 97.3047 86.1C97.6047 96.1 90.9047 104.6 80.7047 107C80.5047 107 80.3047 107.1 79.8047 107.2V116.2H65.7047V107.3C59.7047 106.1 54.9047 103.2 51.6047 98.2C49.4047 94.9 48.1047 91.2 48.2047 86.8C52.6047 86.8 56.9047 86.8 61.3047 86.8C61.6047 86.8 62.1047 87.6 62.3047 88.1C63.4047 91.7 65.4047 93.2 69.1047 93.3C71.4047 93.3 73.8047 93.3 76.1047 93.3C80.2047 93.3 83.3047 90.3 83.3047 86.5C83.3047 82.7 80.2047 79.8 76.1047 79.7C72.0047 79.6 67.9047 79.8 64.0047 79C54.5047 77 48.1047 68.7 48.0047 59C47.8047 49.5 54.0047 41.3 63.3047 38.7C64.0047 38.5 64.6047 38.3 65.6047 38.1L65.7047 37.9Z" fill="white"/>
</svg>
