<svg width="179" height="100" viewBox="0 0 179 100" fill="none" xmlns="http://www.w3.org/2000/svg">
<path d="M50.2 99.4C77.9247 99.4 100.4 77.1486 100.4 49.7C100.4 22.2514 77.9247 0 50.2 0C22.4753 0 0 22.2514 0 49.7C0 77.1486 22.4753 99.4 50.2 99.4Z" fill="#86C240"/>
<path d="M91.8999 49.9C91.8999 53.7 91.2999 61.5 86.5999 69.8C85.4999 71.8 82.1999 77.2 75.9999 82C75.1999 82.6 63.8999 91.1 50.1999 90.9C31.8999 90.7 8.3999 75.1 8.3999 50C8.3999 27.5 27.2999 8.8 50.1999 9V5.5C45.9999 5.5 38.3999 6 30.1999 9.9C24.8999 12.4 21.1999 15.5 19.3999 17.2C8.7999 26.9 6.1999 38.9 5.6999 41.1C4.8999 45 3.4999 54.8 7.7999 65.9C8.7999 68.5 12.4999 77.1 21.4999 84.4C33.7999 94.3 47.2999 94.5 50.2999 94.5C65.8999 94.5 78.6999 86.3 85.7999 77.5C90.3999 71.8 92.4999 65.9 92.8999 64.8C95.0999 58.7 95.4999 53.3 95.4999 49.8H91.9999L91.8999 49.9Z" fill="white"/>
<path d="M56.9 9.4001C57.9493 9.4001 58.8 8.54944 58.8 7.5001C58.8 6.45076 57.9493 5.6001 56.9 5.6001C55.8507 5.6001 55 6.45076 55 7.5001C55 8.54944 55.8507 9.4001 56.9 9.4001Z" fill="white"/>
<path d="M62.7999 10.6999C63.8492 10.6999 64.6999 9.84924 64.6999 8.7999C64.6999 7.75056 63.8492 6.8999 62.7999 6.8999C61.7506 6.8999 60.8999 7.75056 60.8999 8.7999C60.8999 9.84924 61.7506 10.6999 62.7999 10.6999Z" fill="white"/>
<path d="M68.5001 12.8C69.5494 12.8 70.4001 11.9493 70.4001 10.9C70.4001 9.85066 69.5494 9 68.5001 9C67.4508 9 66.6001 9.85066 66.6001 10.9C66.6001 11.9493 67.4508 12.8 68.5001 12.8Z" fill="white"/>
<path d="M73.9 15.6C74.9493 15.6 75.8 14.7494 75.8 13.7C75.8 12.6507 74.9493 11.8 73.9 11.8C72.8507 11.8 72 12.6507 72 13.7C72 14.7494 72.8507 15.6 73.9 15.6Z" fill="white"/>
<path d="M78.7999 19.1999C79.8492 19.1999 80.6999 18.3492 80.6999 17.2999C80.6999 16.2506 79.8492 15.3999 78.7999 15.3999C77.7506 15.3999 76.8999 16.2506 76.8999 17.2999C76.8999 18.3492 77.7506 19.1999 78.7999 19.1999Z" fill="white"/>
<path d="M83.2 23.4001C84.2494 23.4001 85.1 22.5494 85.1 21.5001C85.1 20.4508 84.2494 19.6001 83.2 19.6001C82.1507 19.6001 81.3 20.4508 81.3 21.5001C81.3 22.5494 82.1507 23.4001 83.2 23.4001Z" fill="white"/>
<path d="M86.9 28.1999C87.9493 28.1999 88.8 27.3492 88.8 26.2999C88.8 25.2506 87.9493 24.3999 86.9 24.3999C85.8507 24.3999 85 25.2506 85 26.2999C85 27.3492 85.8507 28.1999 86.9 28.1999Z" fill="white"/>
<path d="M89.9 33.5C90.9493 33.5 91.8 32.6493 91.8 31.6C91.8 30.5506 90.9493 29.7 89.9 29.7C88.8507 29.7 88 30.5506 88 31.6C88 32.6493 88.8507 33.5 89.9 33.5Z" fill="white"/>
<path d="M92.1 39.1C93.1493 39.1 94 38.2494 94 37.2001C94 36.1507 93.1493 35.3 92.1 35.3C91.0506 35.3 90.2 36.1507 90.2 37.2001C90.2 38.2494 91.0506 39.1 92.1 39.1Z" fill="white"/>
<path d="M93.4 45.1C94.4493 45.1 95.3 44.2494 95.3 43.2001C95.3 42.1507 94.4493 41.3 93.4 41.3C92.3507 41.3 91.5 42.1507 91.5 43.2001C91.5 44.2494 92.3507 45.1 93.4 45.1Z" fill="white"/>
<path d="M25.7999 58.6999C27.6999 57.5999 29.6 56.4999 31.4 55.3999C33.3 56.4999 35.2 57.5999 37 58.6999C37 60.8999 37 63.0999 37 65.3999C35.1 66.4999 33.3 67.4999 31.4 68.5999C29.5 67.4999 27.6 66.4999 25.7 65.3999C25.7 63.1999 25.7 60.9999 25.7 58.6999H25.7999Z" fill="white"/>
<path d="M43.8999 55.2C44.176 55.2 44.3999 54.9761 44.3999 54.7C44.3999 54.4238 44.176 54.2 43.8999 54.2C43.6238 54.2 43.3999 54.4238 43.3999 54.7C43.3999 54.9761 43.6238 55.2 43.8999 55.2Z" fill="white"/>
<path d="M39.6001 45.2C39.8762 45.2 40.1001 44.9761 40.1001 44.7C40.1001 44.4238 39.8762 44.2 39.6001 44.2C39.324 44.2 39.1001 44.4238 39.1001 44.7C39.1001 44.9761 39.324 45.2 39.6001 45.2Z" fill="white"/>
<path d="M41.8999 46.5C42.176 46.5 42.3999 46.2761 42.3999 46C42.3999 45.7239 42.176 45.5 41.8999 45.5C41.6238 45.5 41.3999 45.7239 41.3999 46C41.3999 46.2761 41.6238 46.5 41.8999 46.5Z" fill="white"/>
<path d="M44.1001 47.8C44.3762 47.8 44.6001 47.5762 44.6001 47.3C44.6001 47.0239 44.3762 46.8 44.1001 46.8C43.824 46.8 43.6001 47.0239 43.6001 47.3C43.6001 47.5762 43.824 47.8 44.1001 47.8Z" fill="white"/>
<path d="M41.2 56.7C41.4761 56.7 41.7 56.4761 41.7 56.2C41.7 55.9238 41.4761 55.7 41.2 55.7C40.9238 55.7 40.7 55.9238 40.7 56.2C40.7 56.4761 40.9238 56.7 41.2 56.7Z" fill="white"/>
<path d="M38.3999 58.3C38.676 58.3 38.8999 58.0762 38.8999 57.8C38.8999 57.5239 38.676 57.3 38.3999 57.3C38.1238 57.3 37.8999 57.5239 37.8999 57.8C37.8999 58.0762 38.1238 58.3 38.3999 58.3Z" fill="white"/>
<path d="M35.1 42.2C35.4314 42.2 35.7 41.9314 35.7 41.6C35.7 41.2686 35.4314 41 35.1 41C34.7686 41 34.5 41.2686 34.5 41.6C34.5 41.9314 34.7686 42.2 35.1 42.2Z" fill="white"/>
<path d="M26.6 37.1C28.5 36 30.4 34.9 32.2 33.8C34.1 34.9 36 36 37.8 37.1C37.8 39.3 37.8 41.5 37.8 43.8C35.9 44.9 34.1 45.9 32.2 47C30.3 45.9 28.4 44.9 26.5 43.8C26.5 41.6 26.5 39.4 26.5 37.1H26.6Z" fill="white"/>
<path d="M50.5001 29.3C50.5001 29.0239 50.2986 28.8 50.0501 28.8C49.8016 28.8 49.6001 29.0239 49.6001 29.3V45.8C49.6001 46.0762 49.8016 46.3 50.0501 46.3C50.2986 46.3 50.5001 46.0762 50.5001 45.8V29.3Z" fill="white"/>
<path d="M50.5001 56.7C50.5001 56.4238 50.2986 56.2 50.0501 56.2C49.8016 56.2 49.6001 56.4238 49.6001 56.7V73.1999C49.6001 73.4761 49.8016 73.6999 50.0501 73.6999C50.2986 73.6999 50.5001 73.4761 50.5001 73.1999V56.7Z" fill="white"/>
<path d="M67.1477 61.2179C67.3869 61.356 67.6815 61.2934 67.8058 61.0782C67.93 60.863 67.8369 60.5765 67.5977 60.4385L53.3083 52.1885C53.0692 52.0504 52.7746 52.113 52.6503 52.3282C52.5261 52.5434 52.6192 52.8298 52.8583 52.9679L67.1477 61.2179Z" fill="white"/>
<path d="M64.1957 43.3322C64.4348 43.1941 64.528 42.9077 64.4037 42.6924C64.2794 42.4772 63.9848 42.4147 63.7457 42.5527L53.1802 48.6527C52.941 48.7908 52.8479 49.0772 52.9722 49.2924C53.0964 49.5077 53.391 49.5702 53.6302 49.4322L64.1957 43.3322Z" fill="white"/>
<path d="M44.4001 20.5C46.3001 19.4 48.2 18.3 50 17.2C51.9 18.3 53.8 19.4 55.6 20.5C55.6 22.7 55.6 24.9 55.6 27.2C53.7 28.3 51.9 29.3 50 30.4C48.1 29.3 46.2 28.3 44.3 27.2C44.3 25 44.3 22.8 44.3 20.5H44.4001Z" fill="white"/>
<path d="M44.4999 47.5C46.3999 46.4 48.2999 45.3 50.0999 44.2C51.9999 45.3 53.8999 46.4 55.6999 47.5C55.6999 49.7 55.6999 51.9 55.6999 54.2C53.7999 55.3 51.9999 56.3 50.0999 57.4C48.1999 56.3 46.2999 55.3 44.3999 54.2C44.3999 52 44.3999 49.8 44.3999 47.5H44.4999Z" fill="white"/>
<path d="M61.4001 38C63.3001 36.9 65.2 35.8 67 34.7C68.9 35.8 70.8 36.9 72.6 38C72.6 40.2 72.6 42.4 72.6 44.7C70.7 45.8 68.9 46.8 67 47.9C65.1 46.8 63.2 45.8 61.3 44.7C61.3 42.5 61.3 40.3 61.3 38H61.4001Z" fill="white"/>
<path d="M65.2001 59.6C67.1001 58.5 69.0001 57.4 70.8001 56.3C72.7001 57.4 74.6001 58.5 76.4001 59.6C76.4001 61.8 76.4001 64.0001 76.4001 66.3001C74.5001 67.4001 72.7001 68.4 70.8001 69.5C68.9001 68.4 67.0001 67.4001 65.1001 66.3001C65.1001 64.1001 65.1001 61.9 65.1001 59.6H65.2001Z" fill="white"/>
<path d="M44.4001 72.8C46.3001 71.7 48.2 70.6 50 69.5C51.9 70.6 53.8 71.7 55.6 72.8C55.6 75 55.6 77.2 55.6 79.5C53.7 80.6 51.9 81.6 50 82.7C48.1 81.6 46.2 80.6 44.3 79.5C44.3 77.3 44.3 75.1 44.3 72.8H44.4001Z" fill="white"/>
<path d="M128.1 99.4C155.825 99.4 178.3 77.1486 178.3 49.7C178.3 22.2514 155.825 0 128.1 0C100.375 0 77.8999 22.2514 77.8999 49.7C77.8999 77.1486 100.375 99.4 128.1 99.4Z" fill="#D0D2D5"/>
<path d="M169.9 49.9C169.9 53.7 169.3 61.5 164.6 69.8C163.5 71.8 160.2 77.2 154 82C153.2 82.6 141.9 91.1 128.2 90.9C109.9 90.7 86.3999 75.1 86.3999 50C86.3999 27.5 105.3 8.8 128.2 9V5.5C124 5.5 116.4 6 108.2 9.9C102.9 12.4 99.1999 15.5 97.3999 17.2C86.7999 26.9 84.1999 38.9 83.6999 41.1C82.8999 45 81.4999 54.8 85.7999 65.9C86.7999 68.5 90.4999 77.1 99.4999 84.4C111.8 94.3 125.3 94.5 128.3 94.5C143.9 94.5 156.7 86.3 163.8 77.5C168.4 71.8 170.5 65.9 170.9 64.8C173.1 58.7 173.5 53.3 173.5 49.8H170L169.9 49.9Z" fill="white"/>
<path d="M134.9 9.4001C135.949 9.4001 136.8 8.54944 136.8 7.5001C136.8 6.45076 135.949 5.6001 134.9 5.6001C133.851 5.6001 133 6.45076 133 7.5001C133 8.54944 133.851 9.4001 134.9 9.4001Z" fill="white"/>
<path d="M140.9 10.6999C141.949 10.6999 142.8 9.84924 142.8 8.7999C142.8 7.75056 141.949 6.8999 140.9 6.8999C139.851 6.8999 139 7.75056 139 8.7999C139 9.84924 139.851 10.6999 140.9 10.6999Z" fill="white"/>
<path d="M146.6 12.8C147.649 12.8 148.5 11.9493 148.5 10.9C148.5 9.85066 147.649 9 146.6 9C145.551 9 144.7 9.85066 144.7 10.9C144.7 11.9493 145.551 12.8 146.6 12.8Z" fill="white"/>
<path d="M152 15.6C153.049 15.6 153.9 14.7494 153.9 13.7C153.9 12.6507 153.049 11.8 152 11.8C150.951 11.8 150.1 12.6507 150.1 13.7C150.1 14.7494 150.951 15.6 152 15.6Z" fill="white"/>
<path d="M156.9 19.1999C157.949 19.1999 158.8 18.3492 158.8 17.2999C158.8 16.2506 157.949 15.3999 156.9 15.3999C155.851 15.3999 155 16.2506 155 17.2999C155 18.3492 155.851 19.1999 156.9 19.1999Z" fill="white"/>
<path d="M161.2 23.4001C162.249 23.4001 163.1 22.5494 163.1 21.5001C163.1 20.4508 162.249 19.6001 161.2 19.6001C160.151 19.6001 159.3 20.4508 159.3 21.5001C159.3 22.5494 160.151 23.4001 161.2 23.4001Z" fill="white"/>
<path d="M165 28.1999C166.049 28.1999 166.9 27.3492 166.9 26.2999C166.9 25.2506 166.049 24.3999 165 24.3999C163.951 24.3999 163.1 25.2506 163.1 26.2999C163.1 27.3492 163.951 28.1999 165 28.1999Z" fill="white"/>
<path d="M168 33.5C169.049 33.5 169.9 32.6493 169.9 31.6C169.9 30.5506 169.049 29.7 168 29.7C166.951 29.7 166.1 30.5506 166.1 31.6C166.1 32.6493 166.951 33.5 168 33.5Z" fill="white"/>
<path d="M170.2 39.1C171.249 39.1 172.1 38.2494 172.1 37.2001C172.1 36.1507 171.249 35.3 170.2 35.3C169.151 35.3 168.3 36.1507 168.3 37.2001C168.3 38.2494 169.151 39.1 170.2 39.1Z" fill="white"/>
<path d="M171.4 45.1C172.449 45.1 173.3 44.2494 173.3 43.2001C173.3 42.1507 172.449 41.3 171.4 41.3C170.351 41.3 169.5 42.1507 169.5 43.2001C169.5 44.2494 170.351 45.1 171.4 45.1Z" fill="white"/>
<path d="M103.9 58.6999C105.8 57.5999 107.7 56.4999 109.5 55.3999C111.4 56.4999 113.3 57.5999 115.1 58.6999C115.1 60.8999 115.1 63.0999 115.1 65.3999C113.2 66.4999 111.4 67.4999 109.5 68.5999C107.6 67.4999 105.7 66.4999 103.8 65.3999C103.8 63.1999 103.8 60.9999 103.8 58.6999H103.9Z" fill="white"/>
<path d="M122 55.2C122.276 55.2 122.5 54.9761 122.5 54.7C122.5 54.4238 122.276 54.2 122 54.2C121.724 54.2 121.5 54.4238 121.5 54.7C121.5 54.9761 121.724 55.2 122 55.2Z" fill="white"/>
<path d="M117.6 45.2C117.876 45.2 118.1 44.9761 118.1 44.7C118.1 44.4238 117.876 44.2 117.6 44.2C117.324 44.2 117.1 44.4238 117.1 44.7C117.1 44.9761 117.324 45.2 117.6 45.2Z" fill="white"/>
<path d="M119.9 46.5C120.176 46.5 120.4 46.2761 120.4 46C120.4 45.7239 120.176 45.5 119.9 45.5C119.624 45.5 119.4 45.7239 119.4 46C119.4 46.2761 119.624 46.5 119.9 46.5Z" fill="white"/>
<path d="M122.1 47.8C122.376 47.8 122.6 47.5762 122.6 47.3C122.6 47.0239 122.376 46.8 122.1 46.8C121.824 46.8 121.6 47.0239 121.6 47.3C121.6 47.5762 121.824 47.8 122.1 47.8Z" fill="white"/>
<path d="M119.2 56.7C119.476 56.7 119.7 56.4761 119.7 56.2C119.7 55.9238 119.476 55.7 119.2 55.7C118.924 55.7 118.7 55.9238 118.7 56.2C118.7 56.4761 118.924 56.7 119.2 56.7Z" fill="white"/>
<path d="M116.5 58.3C116.776 58.3 117 58.0762 117 57.8C117 57.5239 116.776 57.3 116.5 57.3C116.224 57.3 116 57.5239 116 57.8C116 58.0762 116.224 58.3 116.5 58.3Z" fill="white"/>
<path d="M113.2 42.2C113.531 42.2 113.8 41.9314 113.8 41.6C113.8 41.2686 113.531 41 113.2 41C112.869 41 112.6 41.2686 112.6 41.6C112.6 41.9314 112.869 42.2 113.2 42.2Z" fill="white"/>
<path d="M104.6 37.1C106.5 36 108.4 34.9 110.2 33.8C112.1 34.9 114 36 115.8 37.1C115.8 39.3 115.8 41.5 115.8 43.8C113.9 44.9 112.1 45.9 110.2 47C108.3 45.9 106.4 44.9 104.5 43.8C104.5 41.6 104.5 39.4 104.5 37.1H104.6Z" fill="white"/>
<path d="M128.6 29.3C128.6 29.0239 128.398 28.8 128.15 28.8C127.901 28.8 127.7 29.0239 127.7 29.3V45.8C127.7 46.0762 127.901 46.3 128.15 46.3C128.398 46.3 128.6 46.0762 128.6 45.8V29.3Z" fill="white"/>
<path d="M128.6 56.7C128.6 56.4238 128.398 56.2 128.15 56.2C127.901 56.2 127.7 56.4238 127.7 56.7V73.1999C127.7 73.4761 127.901 73.6999 128.15 73.6999C128.398 73.6999 128.6 73.4761 128.6 73.1999V56.7Z" fill="white"/>
<path d="M145.148 61.1676C145.387 61.3057 145.681 61.2431 145.806 61.0279C145.93 60.8127 145.837 60.5263 145.598 60.3882L131.308 52.1382C131.069 52.0001 130.775 52.0627 130.65 52.2779C130.526 52.4931 130.619 52.7795 130.858 52.9176L145.148 61.1676Z" fill="white"/>
<path d="M142.245 43.3688C142.485 43.2307 142.578 42.9443 142.454 42.7291C142.329 42.5138 142.035 42.4513 141.796 42.5894L131.23 48.6894C130.991 48.8274 130.898 49.1138 131.022 49.3291C131.146 49.5443 131.441 49.6068 131.68 49.4688L142.245 43.3688Z" fill="white"/>
<path d="M122.5 20.5C124.4 19.4 126.3 18.3 128.1 17.2C130 18.3 131.9 19.4 133.7 20.5C133.7 22.7 133.7 24.9 133.7 27.2C131.8 28.3 130 29.3 128.1 30.4C126.2 29.3 124.3 28.3 122.4 27.2C122.4 25 122.4 22.8 122.4 20.5H122.5Z" fill="white"/>
<path d="M122.5 47.5C124.4 46.4 126.3 45.3 128.1 44.2C130 45.3 131.9 46.4 133.7 47.5C133.7 49.7 133.7 51.9 133.7 54.2C131.8 55.3 130 56.3 128.1 57.4C126.2 56.3 124.3 55.3 122.4 54.2C122.4 52 122.4 49.8 122.4 47.5H122.5Z" fill="white"/>
<path d="M139.4 38C141.3 36.9 143.2 35.8 145 34.7C146.9 35.8 148.8 36.9 150.6 38C150.6 40.2 150.6 42.4 150.6 44.7C148.7 45.8 146.9 46.8 145 47.9C143.1 46.8 141.2 45.8 139.3 44.7C139.3 42.5 139.3 40.3 139.3 38H139.4Z" fill="white"/>
<path d="M143.3 59.6C145.2 58.5 147.1 57.4 148.9 56.3C150.8 57.4 152.7 58.5 154.5 59.6C154.5 61.8 154.5 64.0001 154.5 66.3001C152.6 67.4001 150.8 68.4 148.9 69.5C147 68.4 145.1 67.4001 143.2 66.3001C143.2 64.1001 143.2 61.9 143.2 59.6H143.3Z" fill="white"/>
<path d="M122.5 72.8C124.4 71.7 126.3 70.6 128.1 69.5C130 70.6 131.9 71.7 133.7 72.8C133.7 75 133.7 77.2 133.7 79.5C131.8 80.6 130 81.6 128.1 82.7C126.2 81.6 124.3 80.6 122.4 79.5C122.4 77.3 122.4 75.1 122.4 72.8H122.5Z" fill="white"/>
</svg>
