<svg width="331" height="331" viewBox="0 0 331 331" fill="none" xmlns="http://www.w3.org/2000/svg">
<path d="M254.1 179C267.4 170.2 276.1 155.1 276.1 138C276.1 110.9 254.1 88.8999 227 88.8999C213.5 88.8999 202 94.0999 193.1 102.5C189.8 105.6 187 109.2 184.7 113.1C188.8 114.8 192.7 116.8 196.3 119.2C198.6 115.4 201.6 112.1 205.1 109.4C211.2 104.7 218.8 101.9 227 101.9C246.9 101.9 263 118.1 263 137.9C263 157.7 251.8 168.3 236.7 172.6C233.6 173.5 230.3 174 227 174C223.7 174 224.7 174 223.6 173.8C223.4 178.5 222.6 183.1 221.4 187.5C223.3 187.3 225.1 187.1 227 187.1C228.9 187.1 232.3 187.3 234.8 187.6C267.2 191.5 292.5 219.1 292.5 252.6H305.6C305.6 218.8 284.1 190 254.1 178.9V179Z" />
<path d="M104.8 187.2C106.7 187.2 108.6 187.4 110.4 187.6C109.2 183.2 108.4 178.6 108.2 173.9C107.1 174 105.9 174.1 104.8 174.1C101.4 174.1 98.1999 173.6 95.0999 172.7C79.8999 168.4 68.8 154.5 68.8 138C68.8 121.5 85 102 104.8 102C109.5 102 118.5 102.6 126.7 109.5C130.082 112.346 133.2 115.5 135.5 119.3C139.1 116.9 143 114.8 147.1 113.2C144.8 109.3 142 105.7 138.7 102.6C129.9 94.2 118 89 104.8 89C77.7 89 55.7 111 55.7 138.1C55.7 165.2 76 176.5 77.6999 179.1C47.6999 190.2 26.2 219 26.2 252.8H39.2999C39.2999 219.3 64.5 191.7 97 187.8C99.6 187.5 102.2 187.3 104.8 187.3V187.2Z" />
<path d="M165.5 222.7C176.2 222.7 186.9 222.4 197.5 222.7C225 223.6 249.8 245.3 253.9 272.5C255.2 281.4 254.9 290.6 255.1 299.6C255.1 303.6 251.9 306.5 248.2 306.4C244.5 306.3 241.7 303.4 241.7 299.2C241.6 293.4 241.7 287.6 241.7 281.8C241.2 256.8 220.4 236 195.4 235.8C175.5 235.6 155.7 235.6 135.8 235.8C110.7 236 89.8 256.8 89.4 282C89.3 287.5 89.4 293 89.4 298.5C89.4 303.3 86.6 306.4 82.7 306.4C78.7 306.4 75.9 303.3 75.9 298.5C75.9 288 75.3 277.4 78.2 267C85.3 241.4 108.3 223.3 134.9 222.6C145.2 222.3 155.5 222.6 165.7 222.6L165.5 222.7Z" />
<path d="M165.5 113.8C191.7 113.8 213.2 135.3 213.3 161.7C213.3 187.9 191.7 209.6 165.5 209.5C139.2 209.5 117.6 188 117.6 161.8C117.6 135.3 139.1 113.8 165.6 113.8H165.5ZM165.5 196C184.3 196 199.9 180.4 199.8 161.5C199.8 142.7 184.3 127.3 165.6 127.2C146.8 127.1 131.1 142.5 131 161.4C130.9 180.4 146.5 196 165.5 196Z" />
<path d="M165.4 0C74 0 0 74 0 165.4C0 256.8 74 330.8 165.4 330.8C256.8 330.8 330.8 256.8 330.8 165.4C330.8 74 256.7 0 165.4 0ZM165.4 321.9C78.9 321.9 8.8 251.8 8.8 165.3C8.8 78.8 78.9 8.8 165.4 8.8C251.9 8.8 322 78.9 322 165.4C322 251.9 251.9 322 165.4 322V321.9Z" />
</svg>
