<svg width="135" height="144" viewBox="0 0 135 144" fill="none" xmlns="http://www.w3.org/2000/svg">
<path d="M123.9 52.1001H3.69995V61.9001H123.9V52.1001Z" fill="#949494"/>
<path d="M71.6 68.1001H54.8V123.8H71.6V68.1001Z" fill="#949494"/>
<path d="M120.3 123.8H7.30005V130.5H120.3V123.8Z" fill="#5F5E5E"/>
<path d="M123.9 130.5H3.69995V137.2H123.9V130.5Z" fill="#706F6F"/>
<path d="M127.6 137.2H0V143.9H127.6V137.2Z" fill="#7C7C7B"/>
<path d="M123.9 52.1H3.69995L63.7999 0L123.9 52.1Z" fill="#ACACAC"/>
<path d="M117.5 52.1001H10L63.7 5.1001L117.5 52.1001Z" fill="#C6C6C6"/>
<path d="M59.3001 119.4C59.3001 120 58.8001 120.5 58.2001 120.5C57.6001 120.5 57.1001 120 57.1001 119.4V72.4999C57.1001 71.8999 57.6001 71.3999 58.2001 71.3999C58.8001 71.3999 59.3001 71.8999 59.3001 72.4999V119.4Z" fill="#7C7C7B"/>
<path d="M64.3001 119.4C64.3001 120 63.8001 120.5 63.2001 120.5C62.6001 120.5 62.1001 120 62.1001 119.4V72.4999C62.1001 71.8999 62.6001 71.3999 63.2001 71.3999C63.8001 71.3999 64.3001 71.8999 64.3001 72.4999V119.4Z" fill="#7C7C7B"/>
<path d="M69.4 119.4C69.4 120 68.9 120.5 68.3 120.5C67.7 120.5 67.2 120 67.2 119.4V72.4999C67.2 71.8999 67.7 71.3999 68.3 71.3999C68.9 71.3999 69.4 71.8999 69.4 72.4999V119.4Z" fill="#7C7C7B"/>
<path d="M28.6 68.1001H11.8V123.8H28.6V68.1001Z" fill="#949494"/>
<path d="M16.3001 119.4C16.3001 120 15.8001 120.5 15.2001 120.5C14.6001 120.5 14.1001 120 14.1001 119.4V72.4999C14.1001 71.8999 14.6001 71.3999 15.2001 71.3999C15.8001 71.3999 16.3001 71.8999 16.3001 72.4999V119.4Z" fill="#7C7C7B"/>
<path d="M21.4 119.4C21.4 120 20.8999 120.5 20.2999 120.5C19.6999 120.5 19.2 120 19.2 119.4V72.4999C19.2 71.8999 19.6999 71.3999 20.2999 71.3999C20.8999 71.3999 21.4 71.8999 21.4 72.4999V119.4Z" fill="#7C7C7B"/>
<path d="M26.5 119.4C26.5 120 26 120.5 25.4 120.5C24.8 120.5 24.3 120 24.3 119.4V72.4999C24.3 71.8999 24.8 71.3999 25.4 71.3999C26 71.3999 26.5 71.8999 26.5 72.4999V119.4Z" fill="#7C7C7B"/>
<path d="M114.5 68.1001H97.7V123.8H114.5V68.1001Z" fill="#949494"/>
<path d="M102.2 119.4C102.2 120 101.7 120.5 101.1 120.5C100.5 120.5 100 120 100 119.4V72.4999C100 71.8999 100.5 71.3999 101.1 71.3999C101.7 71.3999 102.2 71.8999 102.2 72.4999V119.4Z" fill="#7C7C7B"/>
<path d="M107.3 119.4C107.3 120 106.8 120.5 106.2 120.5C105.6 120.5 105.1 120 105.1 119.4V72.4999C105.1 71.8999 105.6 71.3999 106.2 71.3999C106.8 71.3999 107.3 71.8999 107.3 72.4999V119.4Z" fill="#7C7C7B"/>
<path d="M112.3 119.4C112.3 120 111.8 120.5 111.2 120.5C110.6 120.5 110.1 120 110.1 119.4V72.4999C110.1 71.8999 110.6 71.3999 111.2 71.3999C111.8 71.3999 112.3 71.8999 112.3 72.4999V119.4Z" fill="#7C7C7B"/>
<path d="M120.3 61.8999H7.30005V68.5999H120.3V61.8999Z" fill="#7C7C7B"/>
<path d="M81.4999 31.5002C81.4999 41.0002 73.7999 48.8002 64.1999 48.8002C54.5999 48.8002 46.8999 41.1002 46.8999 31.5002C46.8999 21.9002 54.5999 14.2002 64.1999 14.2002C73.7999 14.2002 81.4999 21.9002 81.4999 31.5002Z" fill="#949494"/>
<path d="M65 19.1001V20.5001C65.9 20.5001 66.7 20.8001 67.4 21.1001C68.1 21.4001 68.7 21.8001 69.2 22.4001C69.6 22.8001 69.9 23.3001 70.1 23.8001C70.3 24.3001 70.4 24.7001 70.4 25.1001C70.4 25.5001 70.2 25.9001 69.9 26.2001C69.6 26.5001 69.2 26.7001 68.7 26.7001C67.8 26.7001 67.3 26.2001 67 25.3001C66.7 24.2001 66 23.5001 64.9 23.1001V28.6001C66 28.9001 66.8 29.2001 67.5 29.4001C68.1 29.6001 68.7 30.0001 69.2 30.5001C69.7 31.0001 70.2 31.6001 70.5 32.2001C70.8 32.9001 70.9 33.6001 70.9 34.4001C70.9 35.2001 70.7 36.3001 70.2 37.2001C69.7 38.1001 69 38.8001 68.1 39.3001C67.2 39.9001 66.1 40.2001 64.9 40.3001V43.6001C64.9 44.1001 64.9 44.5001 64.7 44.7001C64.6 44.9001 64.4 45.1001 64 45.1001C63.6 45.1001 63.5 45.1001 63.3 44.8001C63.2 44.6001 63.1 44.3001 63.1 43.9001V40.4001C62.1 40.3001 61.2 40.0001 60.4 39.7001C59.6 39.3001 59 38.9001 58.5 38.3001C58 37.8001 57.6 37.2001 57.4 36.6001C57.2 36.0001 57 35.4001 57 34.9001C57 34.4001 57.2 34.1001 57.5 33.8001C57.8 33.5001 58.2 33.3001 58.7 33.3001C59.2 33.3001 59.4 33.3001 59.7 33.6001C60 33.8001 60.2 34.0001 60.3 34.4001C60.5 35.1001 60.7 35.7001 60.9 36.0001C61.1 36.4001 61.3 36.7001 61.7 37.0001C62.1 37.3001 62.5 37.6001 63.1 37.7001V31.6001C61.9 31.3001 60.9 30.9001 60.2 30.5001C59.4 30.1001 58.8 29.5001 58.3 28.8001C57.8 28.1001 57.6 27.1001 57.6 26.0001C57.6 24.9001 58.1 23.3001 59 22.3001C60 21.3001 61.3 20.8001 63.2 20.6001V19.2001C63.2 18.5001 63.5 18.1001 64 18.1001C64.5 18.1001 64.8 18.5001 64.8 19.2001L65 19.1001ZM63.3 28.1001V23.1001C62.6 23.3001 62 23.6001 61.6 24.0001C61.2 24.4001 61 24.9001 61 25.6001C61 26.3001 61.2 26.8001 61.6 27.2001C62 27.6001 62.6 27.9001 63.4 28.2001L63.3 28.1001ZM65 32.0001V37.7001C65.9 37.5001 66.6 37.2001 67 36.6001C67.5 36.1001 67.7 35.4001 67.7 34.7001C67.7 34.0001 67.5 33.4001 67 32.9001C66.5 32.5001 65.8 32.1001 64.9 31.8001L65 32.0001Z" fill="#C6C6C6"/>
<path opacity="0.6" d="M72.6 79.7002H130.9C132.7 79.7002 134.2 81.2002 134.2 83.0002V118.9C134.2 120.7 132.7 122.2 130.9 122.2H72.6C70.8 122.2 69.3 120.7 69.3 118.9V83.0002C69.3 81.2002 70.8 79.7002 72.6 79.7002Z" fill="#333349"/>
<path d="M70.1 77.2002H128.4C130.2 77.2002 131.7 78.7002 131.7 80.5002V116.4C131.7 118.2 130.2 119.7 128.4 119.7H70.1C68.3 119.7 66.8 118.2 66.8 116.4V80.5002C66.8 78.7002 68.3 77.2002 70.1 77.2002Z" fill="#93B223"/>
<path d="M131.7 81.5H66.8V90.5H131.7V81.5Z" fill="#353535"/>
<path d="M130.5 93.9004H68.1001V99.8004H130.5V93.9004Z" fill="white"/>
<path d="M99.6001 114H99.4001V109.6H100.2C100.6 109.6 100.8 109.6 101 109.9C101.2 110.1 101.2 110.4 101.2 110.8C101.2 111.2 101.2 111.5 101 111.7C100.8 111.9 100.6 112 100.2 112H99.6001V114.1V114ZM99.6001 111.7H100.2C100.5 111.7 100.7 111.7 100.8 111.5C100.9 111.3 101 111.1 101 110.8C101 110.5 101 110.2 100.8 110.1C100.7 110 100.5 109.9 100.2 109.9H99.6001V111.8V111.7Z" fill="#5D4C52"/>
<path d="M101.9 114V109.6H102.1V113.8H103.6V114H101.9Z" fill="#5D4C52"/>
<path d="M104.4 114H104.2L104.5 112.5L105.2 109.6H105.4L106.4 114H106.2L105.9 112.7H104.7L104.4 114ZM105.3 110.2L104.8 112.5H105.9L105.4 110.2H105.3Z" fill="#5D4C52"/>
<path d="M108 114C107.7 114 107.5 113.9 107.3 113.7C107.1 113.5 107.1 113.2 107.1 112.8H107.3C107.3 113.1 107.3 113.3 107.3 113.4C107.3 113.5 107.4 113.6 107.5 113.7L107.7 113.8H107.9C108.1 113.8 108.3 113.8 108.4 113.6C108.5 113.4 108.6 113.2 108.6 112.9C108.6 112.6 108.6 112.6 108.6 112.5C108.6 112.4 108.5 112.3 108.4 112.2C108.4 112.2 108.2 112.1 108.2 112H108H107.9C107.9 112 107.8 111.9 107.7 111.8C107.7 111.8 107.5 111.7 107.4 111.6C107.4 111.6 107.2 111.4 107.2 111.3C107.2 111.2 107.2 111 107.2 110.8C107.2 110.5 107.2 110.2 107.4 110C107.6 109.8 107.8 109.7 108.1 109.7C108.4 109.7 108.6 109.8 108.8 110C109 110.2 109 110.5 109 110.9C109 111 108.8 111 108.8 111C108.8 110.6 108.8 110.3 108.6 110.2C108.5 110.1 108.3 110 108.1 110C107.9 110 107.7 110 107.6 110.3C107.5 110.5 107.4 110.7 107.4 111C107.4 111.3 107.4 111.3 107.4 111.4C107.4 111.5 107.5 111.6 107.6 111.7C107.6 111.7 107.8 111.8 107.8 111.9C107.8 111.9 108 111.9 108 112H108.1C108.1 112 108.2 112 108.3 112.1C108.3 112.1 108.5 112.2 108.6 112.3C108.6 112.3 108.8 112.5 108.8 112.6C108.8 112.7 108.9 112.9 108.9 113.1C108.9 113.4 108.9 113.7 108.7 113.9C108.5 114.1 108.3 114.2 108 114.2V114Z" fill="#5D4C52"/>
<path d="M111.9 109.8H110.8V114H110.6V109.8H109.6V109.6H111.9V109.8Z" fill="#5D4C52"/>
<path d="M112.7 114V109.6H112.9V114H112.7Z" fill="#5D4C52"/>
<path d="M114.5 114C114.4 114 114.3 114 114.2 114C114.1 114 114 114 113.9 113.8C113.9 113.8 113.7 113.6 113.7 113.4C113.7 113.2 113.7 113.1 113.7 112.8V110.7C113.7 110.5 113.7 110.3 113.7 110.1C113.7 109.9 113.8 109.8 113.9 109.7C113.9 109.7 114.1 109.6 114.2 109.5C114.3 109.5 114.4 109.5 114.5 109.5C114.6 109.5 114.7 109.5 114.8 109.5C114.9 109.5 115 109.5 115.1 109.7C115.1 109.7 115.3 109.9 115.3 110.1C115.3 110.3 115.3 110.4 115.3 110.7C115.3 110.8 115.1 110.8 115.1 110.8C115.1 110.4 115.1 110.1 114.9 110C114.8 109.9 114.6 109.8 114.4 109.8C114.2 109.8 114 109.8 113.9 110C113.8 110.2 113.7 110.4 113.7 110.7V112.8C113.7 113.1 113.7 113.4 113.9 113.5C114 113.7 114.2 113.7 114.4 113.7C114.6 113.7 114.8 113.7 114.9 113.5C115 113.3 115.1 113.1 115.1 112.8C115.1 112.7 115.3 112.7 115.3 112.7C115.3 113 115.3 113.2 115.3 113.4C115.3 113.5 115.2 113.7 115.1 113.8C115.1 113.8 114.9 113.9 114.8 114C114.7 114 114.6 114 114.5 114Z" fill="#5D4C52"/>
<path d="M118.8 114C118.7 114 118.6 114 118.5 114C118.4 114 118.3 114 118.2 113.8C118.2 113.8 118 113.6 118 113.4C118 113.2 118 113.1 118 112.8V110.7C118 110.5 118 110.3 118 110.1C118 109.9 118.1 109.8 118.2 109.7C118.2 109.7 118.4 109.6 118.5 109.5C118.6 109.5 118.7 109.5 118.8 109.5C118.9 109.5 119 109.5 119.1 109.5C119.2 109.5 119.3 109.5 119.4 109.7C119.4 109.7 119.6 109.9 119.6 110.1C119.6 110.3 119.6 110.4 119.6 110.7C119.6 110.8 119.4 110.8 119.4 110.8C119.4 110.4 119.4 110.1 119.2 110C119.1 109.9 118.9 109.8 118.7 109.8C118.5 109.8 118.3 109.8 118.2 110C118.1 110.2 118 110.4 118 110.7V112.8C118 113.1 118 113.4 118.2 113.5C118.3 113.7 118.5 113.7 118.7 113.7C118.9 113.7 119.1 113.7 119.2 113.5C119.3 113.3 119.4 113.1 119.4 112.8C119.4 112.7 119.6 112.7 119.6 112.7C119.6 113 119.6 113.2 119.6 113.4C119.6 113.5 119.5 113.7 119.4 113.8C119.4 113.8 119.2 113.9 119.1 114C119 114 118.9 114 118.8 114Z" fill="#5D4C52"/>
<path d="M120.6 114H120.4L120.7 112.5L121.4 109.6H121.6L122.6 114H122.4L122.1 112.7H120.9L120.6 114ZM121.5 110.2L121 112.5H122.1L121.6 110.2H121.5Z" fill="#5D4C52"/>
<path d="M124.8 112C125 112.2 125.1 112.4 125.1 112.8V114H124.9V112.8C124.9 112.5 124.9 112.3 124.7 112.2C124.6 112.1 124.4 112 124.1 112H123.5V114.1H123.3V109.7H124.1C124.5 109.7 124.7 109.7 124.9 110C125.1 110.2 125.1 110.5 125.1 110.9C125.1 111.3 125.1 111.6 124.9 111.8C124.9 111.8 124.7 111.9 124.6 112C124.6 112 124.8 112 124.8 112.2V112ZM124.1 111.7C124.4 111.7 124.6 111.7 124.7 111.5C124.8 111.3 124.9 111.1 124.9 110.8C124.9 110.5 124.9 110.2 124.7 110.1C124.6 110 124.4 109.9 124.1 109.9H123.5V111.8H124.1V111.7Z" fill="#5D4C52"/>
<path d="M126.7 114H126V109.6H126.7C127 109.6 127.3 109.7 127.5 109.9C127.7 110.1 127.7 110.4 127.7 110.8V112.8C127.7 113.2 127.7 113.5 127.5 113.7C127.3 113.9 127.1 114 126.7 114ZM126.2 113.8H126.7C127 113.8 127.2 113.8 127.3 113.6C127.4 113.4 127.5 113.2 127.5 112.9V110.9C127.5 110.6 127.5 110.3 127.3 110.2C127.2 110 127 110 126.7 110H126.2V114V113.8Z" fill="#5D4C52"/>
<g opacity="0.6">
<path d="M55.8 89.5H114.1C115.9 89.5 117.4 91 117.4 92.8V128.7C117.4 130.5 115.9 132 114.1 132H55.8C54 132 52.5 130.5 52.5 128.7V92.8C52.5 91 54 89.5 55.8 89.5Z" fill="#0C5FAB"/>
<path d="M55.8 89.5H114.1C115.9 89.5 117.4 91 117.4 92.8V128.7C117.4 130.5 115.9 132 114.1 132H55.8C54 132 52.5 130.5 52.5 128.7V92.8C52.5 91 54 89.5 55.8 89.5Z" fill="#333349"/>
</g>
<path opacity="0.6" d="M114.1 88.3999H62.8V116.2C62.8 118.1 64.4001 119.7 66.3001 119.7H117.6V91.8999C117.6 89.9999 116 88.3999 114.1 88.3999Z" fill="#333349"/>
<path d="M53.1999 86.6001H111.5C113.3 86.6001 114.8 88.1001 114.8 89.9001V125.8C114.8 127.6 113.3 129.1 111.5 129.1H53.1999C51.3999 129.1 49.8999 127.6 49.8999 125.8V89.9001C49.8999 88.1001 51.3999 86.6001 53.1999 86.6001Z" fill="#0C5FAB"/>
<g opacity="0.6">
<path d="M56.5999 118.2C56.3999 118.2 56.2 118 56.2 117.8C56.2 117.6 56.3999 117.4 56.5999 117.4H57.0999V115.1H56.5999C56.3999 115.1 56.2 115 56.2 114.7C56.2 114.4 56.3999 114.3 56.5999 114.3H57.7999V117.3H57.9V116.5C57.9 116.3 58.0999 116.1 58.2999 116.1C58.4999 116.1 58.7 116.3 58.7 116.5V117.6C58.7 117.8 58.4999 118 58.2999 118H56.5L56.5999 118.2Z" fill="#333349"/>
<path d="M59.3 118.2V116.5C59.3 116.2 59.6001 115.9 59.9001 115.9H61.1V115.1H59.7001C59.5001 115.1 59.3 115 59.3 114.7C59.3 114.4 59.5001 114.3 59.7001 114.3H61.3C61.6 114.3 61.9001 114.6 61.9001 114.9V116C61.9001 116.4 61.6 116.6 61.3 116.6H60.1V117.4H61.5C61.7 117.4 61.9001 117.5 61.9001 117.8C61.9001 118.1 61.7 118.2 61.5 118.2H59.4001H59.3Z" fill="#333349"/>
<path d="M62.9 118.2C62.7 118.2 62.5 118.1 62.5 117.8C62.5 117.5 62.7 117.4 62.9 117.4H64.3V116.7H63.4C63.2 116.7 63 116.5 63 116.3C63 116.1 63.2 115.9 63.4 115.9H64.3V115.2H62.9C62.7 115.2 62.5 115.1 62.5 114.8C62.5 114.5 62.7 114.4 62.9 114.4H64.5C64.8 114.4 65.1 114.7 65.1 115V115.8C65.1 116 65.1 116.1 65 116.3C65 116.4 65.1 116.6 65.1 116.7V117.6C65.1 117.9 64.8 118.2 64.5 118.2H63H62.9Z" fill="#333349"/>
<path d="M67 117.1H65.7V114.9C65.7 114.7 65.9 114.5 66.1 114.5C66.3 114.5 66.5 114.7 66.5 114.9V116.4H67.1V115.3C67.1 115.1 67.2 114.9 67.5 114.9C67.8 114.9 67.9 115 67.9 115.3V116.5C68 116.5 68.1 116.7 68.1 116.8C68.1 116.9 68.1 117.1 67.9 117.1V117.9C67.9 118.1 67.7 118.3 67.5 118.3C67.3 118.3 67.1 118.2 67.1 117.9V117.1H67Z" fill="#333349"/>
<path d="M71.3999 118.2C71.2999 118.2 71.1999 118.2 71.0999 118.2H70.7999C70.5999 118 70.5999 117.9 70.5999 117.7C70.5999 117.5 70.6999 117.3 70.8999 117.3C71.0999 117.3 70.9999 117.3 71.0999 117.3H71.3999C71.3999 117.4 72.2999 117.4 72.2999 117.4V116.6H70.9999V114.8L71.3999 114.4H72.6999C72.8999 114.4 73.0999 114.6 73.0999 114.8C73.0999 115 72.8999 115.2 72.6999 115.2H71.7999V116H72.4999C72.7999 116 73.0999 116.3 73.0999 116.6V117.7C73.0999 118 72.7999 118.3 72.4999 118.3H71.4999L71.3999 118.2Z" fill="#333349"/>
<path d="M74.1 118.2C73.9 118.2 73.7 118 73.7 117.8V114.8C73.7 114.6 73.9 114.4 74.1 114.4H74.3C74.5 114.4 74.7 114.6 74.7 114.8C74.7 115 74.6 115.1 74.5 115.1V116.3H75.9C76.1 116.3 76.3 116.5 76.3 116.7V117.8C76.3 118 76.1 118.2 75.9 118.2H74.2H74.1ZM75.5 117.1H74.5V117.5H75.5V117.1Z" fill="#333349"/>
<path d="M76.9999 116.8C76.9999 116.7 76.9999 116.6 77.0999 116.5L77.8999 115.9V115.3H76.7999C76.7999 115.4 76.5999 115.5 76.4999 115.5C76.3999 115.5 76.0999 115.3 76.0999 115.1V114.9C76.0999 114.7 76.1999 114.5 76.4999 114.5H78.5999V116C78.5999 116.1 78.5999 116.2 78.4999 116.3L77.7999 117V117.9C77.7999 118.1 77.6999 118.3 77.3999 118.3C77.0999 118.3 76.9999 118.2 76.9999 117.9V116.8Z" fill="#333349"/>
<path d="M79.6999 118.2C79.3999 118.2 79.0999 117.9 79.0999 117.6V116.5C79.0999 116.2 79.2999 116 79.4999 115.9V114.7C79.4999 114.5 79.6999 114.3 79.8999 114.3H80.7999C80.9999 114.3 81.1999 114.5 81.1999 114.7V115.9C81.4999 115.9 81.5999 116.2 81.5999 116.5V117.6C81.5999 117.9 81.2999 118.2 80.9999 118.2H79.6999ZM80.8999 116.7H79.8999V117.5H80.8999V116.7ZM80.4999 115.2H80.2999V116H80.4999V115.2Z" fill="#333349"/>
<path d="M86 118.2C85.8 118.2 85.6 118.1 85.6 117.8C85.6 117.5 85.6 117.5 85.8 117.5V116.3H84.4C84.2 116.3 84 116.2 84 115.9V114.8C84 114.6 84.1 114.4 84.4 114.4H86.2C86.4 114.4 86.6 114.6 86.6 114.8V117.8C86.6 118 86.5 118.2 86.2 118.2H86ZM85.9 115.2H84.9V115.6H85.9V115.2Z" fill="#333349"/>
<path d="M87.9 118.2C87.6 118.2 87.3 118 87.3 117.6V115C87.3 114.7 87.6 114.4 87.9 114.4H89.3C89.6 114.4 89.9 114.7 89.9 115V117.6C89.9 117.9 89.6 118.2 89.3 118.2H87.9ZM89.1 115.2H88.1V117.5H89.1V115.2Z" fill="#333349"/>
<path d="M90.9 118.2C90.7 118.2 90.5 118 90.5 117.8C90.5 117.6 90.7 117.4 90.9 117.4H91.4V115.1H90.9C90.7 115.1 90.5 115 90.5 114.7C90.5 114.4 90.7 114.3 90.9 114.3H92.1V117.3H92.2V116.5C92.2 116.3 92.4 116.1 92.6 116.1C92.8 116.1 93 116.3 93 116.5V117.6C93 117.8 92.8 118 92.6 118H90.8L90.9 118.2Z" fill="#333349"/>
<path d="M93.5999 118.2V116.5C93.5999 116.2 93.8999 115.9 94.1999 115.9H95.3999V115.1H93.9999C93.7999 115.1 93.5999 115 93.5999 114.7C93.5999 114.4 93.7999 114.3 93.9999 114.3H95.5999C95.8999 114.3 96.1999 114.6 96.1999 114.9V116C96.1999 116.4 95.8999 116.6 95.5999 116.6H94.3999V117.4H95.7999C95.9999 117.4 96.1999 117.5 96.1999 117.8C96.1999 118.1 95.9999 118.2 95.7999 118.2H93.6999H93.5999Z" fill="#333349"/>
<path d="M99.2 118.2C99 118.2 98.8 118.1 98.8 117.8C98.8 117.5 99 117.4 99.2 117.4H100.6V116.7H99.7C99.5 116.7 99.3 116.5 99.3 116.3C99.3 116.1 99.5 115.9 99.7 115.9H100.6V115.2H99.2C99 115.2 98.8 115.1 98.8 114.8C98.8 114.5 99 114.4 99.2 114.4H100.8C101.1 114.4 101.4 114.7 101.4 115V115.8C101.4 116 101.4 116.1 101.3 116.3C101.3 116.4 101.4 116.6 101.4 116.7V117.6C101.4 117.9 101.1 118.2 100.8 118.2H99.3H99.2Z" fill="#333349"/>
<path d="M103.3 117.1H102V114.9C102 114.7 102.2 114.5 102.4 114.5C102.6 114.5 102.8 114.7 102.8 114.9V116.4H103.4V115.3C103.4 115.1 103.5 114.9 103.8 114.9C104.1 114.9 104.2 115 104.2 115.3V116.5C104.3 116.5 104.4 116.7 104.4 116.8C104.4 116.9 104.4 117.1 104.2 117.1V117.9C104.2 118.1 104 118.3 103.8 118.3C103.6 118.3 103.4 118.2 103.4 117.9V117.1H103.3Z" fill="#333349"/>
<path d="M105.7 118.2C105.6 118.2 105.5 118.2 105.4 118.2H105.1C104.9 118 104.9 117.9 104.9 117.7C104.9 117.5 105 117.3 105.2 117.3C105.4 117.3 105.3 117.3 105.4 117.3H105.7C105.7 117.4 106.6 117.4 106.6 117.4V116.6H105.3V114.8L105.7 114.4H107C107.2 114.4 107.4 114.6 107.4 114.8C107.4 115 107.2 115.2 107 115.2H106.1V116H106.8C107.1 116 107.4 116.3 107.4 116.6V117.7C107.4 118 107.1 118.3 106.8 118.3H105.8L105.7 118.2Z" fill="#333349"/>
<path d="M108.4 118.2C108.2 118.2 108 118 108 117.8V114.8C108 114.6 108.2 114.4 108.4 114.4H108.6C108.8 114.4 109 114.6 109 114.8C109 115 108.9 115.1 108.8 115.1V116.3H110.2C110.4 116.3 110.6 116.5 110.6 116.7V117.8C110.6 118 110.4 118.2 110.2 118.2H108.5H108.4ZM109.8 117.1H108.8V117.5H109.8V117.1Z" fill="#333349"/>
</g>
<path d="M56.2001 117.8C56.0001 117.8 55.8 117.6 55.8 117.4C55.8 117.2 56.0001 117 56.2001 117H56.7001V114.7H56.2001C56.0001 114.7 55.8 114.6 55.8 114.3C55.8 114 56.0001 113.9 56.2001 113.9H57.4001V116.9H57.5V116.1C57.5 115.9 57.7001 115.7 57.9001 115.7C58.1001 115.7 58.3 115.9 58.3 116.1V117.2C58.3 117.4 58.1001 117.6 57.9001 117.6H56.1L56.2001 117.8Z" fill="white"/>
<path d="M58.8999 117.8V116.1C58.8999 115.8 59.1999 115.5 59.4999 115.5H60.6999V114.7H59.2999C59.0999 114.7 58.8999 114.6 58.8999 114.3C58.8999 114 59.0999 113.9 59.2999 113.9H60.8999C61.1999 113.9 61.4999 114.2 61.4999 114.5V115.6C61.4999 116 61.1999 116.2 60.8999 116.2H59.6999V117H61.0999C61.2999 117 61.4999 117.1 61.4999 117.4C61.4999 117.7 61.2999 117.8 61.0999 117.8H58.9999H58.8999Z" fill="white"/>
<path d="M62.5001 117.8C62.3001 117.8 62.1001 117.7 62.1001 117.4C62.1001 117.1 62.3001 117 62.5001 117H63.9001V116.3H63.0001C62.8001 116.3 62.6001 116.1 62.6001 115.9C62.6001 115.7 62.8001 115.5 63.0001 115.5H63.9001V114.8H62.5001C62.3001 114.8 62.1001 114.7 62.1001 114.4C62.1001 114.1 62.3001 114 62.5001 114H64.1001C64.4001 114 64.7001 114.3 64.7001 114.6V115.4C64.7001 115.6 64.7001 115.7 64.6001 115.9C64.6001 116 64.7001 116.2 64.7001 116.3V117.2C64.7001 117.5 64.4001 117.8 64.1001 117.8H62.6001H62.5001Z" fill="white"/>
<path d="M66.6 116.7H65.3V114.5C65.3 114.3 65.5 114.1 65.7 114.1C65.9 114.1 66.1 114.3 66.1 114.5V116H66.7V114.9C66.7 114.7 66.8 114.5 67.1 114.5C67.4 114.5 67.5 114.6 67.5 114.9V116.1C67.6 116.1 67.7 116.3 67.7 116.4C67.7 116.5 67.7 116.7 67.5 116.7V117.5C67.5 117.7 67.3 117.9 67.1 117.9C66.9 117.9 66.7 117.8 66.7 117.5V116.7H66.6Z" fill="white"/>
<path d="M71 117.8C70.9 117.8 70.8 117.8 70.7 117.8H70.4C70.2 117.6 70.2 117.5 70.2 117.3C70.2 117.1 70.3 116.9 70.5 116.9C70.7 116.9 70.6 116.9 70.7 116.9H71C71 117 71.9 117 71.9 117V116.2H70.6V114.4L71 114H72.3C72.5 114 72.7 114.2 72.7 114.4C72.7 114.6 72.5 114.8 72.3 114.8H71.4V115.6H72.1C72.4 115.6 72.7 115.9 72.7 116.2V117.3C72.7 117.6 72.4 117.9 72.1 117.9H71.1L71 117.8Z" fill="white"/>
<path d="M73.7 117.8C73.5 117.8 73.3 117.6 73.3 117.4V114.4C73.3 114.2 73.5 114 73.7 114H73.9C74.1 114 74.3 114.2 74.3 114.4C74.3 114.6 74.2 114.7 74.1 114.7V115.9H75.5C75.7 115.9 75.9 116.1 75.9 116.3V117.4C75.9 117.6 75.7 117.8 75.5 117.8H73.8H73.7ZM75.1 116.7H74.1V117.1H75.1V116.7Z" fill="white"/>
<path d="M76.6 116.4C76.6 116.3 76.6 116.2 76.7 116.1L77.5 115.5V114.9H76.4C76.4 115 76.2 115.1 76.1 115.1C76 115.1 75.7 114.9 75.7 114.7V114.5C75.7 114.3 75.8 114.1 76.1 114.1H78.2V115.6C78.2 115.7 78.2 115.8 78.1 115.9L77.4 116.6V117.5C77.4 117.7 77.3 117.9 77 117.9C76.7 117.9 76.6 117.8 76.6 117.5V116.4Z" fill="white"/>
<path d="M79.3 117.8C79 117.8 78.7 117.5 78.7 117.2V116.1C78.7 115.8 78.9 115.6 79.1 115.5V114.3C79.1 114.1 79.3 113.9 79.5 113.9H80.4C80.6 113.9 80.8 114.1 80.8 114.3V115.5C81.1 115.5 81.2 115.8 81.2 116.1V117.2C81.2 117.5 80.9 117.8 80.6 117.8H79.3ZM80.5 116.3H79.5V117.1H80.5V116.3ZM80.1 114.8H79.9V115.6H80.1V114.8Z" fill="white"/>
<path d="M85.6001 117.8C85.4001 117.8 85.2001 117.7 85.2001 117.4C85.2001 117.1 85.2001 117.1 85.4001 117.1V115.9H84.0001C83.8001 115.9 83.6001 115.8 83.6001 115.5V114.4C83.6001 114.2 83.7001 114 84.0001 114H85.8001C86.0001 114 86.2001 114.2 86.2001 114.4V117.4C86.2001 117.6 86.1001 117.8 85.8001 117.8H85.6001ZM85.5001 114.8H84.5001V115.2H85.5001V114.8Z" fill="white"/>
<path d="M87.4999 117.8C87.1999 117.8 86.8999 117.6 86.8999 117.2V114.6C86.8999 114.3 87.1999 114 87.4999 114H88.8999C89.1999 114 89.4999 114.3 89.4999 114.6V117.2C89.4999 117.5 89.1999 117.8 88.8999 117.8H87.4999ZM88.6999 114.8H87.6999V117.1H88.6999V114.8Z" fill="white"/>
<path d="M90.5001 117.8C90.3001 117.8 90.1001 117.6 90.1001 117.4C90.1001 117.2 90.3001 117 90.5001 117H91.0001V114.7H90.5001C90.3001 114.7 90.1001 114.6 90.1001 114.3C90.1001 114 90.3001 113.9 90.5001 113.9H91.7001V116.9H91.8001V116.1C91.8001 115.9 92.0001 115.7 92.2001 115.7C92.4001 115.7 92.6001 115.9 92.6001 116.1V117.2C92.6001 117.4 92.4001 117.6 92.2001 117.6H90.4001L90.5001 117.8Z" fill="white"/>
<path d="M93.3 117.8V116.1C93.3 115.8 93.6 115.5 93.9 115.5H95.1V114.7H93.7C93.5 114.7 93.3 114.6 93.3 114.3C93.3 114 93.5 113.9 93.7 113.9H95.3C95.6 113.9 95.9 114.2 95.9 114.5V115.6C95.9 116 95.6 116.2 95.3 116.2H94.1V117H95.5C95.7 117 95.9 117.1 95.9 117.4C95.9 117.7 95.7 117.8 95.5 117.8H93.4H93.3Z" fill="white"/>
<path d="M98.7999 117.8C98.5999 117.8 98.3999 117.7 98.3999 117.4C98.3999 117.1 98.5999 117 98.7999 117H100.2V116.3H99.2999C99.0999 116.3 98.8999 116.1 98.8999 115.9C98.8999 115.7 99.0999 115.5 99.2999 115.5H100.2V114.8H98.7999C98.5999 114.8 98.3999 114.7 98.3999 114.4C98.3999 114.1 98.5999 114 98.7999 114H100.4C100.7 114 101 114.3 101 114.6V115.4C101 115.6 101 115.7 100.9 115.9C100.9 116 101 116.2 101 116.3V117.2C101 117.5 100.7 117.8 100.4 117.8H98.8999H98.7999Z" fill="white"/>
<path d="M102.9 116.7H101.6V114.5C101.6 114.3 101.8 114.1 102 114.1C102.2 114.1 102.4 114.3 102.4 114.5V116H103V114.9C103 114.7 103.1 114.5 103.4 114.5C103.7 114.5 103.8 114.6 103.8 114.9V116.1C103.9 116.1 104 116.3 104 116.4C104 116.5 104 116.7 103.8 116.7V117.5C103.8 117.7 103.6 117.9 103.4 117.9C103.2 117.9 103 117.8 103 117.5V116.7H102.9Z" fill="white"/>
<path d="M105.3 117.8C105.2 117.8 105.1 117.8 105 117.8H104.7C104.5 117.6 104.5 117.5 104.5 117.3C104.5 117.1 104.6 116.9 104.8 116.9C105 116.9 104.9 116.9 105 116.9H105.3C105.3 117 106.2 117 106.2 117V116.2H104.9V114.4L105.3 114H106.6C106.8 114 107 114.2 107 114.4C107 114.6 106.8 114.8 106.6 114.8H105.7V115.6H106.4C106.7 115.6 107 115.9 107 116.2V117.3C107 117.6 106.7 117.9 106.4 117.9H105.4L105.3 117.8Z" fill="white"/>
<path d="M108 117.8C107.8 117.8 107.6 117.6 107.6 117.4V114.4C107.6 114.2 107.8 114 108 114H108.2C108.4 114 108.6 114.2 108.6 114.4C108.6 114.6 108.5 114.7 108.4 114.7V115.9H109.8C110 115.9 110.2 116.1 110.2 116.3V117.4C110.2 117.6 110 117.8 109.8 117.8H108.1H108ZM109.4 116.7H108.4V117.1H109.4V116.7Z" fill="white"/>
<path d="M61.8 101.8H61.4001C59.1357 101.8 57.3 103.635 57.3 105.9V106.3C57.3 108.564 59.1357 110.4 61.4001 110.4H61.8C64.0644 110.4 65.9001 108.564 65.9001 106.3V105.9C65.9001 103.635 64.0644 101.8 61.8 101.8Z" fill="#FDD31F"/>
<path d="M66.5001 94.6001H55.6001V97.5001H66.5001V94.6001Z" fill="#B3B3AF"/>
<path d="M79.6 94.6001H68.7V97.5001H79.6V94.6001Z" fill="#B3B3AF"/>
</svg>
