<svg width="332" height="351" viewBox="0 0 332 351" fill="none" xmlns="http://www.w3.org/2000/svg">
<path d="M34.6 152.3C33.3 152.3 32.2 152.3 31.1 152.3C28.2 152.2 26.6 150.6 26.6 147.8C26.6 141.2 26.6 134.6 26.6 128C26.6 125.4 28.2 123.8 30.8 123.6C31.4 123.6 32.1 123.6 32.7 123.6C121.4 123.6 210.2 123.6 298.9 123.6C299.6 123.6 300.3 123.6 301 123.6C303.4 123.8 305 125.4 305 127.8C305 134.5 305 141.3 305 148C305 150.6 303.4 152.1 300.7 152.3C299.5 152.3 298.3 152.3 296.9 152.3C296.9 153.3 296.9 154 296.9 154.8C296.9 193 296.9 231.1 296.9 269.3C296.9 270.9 297.3 271.6 298.7 272.4C302.7 274.5 304.8 278.1 305 282.6C305.2 288.3 305.1 293.9 305 299.6C305 302 303.4 303.5 301 303.8C300.2 303.8 299.3 303.8 298.4 303.8C209.9 303.8 121.5 303.8 33 303.8C32 303.8 31 303.8 30 303.7C27.9 303.4 26.5 301.9 26.5 299.8C26.5 293.8 26.3 287.9 26.5 281.9C26.7 277.5 29.1 274.2 33 272.1C34.1 271.5 34.5 270.9 34.5 269.7C34.5 231.1 34.5 192.5 34.5 153.9C34.5 153.5 34.5 153.1 34.5 152.3H34.6ZM296.5 132.2H35.1V143.8C36.3 143.8 37.3 143.8 38.3 143.8C41.6 143.8 43.1 145.4 43.1 148.7C43.1 190.6 43.1 232.6 43.1 274.5C43.1 277.8 41.8 279.3 38.6 279.4C36.5 279.5 35.2 280.7 35.1 282.5C34.9 286.7 35.1 290.9 35.1 295.2H296.5C296.5 291 296.6 286.9 296.5 282.8C296.5 281.1 295.3 279.8 293.4 279.5C289.2 278.8 288.5 277.9 288.5 273.7C288.5 232.6 288.5 191.4 288.5 150.3C288.5 149.6 288.5 148.9 288.5 148.2C288.6 145.7 290.1 144.1 292.6 144C293.9 144 295.1 144 296.5 144V132.4V132.2Z" fill="black"/>
<path d="M331.7 116.6H0C0 115.9 0 115.2 0 114.6C0 110.1 0 105.7 0 101.2C0 99.7 0.4 98.8 1.8 98C24 84.7 46.2 71.4 68.4 58.1C100.2 38.9 132.1 19.8 164 0.6C165.3 -0.2 166.3 -0.2 167.6 0.6C221.7 33.1 275.8 65.5 329.9 97.9C331.3 98.8 331.8 99.6 331.8 101.3C331.7 106.3 331.8 111.4 331.8 116.6H331.7ZM8.7 108.1H323C323.6 104.1 323.6 104.1 320.6 102.3C269.7 71.8 218.9 41.3 168 10.8C166.4 9.8 165.3 9.9 163.7 10.8C112.8 41.3 61.9 71.8 11 102.3C8 104.1 8 104.2 8.6 108.1H8.7Z" fill="black"/>
<path d="M331.5 350.4H0.100098V310.6H331.5V350.4ZM323.1 319.1H8.6001V341.9H323V319.1H323.1Z" fill="black"/>
<path d="M69.2 149.5C69.2 148.5 69 146.4 70.4 145C71.6 143.8 73.3 143.8 74.9 143.8C80.9 143.8 86.8 143.8 92.8 143.8C96.5 143.8 97.9 145.3 97.9 149C97.9 190.7 97.9 232.4 97.9 274.2C97.9 277.8 96.7 279.2 93.3 279.5C91.2 279.7 90 280.9 89.8 283.3C89.4 287.3 88.3 288.3 84.3 288.3C83.5 288.3 82.7 288.3 82 288.3C79.3 288.3 77.8 286.9 77.4 284.2C76.9 280.4 76.5 280 72.8 279.4C71.8 279.2 70.9 278.8 70.3 278.2C69.3 277.1 69.2 275.7 69.2 275.1C69.1 272.3 69.1 220.4 69.2 149.5ZM83.6 275.5C84.8 274.5 86.1 273.1 87.6 272.4C88.3 272 88.8 271.7 89.1 271.2C89.7 270.3 89.6 269.3 89.5 269.1C89.4 267.4 89.4 219.2 89.5 152.5H77.7C77.7 191.2 77.7 230 77.7 268.7C77.7 269 77.7 269.6 77.8 270.2C77.8 270.4 78.1 271.3 78.9 272C79.5 272.6 80.1 272.8 80.4 272.9C81.3 273.3 82.4 274 83.8 275.5H83.6Z" fill="black"/>
<path d="M124.1 149.5C124.1 148.5 123.9 146.4 125.3 145C126.5 143.8 128.2 143.8 129.8 143.8C135.8 143.8 141.7 143.8 147.7 143.8C151.4 143.8 152.8 145.3 152.8 149C152.8 190.7 152.8 232.4 152.8 274.2C152.8 277.8 151.6 279.2 148.2 279.5C146.1 279.7 144.9 280.9 144.7 283.3C144.3 287.3 143.2 288.3 139.2 288.3C138.4 288.3 137.6 288.3 136.9 288.3C134.2 288.3 132.7 286.9 132.3 284.2C131.8 280.4 131.4 280 127.7 279.4C126.7 279.2 125.8 278.8 125.2 278.2C124.2 277.1 124.1 275.7 124.1 275.1C124 272.3 124 220.4 124.1 149.5ZM138.5 275.5C139.7 274.5 141 273.1 142.5 272.4C143.2 272 143.7 271.7 144 271.2C144.6 270.3 144.5 269.3 144.4 269.1C144.3 267.4 144.3 219.2 144.4 152.5H132.6C132.6 191.2 132.6 230 132.6 268.7C132.6 269 132.6 269.6 132.7 270.2C132.7 270.4 133 271.3 133.8 272C134.4 272.6 135 272.8 135.3 272.9C136.2 273.3 137.3 274 138.7 275.5H138.5Z" fill="black"/>
<path d="M178.9 149.6C178.9 148.6 178.7 146.5 180.1 145.1C181.3 143.9 183 143.9 184.6 143.9C190.6 143.9 196.5 143.9 202.5 143.9C206.2 143.9 207.6 145.4 207.6 149.1C207.6 190.8 207.6 232.5 207.6 274.3C207.6 277.9 206.4 279.3 203 279.6C200.9 279.8 199.7 281 199.5 283.4C199.1 287.4 198 288.4 194 288.4C193.2 288.4 192.4 288.4 191.7 288.4C189 288.4 187.5 287 187.1 284.3C186.6 280.5 186.2 280.1 182.5 279.5C181.5 279.3 180.6 278.9 180 278.3C179 277.2 178.9 275.8 178.9 275.2C178.8 272.4 178.8 220.5 178.9 149.6ZM193.3 275.6C194.5 274.6 195.8 273.2 197.3 272.5C198 272.1 198.5 271.8 198.8 271.3C199.4 270.4 199.3 269.4 199.2 269.2C199.1 267.5 199.1 219.3 199.2 152.6H187.4C187.4 191.3 187.4 230.1 187.4 268.8C187.4 269.1 187.4 269.7 187.5 270.3C187.5 270.5 187.8 271.4 188.6 272.1C189.2 272.7 189.8 272.9 190.1 273C191 273.4 192.1 274.1 193.5 275.6H193.3Z" fill="black"/>
<path d="M233.5 149.6C233.5 148.6 233.3 146.5 234.7 145.1C235.9 143.9 237.6 143.9 239.2 143.9C245.2 143.9 251.1 143.9 257.1 143.9C260.8 143.9 262.2 145.4 262.2 149.1C262.2 190.8 262.2 232.5 262.2 274.3C262.2 277.9 261 279.3 257.6 279.6C255.5 279.8 254.3 281 254.1 283.4C253.7 287.4 252.6 288.4 248.6 288.4C247.8 288.4 247 288.4 246.3 288.4C243.6 288.4 242.1 287 241.7 284.3C241.2 280.5 240.8 280.1 237.1 279.5C236.1 279.3 235.2 278.9 234.6 278.3C233.6 277.2 233.5 275.8 233.5 275.2C233.4 272.4 233.4 220.5 233.5 149.6ZM247.9 275.6C249.1 274.6 250.4 273.2 251.9 272.5C252.6 272.1 253.1 271.8 253.4 271.3C254 270.4 253.9 269.4 253.8 269.2C253.7 267.5 253.7 219.3 253.8 152.6H242C242 191.3 242 230.1 242 268.8C242 269.1 242 269.7 242.1 270.3C242.1 270.5 242.4 271.4 243.2 272.1C243.8 272.7 244.4 272.9 244.7 273C245.6 273.4 246.7 274.1 248.1 275.6H247.9Z" fill="black"/>
<path d="M181 76C181 84.2843 174.284 91 166 91C157.716 91 151 84.2843 151 76C151 67.7157 157.716 61 166 61C174.284 61 181 67.7157 181 76ZM155.683 76C155.683 81.6982 160.302 86.3174 166 86.3174C171.698 86.3174 176.317 81.6982 176.317 76C176.317 70.3018 171.698 65.6826 166 65.6826C160.302 65.6826 155.683 70.3018 155.683 76Z" fill="black"/>
</svg>
