<svg width="343" height="274" viewBox="0 0 343 274" fill="none" xmlns="http://www.w3.org/2000/svg">
<path d="M13.8 81.875H19C68.5 81.875 118.1 81.875 167.6 81.875C169.1 81.875 170.6 81.875 172.1 81.975C175.8 82.475 178 85.275 177.9 88.975C177.8 92.375 175.3 95.075 171.9 95.475C170.7 95.575 169.4 95.475 168.2 95.475C118.4 95.475 68.6 95.475 18.8 95.475H13.8C13.8 97.075 13.8 98.375 13.8 99.675C13.8 148.675 13.8 197.775 13.8 246.775C13.8 255.475 17.9 259.675 26.6 259.675C113.9 259.675 201.3 259.675 288.6 259.675C296.6 259.675 301.1 255.475 301.1 247.575C301.1 223.275 301.1 198.875 301.1 174.575C301.1 173.975 301 173.375 300.9 172.375C299.4 173.175 298.2 173.775 297.1 174.475C288.5 179.575 280 184.675 271.5 189.875C268.6 191.675 265.8 191.775 262.7 189.975C251.1 182.975 239.3 176.175 227.8 168.975C204.2 153.975 192.1 132.175 191.6 104.375C191.1 81.475 191.6 58.475 191.5 35.475C191.5 31.175 193.2 28.475 197.3 26.875C219.3 18.175 241.2 9.275 263.2 0.675C265.4 -0.225 268.5 -0.225 270.7 0.675C292.8 9.275 314.9 18.275 336.9 26.975C340.8 28.475 342.5 31.275 342.5 35.375C342.5 58.575 342.8 81.775 342.4 104.975C342 127.275 333.4 146.075 316.8 161.175C315.7 162.175 315 164.375 315 165.975C314.9 193.075 315 220.075 315 247.175C315 262.875 304.4 273.575 288.8 273.575C201.3 273.575 113.9 273.575 26.4 273.575C10.8 273.575 0 262.775 0 247.275C0 187.175 0 126.975 0 66.875C0 51.375 10.6 40.875 26.1 40.775C73.9 40.775 121.7 40.775 169.5 40.775C175.2 40.775 178.1 43.175 178 47.775C178 51.275 175.5 53.975 172.1 54.275C170.6 54.475 169.1 54.275 167.6 54.275C121.1 54.275 74.5 54.375 28 54.275C20.2 54.275 13.1 57.975 13.9 68.375C14.2 72.675 13.9 77.075 13.9 81.775L13.8 81.875ZM328.4 75.475C328.4 64.275 328.4 53.075 328.4 41.775C328.4 39.475 327.7 38.275 325.5 37.375C306.8 29.975 288.1 22.375 269.3 15.075C267.9 14.475 265.9 14.575 264.4 15.075C245.7 22.475 227 29.975 208.2 37.375C206 38.275 205.2 39.375 205.3 41.775C205.3 63.175 205.1 84.675 205.4 106.075C205.7 124.375 212.7 140.275 227.2 151.375C239.2 160.575 252.7 167.775 265.7 175.675C266.4 176.075 267.9 175.875 268.6 175.375C279.4 168.975 290.4 162.875 300.9 155.775C318.5 143.875 327.6 126.975 328.3 105.675C328.6 95.575 328.3 85.475 328.3 75.375L328.4 75.475Z" fill="black"/>
<path d="M75 232.475C66.4 232.475 57.8 232.475 49.2 232.475C44.1 232.475 40.8 229.675 40.9 225.475C40.9 221.475 44.2 218.675 49.1 218.675C66.5 218.675 84 218.675 101.4 218.675C106.3 218.675 109.5 221.575 109.5 225.575C109.5 229.775 106.3 232.475 101.1 232.475C92.4 232.475 83.7 232.475 75 232.475Z" fill="black"/>
<path d="M258.6 99.3752C259.5 97.7752 260 96.3752 260.9 95.3752C269.9 86.2752 279 77.1752 288.1 68.0752C292 64.1752 296.2 63.7752 299.2 66.8752C302.3 69.9752 301.9 73.7752 298 77.6752C286.5 89.1752 275.1 100.675 263.6 112.075C259.5 116.175 256.1 116.175 252 112.075C246.5 106.675 241 101.175 235.6 95.6752C231.9 91.9752 231.6 88.2752 234.6 85.1752C237.6 81.9752 241.6 82.2752 245.4 85.9752C249.5 89.9752 253.4 94.1752 258.6 99.3752Z" fill="black"/>
</svg>
