<svg width="320" height="256" viewBox="0 0 320 256" fill="#7C7C7B" xmlns="http://www.w3.org/2000/svg">
<path d="M279.4 223.92H319.3V255.62H0V223.82H39.8C16.6 187.12 10 148.12 20.7 106.72C29 74.6197 47.1 48.6197 73.5 28.7197C126.1 -10.8803 199 -9.48027 250.6 32.6197C279.1 55.8197 296.3 85.9197 301.8 122.42C307.3 158.72 299.7 192.42 279.4 224.02V223.92ZM249 143.92C249 94.5197 209 54.6197 159.5 54.6197C110.2 54.6197 70.1 94.8197 70.3 144.12C70.4 193.52 110.5 233.62 159.8 233.52C209.1 233.52 249.1 193.22 249 143.92ZM206.1 239.82C217.7 239.82 229.3 239.92 240.9 239.72C242.9 239.72 245.3 238.72 246.7 237.32C281.4 203.32 294.2 162.42 283.9 114.92C269.3 48.0197 200.3 4.21973 133.4 18.9197C76.5 31.4197 35.9 78.2197 32.3 136.42C29.8 176.52 44.2 210.32 73.2 237.92C74.3 239.02 76.2 239.72 77.8 239.72C88.9 239.92 100 239.72 111.1 239.72C111.9 239.72 112.6 239.52 113.9 239.32C65.7 215.32 44.9 162.62 57.9 115.82C70.5 70.5197 111.3 39.1197 158.7 38.4197C204.5 37.7197 246.2 68.1197 260.3 112.32C274.8 157.92 256.3 214.22 206 239.72L206.1 239.82Z" fill="#7C7C7B"/>
<path d="M167.7 86.6196V97.2196H188.2V113.62H168V135.52C187.9 138.92 196.4 147.22 196.3 163.32C196.3 178.82 187.4 187.52 167.8 190.72V201.42H151.5V190.32H130.9V174.32H151.2V152.12C141.9 151.62 133.6 148.82 127.7 141.12C123.3 135.32 122.4 128.62 122.9 121.62C123.7 108.12 134.6 98.7196 151.2 97.2196V86.6196H167.5H167.7ZM151.3 135.62V113.92C143.9 113.32 139.1 117.52 138.9 124.62C138.7 132.12 143.1 136.12 151.3 135.62ZM168 174.32C172.6 174.52 176.3 173.32 178.6 169.42C181.1 165.32 181.1 160.82 178.6 156.72C176.3 152.82 172.4 151.92 168 152.02V174.32Z" fill="#7C7C7B"/>
</svg>
