<svg width="100" height="100" viewBox="0 0 100 100" fill="none" xmlns="http://www.w3.org/2000/svg">
<path fill-rule="evenodd" clip-rule="evenodd" d="M50 100C77.6142 100 100 77.6142 100 50C100 22.3858 77.6142 0 50 0C22.3858 0 0 22.3858 0 50C0 77.6142 22.3858 100 50 100ZM49.9998 89.9999C72.0912 89.9999 89.9998 72.0913 89.9998 49.9999C89.9998 27.9085 72.0912 9.99994 49.9998 9.99994C27.9085 9.99994 9.99985 27.9085 9.99985 49.9999C9.99985 72.0913 27.9085 89.9999 49.9998 89.9999Z" fill="#7BB4EB"/>
<path d="M62.6345 72.4702C62.3476 73.5897 62.1467 74.5085 61.8598 75.3983C61.7737 75.6279 61.4868 75.8862 61.2572 75.9724C58.6174 76.8622 56.035 78.0103 53.3378 78.4983C49.6076 79.1872 45.8488 78.9575 42.8073 76.1446C41.057 74.5372 40.4831 72.4705 40.6266 70.1455C40.8561 66.3279 42.2047 62.7973 43.1803 59.152C43.9837 56.2242 44.8445 53.2964 45.4184 50.3112C46.1644 46.3501 44.7297 44.8288 40.77 45.202C39.4214 45.3168 38.1015 45.7186 36.6669 46.0344C36.9251 45.0297 37.1547 43.9964 37.4416 42.9918C37.499 42.8196 37.6998 42.5899 37.9007 42.5325C41.5735 41.2696 45.1315 39.6334 49.1199 39.6909C51.9318 39.7196 54.4855 40.4085 56.4941 42.4751C57.9575 43.9964 58.3592 45.8909 58.3305 47.9288C58.2731 51.5742 56.9819 54.9325 56.0637 58.377C55.2029 61.6779 54.3708 65.0075 53.51 68.3372C53.4526 68.5955 53.4239 68.8538 53.4239 69.1409C53.223 72.0399 54.3995 73.3316 57.3262 73.3603C58.187 73.3603 59.0765 73.3313 59.9373 73.1878C60.7981 73.0443 61.6302 72.7573 62.6919 72.4702H62.6345Z" fill="#7BB4EB"/>
<path d="M55.7769 20.0001C59.6506 20.0001 62.8642 22.6696 63.2372 26.0279C63.7824 30.9362 59.1341 34.0075 55.1744 33.6631C51.6164 33.3474 48.8044 30.9362 48.3166 27.9511C47.628 23.6455 51.0425 20.0001 55.7482 20.0001H55.7769Z" fill="#7BB4EB"/>
</svg>
