<svg width="180" height="180" viewBox="0 0 180 180" fill="none" xmlns="http://www.w3.org/2000/svg">
<path d="M83.9 0C87.9 0 91.9 0 95.8 0C96.3 0.1 96.8 0.3 97.3 0.3C104 0.8 110.5 2.1 116.8 4.1C151.9 15.2 176.7 46.8 179.4 82.8C180.4 96.5 178.6 109.7 173.6 122.5C158.2 161.4 119.2 184.4 77.6 178.9C62.5 176.9 48.7 171.3 36.5 162.2C16.9 147.4 5 127.8 1 103.5C0.6 100.9 0.3 98.4 0 95.9C0 91.9 0 87.9 0 84C0.3 81.8 0.5 79.6 0.8 77.4C3 62.6 8.3 49 17.3 37C32.1 17 51.8 5 76.3 1C78.8 0.6 81.4 0.3 83.9 0ZM62.9 83.7C64 83.3 64.7 83 65.5 82.9C68 82.5 70.4 81.9 72.9 81.9C77.3 81.9 79.2 83.9 79.2 88.3C79.2 90.1 79.1 91.9 78.6 93.7C77 100.2 75 106.6 73.5 113.2C72.2 118.4 71 123.6 70.3 128.9C69.6 134.2 71.6 138.7 76.1 141.8C81.3 145.3 87.2 145.6 93 144.5C98 143.5 102.9 141.3 107.8 139.7C108.1 139.6 108.5 139.3 108.6 139.1C109.1 137.2 109.6 135.4 110.1 133.2C108.9 133.6 108.1 133.9 107.2 134.2C104.3 135.1 101.4 135.5 98.4 135C95.6 134.5 94.2 133.4 93.7 130.6C93.4 129 93.3 127.3 93.7 125.7C94.7 120.8 96 115.9 97.2 111.1C99.1 103.3 102.3 95.8 102.5 87.6C102.6 82.6 101.2 78.4 97 75.4C92.6 72.2 87.5 71.8 82.2 72.3C76.3 72.9 70.8 75.3 65.3 77.4C64.9 77.5 64.5 77.8 64.4 78.1C63.9 79.9 63.5 81.8 63 83.9L62.9 83.7ZM97.7 60.2C98.4 60.2 99.1 60.2 99.8 60.1C107.5 59.6 113.2 51.3 110.9 43.9C108.5 36.3 99.2 32.3 91.9 35.8C85.4 38.9 82.6 45.3 84.8 51.7C86.5 56.5 91.9 60 97.6 60.1L97.7 60.2Z" fill="#FFC107"/>
</svg>
