<svg width="300" height="300" viewBox="0 0 300 300" fill="none" xmlns="http://www.w3.org/2000/svg">
<path d="M20.9146 122.282H279.038C278.839 126.184 279.038 129.987 278.34 133.689C277.641 137.092 275.047 139.193 271.555 139.693C270.258 139.893 268.861 139.893 267.464 139.893C189.139 139.893 110.814 139.893 32.4887 139.893C24.1074 139.893 21.0143 136.891 21.0143 128.486C21.0143 126.485 21.0143 124.483 21.0143 122.282H20.9146Z" fill="#7C7C7B"/>
<path d="M67.7101 241.561H32.7881V157.505H67.7101V241.561Z" fill="#7C7C7B"/>
<path d="M266.866 241.461H231.943V157.505H266.866V241.461Z" fill="#7C7C7B"/>
<path d="M134.062 241.561H99.2397V157.605H134.062V241.561Z" fill="#7C7C7B"/>
<path d="M200.514 241.561H165.691V157.605H200.514V241.561Z" fill="#7C7C7B"/>
<path d="M290.912 259.173H7.74403C3.61113 259.173 0.260742 262.533 0.260742 266.678V292.495C0.260742 296.64 3.61113 300 7.74403 300H290.912C295.045 300 298.395 296.64 298.395 292.495V266.678C298.395 262.533 295.045 259.173 290.912 259.173Z" fill="#7C7C7B"/>
<path d="M296.4 88.9593L216.678 39.8265C182.953 18.5123 158.208 3.3022 154.716 1.30087C153.818 0.800534 152.321 0.100067 150.226 0C148.23 0 146.434 0.500333 144.938 1.30087C141.246 3.3022 118.596 17.3115 87.6655 37.0247L3.15422 89.1594C2.55556 89.6598 0.460235 91.6611 0.0611262 94.8632C-0.537537 99.7665 3.45355 102.869 3.65311 103.069C4.75066 103.969 5.84821 104.37 6.64642 104.57H292.907C293.706 104.37 295.003 103.969 296.2 103.069C296.799 102.668 299.792 100.367 299.992 96.2642C300.191 91.7612 296.799 89.1594 296.499 88.8592L296.4 88.9593ZM163.097 66.3442C161.201 69.1461 158.308 69.8466 157.609 69.9466C152.421 69.9466 147.332 69.9466 142.144 69.9466C141.246 69.7465 139.051 69.046 137.255 66.9446C135.259 64.6431 134.561 61.3409 135.559 58.3389C137.055 53.6358 141.545 52.3349 141.944 52.2348C147.033 52.2348 152.221 52.2348 157.31 52.2348C158.108 52.435 159.505 52.8352 160.902 53.8359C161.501 54.3362 163.496 55.8372 164.294 58.539C165.492 62.5417 163.297 65.944 163.097 66.2442V66.3442Z" fill="#7C7C7B"/>
</svg>
