<svg width="567" height="138" viewBox="0 0 567 138" fill="none" xmlns="http://www.w3.org/2000/svg">
<path fill-rule="evenodd" clip-rule="evenodd" d="M49.4683 32.3301H88.2083C109.008 32.3301 116.838 42.8601 115.628 58.3301C113.628 83.8701 98.1883 98.0001 77.7083 98.0001H67.3683C64.5583 98.0001 62.6683 99.8601 61.9083 104.9L57.5183 134.2C57.2283 136.1 56.2283 137.2 54.7283 137.35H30.3883C28.0983 137.35 27.2883 135.6 27.8883 131.81L42.7283 37.8801C43.3083 34.1201 45.3683 32.3301 49.4683 32.3301Z" fill="#009EE3"/>
<path fill-rule="evenodd" clip-rule="evenodd" d="M217.658 30.5898C230.728 30.5898 242.788 37.6799 241.138 55.3499C239.138 76.3499 227.888 87.9698 210.138 88.0198H194.628C192.398 88.0198 191.318 89.8398 190.738 93.5698L187.738 112.64C187.288 115.52 185.808 116.94 183.628 116.94H169.198C166.898 116.94 166.098 115.47 166.608 112.18L178.518 35.7498C179.108 31.9898 180.518 30.5898 183.088 30.5898H217.628H217.658ZM194.158 71.5098H205.908C213.258 71.2298 218.138 66.1398 218.628 56.9598C218.928 51.2898 215.098 47.2298 209.008 47.2598L197.948 47.3098L194.158 71.5098ZM280.368 111.09C281.688 109.89 283.028 109.27 282.838 110.75L282.368 114.29C282.128 116.14 282.858 117.12 284.578 117.12H297.398C299.558 117.12 300.608 116.25 301.138 112.91L309.038 63.3298C309.438 60.8398 308.828 59.6198 306.938 59.6198H292.838C291.568 59.6198 290.948 60.3298 290.618 62.2698L290.098 65.3198C289.828 66.9098 289.098 67.1898 288.418 65.5898C286.028 59.9298 279.928 57.3898 271.418 57.5898C251.648 57.9998 238.318 73.0098 236.888 92.2498C235.788 107.13 246.448 118.82 260.508 118.82C270.708 118.82 275.268 115.82 280.408 111.12L280.368 111.09ZM269.628 103.46C261.118 103.46 255.188 96.6699 256.418 88.3499C257.648 80.0299 265.608 73.2398 274.118 73.2398C282.628 73.2398 288.558 80.0299 287.328 88.3499C286.098 96.6699 278.148 103.46 269.628 103.46ZM334.128 59.4598H321.128C318.448 59.4598 317.358 61.4598 318.208 63.9198L334.348 111.18L318.518 133.67C317.188 135.55 318.218 137.26 320.088 137.26H334.698C335.55 137.358 336.412 137.21 337.181 136.832C337.951 136.455 338.595 135.864 339.038 135.13L388.678 63.9298C390.208 61.7398 389.488 59.4398 386.978 59.4398H373.148C370.778 59.4398 369.828 60.3799 368.468 62.3499L347.768 92.3499L338.518 62.2798C337.978 60.4598 336.628 59.4598 334.138 59.4598H334.128Z" fill="#113984"/>
<path fill-rule="evenodd" clip-rule="evenodd" d="M440.318 30.5898C453.388 30.5898 465.448 37.6799 463.798 55.3499C461.798 76.3499 450.548 87.9698 432.798 88.0198H417.298C415.068 88.0198 413.988 89.8398 413.408 93.5698L410.408 112.64C409.958 115.52 408.478 116.94 406.298 116.94H391.868C389.568 116.94 388.768 115.47 389.278 112.18L401.208 35.7298C401.798 31.9698 403.208 30.5698 405.778 30.5698H440.318V30.5898ZM416.818 71.5098H428.568C435.918 71.2298 440.798 66.1398 441.288 56.9598C441.588 51.2898 437.758 47.2298 431.668 47.2598L420.608 47.3098L416.818 71.5098ZM503.028 111.09C504.348 109.89 505.688 109.27 505.498 110.75L505.028 114.29C504.788 116.14 505.518 117.12 507.238 117.12H520.058C522.218 117.12 523.268 116.25 523.798 112.91L531.698 63.3298C532.098 60.8398 531.488 59.6198 529.598 59.6198H515.518C514.248 59.6198 513.628 60.3298 513.298 62.2698L512.778 65.3198C512.508 66.9098 511.778 67.1898 511.098 65.5898C508.708 59.9298 502.608 57.3898 494.098 57.5898C474.328 57.9998 460.998 73.0098 459.568 92.2498C458.468 107.13 469.128 118.82 483.188 118.82C493.388 118.82 497.948 115.82 503.088 111.12L503.028 111.09ZM492.298 103.46C483.788 103.46 477.858 96.6699 479.088 88.3499C480.318 80.0299 488.278 73.2398 496.788 73.2398C505.298 73.2398 511.228 80.0299 509.998 88.3499C508.768 96.6699 500.808 103.46 492.298 103.46ZM551.428 117.2H536.628C536.371 117.211 536.114 117.166 535.876 117.067C535.639 116.967 535.426 116.817 535.253 116.626C535.08 116.435 534.951 116.208 534.876 115.961C534.801 115.715 534.781 115.455 534.818 115.2L547.818 32.8398C547.942 32.2778 548.253 31.7742 548.7 31.4111C549.146 31.0479 549.703 30.8466 550.278 30.8398H565.078C565.336 30.8283 565.593 30.8738 565.83 30.973C566.068 31.0722 566.281 31.2228 566.454 31.4138C566.627 31.6049 566.756 31.8318 566.831 32.0783C566.906 32.3248 566.925 32.5848 566.888 32.8398L553.888 115.2C553.768 115.766 553.459 116.274 553.012 116.641C552.565 117.008 552.007 117.212 551.428 117.22V117.2Z" fill="#009EE3"/>
<path fill-rule="evenodd" clip-rule="evenodd" d="M25.2383 0H64.0183C74.9383 0 87.8983 0.35 96.5583 8C102.348 13.11 105.388 21.24 104.688 30C102.308 59.61 84.5983 76.2 60.8383 76.2H41.7183C38.4583 76.2 36.3083 78.36 35.3883 84.2L30.0483 118.2C29.6983 120.4 28.7483 121.7 27.0483 121.86H3.11832C0.46832 121.86 -0.471689 119.86 0.218311 115.44L17.4183 6.45999C18.1083 2.07999 20.5183 0 25.2383 0Z" fill="#113984"/>
<path fill-rule="evenodd" clip-rule="evenodd" d="M35.9482 80.7498L42.7182 37.8799C43.3082 34.1199 45.3682 32.3198 49.4682 32.3198H88.2083C94.6183 32.3198 99.8083 33.3198 103.868 35.1698C99.9783 61.5298 82.9282 76.1698 60.6082 76.1698H41.5182C38.9582 76.1798 37.0782 77.4598 35.9482 80.7498Z" fill="#172C70"/>
</svg>
