<svg width="270" height="340" viewBox="0 0 270 340" fill="none" xmlns="http://www.w3.org/2000/svg">
<path d="M181.4 0.00126235C208.3 28.2013 235.301 56.4012 262.201 84.6012C263.601 86.0012 265.001 87.5012 266.301 88.9012C268.501 91.3012 269.601 94.0012 269.601 97.3012C269.601 162.701 269.601 228.101 269.601 293.401C269.601 317.101 253.2 335.701 229.7 338.901C227.7 339.201 225.7 339.101 223.7 339.101C164.4 339.101 105.1 339.101 45.8005 339.101C22.1005 339.101 3.40049 322.701 0.300491 299.301C0.000490606 297.001 0.100491 294.701 0.100491 292.301C0.100491 210.401 0.400491 128.301 0.000490617 46.2013C-0.0995094 23.0013 15.1 4.1 34 5.27904e-07C34.5 0 35 0.00126235 35.3005 0.00126235C84.0005 0.00126235 132.7 0.00126235 181.3 0.00126235H181.4ZM169.3 15.9013C167.6 15.9013 166.4 15.9013 165.2 15.9013C125.8 15.9013 86.4005 15.9013 47.0005 15.9013C28.6005 15.9013 16.7005 27.8013 16.7005 46.2013C16.7005 128.301 16.7005 210.401 16.7005 292.401C16.7005 310.801 28.6005 322.701 47.0005 322.701C105.5 322.701 164.1 322.701 222.6 322.701C241.1 322.701 253.1 310.701 253.1 292.201C253.1 230.601 253.1 169.001 253.1 107.401V103.701C251.4 103.701 250.2 103.701 249 103.701C233.8 103.701 218.7 103.801 203.5 103.701C185.9 103.501 170 88.2012 169.5 70.6012C169.1 53.9012 169.3 37.2013 169.3 20.5013C169.3 19.2013 169.3 17.9013 169.3 16.1013V15.9013ZM186.1 28.8013C186 30.2013 185.9 30.8013 185.9 31.4013C185.9 43.2013 185.8 55.1012 185.9 66.9012C186 79.2012 194.1 87.0012 206.4 87.1012C215.6 87.1012 224.7 87.1012 233.9 87.1012C236.2 87.1012 238.4 87.1012 241.5 87.1012C222.8 67.4012 204.7 48.4013 186 28.8013H186.1Z" fill="white"/>
<path d="M143 210.1C148.3 204.4 152.9 199.5 157.5 194.6C163.9 187.7 170.3 180.8 176.8 174C179.2 171.4 182.2 170.6 185.6 171.7C188.8 172.7 190.9 175 190.9 178.2C190.9 180.5 190.3 183.5 188.8 185.1C173.1 202.2 157.3 219.2 141.4 236.1C137.3 240.5 132.6 240.4 128.4 236C112.6 219.1 96.9004 202.2 81.1004 185.2C77.7004 181.5 77.9004 176.7 81.4004 173.3C84.5004 170.2 89.4004 170.3 93.0004 173.9C98.1004 179 102.9 184.4 107.8 189.6C113.8 196.1 119.8 202.5 126.4 209.6C126.4 207.8 126.6 206.7 126.6 205.6C126.6 177.9 126.6 150.3 126.6 122.6C126.6 120.1 127.4 117.3 128.8 115.2C130.6 112.5 133.6 111.4 137 112.4C140.4 113.4 142.7 116.2 143 119.5C143.1 120.8 143 122.2 143 123.5C143 150.7 143 177.9 143 205.1C143 206.3 143 207.5 143 209.8V210.1Z" fill="white"/>
<path d="M134.601 266.1C156.901 266.1 179.301 266.1 201.601 266.1C206.501 266.1 210.101 269.1 210.501 273.2C211.001 277.8 207.801 281.9 203.101 282.5C202.101 282.6 201.101 282.5 200.101 282.5C156.501 282.5 112.901 282.5 69.3005 282.5C68.5005 282.5 67.7005 282.5 67.0005 282.5C62.4005 282.1 58.9005 278.4 59.0005 274C59.1005 269.6 62.7005 266.1 67.5005 266.1C89.8005 266.1 112.201 266.1 134.501 266.1H134.601Z" fill="white"/>
</svg>
