<svg width="300" height="300" viewBox="0 0 300 300"  xmlns="http://www.w3.org/2000/svg">
<path d="M182.448 0.0733676C189.978 2.42113 192.99 7.9237 193.819 15.2605C194.948 24.945 196.53 34.5561 198.036 44.1673C198.186 45.1944 199.165 46.3683 200.069 46.9552C205.416 50.1834 210.837 53.2649 216.41 56.1996C217.464 56.7865 219.272 56.8599 220.476 56.4197C230.341 52.6779 240.131 48.7894 249.996 44.9743C258.355 41.6728 264.831 43.8004 269.349 51.4307C278.687 67.1313 287.949 82.832 297.287 98.5327C301.88 106.236 300.45 112.839 293.296 118.342C285.088 124.578 276.955 130.888 268.671 137.051C267.165 138.151 266.563 139.252 266.638 141.159C266.789 147.102 266.789 153.045 266.638 158.988C266.638 160.675 267.015 161.849 268.521 162.876C276.804 169.039 284.937 175.348 293.145 181.585C300.676 187.307 301.956 193.837 297.212 201.834C288.024 217.388 278.762 232.869 269.575 248.423C264.831 256.42 258.656 258.474 249.845 255.026C240.131 251.211 230.341 247.469 220.627 243.58C218.97 242.92 217.765 242.993 216.259 243.947C211.063 247.029 205.792 250.037 200.445 252.971C199.015 253.705 198.262 254.439 198.036 256.2C196.605 266.838 194.948 277.403 193.367 288.041C192.313 295.231 186.891 300 179.436 300C160.007 300 140.578 300 121.15 300C113.318 300 107.972 295.304 106.842 287.748C105.336 277.109 103.755 266.544 102.023 255.906C101.872 254.879 100.968 253.705 99.9894 253.118C94.6428 249.89 89.2209 246.809 83.6484 243.874C82.5188 243.287 80.7868 243.214 79.5819 243.654C69.7171 247.395 59.8522 251.284 50.0626 255.099C41.7038 258.327 35.2277 256.2 30.7094 248.643C21.3716 232.942 12.0339 217.241 2.77146 201.541C-1.8221 193.837 -0.39132 187.234 6.7626 181.731C15.0461 175.422 23.3296 169.186 31.5377 162.729C32.5167 161.996 33.2697 160.382 33.2697 159.208C33.4203 152.971 33.4203 146.735 33.2697 140.499C33.2697 139.472 32.5167 138.078 31.6883 137.417C23.4802 131.034 15.1967 124.725 6.8379 118.415C-0.692537 112.693 -1.97271 106.236 2.84677 98.1658C12.0339 82.6119 21.221 67.1313 30.4835 51.5774C35.2277 43.5803 41.3273 41.526 50.2132 44.9743C59.9275 48.7894 69.7171 52.5312 79.4313 56.4197C81.088 57.08 82.2929 57.0066 83.799 56.0528C89.0703 52.898 94.4922 49.9633 99.8388 46.8819C100.742 46.2949 101.721 45.1211 101.872 44.1673C103.529 33.9692 105.261 23.7711 106.466 13.4996C107.294 6.52971 110.984 2.34776 117.46 0H182.372L182.448 0.0733676ZM179.36 287.161C179.586 286.354 179.812 285.62 179.963 284.813C181.845 273.441 183.803 262.142 185.535 250.77C186.138 247.029 187.945 244.828 191.484 243.067C198.412 239.619 205.114 235.73 211.666 231.621C215.13 229.42 218.142 228.98 221.983 230.521C232.45 234.85 243.143 238.811 253.61 243.067C255.644 243.874 256.623 243.8 257.827 241.746C267.09 226.339 276.428 211.005 285.841 195.671C286.97 193.837 286.895 192.81 285.012 191.416C275.524 184.373 266.261 177.109 256.773 169.993C254.062 167.938 253.083 165.591 253.234 162.142C253.535 154.292 253.686 146.368 253.234 138.518C253.008 134.409 254.288 131.768 257.601 129.347C266.864 122.524 275.9 115.407 285.163 108.511C286.97 107.19 286.97 106.236 285.916 104.475C276.804 89.215 267.768 73.9545 258.731 58.6207C257.752 56.9332 256.848 56.6398 254.966 57.3734C243.896 61.5554 232.676 65.5172 221.606 69.7726C217.991 71.1665 215.13 70.7263 211.816 68.672C205.114 64.4901 198.111 60.6016 191.108 57.0066C187.945 55.3925 186.062 53.4116 185.611 49.9633C184.029 38.7381 182.222 27.5862 180.791 16.361C180.49 13.8665 179.586 13.3529 177.252 13.3529C159.028 13.2062 140.804 12.9861 122.581 12.766C121.978 12.766 121.376 12.766 120.623 12.766C120.322 14.1599 120.096 15.4072 119.87 16.5811C117.987 27.8063 116.105 39.1049 114.297 50.3302C113.845 53.1181 112.49 55.099 109.854 56.493C102.173 60.675 94.5675 64.9303 87.0371 69.3324C84.6273 70.7263 82.2929 71.2399 79.6572 70.2128C76.0426 68.7454 72.428 67.3514 68.8134 65.9574C60.4546 62.7293 52.1711 59.5011 43.737 56.1996C43.2852 56.8599 42.9087 57.3001 42.6075 57.7403C33.1944 73.2208 23.7814 88.7748 14.2177 104.255C13.1635 105.943 13.6153 106.75 15.0461 107.85C24.5344 115.334 33.9475 122.891 43.5111 130.374C45.9962 132.355 46.8245 134.629 46.7492 137.784C46.5233 145.781 46.2974 153.778 46.7492 161.702C46.9751 165.737 45.695 168.305 42.5322 170.653C33.345 177.476 24.3838 184.519 15.1967 191.269C13.1635 192.81 13.0129 193.911 14.293 196.038C23.3296 211.079 32.2908 226.192 41.252 241.306C41.7038 242.04 42.231 242.7 42.7581 243.507C43.963 243.067 45.0172 242.773 45.9962 242.406C56.84 238.445 67.6838 234.483 78.5277 230.374C82.1423 228.98 85.0792 229.567 88.3172 231.621C95.0193 235.803 102.023 239.618 109.026 243.287C112.038 244.828 113.845 246.809 114.373 250.11C115.954 261.409 117.761 272.707 119.267 284.006C119.569 286.28 120.472 286.867 122.656 286.867C130.864 286.867 139.072 287.087 147.281 287.161C157.898 287.161 168.516 287.161 179.36 287.161Z" />
<path d="M147.732 212.546C110.833 210.932 84.6273 181.071 85.8321 148.129C87.1876 111.592 118.59 86.2802 152.326 87.6009C189.15 89.1416 215.356 119.149 214 152.164C212.569 188.408 181.544 213.646 147.657 212.546H147.732ZM150.142 199.927C178.381 199.927 201.198 177.55 201.198 149.963C201.198 122.377 178.306 100.147 149.991 100.147C121.602 100.147 98.7092 122.524 98.7845 150.257C98.8598 177.77 121.828 200 150.142 199.927Z"/>
</svg>
