<svg width="300" height="300" viewBox="0 0 300 300" fill="none" xmlns="http://www.w3.org/2000/svg">
<path d="M150 300C233.111 300 300 233.111 300 150C300 66.8894 233.202 0 150 0C66.7983 0 0 66.8894 0 150C0 233.111 66.8894 300 150 300Z" fill="#3674BA"/>
<path d="M191.282 173.785C191.282 151.914 178.159 144.441 151.914 141.251C133.141 138.791 129.404 133.779 129.404 125.03C129.404 116.282 135.692 110.632 148.177 110.632C160.662 110.632 165.674 114.368 168.773 123.754C169.411 125.668 171.233 126.853 173.147 126.853H183.171C185.632 126.853 187.545 124.939 187.545 122.479V121.841C185.085 108.08 173.785 97.4179 159.386 96.2332V81.1967C159.386 78.7362 157.473 76.8225 154.374 76.1846H144.988C142.527 76.1846 140.613 78.0983 139.976 81.1967V95.5953C121.203 98.0558 109.356 110.632 109.356 126.215C109.356 141.798 121.841 155.012 148.086 158.11C165.583 161.209 171.233 164.945 171.233 174.97C171.233 184.994 162.485 191.829 150.638 191.829C138.791 191.829 128.767 184.994 126.853 175.607C126.215 173.147 124.392 171.871 122.479 171.871H111.816C109.356 171.871 107.442 173.785 107.442 176.245V176.883C109.903 192.558 119.927 203.767 140.522 206.865V221.901C140.522 224.362 142.436 226.276 145.534 226.914H154.921C157.381 226.914 159.295 225 159.933 221.901V206.865C178.706 203.767 191.191 190.644 191.191 173.694L191.282 173.785Z" fill="white"/>
<path d="M118.105 239.398C69.35 221.901 44.3804 167.497 62.5153 119.38C71.9017 93.1347 92.4971 73.086 118.105 63.7908C120.565 62.515 121.841 60.6924 121.841 57.5028V48.7543C121.841 46.2938 120.565 44.3801 118.105 43.7422C117.467 43.7422 116.191 43.7422 115.644 44.3801C56.2273 63.1529 23.785 126.306 42.4667 185.632C53.6757 220.626 80.559 247.509 115.644 258.809C118.105 260.085 120.656 258.809 121.294 256.348C121.932 255.711 121.932 255.073 121.932 253.888V245.14C121.932 243.226 120.018 240.765 118.196 239.489L118.105 239.398ZM184.356 44.3801C181.896 43.1043 179.344 44.3801 178.706 46.8406C178.068 47.4785 178.068 48.1164 178.068 49.3011V58.0496C178.068 60.5101 179.982 63.0617 181.804 64.3376C230.559 81.8345 255.529 136.239 237.394 184.356C228.007 210.601 207.412 230.65 181.804 239.945C179.344 241.221 178.068 243.044 178.068 246.233V254.982C178.068 257.442 179.344 259.356 181.804 259.994C182.442 259.994 183.718 259.994 184.265 259.356C243.682 240.583 276.124 177.521 257.442 118.104C246.233 82.4724 218.712 55.5891 184.265 44.3801H184.356Z" fill="white"/>
</svg>
