<svg width="300" height="300" viewBox="0 0 300 300" fill="none" xmlns="http://www.w3.org/2000/svg">
<path d="M150 0C232.846 0 300 67.1537 300 150C300 232.846 232.846 300 150 300C67.1537 300 0 232.759 0 150C0 67.2414 67.1537 0 150 0Z" fill="#53AE94"/>
<path d="M168.498 130.011V107.744H219.521V73.7285H80.5671V107.744H131.59V130.011C90.1229 131.94 58.9131 140.093 58.9131 150C58.9131 159.906 90.1229 168.059 131.59 169.988V241.437H168.498V169.988C209.877 168.059 241 159.906 241 150C241 140.093 209.877 131.94 168.498 130.011ZM168.498 163.851C167.446 163.851 162.098 164.202 150.176 164.202C138.253 164.202 133.957 163.939 131.59 163.851C94.9447 162.273 67.5922 155.873 67.5922 148.246C67.5922 140.619 94.9447 134.219 131.59 132.641V157.539C133.957 157.714 140.883 158.065 150.351 158.065C159.819 158.065 167.446 157.627 168.498 157.539V132.641C205.056 134.307 232.32 140.619 232.32 148.246C232.32 155.873 205.056 162.273 168.498 163.851Z" fill="white"/>
</svg>
