<svg width="300" height="298" viewBox="0 0 300 298" fill="none" xmlns="http://www.w3.org/2000/svg">
<path d="M198.996 82.3092C213.631 82.3092 227.668 82.3092 241.705 82.3092C257.534 82.3092 271.074 87.7572 282.124 98.7505C294.967 111.495 299.546 127.256 298.152 144.767C297.555 152.648 291.482 157.998 283.319 158.29C277.744 158.485 272.169 158.29 266.593 158.485C264.802 158.582 258.729 159.263 253.453 162.279C245.09 166.949 238.818 177.651 239.515 188.839C240.312 201.875 249.968 210.825 257.634 214.328C264.901 217.636 273.164 217.928 273.164 217.928C277.544 218.025 278.938 217.928 283.617 217.928C293.075 217.928 299.546 223.667 299.944 232.813C301.338 265.696 276.35 288.072 249.868 290.699C246.285 291.088 242.7 291.185 239.117 291.185C205.368 291.185 171.52 291.185 137.771 291.185C132.793 291.185 129.408 289.92 127.716 287.488C126.521 285.737 126.919 283.694 128.114 277.37C129.11 272.214 129.608 269.684 130.603 265.404C132.096 259.177 132.295 254.41 132.594 247.892C132.893 242.055 133.391 230.575 129.906 218.998C123.236 197.011 105.217 184.752 98.7455 180.375C94.166 177.262 84.7087 170.938 70.7707 167.922C64.2005 166.462 53.349 164.127 40.2079 166.755C30.4517 168.7 23.7815 172.592 19.3016 169.186C16.4145 167.046 15.9167 163.155 15.9167 161.112C15.9167 135.623 15.9167 110.133 15.9167 84.6437C15.9167 65.1862 26.1708 51.2743 44.7874 44.3669C83.4146 30.163 122.24 15.8617 161.067 1.56047C177.692 -4.56864 198.2 8.17599 198.698 25.4932C199.295 42.8103 198.897 60.2246 198.897 77.5418C198.897 79.0009 198.897 80.3632 198.897 82.3092H198.996ZM175.9 82.3092V78.5145C175.9 61.9758 175.9 45.5343 175.9 28.9955C175.9 21.6017 172.615 19.5587 165.447 22.2827C139.364 32.206 113.281 42.1293 87.297 52.0526C75.5497 56.5278 63.7029 60.9057 52.0549 65.4784C40.3075 70.051 34.7325 80.558 37.9182 92.0377C38.615 91.7461 39.2124 91.4539 39.9093 91.0649C50.1633 85.13 61.114 82.2118 73.1602 82.2118C105.814 82.406 138.468 82.2118 171.122 82.2118H176.099L175.9 82.3092ZM149.219 134.649C136.676 134.649 124.132 134.649 111.588 134.649C105.515 134.649 101.234 139.125 101.334 144.865C101.334 150.507 105.715 155.08 111.688 155.177C136.775 155.177 161.863 155.177 186.95 155.177C191.43 155.177 194.815 153.037 196.508 148.951C199.494 141.946 194.716 134.747 186.851 134.649C174.307 134.455 161.763 134.649 149.219 134.649Z" fill="black"/>
<path d="M279.536 203.237C275.952 203.237 272.368 203.335 268.784 203.237C260.123 202.848 253.751 196.622 253.95 188.742C254.15 179.986 260.521 173.565 269.282 173.468C276.25 173.468 283.12 173.468 290.088 173.468C294.668 173.468 297.654 175.802 297.953 180.277C298.351 185.823 298.252 191.368 297.953 196.914C297.654 201 294.867 203.14 290.288 203.237C286.703 203.335 283.12 203.237 279.536 203.237Z" fill="black"/>
<path fill-rule="evenodd" clip-rule="evenodd" d="M58.4795 298C90.7769 298 116.959 271.89 116.959 239.683C116.959 207.475 90.7769 181.366 58.4795 181.366C26.1822 181.366 0 207.475 0 239.683C0 271.89 26.1822 298 58.4795 298ZM64.7971 222.006V229.904C79.5484 230.588 90.6432 233.48 90.6432 236.993C90.6432 240.507 79.5484 243.399 64.7971 244.083V269.425H51.6396V244.083C36.857 243.399 25.731 240.507 25.731 236.993C25.731 233.48 36.857 230.588 51.6396 229.904V222.006H33.4504V209.941H82.9863V222.006H64.7971ZM64.2887 241.923C64.545 241.913 64.7112 241.906 64.7971 241.906C77.8295 241.347 87.5492 239.077 87.5492 236.371C87.5492 233.666 77.8295 231.427 64.7971 230.837V239.667C64.422 239.699 61.703 239.854 58.3277 239.854C54.9524 239.854 52.4834 239.73 51.6396 239.667V230.837C38.5759 231.396 28.825 233.666 28.825 236.371C28.825 239.077 38.5759 241.347 51.6396 241.906C51.7555 241.91 51.8844 241.916 52.0316 241.922C52.9555 241.961 54.5987 242.031 58.2652 242.031C61.5422 242.031 63.4259 241.957 64.2887 241.923Z" fill="black"/>
</svg>
