<svg width="311" height="321" viewBox="0 0 311 321" fill="none" xmlns="http://www.w3.org/2000/svg">
<path d="M309.644 157.724C306.744 146.224 298.944 139.924 287.044 137.924V99.5236C287.044 90.2236 283.644 80.6236 278.444 72.5236C283.944 65.1236 285.044 57.3236 280.444 49.2236C275.744 40.8236 267.844 38.4236 258.344 39.2236C259.144 28.6236 255.944 20.1236 246.044 15.9236C236.044 11.7236 227.644 15.1236 221.044 23.2236C218.544 20.9236 216.344 18.8236 214.044 16.8236C210.544 13.8236 207.444 13.6236 205.544 16.1236C203.644 18.5236 204.444 21.1236 207.844 24.1236C210.644 26.6236 213.244 29.4236 215.944 32.0236C218.044 33.9236 218.444 36.2236 217.644 39.1236C211.644 38.8236 205.844 39.3236 200.944 43.3236C195.944 47.3236 193.344 52.5236 193.044 58.8236C192.844 63.4236 194.244 67.7236 197.144 71.5236C202.344 78.3236 209.644 80.2236 218.144 79.5236C217.344 87.8236 219.244 94.8236 226.244 100.624C222.144 106.324 218.144 111.924 213.944 117.424C213.444 118.124 212.444 118.724 211.644 118.724C200.844 118.724 189.944 118.724 178.944 118.724C184.244 98.9236 182.444 80.1236 172.644 62.5236C172.344 61.9236 172.044 61.3236 171.644 60.7236C169.944 57.7236 167.944 54.9236 165.944 52.3236C155.644 39.0236 141.644 30.4236 124.344 25.9236C138.444 13.9236 154.044 8.32356 171.844 9.92356C178.244 10.4236 184.544 12.6236 190.844 14.1236C193.944 14.9236 196.244 14.0236 197.244 11.3236C198.144 8.82356 197.044 6.52356 194.344 5.22356C193.744 4.92356 193.144 4.72356 192.544 4.52356C162.944 -5.17644 136.844 0.723558 114.344 22.2236C113.244 23.2236 111.544 24.1236 110.044 24.1236C96.6444 24.1236 84.6444 26.9236 74.0444 32.4236C64.1444 37.6236 56.7444 44.1236 51.1444 50.9236C47.0444 50.9236 43.7444 50.9236 41.4444 51.1236C38.4444 51.1236 31.6444 51.4236 24.1444 54.9236C7.64445 62.7236 0.0444444 76.1236 0.0444444 94.2236V264.124C0.0444444 270.024 -0.0555556 275.824 0.0444444 281.724C0.944444 303.224 18.5444 320.224 39.9444 320.324H239.044C242.444 320.324 251.744 319.724 261.544 314.324C271.644 308.724 277.644 300.324 280.744 295.024C283.844 290.324 285.144 286.124 285.744 283.524C286.344 280.924 286.744 279.124 286.744 276.624C286.744 274.124 287.244 271.524 286.944 269.024C286.944 268.824 286.944 268.124 287.244 267.524C287.744 266.724 288.844 266.524 289.144 266.424C293.244 265.524 302.544 260.124 304.744 257.424C308.244 253.024 310.044 247.324 310.144 240.424V164.424C310.144 162.224 310.144 159.924 309.544 157.724H309.644ZM221.344 70.1236C218.744 70.1236 216.044 70.1236 213.444 70.1236C207.044 69.9236 202.644 65.4236 202.644 59.3236C202.644 53.5236 207.044 49.0236 212.944 48.7236C215.944 48.6236 219.044 48.7236 222.044 48.7236C225.544 48.7236 227.244 46.9236 227.344 43.4236C227.344 40.5236 227.344 37.5236 227.344 34.6236C227.444 29.0236 231.444 24.5236 236.644 24.0236C242.744 23.5236 247.544 26.9236 248.344 32.9236C248.844 36.3236 248.544 39.8236 248.644 43.3236C248.744 47.0236 250.344 48.7236 254.044 48.7236C256.844 48.7236 259.744 48.7236 262.544 48.7236C268.644 48.8236 273.244 53.3236 273.344 59.2236C273.344 65.1236 269.144 69.7236 262.944 70.1236C259.944 70.3236 256.844 70.1236 253.844 70.1236C250.344 70.1236 248.744 71.8236 248.644 75.4236C248.644 78.1236 248.644 80.9236 248.644 83.6236C248.444 90.3236 243.944 95.0236 237.644 94.9236C231.544 94.9236 227.244 90.1236 227.244 83.4236C227.244 81.0236 227.244 78.6236 227.244 76.1236C227.244 71.6236 225.644 70.1236 221.144 70.1236H221.344ZM235.844 104.324C236.344 104.324 236.844 104.124 237.344 104.124C238.744 104.124 246.444 104.424 252.544 98.5236C260.244 91.1236 258.544 80.8236 258.444 79.9236C260.544 80.1236 264.244 80.3236 268.544 78.9236C268.644 78.9236 268.844 78.9236 268.944 78.8236C270.644 81.1236 271.644 82.9236 271.944 83.6236C274.144 88.1236 275.444 93.2236 275.644 98.6236C276.044 111.724 275.644 124.724 275.644 137.424C269.844 133.524 264.244 129.324 258.144 125.924C251.844 122.424 244.744 121.424 237.544 121.424H224.244C228.144 115.724 231.944 110.024 235.844 104.324ZM98.1444 34.7236C119.344 31.6236 139.144 38.5236 152.944 52.1236C156.044 55.2236 158.944 58.6236 161.344 62.3236C165.944 69.2236 169.244 77.1236 171.044 85.9236C173.144 96.1236 172.544 106.424 169.444 116.424C169.144 117.324 168.144 118.624 167.444 118.624C157.044 118.724 146.644 118.624 135.544 118.624C136.744 116.924 137.544 115.624 138.444 114.424C141.844 109.624 142.844 104.424 139.944 99.0236C137.244 93.8236 132.744 91.3236 126.844 91.4236C126.244 91.4236 125.644 91.4236 124.444 91.3236C124.444 89.9236 124.444 88.8236 124.444 87.6236C124.444 78.9236 124.444 70.3236 124.444 61.6236C124.444 61.2236 124.444 60.8236 124.444 60.4236C124.444 56.6236 123.344 53.6236 121.444 51.4236C120.144 49.9236 118.444 48.9236 116.344 48.2236C112.044 46.9236 108.244 47.9236 104.844 51.2236C104.144 51.8236 103.544 52.6236 102.944 53.4236C100.844 56.2236 98.6444 59.0236 96.5444 61.8236C90.3444 70.0236 84.0444 78.1236 77.9444 86.3236C71.5444 94.9236 75.4444 106.324 85.5444 108.824C86.8444 109.124 88.2444 109.124 89.6444 109.124C92.2444 109.124 94.8444 109.124 97.6444 109.124V118.424C96.6444 118.424 95.7444 118.624 94.7444 118.624C80.0444 118.624 65.2444 118.624 50.5444 118.624C48.2444 118.624 47.3444 117.924 46.6444 115.724C40.9444 96.7236 44.9444 77.1236 55.2444 61.8236C57.9444 57.8236 61.1444 54.1236 64.6444 50.8236C73.6444 42.4236 85.1444 36.4236 98.1444 34.5236V34.7236ZM107.444 106.124C107.444 101.524 105.744 99.8236 101.244 99.8236C97.4444 99.8236 93.6444 100.124 89.9444 99.7236C88.2444 99.5236 85.8444 98.5236 85.1444 97.1236C84.4444 95.8236 85.0444 93.1236 86.0444 91.8236C93.5444 81.6236 101.244 71.6236 108.944 61.6236C109.544 60.9236 110.044 60.1236 110.644 59.4236C111.344 58.5236 112.644 58.2236 113.644 57.6236C114.044 58.7236 114.744 59.8236 114.744 60.9236C114.744 61.1236 114.744 61.3236 114.744 61.6236C114.744 72.4236 114.744 83.2236 114.744 94.1236C114.744 99.7236 116.244 101.124 121.944 101.124C123.844 101.124 125.744 101.124 127.644 101.124C131.244 101.324 133.344 104.724 131.444 107.824C129.344 111.224 127.044 114.424 124.644 117.724C124.244 118.324 123.244 118.724 122.544 118.724C117.744 118.724 112.844 118.724 107.544 118.724C107.544 114.224 107.544 110.224 107.544 106.124H107.444ZM11.7444 87.7236C13.1444 82.4236 16.3444 74.1236 23.9444 68.3236C30.2444 63.5236 37.2444 62.2236 43.8444 61.9236C40.2444 68.5236 35.5444 79.5236 34.6444 93.2236C33.8444 105.624 36.4444 115.124 37.0444 117.424C37.3444 118.524 37.6444 119.524 37.9444 120.424C36.3444 120.124 34.5444 119.724 32.5444 119.224C29.5444 118.424 27.1444 117.624 25.7444 117.024C17.4444 113.724 9.84444 99.4236 11.6444 87.7236H11.7444ZM270.444 290.724C267.844 294.724 263.444 300.324 256.244 304.324C247.844 309.024 239.644 309.124 235.744 309.124H109.344V213.024C109.344 210.224 109.844 208.724 112.744 207.524C122.044 203.524 127.044 193.224 124.944 183.424C122.844 173.524 113.744 166.224 103.644 166.224C93.5444 166.224 84.7444 173.324 82.5444 182.724C80.1444 192.924 85.0444 203.124 94.4444 207.624C95.5444 208.124 96.7444 208.624 97.6444 209.024V308.924H80.4444V262.524C80.4444 258.924 79.4444 256.124 76.7444 253.624C72.7444 249.924 69.0444 245.824 65.0444 242.024C63.2444 240.324 62.9444 239.024 63.8444 236.624C66.9444 228.524 65.7444 220.924 59.9444 214.324C54.2444 207.924 46.8444 205.724 38.5444 207.824C26.1444 210.824 19.3444 223.524 23.2444 235.424C27.1444 247.524 40.2444 253.624 52.1444 248.624C54.1444 247.824 55.1444 248.024 56.6444 249.524C59.9444 253.024 63.6444 256.324 66.8444 259.924C68.0444 261.224 68.9444 263.324 68.9444 265.024C69.1444 278.524 68.9444 291.924 68.9444 305.424C68.9444 318.924 68.8444 307.624 68.7444 309.024H41.6444C23.6444 309.024 11.1444 296.324 11.1444 278.324V124.524C11.1444 123.324 11.2444 122.224 11.3444 120.324C21.7444 130.724 34.0444 132.724 47.5444 132.624C87.9444 132.324 128.344 132.524 168.744 132.524H236.144C262.144 132.524 278.444 154.124 275.044 177.424H251.644C221.744 177.824 200.544 208.024 210.244 236.324C216.544 254.724 233.144 266.824 252.844 267.024C260.244 267.124 267.744 267.024 275.144 267.024C275.444 268.724 275.544 270.524 275.544 272.524C275.544 280.624 272.544 286.924 270.344 290.724H270.444ZM103.744 198.324C98.1444 198.324 93.6444 193.724 93.5444 188.024C93.5444 182.224 97.8444 177.824 103.644 177.724C109.344 177.724 113.944 182.024 114.044 187.724C114.044 193.424 109.444 198.324 103.744 198.324ZM54.2444 228.924C54.2444 234.624 49.7444 239.024 43.9444 239.024C38.1444 239.024 33.8444 234.624 33.7444 228.824C33.7444 223.124 38.1444 218.524 43.8444 218.524C49.5444 218.524 54.2444 223.124 54.2444 228.924ZM299.044 242.324C299.044 248.524 294.044 254.824 288.244 255.024C274.344 255.424 260.144 256.324 246.444 254.524C229.144 252.224 218.244 236.124 219.644 218.624C221.044 202.124 235.344 189.024 252.844 188.624C262.544 188.424 272.344 188.824 282.044 188.424C287.644 188.224 293.144 186.924 299.144 186.024V242.324H299.044ZM299.044 164.224C298.744 170.724 293.844 175.924 287.244 176.824V149.824C294.944 151.424 299.344 157.024 299.044 164.224Z" fill="#010101"/>
</svg>
