<svg width="206" height="188" viewBox="0 0 206 188" fill="none" xmlns="http://www.w3.org/2000/svg">
<path d="M164.2 0H13.3C5.95461 0 0 5.95461 0 13.3V164.2C0 171.545 5.95461 177.5 13.3 177.5H164.2C171.545 177.5 177.5 171.545 177.5 164.2V13.3C177.5 5.95461 171.545 0 164.2 0Z" fill="#E6E7E8"/>
<path d="M147.2 188C179.509 188 205.7 161.809 205.7 129.5C205.7 97.1913 179.509 71 147.2 71C114.891 71 88.7 97.1913 88.7 129.5C88.7 161.809 114.891 188 147.2 188Z" fill="#86C240"/>
<path fill-rule="evenodd" clip-rule="evenodd" d="M188.3 112.3C190.3 114.4 190.5 118 188.6 120.6C174.9 131.8 161.2 143 147.5 154.2C145 156.6 141.2 156.7 138.6 154.6L138.2 154.2L117.7 134.2C115.1 131.6 115 127.4 117.6 124.8C120 122.3 124 122.1 126.6 124.3L127 124.7C132.4 130.1 137.9 135.5 143.3 140.9C155.1 131.4 166.8 122 178.6 112.5C181.4 109.7 185.9 109.8 188.2 112.3H188.3Z" fill="white"/>
<path fill-rule="evenodd" clip-rule="evenodd" d="M126.9 30.2H50.5C48.1 30.2 46.1 27.9 46.1 25.1V0H131.3V25.1C131.3 27.9 129.3 30.2 126.9 30.2Z" fill="#D0D2D5"/>
</svg>
