<svg width="328" height="198" viewBox="0 0 328 198" fill="none" xmlns="http://www.w3.org/2000/svg">
<path d="M309.6 0H18.3C8.19319 0 0 8.19319 0 18.3V179C0 189.107 8.19319 197.3 18.3 197.3H309.6C319.707 197.3 327.9 189.107 327.9 179V18.3C327.9 8.19319 319.707 0 309.6 0Z" fill="url(#paint0_linear_18_222)"/>
<path style="mix-blend-mode:screen" opacity="0.4" d="M208.3 0H18.3C8.2 0 0 8.2 0 18.3V179.1C0 189.2 8.2 197.4 18.3 197.4H95.4L208.3 0Z" fill="url(#paint1_linear_18_222)"/>
<path d="M37.6 123.4V138H35.5V125.5H33V123.4H37.6Z" fill="url(#paint2_linear_18_222)"/>
<path d="M44 125.5V127.4H41.9V125.5C41.9 125.2 41.9 124.9 42.1 124.7C42.2 124.4 42.4 124.2 42.5 124C42.7 123.8 42.9 123.7 43.2 123.6C43.5 123.5 43.7 123.4 44 123.4H50.6C50.9 123.4 51.2 123.4 51.4 123.6C51.7 123.7 51.9 123.9 52.1 124C52.3 124.2 52.4 124.4 52.5 124.7C52.6 125 52.7 125.2 52.7 125.5V128.2C52.7 128.5 52.7 128.7 52.7 129C52.7 129.2 52.6 129.4 52.4 129.6C52.3 129.8 52.1 129.9 51.9 130.1C51.7 130.2 51.5 130.4 51.2 130.5L44 133.9V136H50.9V134.1H53V138.1H42V134.3C42 134 42 133.8 42 133.5C42 133.3 42.1 133.1 42.3 132.9C42.4 132.7 42.6 132.6 42.8 132.4C43 132.3 43.2 132.1 43.5 132L50.7 128.6V125.6H44.1L44 125.5Z" fill="url(#paint3_linear_18_222)"/>
<path d="M56.3 133.6H58.3V134.4C58.3 134.9 58.4 135.4 58.7 135.6C58.9 135.9 59.3 136 59.9 136H64.1C64.7 136 65.1 135.9 65.3 135.6C65.5 135.3 65.7 134.9 65.7 134.4V133.3C65.7 132.7 65.6 132.3 65.3 132.1C65.1 131.8 64.7 131.7 64.1 131.7H59.8V129.7H64.1C64.6 129.7 65 129.5 65.2 129.3C65.4 129 65.5 128.7 65.5 128.1V127.1C65.5 126.5 65.4 126.1 65.1 125.9C64.9 125.6 64.5 125.5 63.9 125.5H60.1C59.6 125.5 59.2 125.6 58.9 125.9C58.7 126.2 58.5 126.6 58.5 127.1V127.9H56.5V127C56.5 124.6 57.7 123.4 60 123.4H63.9C65.1 123.4 66 123.7 66.6 124.3C67.2 124.9 67.5 125.8 67.5 127V127.3C67.5 128.1 67.4 128.8 67.1 129.3C66.8 129.8 66.4 130.2 65.8 130.5C66.4 130.7 66.9 131 67.2 131.6C67.5 132.1 67.7 132.9 67.7 133.8V134.5C67.7 136.9 66.5 138 64.2 138H59.9C57.5 138 56.3 136.8 56.3 134.5V133.6Z" fill="url(#paint4_linear_18_222)"/>
<path d="M70.1 133L77.3 123.4H79.8V133H81.8V135H79.8V138H77.7V135H70.1V133ZM77.7 133V126L72.4 133H77.7Z" fill="url(#paint5_linear_18_222)"/>
<path d="M108.7 134.5C108.7 135.7 108.4 136.6 107.8 137.2C107.2 137.8 106.3 138.1 105.2 138.1H101.3C98.9 138.1 97.7 136.9 97.7 134.6V133.7H99.7V134.5C99.7 135 99.8 135.5 100.1 135.7C100.3 136 100.7 136.1 101.3 136.1H105.1C105.7 136.1 106.1 136 106.3 135.7C106.5 135.4 106.7 135 106.7 134.5V132.5C106.7 132 106.6 131.5 106.3 131.3C106.1 131 105.7 130.9 105.1 130.9H98.1V123.5H108.3V125.6H100.2V128.9H105.2C106.4 128.9 107.3 129.2 107.9 129.8C108.5 130.4 108.8 131.3 108.8 132.5V134.6L108.7 134.5Z" fill="url(#paint6_linear_18_222)"/>
<path d="M112.5 125.5C112.5 125.2 112.5 124.9 112.7 124.7C112.8 124.4 113 124.2 113.1 124C113.3 123.8 113.5 123.7 113.8 123.6C114.1 123.5 114.3 123.4 114.6 123.4H121.3C121.6 123.4 121.9 123.4 122.1 123.6C122.4 123.7 122.6 123.9 122.8 124C123 124.2 123.1 124.4 123.2 124.7C123.3 125 123.4 125.2 123.4 125.5V127.4H121.3V125.5H114.6V129.7H121.3C121.6 129.7 121.9 129.7 122.1 129.9C122.4 130 122.6 130.2 122.8 130.3C123 130.5 123.1 130.7 123.2 131C123.3 131.3 123.4 131.5 123.4 131.8V136C123.4 136.3 123.4 136.6 123.2 136.8C123.1 137.1 122.9 137.3 122.8 137.5C122.6 137.7 122.4 137.8 122.1 137.9C121.8 138 121.6 138.1 121.3 138.1H114.6C114.3 138.1 114 138.1 113.8 137.9C113.5 137.8 113.3 137.6 113.1 137.5C112.9 137.3 112.8 137.1 112.7 136.8C112.6 136.5 112.5 136.3 112.5 136V125.6V125.5ZM114.6 131.8V136H121.3V131.8H114.6Z" fill="url(#paint7_linear_18_222)"/>
<path d="M128.2 138L134.7 125.5H126.5V123.4H137.8V124L130.6 138H128.2Z" fill="url(#paint8_linear_18_222)"/>
<path d="M143.7 138C141.3 138 140.1 136.8 140.1 134.5V133.8C140.1 132.9 140.3 132.2 140.6 131.6C140.9 131.1 141.4 130.7 142 130.5C141.5 130.2 141 129.8 140.7 129.3C140.4 128.8 140.3 128.1 140.3 127.3V127C140.3 124.6 141.5 123.4 143.8 123.4H147.7C150.1 123.4 151.2 124.6 151.2 127V127.3C151.2 128.1 151.1 128.8 150.8 129.3C150.5 129.8 150.1 130.2 149.5 130.5C150.1 130.7 150.6 131 150.9 131.6C151.2 132.1 151.4 132.9 151.4 133.8V134.5C151.4 136.9 150.2 138 147.9 138H143.6H143.7ZM148 136C148.6 136 149 135.9 149.2 135.6C149.4 135.3 149.6 134.9 149.6 134.4V133.3C149.6 132.7 149.5 132.3 149.2 132.1C149 131.8 148.6 131.7 148 131.7H143.8C143.2 131.7 142.8 131.8 142.6 132.1C142.4 132.4 142.2 132.8 142.2 133.3V134.4C142.2 134.9 142.3 135.4 142.6 135.6C142.8 135.9 143.2 136 143.8 136H148ZM148 129.6C148.5 129.6 148.9 129.4 149.1 129.2C149.3 128.9 149.4 128.6 149.4 128V127C149.4 126.4 149.3 126 149 125.8C148.8 125.5 148.4 125.4 147.8 125.4H144C143.5 125.4 143.1 125.5 142.8 125.8C142.6 126.1 142.4 126.5 142.4 127V128C142.4 128.5 142.5 128.9 142.7 129.2C142.9 129.5 143.3 129.6 143.8 129.6H147.9H148Z" fill="url(#paint9_linear_18_222)"/>
<path d="M180.1 135.9C180.1 136.2 180.1 136.5 179.9 136.7C179.8 137 179.6 137.2 179.5 137.4C179.3 137.6 179.1 137.7 178.8 137.8C178.5 137.9 178.3 138 178 138H171.3C171 138 170.7 138 170.5 137.8C170.2 137.7 170 137.5 169.8 137.4C169.6 137.2 169.5 137 169.4 136.7C169.3 136.4 169.2 136.2 169.2 135.9V134H171.3V135.9H178V131.7H171.3C171 131.7 170.7 131.7 170.5 131.5C170.2 131.4 170 131.2 169.8 131.1C169.6 130.9 169.5 130.7 169.4 130.4C169.3 130.1 169.2 129.9 169.2 129.6V125.4C169.2 125.1 169.2 124.8 169.4 124.6C169.5 124.3 169.7 124.1 169.8 123.9C170 123.7 170.2 123.6 170.5 123.5C170.8 123.4 171 123.3 171.3 123.3H178C178.3 123.3 178.6 123.3 178.8 123.5C179.1 123.6 179.3 123.8 179.5 123.9C179.7 124.1 179.8 124.3 179.9 124.6C180 124.9 180.1 125.1 180.1 125.4V135.8V135.9ZM178 129.7V125.5H171.3V129.7H178Z" fill="url(#paint10_linear_18_222)"/>
<path d="M196 135.9C196 136.2 196 136.5 195.8 136.7C195.7 137 195.5 137.2 195.4 137.4C195.2 137.6 195 137.7 194.7 137.8C194.4 137.9 194.2 138 193.9 138H186.6C186.3 138 186 138 185.8 137.8C185.5 137.7 185.3 137.5 185.1 137.4C184.9 137.2 184.8 137 184.7 136.7C184.6 136.4 184.5 136.2 184.5 135.9V125.5C184.5 125.2 184.5 124.9 184.7 124.7C184.8 124.4 185 124.2 185.1 124C185.3 123.8 185.5 123.7 185.8 123.6C186.1 123.5 186.3 123.4 186.6 123.4H193.9C194.2 123.4 194.5 123.4 194.7 123.6C195 123.7 195.2 123.9 195.4 124C195.6 124.2 195.7 124.4 195.8 124.7C195.9 125 196 125.2 196 125.5V135.9ZM186.6 125.5V135.9H193.9V125.5H186.6Z" fill="url(#paint11_linear_18_222)"/>
<path d="M203.7 123.4V138H201.6V125.5H199.1V123.4H203.7Z" fill="url(#paint12_linear_18_222)"/>
<path d="M210.2 125.5V127.4H208.1V125.5C208.1 125.2 208.1 124.9 208.3 124.7C208.4 124.4 208.6 124.2 208.7 124C208.9 123.8 209.1 123.7 209.4 123.6C209.7 123.5 209.9 123.4 210.2 123.4H216.8C217.1 123.4 217.4 123.4 217.6 123.6C217.9 123.7 218.1 123.9 218.3 124C218.5 124.2 218.6 124.4 218.7 124.7C218.8 125 218.9 125.2 218.9 125.5V128.2C218.9 128.5 218.9 128.7 218.9 129C218.9 129.2 218.8 129.4 218.6 129.6C218.5 129.8 218.3 129.9 218.1 130.1C217.9 130.2 217.7 130.4 217.4 130.5L210.2 133.9V136H217.1V134.1H219.2V138.1H208.2V134.3C208.2 134 208.2 133.8 208.2 133.5C208.2 133.3 208.3 133.1 208.5 132.9C208.6 132.7 208.8 132.6 209 132.4C209.2 132.3 209.4 132.1 209.7 132L216.9 128.6V125.6H210.3L210.2 125.5Z" fill="url(#paint13_linear_18_222)"/>
<path d="M236.2 133.6H238.2V134.4C238.2 134.9 238.3 135.4 238.6 135.6C238.8 135.9 239.2 136 239.8 136H244C244.6 136 245 135.9 245.2 135.6C245.4 135.3 245.6 134.9 245.6 134.4V133.3C245.6 132.7 245.5 132.3 245.2 132.1C245 131.8 244.6 131.7 244 131.7H239.7V129.7H244C244.5 129.7 244.9 129.5 245.1 129.3C245.3 129 245.4 128.7 245.4 128.1V127.1C245.4 126.5 245.3 126.1 245 125.9C244.8 125.6 244.4 125.5 243.8 125.5H240C239.5 125.5 239.1 125.6 238.8 125.9C238.6 126.2 238.4 126.6 238.4 127.1V127.9H236.4V127C236.4 124.6 237.6 123.4 239.9 123.4H243.8C245 123.4 245.9 123.7 246.5 124.3C247.1 124.9 247.4 125.8 247.4 127V127.3C247.4 128.1 247.3 128.8 247 129.3C246.7 129.8 246.3 130.2 245.7 130.5C246.3 130.7 246.8 131 247.1 131.6C247.4 132.1 247.6 132.9 247.6 133.8V134.5C247.6 136.9 246.4 138 244.1 138H239.8C237.4 138 236.2 136.8 236.2 134.5V133.6Z" fill="url(#paint14_linear_18_222)"/>
<path d="M249.9 133L257.1 123.4H259.6V133H261.6V135H259.6V138H257.5V135H249.9V133ZM257.5 133V126L252.2 133H257.5Z" fill="url(#paint15_linear_18_222)"/>
<path d="M274.8 134.5C274.8 135.7 274.5 136.6 273.9 137.2C273.3 137.8 272.4 138.1 271.3 138.1H267.4C265 138.1 263.8 136.9 263.8 134.6V133.7H265.8V134.5C265.8 135 265.9 135.5 266.2 135.7C266.4 136 266.8 136.1 267.4 136.1H271.2C271.8 136.1 272.2 136 272.4 135.7C272.6 135.4 272.8 135 272.8 134.5V132.5C272.8 132 272.7 131.5 272.4 131.3C272.2 131 271.8 130.9 271.2 130.9H264.2V123.5H274.4V125.6H266.3V128.9H271.3C272.5 128.9 273.4 129.2 274 129.8C274.6 130.4 274.9 131.3 274.9 132.5V134.6L274.8 134.5Z" fill="url(#paint16_linear_18_222)"/>
<path d="M278.6 125.5C278.6 125.2 278.6 124.9 278.8 124.7C278.9 124.4 279.1 124.2 279.2 124C279.4 123.8 279.6 123.7 279.9 123.6C280.2 123.5 280.4 123.4 280.7 123.4H287.4C287.7 123.4 288 123.4 288.2 123.6C288.5 123.7 288.7 123.9 288.9 124C289.1 124.2 289.2 124.4 289.3 124.7C289.4 125 289.5 125.2 289.5 125.5V127.4H287.4V125.5H280.7V129.7H287.4C287.7 129.7 288 129.7 288.2 129.9C288.5 130 288.7 130.2 288.9 130.3C289.1 130.5 289.2 130.7 289.3 131C289.4 131.3 289.5 131.5 289.5 131.8V136C289.5 136.3 289.5 136.6 289.3 136.8C289.2 137.1 289 137.3 288.9 137.5C288.7 137.7 288.5 137.8 288.2 137.9C287.9 138 287.7 138.1 287.4 138.1H280.7C280.4 138.1 280.1 138.1 279.9 137.9C279.6 137.8 279.4 137.6 279.2 137.5C279 137.3 278.9 137.1 278.8 136.8C278.7 136.5 278.6 136.3 278.6 136V125.6V125.5ZM280.7 131.8V136H287.4V131.8H280.7Z" fill="url(#paint17_linear_18_222)"/>
<path d="M34.8 148.6V155.4H33.8V149.5H32.6V148.5H34.8V148.6Z" fill="white"/>
<path d="M37.8 149.6V150.5H36.8V149.6C36.8 149.5 36.8 149.3 36.8 149.2C36.8 149.1 36.9 149 37 148.9C37 148.9 37.2 148.7 37.3 148.7C37.4 148.7 37.5 148.7 37.7 148.7H40.8C40.9 148.7 41.1 148.7 41.2 148.7C41.3 148.7 41.4 148.8 41.5 148.9C41.5 148.9 41.7 149.1 41.7 149.2C41.7 149.3 41.7 149.4 41.7 149.6V150.9C41.7 151 41.7 151.2 41.7 151.3C41.7 151.4 41.7 151.5 41.6 151.6C41.6 151.6 41.5 151.8 41.4 151.8C41.4 151.8 41.2 151.9 41.1 152L37.7 153.6V154.6H40.9V153.7H41.9V155.6H36.7V153.8C36.7 153.7 36.7 153.5 36.7 153.4C36.7 153.3 36.7 153.2 36.8 153.1C36.8 153.1 36.9 152.9 37 152.9C37 152.9 37.2 152.8 37.3 152.7L40.7 151.1V149.7H37.6L37.8 149.6Z" fill="white"/>
<path d="M43.6 153.4H44.6V153.8C44.6 154.1 44.6 154.2 44.8 154.4C44.9 154.5 45.1 154.6 45.4 154.6H47.4C47.7 154.6 47.8 154.6 48 154.4C48.1 154.3 48.2 154.1 48.2 153.8V153.3C48.2 153 48.2 152.8 48 152.7C47.9 152.6 47.7 152.5 47.4 152.5H45.4V151.5H47.4C47.6 151.5 47.8 151.5 47.9 151.3C48 151.2 48.1 151 48.1 150.7V150.3C48.1 150 48.1 149.8 47.9 149.7C47.8 149.6 47.6 149.5 47.3 149.5H45.5C45.2 149.5 45.1 149.5 44.9 149.7C44.8 149.8 44.7 150 44.7 150.3V150.7H43.7V150.3C43.7 149.2 44.3 148.6 45.4 148.6H47.2C47.8 148.6 48.2 148.7 48.5 149C48.8 149.3 48.9 149.7 48.9 150.3C48.9 150.8 48.9 151.1 48.7 151.4C48.6 151.7 48.4 151.8 48.1 152C48.4 152 48.6 152.3 48.8 152.5C49 152.8 49 153.1 49 153.5V153.8C49 154.9 48.4 155.5 47.3 155.5H45.3C44.2 155.5 43.6 154.9 43.6 153.8V153.4Z" fill="white"/>
<path d="M50 153.1L53.4 148.6H54.6V153.1H55.5V154H54.6V155.4H53.6V154H50.1V153.1H50ZM53.5 153.1V149.8L51 153.1H53.5Z" fill="white"/>
<path d="M263.5 173.4C263.5 173.5 263.5 173.7 263.5 173.8C263.5 173.9 263.4 174 263.3 174.1C263.3 174.1 263.1 174.3 263 174.3C262.9 174.3 262.8 174.3 262.6 174.3H259.2C259.1 174.3 258.9 174.3 258.8 174.3C258.7 174.3 258.6 174.2 258.5 174.1C258.5 174.1 258.3 173.9 258.3 173.8C258.3 173.7 258.3 173.6 258.3 173.4V168.5C258.3 168.4 258.3 168.2 258.3 168.1C258.3 168 258.4 167.9 258.5 167.8C258.5 167.8 258.7 167.6 258.8 167.6C258.9 167.6 259 167.6 259.2 167.6H262.6C262.7 167.6 262.9 167.6 263 167.6C263.1 167.6 263.2 167.7 263.3 167.8C263.3 167.8 263.5 168 263.5 168.1C263.5 168.2 263.5 168.3 263.5 168.5V173.4ZM259.1 168.5V173.4H262.5V168.5H259.1Z" fill="white"/>
<path d="M265.6 168.6C265.6 168.5 265.6 168.3 265.6 168.2C265.6 168.1 265.7 168 265.8 167.9C265.8 167.9 266 167.7 266.1 167.7C266.2 167.7 266.3 167.7 266.5 167.7H269.6C269.7 167.7 269.9 167.7 270 167.7C270.1 167.7 270.2 167.8 270.3 167.9C270.3 167.9 270.5 168.1 270.5 168.2C270.5 168.3 270.5 168.4 270.5 168.6V169.5H269.5V168.6H266.4V170.6H269.5C269.6 170.6 269.8 170.6 269.9 170.6C270 170.6 270.1 170.7 270.2 170.8C270.2 170.8 270.4 171 270.4 171.1C270.4 171.2 270.4 171.3 270.4 171.5V173.5C270.4 173.6 270.4 173.8 270.4 173.9C270.4 174 270.3 174.1 270.2 174.2C270.2 174.2 270 174.4 269.9 174.4C269.8 174.4 269.7 174.4 269.5 174.4H266.4C266.3 174.4 266.1 174.4 266 174.4C265.9 174.4 265.8 174.3 265.7 174.2C265.7 174.2 265.5 174 265.5 173.9C265.5 173.8 265.5 173.7 265.5 173.5V168.6H265.6ZM266.6 171.5V173.5H269.7V171.5H266.6Z" fill="white"/>
<path d="M272.2 174.9L274.8 167.1H275.7L273.1 174.9H272.2Z" fill="white"/>
<path d="M276.9 172.4H277.9V172.8C277.9 173.1 277.9 173.2 278.1 173.4C278.2 173.5 278.4 173.6 278.7 173.6H280.7C281 173.6 281.1 173.6 281.3 173.4C281.4 173.3 281.5 173.1 281.5 172.8V172.3C281.5 172 281.5 171.8 281.3 171.7C281.2 171.6 281 171.5 280.7 171.5H278.7V170.5H280.7C280.9 170.5 281.1 170.5 281.2 170.3C281.3 170.2 281.4 170 281.4 169.7V169.3C281.4 169 281.4 168.8 281.2 168.7C281.1 168.6 280.9 168.5 280.6 168.5H278.8C278.5 168.5 278.4 168.5 278.2 168.7C278.1 168.8 278 169 278 169.3V169.7H277V169.3C277 168.2 277.6 167.6 278.7 167.6H280.5C281.1 167.6 281.5 167.7 281.8 168C282.1 168.3 282.2 168.7 282.2 169.3C282.2 169.8 282.2 170.1 282 170.4C281.9 170.7 281.7 170.8 281.4 171C281.7 171 281.9 171.3 282.1 171.5C282.3 171.8 282.3 172.1 282.3 172.5V172.8C282.3 173.9 281.7 174.5 280.6 174.5H278.6C277.5 174.5 276.9 173.9 276.9 172.8V172.4Z" fill="white"/>
<path d="M289.4 173.4C289.4 173.5 289.4 173.7 289.4 173.8C289.4 173.9 289.3 174 289.2 174.1C289.2 174.1 289 174.3 288.9 174.3C288.8 174.3 288.7 174.3 288.5 174.3H285.1C285 174.3 284.8 174.3 284.7 174.3C284.6 174.3 284.5 174.2 284.4 174.1C284.4 174.1 284.2 173.9 284.2 173.8C284.2 173.7 284.2 173.6 284.2 173.4V168.5C284.2 168.4 284.2 168.2 284.2 168.1C284.2 168 284.3 167.9 284.4 167.8C284.4 167.8 284.6 167.6 284.7 167.6C284.8 167.6 284.9 167.6 285.1 167.6H288.5C288.6 167.6 288.8 167.6 288.9 167.6C289 167.6 289.1 167.7 289.2 167.8C289.2 167.8 289.4 168 289.4 168.1C289.4 168.2 289.4 168.3 289.4 168.5V173.4ZM285 168.5V173.4H288.4V168.5H285Z" fill="white"/>
<path d="M230.4 169.4L228.7 164.9H229.4L230.8 168.6L232.2 164.9H232.9L231.2 169.4H230.5H230.4Z" fill="white"/>
<path d="M235.3 165L237 169.5H236.4L236 168.5H234L233.6 169.5H233L234.7 165H235.3ZM234.2 167.8H235.7L234.9 165.8L234.1 167.8H234.2Z" fill="white"/>
<path d="M238.6 165V168.8H240.9V169.4H238V164.9H238.6V165Z" fill="white"/>
<path d="M242.5 165V169.5H241.9V165H242.5Z" fill="white"/>
<path d="M243.8 169.4V164.9H246.1C246.3 164.9 246.6 164.9 246.7 165C246.9 165 247.1 165.2 247.2 165.3C247.3 165.4 247.4 165.6 247.5 165.8C247.5 166 247.6 166.2 247.6 166.4V167.7C247.6 167.9 247.6 168.2 247.5 168.3C247.5 168.5 247.3 168.7 247.2 168.8C247.1 168.9 246.9 169 246.7 169.1C246.5 169.1 246.3 169.2 246.1 169.2H243.8V169.4ZM246.1 168.8C246.4 168.8 246.6 168.8 246.8 168.6C247 168.4 247 168.2 247 167.9V166.6C247 166.5 247 166.3 247 166.2C247 166.1 246.9 166 246.8 165.9C246.8 165.9 246.6 165.8 246.5 165.7C246.4 165.7 246.3 165.7 246.1 165.7H244.5V168.9H246.1V168.8Z" fill="white"/>
<path d="M229.2 172.6H232.8V173.2H231.3V177H230.7V173.2H229.2V172.6Z" fill="white"/>
<path d="M237.6 172.6V177.1H237V175.2H234.4V177.1H233.8V172.6H234.4V174.5H237V172.6H237.6Z" fill="white"/>
<path d="M242.5 174.2C242.5 174.8 242.2 175.2 241.7 175.3L242.5 177.1H241.8L241 175.3H239.6V177.1H239V172.6H241.4C242.1 172.6 242.5 173 242.5 173.7V174.2ZM239.6 174.6H241.4C241.6 174.6 241.7 174.6 241.8 174.5C241.8 174.5 241.9 174.3 241.9 174.1V173.7C241.9 173.5 241.9 173.4 241.8 173.3C241.8 173.3 241.6 173.2 241.4 173.2H239.6V174.6Z" fill="white"/>
<path d="M243.7 172.6H244.3V176.4H246.9V172.6H247.5V176.4V176.6C247.5 176.6 247.5 176.7 247.4 176.8C247.4 176.8 247.3 176.9 247.2 176.9H247H244.4H244.2C244.2 176.9 244.1 176.9 244 176.8C244 176.8 243.9 176.7 243.9 176.6V176.4V172.6H243.7Z" fill="white"/>
<path d="M250.7 168.1V173.7L254.2 170.9L250.7 168.1Z" fill="white"/>
<path d="M33.4 169.4C33.4 169.2 33.4 169.1 33.4 168.9C33.4 168.8 33.5 168.6 33.7 168.5C33.8 168.4 33.9 168.3 34.1 168.3C34.2 168.3 34.4 168.3 34.6 168.3H39C39.2 168.3 39.3 168.3 39.5 168.3C39.6 168.3 39.8 168.4 39.9 168.5C40 168.6 40.1 168.7 40.1 168.9C40.1 169 40.1 169.2 40.1 169.4V170.5H38.9V169.4H34.5V175.2H38.9V174.2H40.1V175.2C40.1 175.4 40.1 175.5 40.1 175.7C40.1 175.8 40 176 39.9 176.1C39.8 176.2 39.7 176.3 39.5 176.4C39.4 176.4 39.2 176.4 39 176.4H34.6C34.4 176.4 34.3 176.4 34.1 176.4C33.9 176.4 33.8 176.3 33.7 176.1C33.6 176 33.5 175.9 33.4 175.7C33.3 175.5 33.4 175.4 33.4 175.2V169.4Z" fill="white"/>
<path d="M46 168.3L49.1 176.5H47.9L47.2 174.6H43.5L42.8 176.5H41.6L44.7 168.3H45.9H46ZM44 173.4H46.8L45.4 169.8L44 173.4Z" fill="white"/>
<path d="M57.3 171.2C57.3 172.3 56.8 173 55.8 173.1L57.3 176.4H56L54.5 173.1H51.9V176.4H50.7V168.2H55.2C56.5 168.2 57.2 168.9 57.2 170.2V171.1L57.3 171.2ZM52 172H55.2C55.5 172 55.7 172 55.9 171.8C56 171.7 56.1 171.4 56.1 171.1V170.3C56.1 170 56.1 169.8 55.9 169.6C55.8 169.5 55.5 169.4 55.2 169.4H52V172Z" fill="white"/>
<path d="M59.6 176.4V168.2H63.7C64.1 168.2 64.5 168.2 64.9 168.4C65.3 168.5 65.6 168.7 65.8 169C66.1 169.2 66.2 169.5 66.4 169.9C66.5 170.3 66.6 170.6 66.6 171.1V173.5C66.6 173.9 66.6 174.3 66.4 174.7C66.3 175.1 66.1 175.4 65.8 175.6C65.6 175.8 65.3 176 64.9 176.2C64.5 176.3 64.2 176.4 63.7 176.4H59.6ZM63.7 175.2C64.2 175.2 64.7 175.1 65 174.8C65.3 174.5 65.4 174.1 65.4 173.5V171.1C65.4 170.8 65.4 170.6 65.3 170.4C65.3 170.2 65.1 170 65 169.9C64.9 169.8 64.7 169.6 64.5 169.6C64.3 169.6 64.1 169.5 63.8 169.5H60.8V175.3H63.8L63.7 175.2Z" fill="white"/>
<path d="M75.8 168.3V176.5H74.6V173H69.9V176.5H68.7V168.3H69.9V171.8H74.6V168.3H75.8Z" fill="white"/>
<path d="M85.3 175.3C85.3 175.5 85.3 175.6 85.3 175.8C85.3 176 85.2 176.1 85.1 176.2C85 176.3 84.9 176.4 84.7 176.5C84.5 176.6 84.4 176.5 84.2 176.5H79.5C79.3 176.5 79.2 176.5 79 176.5C78.9 176.5 78.7 176.4 78.6 176.2C78.5 176.1 78.4 176 78.4 175.8C78.4 175.7 78.4 175.5 78.4 175.3V169.5C78.4 169.3 78.4 169.2 78.4 169C78.4 168.9 78.5 168.7 78.6 168.6C78.7 168.5 78.8 168.4 79 168.4C79.1 168.4 79.3 168.4 79.5 168.4H84.2C84.4 168.4 84.5 168.4 84.7 168.4C84.8 168.4 85 168.5 85.1 168.6C85.2 168.7 85.3 168.8 85.3 169C85.3 169.1 85.3 169.3 85.3 169.5V175.3ZM79.5 169.5V175.3H84.2V169.5H79.5Z" fill="white"/>
<path d="M88.9 168.3V175.3H93.1V176.5H87.7V168.3H88.9Z" fill="white"/>
<path d="M94.8 176.4V168.2H98.9C99.3 168.2 99.7 168.2 100.1 168.4C100.5 168.5 100.8 168.7 101 169C101.2 169.2 101.4 169.5 101.6 169.9C101.7 170.3 101.8 170.6 101.8 171.1V173.5C101.8 173.9 101.8 174.3 101.6 174.7C101.5 175.1 101.3 175.4 101 175.6C100.8 175.8 100.5 176 100.1 176.2C99.7 176.3 99.4 176.4 98.9 176.4H94.8ZM98.9 175.2C99.4 175.2 99.9 175.1 100.2 174.8C100.5 174.5 100.6 174.1 100.6 173.5V171.1C100.6 170.8 100.6 170.6 100.5 170.4C100.5 170.2 100.3 170 100.2 169.9C100.1 169.8 99.9 169.6 99.7 169.6C99.5 169.6 99.3 169.5 99 169.5H96V175.3H99L98.9 175.2Z" fill="white"/>
<path d="M104 168.3H109.9V169.5H105.1V171.8H109.2V173H105.1V175.3H109.9V176.5H104V168.3Z" fill="white"/>
<path d="M118.5 171.2C118.5 172.3 118 173 117 173.1L118.5 176.4H117.2L115.7 173.1H113.1V176.4H111.9V168.2H116.4C117.7 168.2 118.4 168.9 118.4 170.2V171.1L118.5 171.2ZM113.2 172H116.4C116.7 172 116.9 172 117.1 171.8C117.2 171.7 117.3 171.4 117.3 171.1V170.3C117.3 170 117.3 169.8 117.1 169.6C117 169.5 116.7 169.4 116.4 169.4H113.2V172Z" fill="white"/>
<path d="M125.8 176.4H124.6V168.2H125.8L130.7 174.5V168.2H131.9V176.4H130.7L125.8 170.1V176.4Z" fill="white"/>
<path d="M137.9 168.3L141 176.5H139.8L139.1 174.6H135.4L134.7 176.5H133.5L136.6 168.3H137.8H137.9ZM135.9 173.4H138.7L137.3 169.8L135.9 173.4Z" fill="white"/>
<path d="M147 176.4L144 170.4V176.4H142.8V168.2H144.1L147.2 174.3L150.3 168.2H151.6V176.4H150.4V170.4L147.4 176.4H147.1H147Z" fill="white"/>
<path d="M154 168.3H159.9V169.5H155.1V171.8H159.2V173H155.1V175.3H159.9V176.5H154V168.3Z" fill="white"/>
<path d="M35.7 28.6C35.7 28.4 35.7 28.2 35.8 28C35.8 27.8 36 27.6 36.1 27.5C36.2 27.4 36.4 27.3 36.6 27.2C36.8 27.2 37 27.1 37.2 27.1H43.1C43.3 27.1 43.5 27.1 43.7 27.2C43.9 27.2 44.1 27.4 44.2 27.5C44.3 27.6 44.5 27.8 44.5 28C44.5 28.2 44.6 28.4 44.6 28.6V30H43.1V28.6H37.2V36.3H43.1V34.9H44.6V36.3C44.6 36.5 44.6 36.7 44.5 36.9C44.5 37.1 44.3 37.3 44.2 37.4C44.1 37.5 43.9 37.7 43.7 37.7C43.5 37.7 43.3 37.8 43.1 37.8H37.2C37 37.8 36.8 37.8 36.6 37.7C36.4 37.7 36.2 37.5 36.1 37.4C36 37.3 35.8 37.1 35.8 36.9C35.8 36.7 35.7 36.5 35.7 36.3V28.6Z" fill="white"/>
<path d="M52.4 27.1L56.6 37.9H55.1L54.1 35.4H49.2L48.2 37.9H46.7L50.9 27.1H52.4ZM49.8 33.9H53.5L51.7 29.1L49.8 33.9Z" fill="white"/>
<path d="M67.4 30.9C67.4 32.4 66.8 33.3 65.5 33.5L67.5 37.9H65.8L63.8 33.6H60.4V37.9H58.9V27.1H64.8C66.5 27.1 67.4 28 67.4 29.7V30.9ZM60.4 32H64.7C65.1 32 65.4 32 65.6 31.7C65.8 31.5 65.9 31.2 65.9 30.8V29.7C65.9 29.3 65.9 29 65.6 28.8C65.4 28.6 65.1 28.5 64.7 28.5H60.4V31.9V32Z" fill="white"/>
<path d="M70.4 37.9V27.1H75.9C76.5 27.1 77 27.1 77.5 27.4C78 27.6 78.4 27.8 78.7 28.2C79 28.5 79.3 28.9 79.5 29.4C79.7 29.9 79.8 30.4 79.8 31V34.2C79.8 34.8 79.8 35.3 79.5 35.8C79.3 36.3 79.1 36.7 78.7 37C78.4 37.3 78 37.6 77.5 37.8C77 38 76.5 38.1 75.9 38.1H70.4V37.9ZM75.9 36.4C76.6 36.4 77.2 36.2 77.6 35.8C78 35.4 78.2 34.9 78.2 34.1V30.9C78.2 30.5 78.2 30.2 78 30C78 29.7 77.8 29.5 77.6 29.3C77.4 29.1 77.2 29 76.9 28.9C76.6 28.9 76.3 28.7 76 28.7H72V36.4H76H75.9Z" fill="white"/>
<path d="M86.8 27.1H95.4V28.6H91.8V37.9H90.3V28.6H86.8V27.1Z" fill="white"/>
<path d="M98.5 27.1L101.6 32.2L104.8 27.1H106.6L102.4 33.6V37.9H100.9V33.6L96.7 27.1H98.5Z" fill="white"/>
<path d="M108.8 37.9V27.1H114.7C116.4 27.1 117.3 28 117.3 29.7V31.2C117.3 33 116.4 33.8 114.7 33.8H110.3V37.8H108.8V37.9ZM110.3 32.3H114.6C115 32.3 115.3 32.3 115.5 32C115.7 31.8 115.8 31.5 115.8 31.1V29.7C115.8 29.3 115.8 29 115.5 28.8C115.3 28.6 115 28.5 114.6 28.5H110.3V32.2V32.3Z" fill="white"/>
<path d="M119.9 27.1H127.8V28.6H121.5V31.7H126.9V33.2H121.5V36.3H127.8V37.8H119.9V27V27.1Z" fill="white"/>
<path d="M77.5 59.7H42.8C37.3324 59.7 32.9 64.1324 32.9 69.6V83.4C32.9 88.8676 37.3324 93.3 42.8 93.3H77.5C82.9676 93.3 87.4 88.8676 87.4 83.4V69.6C87.4 64.1324 82.9676 59.7 77.5 59.7Z" fill="url(#paint18_linear_18_222)"/>
<g style="mix-blend-mode:overlay">
<path d="M60.1 87.8C56.6 87.8 53.7 84.9 53.7 81.4C53.7 77.9 54.6 77.7 56.1 76.4C54.6 75.2 53.7 73.4 53.7 71.4C53.7 67.9 56.6 65 60.1 65C63.6 65 66.5 67.9 66.5 71.4C66.5 74.9 65.6 75.1 64.1 76.4C65.6 77.6 66.5 79.4 66.5 81.4C66.5 84.9 63.6 87.8 60.1 87.8ZM60.1 66.1C57.1 66.1 54.7 68.5 54.7 71.5C54.7 74.5 55.6 75 57.2 76L57.9 76.4L57.2 76.8C55.6 77.8 54.7 79.5 54.7 81.3C54.7 84.3 57.1 86.7 60.1 86.7C63.1 86.7 65.5 84.3 65.5 81.3C65.5 78.3 64.6 77.8 63 76.8L62.3 76.4L63 76C64.6 75 65.5 73.3 65.5 71.5C65.5 68.5 63.1 66.1 60.1 66.1Z" fill="#0D0F12"/>
<path d="M54.6 69H32.9V70H54.6V69Z" fill="#0D0F12"/>
<path d="M87.3 69H66V70H87.3V69Z" fill="#0D0F12"/>
<path d="M54.6 82.8H32.9V83.8H54.6V82.8Z" fill="#0D0F12"/>
<path d="M87.3 82.8H66V83.8H87.3V82.8Z" fill="#0D0F12"/>
<path d="M44.3 59.7H43.3V93.3H44.3V59.7Z" fill="#0D0F12"/>
<path d="M74.1 69.5H73.1V83.4H74.1V69.5Z" fill="#0D0F12"/>
<path d="M79.1 59.7H78.1V69.5H79.1V59.7Z" fill="#0D0F12"/>
<path d="M79.1 83.3H78.1V93.2H79.1V83.3Z" fill="#0D0F12"/>
</g>
<path d="M29.3 80.1V71.8L24.2 75.9L29.3 80.1Z" fill="url(#paint19_linear_18_222)"/>
<path d="M249.9 110C271.936 110 289.8 92.1362 289.8 70.1C289.8 48.0638 271.936 30.2 249.9 30.2C227.864 30.2 210 48.0638 210 70.1C210 92.1362 227.864 110 249.9 110Z" fill="url(#paint20_linear_18_222)"/>
<path d="M284.4 70C284.4 73.2 283.9 79.6 280 86.4C279.1 88.1 276.3 92.5 271.2 96.5C270.5 97 261.3 104 250 103.8C234.9 103.6 215.5 90.8 215.5 70.1C215.5 51.5 231.1 36.1 250 36.3V33.4C246.5 33.4 240.3 33.8 233.5 37C229.1 39.1 226.1 41.6 224.6 43C215.9 51 213.7 60.9 213.3 62.7C212.6 65.9 211.4 74 215 83.2C215.8 85.3 218.8 92.5 226.3 98.4C236.4 106.5 247.6 106.8 250.1 106.8C262.9 106.8 273.5 100.1 279.4 92.8C283.2 88.1 285 83.3 285.3 82.4C287.1 77.3 287.4 72.9 287.4 70H284.5H284.4Z" fill="url(#paint21_linear_18_222)"/>
<path d="M255.5 36.7C256.384 36.7 257.1 35.9837 257.1 35.1C257.1 34.2163 256.384 33.5 255.5 33.5C254.616 33.5 253.9 34.2163 253.9 35.1C253.9 35.9837 254.616 36.7 255.5 36.7Z" fill="url(#paint22_linear_18_222)"/>
<path d="M260.4 37.7C261.284 37.7 262 36.9837 262 36.1C262 35.2163 261.284 34.5 260.4 34.5C259.516 34.5 258.8 35.2163 258.8 36.1C258.8 36.9837 259.516 37.7 260.4 37.7Z" fill="url(#paint23_linear_18_222)"/>
<path d="M265.1 39.4C265.984 39.4 266.7 38.6837 266.7 37.8C266.7 36.9163 265.984 36.2 265.1 36.2C264.216 36.2 263.5 36.9163 263.5 37.8C263.5 38.6837 264.216 39.4 265.1 39.4Z" fill="url(#paint24_linear_18_222)"/>
<path d="M269.6 41.8C270.484 41.8 271.2 41.0837 271.2 40.2C271.2 39.3163 270.484 38.6 269.6 38.6C268.716 38.6 268 39.3163 268 40.2C268 41.0837 268.716 41.8 269.6 41.8Z" fill="url(#paint25_linear_18_222)"/>
<path d="M273.6 44.8C274.484 44.8 275.2 44.0837 275.2 43.2C275.2 42.3163 274.484 41.6 273.6 41.6C272.716 41.6 272 42.3163 272 43.2C272 44.0837 272.716 44.8 273.6 44.8Z" fill="url(#paint26_linear_18_222)"/>
<path d="M277.2 48.2C278.084 48.2 278.8 47.4837 278.8 46.6C278.8 45.7163 278.084 45 277.2 45C276.316 45 275.6 45.7163 275.6 46.6C275.6 47.4837 276.316 48.2 277.2 48.2Z" fill="url(#paint27_linear_18_222)"/>
<path d="M280.3 52.2C281.184 52.2 281.9 51.4837 281.9 50.6C281.9 49.7163 281.184 49 280.3 49C279.416 49 278.7 49.7163 278.7 50.6C278.7 51.4837 279.416 52.2 280.3 52.2Z" fill="url(#paint28_linear_18_222)"/>
<path d="M282.8 56.5C283.684 56.5 284.4 55.7837 284.4 54.9C284.4 54.0163 283.684 53.3 282.8 53.3C281.916 53.3 281.2 54.0163 281.2 54.9C281.2 55.7837 281.916 56.5 282.8 56.5Z" fill="url(#paint29_linear_18_222)"/>
<path d="M284.6 61.2C285.484 61.2 286.2 60.4837 286.2 59.6C286.2 58.7163 285.484 58 284.6 58C283.716 58 283 58.7163 283 59.6C283 60.4837 283.716 61.2 284.6 61.2Z" fill="url(#paint30_linear_18_222)"/>
<path d="M285.6 66.1C286.484 66.1 287.2 65.3837 287.2 64.5C287.2 63.6163 286.484 62.9 285.6 62.9C284.716 62.9 284 63.6163 284 64.5C284 65.3837 284.716 66.1 285.6 66.1Z" fill="url(#paint31_linear_18_222)"/>
<path d="M229.9 77.3C231.5 76.4 233 75.5 234.6 74.6C236.1 75.5 237.7 76.4 239.2 77.3C239.2 79.1 239.2 81 239.2 82.8C237.7 83.7 236.1 84.5 234.6 85.4C233 84.5 231.5 83.7 229.9 82.8C229.9 81 229.9 79.1 229.9 77.3Z" fill="url(#paint32_linear_18_222)"/>
<path d="M244.9 74.3C245.121 74.3 245.3 74.1209 245.3 73.9C245.3 73.6791 245.121 73.5 244.9 73.5C244.679 73.5 244.5 73.6791 244.5 73.9C244.5 74.1209 244.679 74.3 244.9 74.3Z" fill="url(#paint33_linear_18_222)"/>
<path d="M241.3 66.2C241.521 66.2 241.7 66.0209 241.7 65.8C241.7 65.5791 241.521 65.4 241.3 65.4C241.079 65.4 240.9 65.5791 240.9 65.8C240.9 66.0209 241.079 66.2 241.3 66.2Z" fill="url(#paint34_linear_18_222)"/>
<path d="M243.2 67.2C243.421 67.2 243.6 67.0209 243.6 66.8C243.6 66.5791 243.421 66.4 243.2 66.4C242.979 66.4 242.8 66.5791 242.8 66.8C242.8 67.0209 242.979 67.2 243.2 67.2Z" fill="url(#paint35_linear_18_222)"/>
<path d="M245 68.3C245.221 68.3 245.4 68.1209 245.4 67.9C245.4 67.6791 245.221 67.5 245 67.5C244.779 67.5 244.6 67.6791 244.6 67.9C244.6 68.1209 244.779 68.3 245 68.3Z" fill="url(#paint36_linear_18_222)"/>
<path d="M242.6 75.7C242.821 75.7 243 75.5209 243 75.3C243 75.0791 242.821 74.9 242.6 74.9C242.379 74.9 242.2 75.0791 242.2 75.3C242.2 75.5209 242.379 75.7 242.6 75.7Z" fill="url(#paint37_linear_18_222)"/>
<path d="M240.3 77C240.521 77 240.7 76.8209 240.7 76.6C240.7 76.3791 240.521 76.2 240.3 76.2C240.079 76.2 239.9 76.3791 239.9 76.6C239.9 76.8209 240.079 77 240.3 77Z" fill="url(#paint38_linear_18_222)"/>
<path d="M237.6 63.7C237.876 63.7 238.1 63.4761 238.1 63.2C238.1 62.9239 237.876 62.7 237.6 62.7C237.324 62.7 237.1 62.9239 237.1 63.2C237.1 63.4761 237.324 63.7 237.6 63.7Z" fill="url(#paint39_linear_18_222)"/>
<path d="M230.5 59.4C232.1 58.5 233.6 57.6 235.2 56.7C236.7 57.6 238.3 58.5 239.8 59.4C239.8 61.2 239.8 63.1 239.8 64.9C238.3 65.8 236.7 66.6 235.2 67.5C233.6 66.6 232.1 65.8 230.5 64.9C230.5 63.1 230.5 61.2 230.5 59.4Z" fill="url(#paint40_linear_18_222)"/>
<path d="M250.4 53C250.4 52.7791 250.221 52.6 250 52.6C249.779 52.6 249.6 52.7791 249.6 53V66.6C249.6 66.8209 249.779 67 250 67C250.221 67 250.4 66.8209 250.4 66.6V53Z" fill="url(#paint41_linear_18_222)"/>
<path d="M250.4 75.7C250.4 75.4791 250.221 75.3 250 75.3C249.779 75.3 249.6 75.4791 249.6 75.7V89.3C249.6 89.5209 249.779 89.7 250 89.7C250.221 89.7 250.4 89.5209 250.4 89.3V75.7Z" fill="url(#paint42_linear_18_222)"/>
<path d="M264.067 79.4408C264.259 79.5512 264.503 79.4857 264.614 79.2943C264.724 79.103 264.659 78.8584 264.467 78.7479L252.69 71.9479C252.498 71.8375 252.254 71.903 252.143 72.0943C252.033 72.2857 252.098 72.5303 252.29 72.6408L264.067 79.4408Z" fill="url(#paint43_linear_18_222)"/>
<path d="M261.58 64.6149C261.771 64.5045 261.836 64.2598 261.726 64.0685C261.616 63.8772 261.371 63.8117 261.18 63.9221L252.433 68.9721C252.241 69.0826 252.176 69.3272 252.286 69.5185C252.397 69.7098 252.641 69.7754 252.833 69.6649L261.58 64.6149Z" fill="url(#paint44_linear_18_222)"/>
<path d="M245.3 45.8C246.9 44.9 248.4 44 250 43.1C251.5 44 253.1 44.9 254.6 45.8C254.6 47.6 254.6 49.5 254.6 51.3C253.1 52.2 251.5 53 250 53.9C248.4 53 246.9 52.2 245.3 51.3C245.3 49.5 245.3 47.6 245.3 45.8Z" fill="url(#paint45_linear_18_222)"/>
<path d="M245.3 68C246.9 67.1 248.4 66.2 250 65.3C251.5 66.2 253.1 67.1 254.6 68C254.6 69.8 254.6 71.7 254.6 73.5C253.1 74.4 251.5 75.2 250 76.1C248.4 75.2 246.9 74.4 245.3 73.5C245.3 71.7 245.3 69.8 245.3 68Z" fill="url(#paint46_linear_18_222)"/>
<path d="M259.2 60.2C260.8 59.3 262.3 58.4 263.9 57.5C265.4 58.4 267 59.3 268.5 60.2C268.5 62 268.5 63.9 268.5 65.7C267 66.6 265.4 67.4 263.9 68.3C262.3 67.4 260.8 66.6 259.2 65.7C259.2 63.9 259.2 62 259.2 60.2Z" fill="url(#paint47_linear_18_222)"/>
<path d="M262.4 78C264 77.1 265.5 76.2 267.1 75.3C268.6 76.2 270.2 77.1 271.7 78C271.7 79.8 271.7 81.7 271.7 83.5C270.2 84.4 268.6 85.2 267.1 86.1C265.5 85.2 264 84.4 262.4 83.5C262.4 81.7 262.4 79.8 262.4 78Z" fill="url(#paint48_linear_18_222)"/>
<path d="M245.3 88.9C246.9 88 248.4 87.1 250 86.2C251.5 87.1 253.1 88 254.6 88.9C254.6 90.7 254.6 92.6 254.6 94.4C253.1 95.3 251.5 96.1 250 97C248.4 96.1 246.9 95.3 245.3 94.4C245.3 92.6 245.3 90.7 245.3 88.9Z" fill="url(#paint49_linear_18_222)"/>
<defs>
<linearGradient id="paint0_linear_18_222" x1="0" y1="98.7" x2="327.9" y2="98.7" gradientUnits="userSpaceOnUse">
<stop stop-color="#115D50"/>
<stop offset="0.6" stop-color="#0E302B"/>
<stop offset="0.9" stop-color="#0D2E29"/>
<stop offset="1" stop-color="#092622"/>
</linearGradient>
<linearGradient id="paint1_linear_18_222" x1="109.5" y1="-68.2" x2="91.9" y2="186.3" gradientUnits="userSpaceOnUse">
<stop stop-color="#124B42"/>
<stop offset="0.3" stop-color="#0E3A34"/>
<stop offset="0.6" stop-color="#0C312B"/>
<stop offset="1" stop-color="#0C2E29"/>
</linearGradient>
<linearGradient id="paint2_linear_18_222" x1="35.3" y1="143.7" x2="35.3" y2="125.9" gradientUnits="userSpaceOnUse">
<stop stop-color="#D2B059"/>
<stop offset="0.1" stop-color="#C09644"/>
<stop offset="0.2" stop-color="#B38335"/>
<stop offset="0.3" stop-color="#A9752A"/>
<stop offset="0.4" stop-color="#AD7A2D"/>
<stop offset="0.5" stop-color="#BA8B36"/>
<stop offset="0.6" stop-color="#D0A746"/>
<stop offset="0.7" stop-color="#E0BD56"/>
<stop offset="0.8" stop-color="#F1DA76"/>
<stop offset="0.9" stop-color="#FBEC8A"/>
<stop offset="1" stop-color="#FFF392"/>
</linearGradient>
<linearGradient id="paint3_linear_18_222" x1="47.5" y1="-3.88087e-05" x2="47.5" y2="-3.88087e-05" gradientUnits="userSpaceOnUse">
<stop stop-color="#D2B059"/>
<stop offset="0.1" stop-color="#C09644"/>
<stop offset="0.2" stop-color="#B38335"/>
<stop offset="0.3" stop-color="#A9752A"/>
<stop offset="0.4" stop-color="#AD7A2D"/>
<stop offset="0.5" stop-color="#BA8B36"/>
<stop offset="0.6" stop-color="#D0A746"/>
<stop offset="0.7" stop-color="#E0BD56"/>
<stop offset="0.8" stop-color="#F1DA76"/>
<stop offset="0.9" stop-color="#FBEC8A"/>
<stop offset="1" stop-color="#FFF392"/>
</linearGradient>
<linearGradient id="paint4_linear_18_222" x1="62.1" y1="1.17524e-05" x2="62.1" y2="1.17524e-05" gradientUnits="userSpaceOnUse">
<stop stop-color="#D2B059"/>
<stop offset="0.1" stop-color="#C09644"/>
<stop offset="0.2" stop-color="#B38335"/>
<stop offset="0.3" stop-color="#A9752A"/>
<stop offset="0.4" stop-color="#AD7A2D"/>
<stop offset="0.5" stop-color="#BA8B36"/>
<stop offset="0.6" stop-color="#D0A746"/>
<stop offset="0.7" stop-color="#E0BD56"/>
<stop offset="0.8" stop-color="#F1DA76"/>
<stop offset="0.9" stop-color="#FBEC8A"/>
<stop offset="1" stop-color="#FFF392"/>
</linearGradient>
<linearGradient id="paint5_linear_18_222" x1="75.9" y1="1.17524e-05" x2="75.9" y2="1.17524e-05" gradientUnits="userSpaceOnUse">
<stop stop-color="#D2B059"/>
<stop offset="0.1" stop-color="#C09644"/>
<stop offset="0.2" stop-color="#B38335"/>
<stop offset="0.3" stop-color="#A9752A"/>
<stop offset="0.4" stop-color="#AD7A2D"/>
<stop offset="0.5" stop-color="#BA8B36"/>
<stop offset="0.6" stop-color="#D0A746"/>
<stop offset="0.7" stop-color="#E0BD56"/>
<stop offset="0.8" stop-color="#F1DA76"/>
<stop offset="0.9" stop-color="#FBEC8A"/>
<stop offset="1" stop-color="#FFF392"/>
</linearGradient>
<linearGradient id="paint6_linear_18_222" x1="103.2" y1="-5.39179e-05" x2="103.2" y2="-5.39179e-05" gradientUnits="userSpaceOnUse">
<stop stop-color="#D2B059"/>
<stop offset="0.1" stop-color="#C09644"/>
<stop offset="0.2" stop-color="#B38335"/>
<stop offset="0.3" stop-color="#A9752A"/>
<stop offset="0.4" stop-color="#AD7A2D"/>
<stop offset="0.5" stop-color="#BA8B36"/>
<stop offset="0.6" stop-color="#D0A746"/>
<stop offset="0.7" stop-color="#E0BD56"/>
<stop offset="0.8" stop-color="#F1DA76"/>
<stop offset="0.9" stop-color="#FBEC8A"/>
<stop offset="1" stop-color="#FFF392"/>
</linearGradient>
<linearGradient id="paint7_linear_18_222" x1="117.9" y1="-3.88087e-05" x2="117.9" y2="-3.88087e-05" gradientUnits="userSpaceOnUse">
<stop stop-color="#D2B059"/>
<stop offset="0.1" stop-color="#C09644"/>
<stop offset="0.2" stop-color="#B38335"/>
<stop offset="0.3" stop-color="#A9752A"/>
<stop offset="0.4" stop-color="#AD7A2D"/>
<stop offset="0.5" stop-color="#BA8B36"/>
<stop offset="0.6" stop-color="#D0A746"/>
<stop offset="0.7" stop-color="#E0BD56"/>
<stop offset="0.8" stop-color="#F1DA76"/>
<stop offset="0.9" stop-color="#FBEC8A"/>
<stop offset="1" stop-color="#FFF392"/>
</linearGradient>
<linearGradient id="paint8_linear_18_222" x1="132.3" y1="1.17524e-05" x2="132.3" y2="1.17524e-05" gradientUnits="userSpaceOnUse">
<stop stop-color="#D2B059"/>
<stop offset="0.1" stop-color="#C09644"/>
<stop offset="0.2" stop-color="#B38335"/>
<stop offset="0.3" stop-color="#A9752A"/>
<stop offset="0.4" stop-color="#AD7A2D"/>
<stop offset="0.5" stop-color="#BA8B36"/>
<stop offset="0.6" stop-color="#D0A746"/>
<stop offset="0.7" stop-color="#E0BD56"/>
<stop offset="0.8" stop-color="#F1DA76"/>
<stop offset="0.9" stop-color="#FBEC8A"/>
<stop offset="1" stop-color="#FFF392"/>
</linearGradient>
<linearGradient id="paint9_linear_18_222" x1="145.9" y1="1.17524e-05" x2="145.9" y2="1.17524e-05" gradientUnits="userSpaceOnUse">
<stop stop-color="#D2B059"/>
<stop offset="0.1" stop-color="#C09644"/>
<stop offset="0.2" stop-color="#B38335"/>
<stop offset="0.3" stop-color="#A9752A"/>
<stop offset="0.4" stop-color="#AD7A2D"/>
<stop offset="0.5" stop-color="#BA8B36"/>
<stop offset="0.6" stop-color="#D0A746"/>
<stop offset="0.7" stop-color="#E0BD56"/>
<stop offset="0.8" stop-color="#F1DA76"/>
<stop offset="0.9" stop-color="#FBEC8A"/>
<stop offset="1" stop-color="#FFF392"/>
</linearGradient>
<linearGradient id="paint10_linear_18_222" x1="174.7" y1="2.43576e-05" x2="174.7" y2="2.43576e-05" gradientUnits="userSpaceOnUse">
<stop stop-color="#D2B059"/>
<stop offset="0.1" stop-color="#C09644"/>
<stop offset="0.2" stop-color="#B38335"/>
<stop offset="0.3" stop-color="#A9752A"/>
<stop offset="0.4" stop-color="#AD7A2D"/>
<stop offset="0.5" stop-color="#BA8B36"/>
<stop offset="0.6" stop-color="#D0A746"/>
<stop offset="0.7" stop-color="#E0BD56"/>
<stop offset="0.8" stop-color="#F1DA76"/>
<stop offset="0.9" stop-color="#FBEC8A"/>
<stop offset="1" stop-color="#FFF392"/>
</linearGradient>
<linearGradient id="paint11_linear_18_222" x1="190.3" y1="1.17524e-05" x2="190.3" y2="1.17524e-05" gradientUnits="userSpaceOnUse">
<stop stop-color="#D2B059"/>
<stop offset="0.1" stop-color="#C09644"/>
<stop offset="0.2" stop-color="#B38335"/>
<stop offset="0.3" stop-color="#A9752A"/>
<stop offset="0.4" stop-color="#AD7A2D"/>
<stop offset="0.5" stop-color="#BA8B36"/>
<stop offset="0.6" stop-color="#D0A746"/>
<stop offset="0.7" stop-color="#E0BD56"/>
<stop offset="0.8" stop-color="#F1DA76"/>
<stop offset="0.9" stop-color="#FBEC8A"/>
<stop offset="1" stop-color="#FFF392"/>
</linearGradient>
<linearGradient id="paint12_linear_18_222" x1="201.4" y1="1.17524e-05" x2="201.4" y2="1.17524e-05" gradientUnits="userSpaceOnUse">
<stop stop-color="#D2B059"/>
<stop offset="0.1" stop-color="#C09644"/>
<stop offset="0.2" stop-color="#B38335"/>
<stop offset="0.3" stop-color="#A9752A"/>
<stop offset="0.4" stop-color="#AD7A2D"/>
<stop offset="0.5" stop-color="#BA8B36"/>
<stop offset="0.6" stop-color="#D0A746"/>
<stop offset="0.7" stop-color="#E0BD56"/>
<stop offset="0.8" stop-color="#F1DA76"/>
<stop offset="0.9" stop-color="#FBEC8A"/>
<stop offset="1" stop-color="#FFF392"/>
</linearGradient>
<linearGradient id="paint13_linear_18_222" x1="213.6" y1="-3.88087e-05" x2="213.6" y2="-3.88087e-05" gradientUnits="userSpaceOnUse">
<stop stop-color="#D2B059"/>
<stop offset="0.1" stop-color="#C09644"/>
<stop offset="0.2" stop-color="#B38335"/>
<stop offset="0.3" stop-color="#A9752A"/>
<stop offset="0.4" stop-color="#AD7A2D"/>
<stop offset="0.5" stop-color="#BA8B36"/>
<stop offset="0.6" stop-color="#D0A746"/>
<stop offset="0.7" stop-color="#E0BD56"/>
<stop offset="0.8" stop-color="#F1DA76"/>
<stop offset="0.9" stop-color="#FBEC8A"/>
<stop offset="1" stop-color="#FFF392"/>
</linearGradient>
<linearGradient id="paint14_linear_18_222" x1="241.9" y1="1.17524e-05" x2="241.9" y2="1.17524e-05" gradientUnits="userSpaceOnUse">
<stop stop-color="#D2B059"/>
<stop offset="0.1" stop-color="#C09644"/>
<stop offset="0.2" stop-color="#B38335"/>
<stop offset="0.3" stop-color="#A9752A"/>
<stop offset="0.4" stop-color="#AD7A2D"/>
<stop offset="0.5" stop-color="#BA8B36"/>
<stop offset="0.6" stop-color="#D0A746"/>
<stop offset="0.7" stop-color="#E0BD56"/>
<stop offset="0.8" stop-color="#F1DA76"/>
<stop offset="0.9" stop-color="#FBEC8A"/>
<stop offset="1" stop-color="#FFF392"/>
</linearGradient>
<linearGradient id="paint15_linear_18_222" x1="255.7" y1="1.17524e-05" x2="255.7" y2="1.17524e-05" gradientUnits="userSpaceOnUse">
<stop stop-color="#D2B059"/>
<stop offset="0.1" stop-color="#C09644"/>
<stop offset="0.2" stop-color="#B38335"/>
<stop offset="0.3" stop-color="#A9752A"/>
<stop offset="0.4" stop-color="#AD7A2D"/>
<stop offset="0.5" stop-color="#BA8B36"/>
<stop offset="0.6" stop-color="#D0A746"/>
<stop offset="0.7" stop-color="#E0BD56"/>
<stop offset="0.8" stop-color="#F1DA76"/>
<stop offset="0.9" stop-color="#FBEC8A"/>
<stop offset="1" stop-color="#FFF392"/>
</linearGradient>
<linearGradient id="paint16_linear_18_222" x1="269.3" y1="-5.39179e-05" x2="269.3" y2="-5.39179e-05" gradientUnits="userSpaceOnUse">
<stop stop-color="#D2B059"/>
<stop offset="0.1" stop-color="#C09644"/>
<stop offset="0.2" stop-color="#B38335"/>
<stop offset="0.3" stop-color="#A9752A"/>
<stop offset="0.4" stop-color="#AD7A2D"/>
<stop offset="0.5" stop-color="#BA8B36"/>
<stop offset="0.6" stop-color="#D0A746"/>
<stop offset="0.7" stop-color="#E0BD56"/>
<stop offset="0.8" stop-color="#F1DA76"/>
<stop offset="0.9" stop-color="#FBEC8A"/>
<stop offset="1" stop-color="#FFF392"/>
</linearGradient>
<linearGradient id="paint17_linear_18_222" x1="284" y1="-3.88087e-05" x2="284" y2="-3.88087e-05" gradientUnits="userSpaceOnUse">
<stop stop-color="#D2B059"/>
<stop offset="0.1" stop-color="#C09644"/>
<stop offset="0.2" stop-color="#B38335"/>
<stop offset="0.3" stop-color="#A9752A"/>
<stop offset="0.4" stop-color="#AD7A2D"/>
<stop offset="0.5" stop-color="#BA8B36"/>
<stop offset="0.6" stop-color="#D0A746"/>
<stop offset="0.7" stop-color="#E0BD56"/>
<stop offset="0.8" stop-color="#F1DA76"/>
<stop offset="0.9" stop-color="#FBEC8A"/>
<stop offset="1" stop-color="#FFF392"/>
</linearGradient>
<linearGradient id="paint18_linear_18_222" x1="60.1" y1="93.3" x2="60.1" y2="59.7" gradientUnits="userSpaceOnUse">
<stop stop-color="#D2B059"/>
<stop offset="0.1" stop-color="#C09644"/>
<stop offset="0.2" stop-color="#B38335"/>
<stop offset="0.3" stop-color="#A9752A"/>
<stop offset="0.4" stop-color="#AD7A2D"/>
<stop offset="0.5" stop-color="#BA8B36"/>
<stop offset="0.6" stop-color="#D0A746"/>
<stop offset="0.7" stop-color="#E0BD56"/>
<stop offset="0.8" stop-color="#F1DA76"/>
<stop offset="0.9" stop-color="#FBEC8A"/>
<stop offset="1" stop-color="#FFF392"/>
</linearGradient>
<linearGradient id="paint19_linear_18_222" x1="24.2" y1="75.9" x2="29.3" y2="75.9" gradientUnits="userSpaceOnUse">
<stop stop-color="#FFF08C"/>
<stop offset="0.2" stop-color="#FFF18E"/>
<stop offset="1" stop-color="#FFF392"/>
</linearGradient>
<linearGradient id="paint20_linear_18_222" x1="249.9" y1="30.2" x2="250" y2="109.8" gradientUnits="userSpaceOnUse">
<stop stop-color="#115D50"/>
<stop offset="0.6" stop-color="#0E302B"/>
<stop offset="0.9" stop-color="#0D2E29"/>
<stop offset="1" stop-color="#092622"/>
</linearGradient>
<linearGradient id="paint21_linear_18_222" x1="212.5" y1="70.1" x2="287.3" y2="70.1" gradientUnits="userSpaceOnUse">
<stop stop-color="#D2B059"/>
<stop offset="0.1" stop-color="#C09644"/>
<stop offset="0.2" stop-color="#B38335"/>
<stop offset="0.3" stop-color="#A9752A"/>
<stop offset="0.4" stop-color="#AD7A2D"/>
<stop offset="0.5" stop-color="#BA8B36"/>
<stop offset="0.6" stop-color="#D0A746"/>
<stop offset="0.7" stop-color="#E0BD56"/>
<stop offset="0.8" stop-color="#F1DA76"/>
<stop offset="0.9" stop-color="#FBEC8A"/>
<stop offset="1" stop-color="#FFF392"/>
</linearGradient>
<linearGradient id="paint22_linear_18_222" x1="254" y1="35.1" x2="257.1" y2="35.1" gradientUnits="userSpaceOnUse">
<stop stop-color="#D2B059"/>
<stop offset="0.1" stop-color="#C09644"/>
<stop offset="0.2" stop-color="#B38335"/>
<stop offset="0.3" stop-color="#A9752A"/>
<stop offset="0.4" stop-color="#AD7A2D"/>
<stop offset="0.5" stop-color="#BA8B36"/>
<stop offset="0.6" stop-color="#D0A746"/>
<stop offset="0.7" stop-color="#E0BD56"/>
<stop offset="0.8" stop-color="#F1DA76"/>
<stop offset="0.9" stop-color="#FBEC8A"/>
<stop offset="1" stop-color="#FFF392"/>
</linearGradient>
<linearGradient id="paint23_linear_18_222" x1="258.9" y1="36.1" x2="262" y2="36.1" gradientUnits="userSpaceOnUse">
<stop stop-color="#D2B059"/>
<stop offset="0.1" stop-color="#C09644"/>
<stop offset="0.2" stop-color="#B38335"/>
<stop offset="0.3" stop-color="#A9752A"/>
<stop offset="0.4" stop-color="#AD7A2D"/>
<stop offset="0.5" stop-color="#BA8B36"/>
<stop offset="0.6" stop-color="#D0A746"/>
<stop offset="0.7" stop-color="#E0BD56"/>
<stop offset="0.8" stop-color="#F1DA76"/>
<stop offset="0.9" stop-color="#FBEC8A"/>
<stop offset="1" stop-color="#FFF392"/>
</linearGradient>
<linearGradient id="paint24_linear_18_222" x1="263.6" y1="37.8" x2="266.7" y2="37.8" gradientUnits="userSpaceOnUse">
<stop stop-color="#D2B059"/>
<stop offset="0.1" stop-color="#C09644"/>
<stop offset="0.2" stop-color="#B38335"/>
<stop offset="0.3" stop-color="#A9752A"/>
<stop offset="0.4" stop-color="#AD7A2D"/>
<stop offset="0.5" stop-color="#BA8B36"/>
<stop offset="0.6" stop-color="#D0A746"/>
<stop offset="0.7" stop-color="#E0BD56"/>
<stop offset="0.8" stop-color="#F1DA76"/>
<stop offset="0.9" stop-color="#FBEC8A"/>
<stop offset="1" stop-color="#FFF392"/>
</linearGradient>
<linearGradient id="paint25_linear_18_222" x1="268" y1="40.2" x2="271.1" y2="40.2" gradientUnits="userSpaceOnUse">
<stop stop-color="#D2B059"/>
<stop offset="0.1" stop-color="#C09644"/>
<stop offset="0.2" stop-color="#B38335"/>
<stop offset="0.3" stop-color="#A9752A"/>
<stop offset="0.4" stop-color="#AD7A2D"/>
<stop offset="0.5" stop-color="#BA8B36"/>
<stop offset="0.6" stop-color="#D0A746"/>
<stop offset="0.7" stop-color="#E0BD56"/>
<stop offset="0.8" stop-color="#F1DA76"/>
<stop offset="0.9" stop-color="#FBEC8A"/>
<stop offset="1" stop-color="#FFF392"/>
</linearGradient>
<linearGradient id="paint26_linear_18_222" x1="272.1" y1="43.2" x2="275.2" y2="43.2" gradientUnits="userSpaceOnUse">
<stop stop-color="#D2B059"/>
<stop offset="0.1" stop-color="#C09644"/>
<stop offset="0.2" stop-color="#B38335"/>
<stop offset="0.3" stop-color="#A9752A"/>
<stop offset="0.4" stop-color="#AD7A2D"/>
<stop offset="0.5" stop-color="#BA8B36"/>
<stop offset="0.6" stop-color="#D0A746"/>
<stop offset="0.7" stop-color="#E0BD56"/>
<stop offset="0.8" stop-color="#F1DA76"/>
<stop offset="0.9" stop-color="#FBEC8A"/>
<stop offset="1" stop-color="#FFF392"/>
</linearGradient>
<linearGradient id="paint27_linear_18_222" x1="275.7" y1="46.6" x2="278.8" y2="46.6" gradientUnits="userSpaceOnUse">
<stop stop-color="#D2B059"/>
<stop offset="0.1" stop-color="#C09644"/>
<stop offset="0.2" stop-color="#B38335"/>
<stop offset="0.3" stop-color="#A9752A"/>
<stop offset="0.4" stop-color="#AD7A2D"/>
<stop offset="0.5" stop-color="#BA8B36"/>
<stop offset="0.6" stop-color="#D0A746"/>
<stop offset="0.7" stop-color="#E0BD56"/>
<stop offset="0.8" stop-color="#F1DA76"/>
<stop offset="0.9" stop-color="#FBEC8A"/>
<stop offset="1" stop-color="#FFF392"/>
</linearGradient>
<linearGradient id="paint28_linear_18_222" x1="278.7" y1="50.6" x2="281.8" y2="50.6" gradientUnits="userSpaceOnUse">
<stop stop-color="#D2B059"/>
<stop offset="0.1" stop-color="#C09644"/>
<stop offset="0.2" stop-color="#B38335"/>
<stop offset="0.3" stop-color="#A9752A"/>
<stop offset="0.4" stop-color="#AD7A2D"/>
<stop offset="0.5" stop-color="#BA8B36"/>
<stop offset="0.6" stop-color="#D0A746"/>
<stop offset="0.7" stop-color="#E0BD56"/>
<stop offset="0.8" stop-color="#F1DA76"/>
<stop offset="0.9" stop-color="#FBEC8A"/>
<stop offset="1" stop-color="#FFF392"/>
</linearGradient>
<linearGradient id="paint29_linear_18_222" x1="281.2" y1="54.9" x2="284.3" y2="54.9" gradientUnits="userSpaceOnUse">
<stop stop-color="#D2B059"/>
<stop offset="0.1" stop-color="#C09644"/>
<stop offset="0.2" stop-color="#B38335"/>
<stop offset="0.3" stop-color="#A9752A"/>
<stop offset="0.4" stop-color="#AD7A2D"/>
<stop offset="0.5" stop-color="#BA8B36"/>
<stop offset="0.6" stop-color="#D0A746"/>
<stop offset="0.7" stop-color="#E0BD56"/>
<stop offset="0.8" stop-color="#F1DA76"/>
<stop offset="0.9" stop-color="#FBEC8A"/>
<stop offset="1" stop-color="#FFF392"/>
</linearGradient>
<linearGradient id="paint30_linear_18_222" x1="283" y1="59.6" x2="286.1" y2="59.6" gradientUnits="userSpaceOnUse">
<stop stop-color="#D2B059"/>
<stop offset="0.1" stop-color="#C09644"/>
<stop offset="0.2" stop-color="#B38335"/>
<stop offset="0.3" stop-color="#A9752A"/>
<stop offset="0.4" stop-color="#AD7A2D"/>
<stop offset="0.5" stop-color="#BA8B36"/>
<stop offset="0.6" stop-color="#D0A746"/>
<stop offset="0.7" stop-color="#E0BD56"/>
<stop offset="0.8" stop-color="#F1DA76"/>
<stop offset="0.9" stop-color="#FBEC8A"/>
<stop offset="1" stop-color="#FFF392"/>
</linearGradient>
<linearGradient id="paint31_linear_18_222" x1="284" y1="64.5" x2="287.2" y2="64.5" gradientUnits="userSpaceOnUse">
<stop stop-color="#D2B059"/>
<stop offset="0.1" stop-color="#C09644"/>
<stop offset="0.2" stop-color="#B38335"/>
<stop offset="0.3" stop-color="#A9752A"/>
<stop offset="0.4" stop-color="#AD7A2D"/>
<stop offset="0.5" stop-color="#BA8B36"/>
<stop offset="0.6" stop-color="#D0A746"/>
<stop offset="0.7" stop-color="#E0BD56"/>
<stop offset="0.8" stop-color="#F1DA76"/>
<stop offset="0.9" stop-color="#FBEC8A"/>
<stop offset="1" stop-color="#FFF392"/>
</linearGradient>
<linearGradient id="paint32_linear_18_222" x1="229.9" y1="80" x2="239.2" y2="80" gradientUnits="userSpaceOnUse">
<stop stop-color="#D2B059"/>
<stop offset="0.1" stop-color="#C09644"/>
<stop offset="0.2" stop-color="#B38335"/>
<stop offset="0.3" stop-color="#A9752A"/>
<stop offset="0.4" stop-color="#AD7A2D"/>
<stop offset="0.5" stop-color="#BA8B36"/>
<stop offset="0.6" stop-color="#D0A746"/>
<stop offset="0.7" stop-color="#E0BD56"/>
<stop offset="0.8" stop-color="#F1DA76"/>
<stop offset="0.9" stop-color="#FBEC8A"/>
<stop offset="1" stop-color="#FFF392"/>
</linearGradient>
<linearGradient id="paint33_linear_18_222" x1="244.4" y1="73.9" x2="245.3" y2="73.9" gradientUnits="userSpaceOnUse">
<stop stop-color="#D2B059"/>
<stop offset="0.1" stop-color="#C09644"/>
<stop offset="0.2" stop-color="#B38335"/>
<stop offset="0.3" stop-color="#A9752A"/>
<stop offset="0.4" stop-color="#AD7A2D"/>
<stop offset="0.5" stop-color="#BA8B36"/>
<stop offset="0.6" stop-color="#D0A746"/>
<stop offset="0.7" stop-color="#E0BD56"/>
<stop offset="0.8" stop-color="#F1DA76"/>
<stop offset="0.9" stop-color="#FBEC8A"/>
<stop offset="1" stop-color="#FFF392"/>
</linearGradient>
<linearGradient id="paint34_linear_18_222" x1="240.8" y1="65.8" x2="241.7" y2="65.8" gradientUnits="userSpaceOnUse">
<stop stop-color="#D2B059"/>
<stop offset="0.1" stop-color="#C09644"/>
<stop offset="0.2" stop-color="#B38335"/>
<stop offset="0.3" stop-color="#A9752A"/>
<stop offset="0.4" stop-color="#AD7A2D"/>
<stop offset="0.5" stop-color="#BA8B36"/>
<stop offset="0.6" stop-color="#D0A746"/>
<stop offset="0.7" stop-color="#E0BD56"/>
<stop offset="0.8" stop-color="#F1DA76"/>
<stop offset="0.9" stop-color="#FBEC8A"/>
<stop offset="1" stop-color="#FFF392"/>
</linearGradient>
<linearGradient id="paint35_linear_18_222" x1="242.7" y1="66.8" x2="243.6" y2="66.8" gradientUnits="userSpaceOnUse">
<stop stop-color="#D2B059"/>
<stop offset="0.1" stop-color="#C09644"/>
<stop offset="0.2" stop-color="#B38335"/>
<stop offset="0.3" stop-color="#A9752A"/>
<stop offset="0.4" stop-color="#AD7A2D"/>
<stop offset="0.5" stop-color="#BA8B36"/>
<stop offset="0.6" stop-color="#D0A746"/>
<stop offset="0.7" stop-color="#E0BD56"/>
<stop offset="0.8" stop-color="#F1DA76"/>
<stop offset="0.9" stop-color="#FBEC8A"/>
<stop offset="1" stop-color="#FFF392"/>
</linearGradient>
<linearGradient id="paint36_linear_18_222" x1="244.5" y1="67.9" x2="245.4" y2="67.9" gradientUnits="userSpaceOnUse">
<stop stop-color="#D2B059"/>
<stop offset="0.1" stop-color="#C09644"/>
<stop offset="0.2" stop-color="#B38335"/>
<stop offset="0.3" stop-color="#A9752A"/>
<stop offset="0.4" stop-color="#AD7A2D"/>
<stop offset="0.5" stop-color="#BA8B36"/>
<stop offset="0.6" stop-color="#D0A746"/>
<stop offset="0.7" stop-color="#E0BD56"/>
<stop offset="0.8" stop-color="#F1DA76"/>
<stop offset="0.9" stop-color="#FBEC8A"/>
<stop offset="1" stop-color="#FFF392"/>
</linearGradient>
<linearGradient id="paint37_linear_18_222" x1="242.1" y1="75.3" x2="243" y2="75.3" gradientUnits="userSpaceOnUse">
<stop stop-color="#D2B059"/>
<stop offset="0.1" stop-color="#C09644"/>
<stop offset="0.2" stop-color="#B38335"/>
<stop offset="0.3" stop-color="#A9752A"/>
<stop offset="0.4" stop-color="#AD7A2D"/>
<stop offset="0.5" stop-color="#BA8B36"/>
<stop offset="0.6" stop-color="#D0A746"/>
<stop offset="0.7" stop-color="#E0BD56"/>
<stop offset="0.8" stop-color="#F1DA76"/>
<stop offset="0.9" stop-color="#FBEC8A"/>
<stop offset="1" stop-color="#FFF392"/>
</linearGradient>
<linearGradient id="paint38_linear_18_222" x1="239.9" y1="76.6" x2="240.7" y2="76.6" gradientUnits="userSpaceOnUse">
<stop stop-color="#D2B059"/>
<stop offset="0.1" stop-color="#C09644"/>
<stop offset="0.2" stop-color="#B38335"/>
<stop offset="0.3" stop-color="#A9752A"/>
<stop offset="0.4" stop-color="#AD7A2D"/>
<stop offset="0.5" stop-color="#BA8B36"/>
<stop offset="0.6" stop-color="#D0A746"/>
<stop offset="0.7" stop-color="#E0BD56"/>
<stop offset="0.8" stop-color="#F1DA76"/>
<stop offset="0.9" stop-color="#FBEC8A"/>
<stop offset="1" stop-color="#FFF392"/>
</linearGradient>
<linearGradient id="paint39_linear_18_222" x1="237.1" y1="63.2" x2="238.1" y2="63.2" gradientUnits="userSpaceOnUse">
<stop stop-color="#D2B059"/>
<stop offset="0.1" stop-color="#C09644"/>
<stop offset="0.2" stop-color="#B38335"/>
<stop offset="0.3" stop-color="#A9752A"/>
<stop offset="0.4" stop-color="#AD7A2D"/>
<stop offset="0.5" stop-color="#BA8B36"/>
<stop offset="0.6" stop-color="#D0A746"/>
<stop offset="0.7" stop-color="#E0BD56"/>
<stop offset="0.8" stop-color="#F1DA76"/>
<stop offset="0.9" stop-color="#FBEC8A"/>
<stop offset="1" stop-color="#FFF392"/>
</linearGradient>
<linearGradient id="paint40_linear_18_222" x1="230.5" y1="62.1" x2="239.8" y2="62.1" gradientUnits="userSpaceOnUse">
<stop stop-color="#D2B059"/>
<stop offset="0.1" stop-color="#C09644"/>
<stop offset="0.2" stop-color="#B38335"/>
<stop offset="0.3" stop-color="#A9752A"/>
<stop offset="0.4" stop-color="#AD7A2D"/>
<stop offset="0.5" stop-color="#BA8B36"/>
<stop offset="0.6" stop-color="#D0A746"/>
<stop offset="0.7" stop-color="#E0BD56"/>
<stop offset="0.8" stop-color="#F1DA76"/>
<stop offset="0.9" stop-color="#FBEC8A"/>
<stop offset="1" stop-color="#FFF392"/>
</linearGradient>
<linearGradient id="paint41_linear_18_222" x1="249.6" y1="59.8" x2="250.3" y2="59.8" gradientUnits="userSpaceOnUse">
<stop stop-color="#D2B059"/>
<stop offset="0.1" stop-color="#C09644"/>
<stop offset="0.2" stop-color="#B38335"/>
<stop offset="0.3" stop-color="#A9752A"/>
<stop offset="0.4" stop-color="#AD7A2D"/>
<stop offset="0.5" stop-color="#BA8B36"/>
<stop offset="0.6" stop-color="#D0A746"/>
<stop offset="0.7" stop-color="#E0BD56"/>
<stop offset="0.8" stop-color="#F1DA76"/>
<stop offset="0.9" stop-color="#FBEC8A"/>
<stop offset="1" stop-color="#FFF392"/>
</linearGradient>
<linearGradient id="paint42_linear_18_222" x1="249.6" y1="82.5" x2="250.3" y2="82.5" gradientUnits="userSpaceOnUse">
<stop stop-color="#D2B059"/>
<stop offset="0.1" stop-color="#C09644"/>
<stop offset="0.2" stop-color="#B38335"/>
<stop offset="0.3" stop-color="#A9752A"/>
<stop offset="0.4" stop-color="#AD7A2D"/>
<stop offset="0.5" stop-color="#BA8B36"/>
<stop offset="0.6" stop-color="#D0A746"/>
<stop offset="0.7" stop-color="#E0BD56"/>
<stop offset="0.8" stop-color="#F1DA76"/>
<stop offset="0.9" stop-color="#FBEC8A"/>
<stop offset="1" stop-color="#FFF392"/>
</linearGradient>
<linearGradient id="paint43_linear_18_222" x1="252.026" y1="75.5736" x2="264.626" y2="75.5738" gradientUnits="userSpaceOnUse">
<stop stop-color="#D2B059"/>
<stop offset="0.1" stop-color="#C09644"/>
<stop offset="0.2" stop-color="#B38335"/>
<stop offset="0.3" stop-color="#A9752A"/>
<stop offset="0.4" stop-color="#AD7A2D"/>
<stop offset="0.5" stop-color="#BA8B36"/>
<stop offset="0.6" stop-color="#D0A746"/>
<stop offset="0.7" stop-color="#E0BD56"/>
<stop offset="0.8" stop-color="#F1DA76"/>
<stop offset="0.9" stop-color="#FBEC8A"/>
<stop offset="1" stop-color="#FFF392"/>
</linearGradient>
<linearGradient id="paint44_linear_18_222" x1="252.198" y1="66.7414" x2="261.797" y2="66.7415" gradientUnits="userSpaceOnUse">
<stop stop-color="#D2B059"/>
<stop offset="0.1" stop-color="#C09644"/>
<stop offset="0.2" stop-color="#B38335"/>
<stop offset="0.3" stop-color="#A9752A"/>
<stop offset="0.4" stop-color="#AD7A2D"/>
<stop offset="0.5" stop-color="#BA8B36"/>
<stop offset="0.6" stop-color="#D0A746"/>
<stop offset="0.7" stop-color="#E0BD56"/>
<stop offset="0.8" stop-color="#F1DA76"/>
<stop offset="0.9" stop-color="#FBEC8A"/>
<stop offset="1" stop-color="#FFF392"/>
</linearGradient>
<linearGradient id="paint45_linear_18_222" x1="245.3" y1="48.5" x2="254.6" y2="48.5" gradientUnits="userSpaceOnUse">
<stop stop-color="#D2B059"/>
<stop offset="0.1" stop-color="#C09644"/>
<stop offset="0.2" stop-color="#B38335"/>
<stop offset="0.3" stop-color="#A9752A"/>
<stop offset="0.4" stop-color="#AD7A2D"/>
<stop offset="0.5" stop-color="#BA8B36"/>
<stop offset="0.6" stop-color="#D0A746"/>
<stop offset="0.7" stop-color="#E0BD56"/>
<stop offset="0.8" stop-color="#F1DA76"/>
<stop offset="0.9" stop-color="#FBEC8A"/>
<stop offset="1" stop-color="#FFF392"/>
</linearGradient>
<linearGradient id="paint46_linear_18_222" x1="245.3" y1="70.7" x2="254.6" y2="70.7" gradientUnits="userSpaceOnUse">
<stop stop-color="#D2B059"/>
<stop offset="0.1" stop-color="#C09644"/>
<stop offset="0.2" stop-color="#B38335"/>
<stop offset="0.3" stop-color="#A9752A"/>
<stop offset="0.4" stop-color="#AD7A2D"/>
<stop offset="0.5" stop-color="#BA8B36"/>
<stop offset="0.6" stop-color="#D0A746"/>
<stop offset="0.7" stop-color="#E0BD56"/>
<stop offset="0.8" stop-color="#F1DA76"/>
<stop offset="0.9" stop-color="#FBEC8A"/>
<stop offset="1" stop-color="#FFF392"/>
</linearGradient>
<linearGradient id="paint47_linear_18_222" x1="259.2" y1="63" x2="268.5" y2="63" gradientUnits="userSpaceOnUse">
<stop stop-color="#D2B059"/>
<stop offset="0.1" stop-color="#C09644"/>
<stop offset="0.2" stop-color="#B38335"/>
<stop offset="0.3" stop-color="#A9752A"/>
<stop offset="0.4" stop-color="#AD7A2D"/>
<stop offset="0.5" stop-color="#BA8B36"/>
<stop offset="0.6" stop-color="#D0A746"/>
<stop offset="0.7" stop-color="#E0BD56"/>
<stop offset="0.8" stop-color="#F1DA76"/>
<stop offset="0.9" stop-color="#FBEC8A"/>
<stop offset="1" stop-color="#FFF392"/>
</linearGradient>
<linearGradient id="paint48_linear_18_222" x1="262.4" y1="80.7" x2="271.7" y2="80.7" gradientUnits="userSpaceOnUse">
<stop stop-color="#D2B059"/>
<stop offset="0.1" stop-color="#C09644"/>
<stop offset="0.2" stop-color="#B38335"/>
<stop offset="0.3" stop-color="#A9752A"/>
<stop offset="0.4" stop-color="#AD7A2D"/>
<stop offset="0.5" stop-color="#BA8B36"/>
<stop offset="0.6" stop-color="#D0A746"/>
<stop offset="0.7" stop-color="#E0BD56"/>
<stop offset="0.8" stop-color="#F1DA76"/>
<stop offset="0.9" stop-color="#FBEC8A"/>
<stop offset="1" stop-color="#FFF392"/>
</linearGradient>
<linearGradient id="paint49_linear_18_222" x1="245.3" y1="91.6" x2="254.6" y2="91.6" gradientUnits="userSpaceOnUse">
<stop stop-color="#D2B059"/>
<stop offset="0.1" stop-color="#C09644"/>
<stop offset="0.2" stop-color="#B38335"/>
<stop offset="0.3" stop-color="#A9752A"/>
<stop offset="0.4" stop-color="#AD7A2D"/>
<stop offset="0.5" stop-color="#BA8B36"/>
<stop offset="0.6" stop-color="#D0A746"/>
<stop offset="0.7" stop-color="#E0BD56"/>
<stop offset="0.8" stop-color="#F1DA76"/>
<stop offset="0.9" stop-color="#FBEC8A"/>
<stop offset="1" stop-color="#FFF392"/>
</linearGradient>
</defs>
</svg>
