<svg width="310" height="240" viewBox="0 0 310 240" fill="none" xmlns="http://www.w3.org/2000/svg">
<path d="M230.239 4.76341L13.3772 81.9844C5.98918 84.6151 2.13265 92.737 4.76341 100.125L47.198 219.295C49.8288 226.683 57.9506 230.54 65.3387 227.909L282.2 150.688C289.588 148.057 293.445 139.936 290.814 132.547L248.379 13.3772C245.749 5.98917 237.627 2.13265 230.239 4.76341Z" fill="url(#paint0_radial_24_54)"/>
<path opacity="0.3" d="M230.239 4.76344L13.3772 81.9844C5.98918 84.6152 2.13265 92.737 4.76341 100.125L47.198 219.295C49.8288 226.683 57.9506 230.54 65.3387 227.909L282.2 150.688C289.588 148.057 293.445 139.936 290.814 132.548L248.379 13.3772C245.749 5.9892 237.627 2.13268 230.239 4.76344Z" fill="url(#paint1_radial_24_54)"/>
<path d="M230.239 4.76341L13.3772 81.9844C5.98918 84.6151 2.13265 92.737 4.76341 100.125L47.198 219.295C49.8288 226.683 57.9506 230.54 65.3387 227.909L282.2 150.688C289.588 148.057 293.445 139.936 290.814 132.547L248.379 13.3772C245.749 5.98917 237.627 2.13265 230.239 4.76341Z" fill="url(#paint2_radial_24_54)"/>
<path opacity="0.3" d="M230.239 4.76344L13.3772 81.9844C5.98918 84.6152 2.13265 92.737 4.76341 100.125L47.198 219.295C49.8288 226.683 57.9506 230.54 65.3387 227.909L282.2 150.688C289.588 148.057 293.445 139.936 290.814 132.548L248.379 13.3772C245.749 5.9892 237.627 2.13268 230.239 4.76344Z" fill="url(#paint3_radial_24_54)"/>
<path opacity="0.6" d="M254.714 31.1994L11.0983 117.947L20.3903 144.042L264.006 57.2944L254.714 31.1994Z" fill="#D7B66F"/>
<path d="M295.633 84.734H65.4329C57.5905 84.734 51.2329 91.0916 51.2329 98.934V225.434C51.2329 233.276 57.5905 239.634 65.4329 239.634H295.633C303.475 239.634 309.833 233.276 309.833 225.434V98.934C309.833 91.0916 303.475 84.734 295.633 84.734Z" fill="url(#paint4_radial_24_54)"/>
<path opacity="0.3" d="M295.633 84.734H65.4329C57.5905 84.734 51.2329 91.0916 51.2329 98.934V225.434C51.2329 233.276 57.5905 239.634 65.4329 239.634H295.633C303.475 239.634 309.833 233.276 309.833 225.434V98.934C309.833 91.0916 303.475 84.734 295.633 84.734Z" fill="url(#paint5_radial_24_54)"/>
<path d="M295.633 84.734H65.4329C57.5905 84.734 51.2329 91.0916 51.2329 98.934V225.434C51.2329 233.276 57.5905 239.634 65.4329 239.634H295.633C303.475 239.634 309.833 233.276 309.833 225.434V98.934C309.833 91.0916 303.475 84.734 295.633 84.734Z" fill="url(#paint6_radial_24_54)"/>
<path opacity="0.3" d="M295.633 84.734H65.4329C57.5905 84.734 51.2329 91.0916 51.2329 98.934V225.434C51.2329 233.276 57.5905 239.634 65.4329 239.634H295.633C303.475 239.634 309.833 233.276 309.833 225.434V98.934C309.833 91.0916 303.475 84.734 295.633 84.734Z" fill="url(#paint7_radial_24_54)"/>
<path d="M116.433 138.334H87.0329C80.8474 138.334 75.8329 143.348 75.8329 149.534V159.934C75.8329 166.12 80.8474 171.134 87.0329 171.134H116.433C122.619 171.134 127.633 166.12 127.633 159.934V149.534C127.633 143.348 122.619 138.334 116.433 138.334Z" fill="url(#paint8_radial_24_54)"/>
<path d="M116.433 138.334H87.0329C80.8474 138.334 75.8329 143.348 75.8329 149.534V159.934C75.8329 166.12 80.8474 171.134 87.0329 171.134H116.433C122.619 171.134 127.633 166.12 127.633 159.934V149.534C127.633 143.348 122.619 138.334 116.433 138.334Z" fill="url(#paint9_radial_24_54)"/>
<path d="M155.133 186.934H81.6329C78.4297 186.934 75.8329 189.531 75.8329 192.734C75.8329 195.937 78.4297 198.534 81.6329 198.534H155.133C158.336 198.534 160.933 195.937 160.933 192.734C160.933 189.531 158.336 186.934 155.133 186.934Z" fill="#D7B66F"/>
<path d="M213.933 206.334H81.6329C78.4297 206.334 75.8329 208.931 75.8329 212.134C75.8329 215.337 78.4297 217.934 81.6329 217.934H213.933C217.136 217.934 219.733 215.337 219.733 212.134C219.733 208.931 217.136 206.334 213.933 206.334Z" fill="#D7B66F"/>
<defs>
<radialGradient id="paint0_radial_24_54" cx="0" cy="0" r="1" gradientUnits="userSpaceOnUse" gradientTransform="translate(226.087 341.678) rotate(-19.6) scale(600.39 343.08)">
<stop offset="0.5" stop-color="#0A2521"/>
<stop offset="0.6" stop-color="#125B50"/>
<stop offset="0.8" stop-color="#069B82"/>
<stop offset="0.9" stop-color="#5CC3B0"/>
</radialGradient>
<radialGradient id="paint1_radial_24_54" cx="0" cy="0" r="1" gradientUnits="userSpaceOnUse" gradientTransform="translate(226.087 341.678) rotate(-19.6) scale(600.39 343.08)">
<stop offset="0.5" stop-color="#0A2521"/>
<stop offset="0.6" stop-color="#125B50"/>
<stop offset="0.8" stop-color="#069B82"/>
<stop offset="0.9" stop-color="#5CC3B0"/>
</radialGradient>
<radialGradient id="paint2_radial_24_54" cx="0" cy="0" r="1" gradientUnits="userSpaceOnUse" gradientTransform="translate(226.087 341.678) rotate(-19.6) scale(600.39 343.08)">
<stop offset="0.5" stop-color="#0A2521" stop-opacity="0.1"/>
<stop offset="0.6" stop-color="#125B50" stop-opacity="0.1"/>
<stop offset="0.8" stop-color="#069B82"/>
<stop offset="0.9" stop-color="#5CC3B0" stop-opacity="0.7"/>
</radialGradient>
<radialGradient id="paint3_radial_24_54" cx="0" cy="0" r="1" gradientUnits="userSpaceOnUse" gradientTransform="translate(226.087 341.678) rotate(-19.6) scale(600.39 343.08)">
<stop offset="0.5" stop-color="#0A2521" stop-opacity="0.1"/>
<stop offset="0.6" stop-color="#125B50" stop-opacity="0.1"/>
<stop offset="0.8" stop-color="#069B82"/>
<stop offset="0.9" stop-color="#5CC3B0" stop-opacity="0.7"/>
</radialGradient>
<radialGradient id="paint4_radial_24_54" cx="0" cy="0" r="1" gradientUnits="userSpaceOnUse" gradientTransform="translate(177.743 392.274) scale(600.39 343.08)">
<stop offset="0.5" stop-color="#0A2521"/>
<stop offset="0.6" stop-color="#125B50"/>
<stop offset="0.8" stop-color="#069B82"/>
<stop offset="0.9" stop-color="#5CC3B0"/>
</radialGradient>
<radialGradient id="paint5_radial_24_54" cx="0" cy="0" r="1" gradientUnits="userSpaceOnUse" gradientTransform="translate(177.743 392.274) scale(600.39 343.08)">
<stop offset="0.5" stop-color="#0A2521"/>
<stop offset="0.6" stop-color="#125B50"/>
<stop offset="0.8" stop-color="#069B82"/>
<stop offset="0.9" stop-color="#5CC3B0"/>
</radialGradient>
<radialGradient id="paint6_radial_24_54" cx="0" cy="0" r="1" gradientUnits="userSpaceOnUse" gradientTransform="translate(177.743 392.274) scale(600.39 343.08)">
<stop offset="0.5" stop-color="#0A2521" stop-opacity="0.1"/>
<stop offset="0.6" stop-color="#125B50" stop-opacity="0.1"/>
<stop offset="0.8" stop-color="#069B82"/>
<stop offset="0.9" stop-color="#5CC3B0" stop-opacity="0.7"/>
</radialGradient>
<radialGradient id="paint7_radial_24_54" cx="0" cy="0" r="1" gradientUnits="userSpaceOnUse" gradientTransform="translate(177.743 392.274) scale(600.39 343.08)">
<stop offset="0.5" stop-color="#0A2521" stop-opacity="0.1"/>
<stop offset="0.6" stop-color="#125B50" stop-opacity="0.1"/>
<stop offset="0.8" stop-color="#069B82"/>
<stop offset="0.9" stop-color="#5CC3B0" stop-opacity="0.7"/>
</radialGradient>
<radialGradient id="paint8_radial_24_54" cx="0" cy="0" r="1" gradientUnits="userSpaceOnUse" gradientTransform="translate(101.733 153.674) scale(23.2 64.96)">
<stop offset="0.1" stop-color="#A97C50"/>
<stop offset="1" stop-color="#D7B66F"/>
</radialGradient>
<radialGradient id="paint9_radial_24_54" cx="0" cy="0" r="1" gradientUnits="userSpaceOnUse" gradientTransform="translate(101.733 153.674) scale(23.2 64.96)">
<stop offset="0.6" stop-color="#726658" stop-opacity="0.1"/>
<stop offset="1" stop-color="#D7B66F"/>
</radialGradient>
</defs>
</svg>
